<svg width="24" height="24" viewBox="0 0 24 24" fill="none" xmlns="http://www.w3.org/2000/svg">
<path d="M12 23.2388C17.9398 23.2388 22.755 18.4236 22.755 12.4838C22.755 6.54394 17.9398 1.72876 12 1.72876C6.06017 1.72876 1.245 6.54394 1.245 12.4838C1.245 18.4236 6.06017 23.2388 12 23.2388Z" fill="#D68F30"/>
<path d="M1.9762 15.2775V16.3763C2.0887 16.6669 2.21432 16.9538 2.3512 17.2313V15.2775H1.9762ZM3.20245 17.3456V18.6656C3.35245 18.8775 3.50807 19.0856 3.6712 19.2863V17.3456H3.20245ZM4.8262 19.0706V20.4938C5.00807 20.6569 5.19557 20.8125 5.3887 20.9625V19.0706H4.8262ZM6.82495 20.3813V21.9113C7.0087 22.0125 7.1962 22.1081 7.38745 22.2V20.3813H6.82495ZM9.09182 21.2156V22.8356C9.27745 22.8881 9.46495 22.935 9.65432 22.9781V21.2156H9.09182ZM11.7449 21.5044V23.2313C11.8293 23.2331 11.9137 23.2369 11.9999 23.2369C12.1031 23.2369 12.2062 23.2313 12.3074 23.2294V21.5044H11.7449ZM14.3981 21.2025V22.965C14.5874 22.9219 14.7749 22.8731 14.9606 22.8206V21.2025H14.3981ZM16.6593 20.3569V22.1775C16.8506 22.0856 17.0381 21.9863 17.2218 21.8831V20.3569H16.6593ZM18.6524 19.035V20.9288C18.8454 20.7779 19.0331 20.6203 19.2149 20.4563V19.035H18.6524ZM20.8293 17.3044H20.3606V19.245C20.5237 19.0425 20.6812 18.8344 20.8293 18.6206V17.3044ZM22.0481 15.2288H21.6731V17.1863C21.8099 16.9031 21.9356 16.6125 22.0481 16.3181V15.2288Z" fill="#BC6F00"/>
<path d="M12 22.2712C17.9398 22.2712 22.755 17.4561 22.755 11.5162C22.755 5.57641 17.9398 0.76123 12 0.76123C6.06017 0.76123 1.245 5.57641 1.245 11.5162C1.245 17.4561 6.06017 22.2712 12 22.2712Z" fill="#FFF176"/>
<path d="M12 21.3131C17.4107 21.3131 21.7969 16.9269 21.7969 11.5162C21.7969 6.10557 17.4107 1.71936 12 1.71936C6.58934 1.71936 2.20312 6.10557 2.20312 11.5162C2.20312 16.9269 6.58934 21.3131 12 21.3131Z" fill="#F2BC1A"/>
<path d="M2.18433 11.8912C2.11495 10.6012 2.33808 9.2925 2.78808 8.06625C3.25683 6.84375 3.97495 5.71312 4.88058 4.75312C6.69933 2.82937 9.33933 1.71375 12 1.70062C14.6606 1.71562 17.3025 2.82937 19.1175 4.755C20.025 5.71312 20.7412 6.84562 21.21 8.06625C21.6618 9.29437 21.885 10.6012 21.8137 11.8912H21.7762C21.7725 10.6044 21.5178 9.33056 21.0262 8.14125C20.5338 6.95328 19.8148 5.87254 18.9093 4.95937C18.0033 4.0471 16.9266 3.32207 15.7406 2.82562C14.5549 2.33059 13.2829 2.0757 11.9981 2.0757C10.7133 2.0757 9.4412 2.33059 8.25558 2.82562C7.06956 3.32207 5.99284 4.0471 5.08683 4.95937C4.18076 5.87205 3.46167 6.95291 2.96995 8.14125C2.4784 9.33056 2.22364 10.6044 2.21995 11.8912H2.18433Z" fill="#E08F00"/>
<path d="M12 0.763123C6.06 0.763123 1.245 5.57812 1.245 11.5181C1.245 17.4581 6.06 22.2731 12 22.2731C17.94 22.2731 22.755 17.4581 22.755 11.5181C22.755 5.57812 17.94 0.763123 12 0.763123ZM12 21.315C6.58875 21.315 2.20312 16.9294 2.20312 11.5181C2.20312 6.105 6.58875 1.71937 12 1.71937C17.4112 1.71937 21.7969 6.105 21.7969 11.5162C21.7969 16.9275 17.4112 21.315 12 21.315Z" fill="#FFF176"/>
<path d="M7.12316 4.00311L7.36129 4.73999L8.13754 4.44374V4.73999L7.50941 5.19561L7.74941 5.63436V5.93249L7.12316 5.47686L6.49504 5.93249V5.63436L6.73504 5.19561L6.10879 4.73999V4.44374L6.88316 4.73999L7.12316 4.00311ZM4.12691 8.23311L4.36691 8.96999L5.14129 8.67374V8.96999L4.51504 9.42561L4.75504 9.86624V10.1625L4.12691 9.70686L3.50066 10.1625V9.86624L3.74066 9.42561L3.11254 8.96999V8.67374L3.88879 8.96999L4.12691 8.23311ZM4.03879 13.4475L4.27879 14.1844L5.05316 13.8881V14.1844L4.42691 14.64L4.66691 15.0806V15.3769L4.03879 14.9212L3.41254 15.3769V15.0806L3.65254 14.64L3.02441 14.1844V13.8881L3.80066 14.1844L4.03879 13.4475ZM7.23754 17.5875L7.47754 18.3244L8.25191 18.0281V18.3244L7.62566 18.78L7.86566 19.2187V19.5169L7.23754 19.0612L6.61129 19.5169V19.2187L6.85129 18.78L6.22316 18.3244V18.0281L6.99941 18.3244L7.23754 17.5875ZM16.8769 4.00311L16.6388 4.73999L15.8625 4.44374V4.73999L16.4907 5.19561L16.2507 5.63436V5.93249L16.8769 5.47686L17.505 5.93249V5.63436L17.265 5.19561L17.8913 4.73999V4.44374L17.1169 4.73999L16.8769 4.00311ZM19.8732 8.23311L19.6332 8.96999L18.8588 8.67374V8.96999L19.485 9.42561L19.245 9.86624V10.1625L19.8732 9.70686L20.4994 10.1625V9.86624L20.2594 9.42561L20.8875 8.96999V8.67374L20.1113 8.96999L19.8732 8.23311ZM19.9613 13.4475L19.7213 14.1844L18.9469 13.8881V14.1844L19.5732 14.64L19.3332 15.0806V15.3769L19.9613 14.9212L20.5875 15.3769V15.0806L20.3475 14.64L20.9757 14.1844V13.8881L20.1994 14.1844L19.9613 13.4475ZM16.7625 17.5875L16.5225 18.3244L15.7482 18.0281V18.3244L16.3744 18.78L16.1344 19.2187V19.5169L16.7625 19.0612L17.3888 19.5169V19.2187L17.1488 18.78L17.7769 18.3244V18.0281L17.0007 18.3244L16.7625 17.5875Z" fill="#D38200"/>
<path d="M16.7625 17.2894L17.0007 18.0263H17.7769L17.1488 18.4819L17.3888 19.2188L16.7625 18.7631L16.1344 19.2188L16.3744 18.4819L15.7482 18.0263H16.5225L16.7625 17.2894ZM19.9613 13.1513L20.1994 13.8881H20.9757L20.3475 14.3438L20.5875 15.0806L19.9613 14.625L19.3332 15.0806L19.5732 14.3438L18.9469 13.8881H19.7213L19.9613 13.1513ZM19.8732 7.93689L20.1113 8.67377H20.8875L20.2594 9.12939L20.4994 9.86627L19.8732 9.41064L19.245 9.86627L19.485 9.12939L18.8588 8.67377H19.6332L19.8732 7.93689ZM16.8769 3.70502L17.1169 4.44189H17.8913L17.265 4.89752L17.505 5.63439L16.8769 5.17877L16.2507 5.63439L16.4907 4.89752L15.8625 4.44189H16.6388L16.8769 3.70502Z" fill="#FFF176"/>
<path d="M12.0094 19.2188L12.2494 19.9556L13.0237 19.6594V19.9556L12.3975 20.4112L12.6375 20.8519V21.1481L12.0094 20.6925L11.3831 21.1481V20.8519L11.6231 20.4112L10.995 19.9556V19.6594L11.7712 19.9556L12.0094 19.2188Z" fill="#D38200"/>
<path d="M12.0094 18.825L12.2494 19.5619H13.0237L12.3975 20.0175L12.6375 20.7544L12.0094 20.2988L11.3831 20.7544L11.6231 20.0175L10.995 19.5619H11.7712L12.0094 18.825Z" fill="#FFF176"/>
<path d="M12.0094 2.41687L12.2494 3.15374L13.0237 2.8575V3.15374L12.3975 3.60937L12.6375 4.05V4.34625L12.0094 3.89062L11.3831 4.34625V4.05L11.6231 3.60937L10.995 3.15374V2.8575L11.7712 3.15374L12.0094 2.41687Z" fill="#D38200"/>
<path d="M12.0094 2.12061L12.2494 2.85748H13.0238L12.3975 3.31311L12.6375 4.04998L12.0094 3.59436L11.3832 4.04998L11.6232 3.31311L10.995 2.85748H11.7713L12.0094 2.12061ZM7.23754 17.2894L6.99942 18.0262H6.22316L6.85129 18.4819L6.61129 19.2187L7.23754 18.7631L7.86566 19.2187L7.62566 18.4819L8.25191 18.0262H7.47754L7.23754 17.2894ZM4.03879 13.1512L3.80066 13.8881H3.02441L3.65254 14.3437L3.41254 15.0806L4.03879 14.625L4.66691 15.0806L4.42691 14.3437L5.05316 13.8881H4.27879L4.03879 13.1512ZM4.12691 7.93686L3.88879 8.67373H3.11254L3.74066 9.12935L3.50066 9.86623L4.12691 9.4106L4.75504 9.86623L4.51504 9.12935L5.14129 8.67373H4.36691L4.12691 7.93686ZM7.12317 3.70498L6.88316 4.44186H6.10879L6.73504 4.89748L6.49504 5.63436L7.12317 5.17873L7.74942 5.63436L7.50941 4.89748L8.13754 4.44186H7.36129L7.12317 3.70498Z" fill="#FFF176"/>
<path d="M17.8538 9.03753C17.8538 8.9719 6.15752 9.03753 6.15752 9.03753L6.05252 9.35253V9.89065C6.05252 9.98815 6.13127 10.0669 6.22877 10.0669H17.7713C17.8688 10.0669 17.9475 9.98815 17.9475 9.89065V9.36753L17.8538 9.03753ZM17.8706 16.0313H6.20627L5.42627 16.4232L5.43564 16.9275C5.43752 16.9819 5.48252 17.0269 5.53877 17.0269H18.4631C18.5175 17.0269 18.5644 16.9838 18.5663 16.9275L18.5756 16.4325L17.8706 16.0313Z" fill="#D38200"/>
<path d="M8.08688 14.4975H7.41563C7.305 14.4975 7.215 14.1487 7.215 14.0381L8.28563 14.0044C8.28563 14.115 8.19563 14.4975 8.08688 14.4975ZM8.31563 10.8769H7.185C7.10063 10.8769 7.0275 10.8206 7.00313 10.74L6.915 10.0031H8.57063L8.49563 10.74C8.47313 10.8206 8.4 10.8769 8.31563 10.8769ZM7.185 14.7206H8.31563C8.4 14.7206 8.56688 14.7731 8.58938 14.8537C8.58938 14.8537 8.58375 15.2044 8.58375 15.3431C8.58375 15.4819 8.52751 15.5831 8.40188 15.5831H7.09875C6.97313 15.5831 6.91688 15.4706 6.91688 15.3431C6.91688 15.2156 6.91125 14.8575 6.91125 14.8575C6.93563 14.7769 7.10063 14.7206 7.185 14.7206ZM16.8056 14.4975H16.1344C16.0238 14.4975 15.9338 14.1487 15.9338 14.0381L17.0044 14.0044C17.0044 14.115 16.9163 14.4975 16.8056 14.4975ZM17.0344 10.8769H15.9038C15.8194 10.8769 15.7463 10.8206 15.7219 10.74L15.6338 10.0031H17.2894L17.2144 10.74C17.1919 10.8206 17.1188 10.8769 17.0344 10.8769ZM15.9038 14.7206H17.0344C17.1188 14.7206 17.2856 14.7731 17.3081 14.8537C17.3081 14.8537 17.3025 15.2044 17.3025 15.3431C17.3025 15.4819 17.2463 15.5831 17.1206 15.5831H15.8175C15.6919 15.5831 15.6356 15.4706 15.6356 15.3431C15.6356 15.2156 15.63 14.8575 15.63 14.8575C15.6544 14.7769 15.8194 14.7206 15.9038 14.7206ZM13.8994 14.4975H13.2281C13.1175 14.4975 13.0275 14.1487 13.0275 14.0381L14.0981 14.0044C14.0981 14.115 14.01 14.4975 13.8994 14.4975ZM14.1281 10.8769H12.9975C12.9131 10.8769 12.84 10.8206 12.8156 10.74L12.7275 10.0031H14.3831L14.3081 10.74C14.2856 10.8206 14.2125 10.8769 14.1281 10.8769ZM12.9975 14.7206H14.1281C14.2125 14.7206 14.3794 14.7731 14.4019 14.8537C14.4019 14.8537 14.3963 15.2044 14.3963 15.3431C14.3963 15.4819 14.34 15.5831 14.2144 15.5831H12.9113C12.7856 15.5831 12.7294 15.4706 12.7294 15.3431C12.7294 15.2156 12.7238 14.8575 12.7238 14.8575C12.7481 14.7769 12.9131 14.7206 12.9975 14.7206ZM10.9931 14.4975H10.3219C10.2113 14.4975 10.1213 14.1487 10.1213 14.0381L11.1919 14.0044C11.1919 14.115 11.1038 14.4975 10.9931 14.4975ZM11.2219 10.8769H10.0913C10.0069 10.8769 9.93375 10.8206 9.90938 10.74L9.82125 10.0031H11.4769L11.4019 10.74C11.3794 10.8206 11.3063 10.8769 11.2219 10.8769ZM10.0913 14.7206H11.2219C11.3063 14.7206 11.4731 14.7731 11.4956 14.8537C11.4956 14.8537 11.49 15.2044 11.49 15.3431C11.49 15.4819 11.4338 15.5831 11.3081 15.5831H10.005C9.87938 15.5831 9.82313 15.4706 9.82313 15.3431C9.82313 15.2156 9.8175 14.8575 9.8175 14.8575C9.84188 14.7769 10.0069 14.7206 10.0913 14.7206Z" fill="#D38200"/>
<path d="M17.9381 8.53503C17.9381 8.4694 17.9044 8.40753 17.8537 8.37753L12.0075 5.05878L6.15374 8.37378C6.09749 8.40753 6.06187 8.4694 6.06187 8.53503L6.05249 9.3544C6.05249 9.45753 6.13687 9.5419 6.23999 9.5419H17.7581C17.8612 9.5419 17.9456 9.45753 17.9456 9.3544L17.9381 8.53503Z" fill="#FFF176"/>
<path d="M16.47 8.3119L12 5.77502L7.53003 8.3119H16.47Z" fill="#F2BC1A"/>
<path d="M14.8257 8.00252L12.0001 6.39752L9.17443 8.00252H14.8257ZM17.5107 15.3788H6.48944C6.38069 15.3788 6.27756 15.4256 6.20444 15.5063L5.44693 16.3519C5.39443 16.41 5.43569 16.5019 5.51444 16.5019H18.4857C18.5626 16.5019 18.6038 16.41 18.5532 16.3519L17.7938 15.5063C17.7226 15.4256 17.6176 15.3788 17.5107 15.3788ZM16.8057 14.1581H16.1344C16.0238 14.1581 15.9338 14.0681 15.9338 13.9575V10.9613C15.9338 10.8506 16.0238 10.7606 16.1344 10.7606H16.8057C16.9163 10.7606 17.0063 10.8506 17.0063 10.9613V13.9594C17.0063 14.07 16.9163 14.1581 16.8057 14.1581ZM17.0363 10.5375H15.9057C15.8213 10.5375 15.7482 10.4813 15.7238 10.4006L15.6376 10.1025C15.6019 9.98252 15.6938 9.86252 15.8194 9.86252H17.1226C17.2482 9.86252 17.3382 9.98252 17.3044 10.1025L17.2182 10.4006C17.1938 10.4813 17.1188 10.5375 17.0363 10.5375ZM15.9038 14.3831H17.0344C17.1188 14.3831 17.1919 14.4394 17.2163 14.52L17.3026 14.8181C17.3382 14.9381 17.2463 15.0581 17.1207 15.0581H15.8176C15.6919 15.0581 15.6019 14.9381 15.6357 14.8181L15.7219 14.52C15.7463 14.4375 15.8213 14.3831 15.9038 14.3831ZM8.08694 14.1581H7.41568C7.30506 14.1581 7.21506 14.0681 7.21506 13.9575V10.9613C7.21506 10.8506 7.30506 10.7606 7.41568 10.7606H8.08694C8.19756 10.7606 8.28756 10.8506 8.28756 10.9613V13.9594C8.28569 14.07 8.19569 14.1581 8.08694 14.1581ZM8.31568 10.5375H7.18506C7.10069 10.5375 7.02756 10.4813 7.00318 10.4006L6.91693 10.1025C6.88131 9.98252 6.97319 9.86252 7.09881 9.86252H8.40194C8.52756 9.86252 8.61756 9.98252 8.58381 10.1025L8.49756 10.4006C8.47318 10.4813 8.40006 10.5375 8.31568 10.5375ZM7.18506 14.3831H8.31568C8.40006 14.3831 8.47318 14.4394 8.49756 14.52L8.58381 14.8181C8.61943 14.9381 8.52756 15.0581 8.40194 15.0581H7.09881C6.97319 15.0581 6.88318 14.9381 6.91693 14.8181L7.00318 14.52C7.02756 14.4375 7.10069 14.3831 7.18506 14.3831ZM10.9932 14.1581H10.3219C10.2113 14.1581 10.1213 14.0681 10.1213 13.9575V10.9613C10.1213 10.8506 10.2113 10.7606 10.3219 10.7606H10.9932C11.1038 10.7606 11.1938 10.8506 11.1938 10.9613V13.9594C11.1933 14.0123 11.172 14.0628 11.1344 14.1001C11.0968 14.1373 11.0461 14.1582 10.9932 14.1581ZM11.2219 10.5375H10.0913C10.0069 10.5375 9.93381 10.4813 9.90943 10.4006L9.82318 10.1025C9.78756 9.98252 9.87943 9.86252 10.0051 9.86252H11.3082C11.4338 9.86252 11.5238 9.98252 11.4901 10.1025L11.4038 10.4006C11.3794 10.4813 11.3063 10.5375 11.2219 10.5375ZM10.0913 14.3831H11.2219C11.3063 14.3831 11.3794 14.4394 11.4038 14.52L11.4901 14.8181C11.5257 14.9381 11.4338 15.0581 11.3082 15.0581H10.0051C9.87943 15.0581 9.78943 14.9381 9.82318 14.8181L9.90943 14.52C9.93381 14.4375 10.0069 14.3831 10.0913 14.3831ZM13.8994 14.1581H13.2282C13.1176 14.1581 13.0276 14.0681 13.0276 13.9575V10.9613C13.0276 10.8506 13.1176 10.7606 13.2282 10.7606H13.8994C14.0101 10.7606 14.1001 10.8506 14.1001 10.9613V13.9594C14.0996 14.0123 14.0782 14.0628 14.0406 14.1001C14.0031 14.1373 13.9523 14.1582 13.8994 14.1581ZM14.1282 10.5375H12.9976C12.9132 10.5375 12.8401 10.4813 12.8157 10.4006L12.7294 10.1025C12.6938 9.98252 12.7857 9.86252 12.9113 9.86252H14.2144C14.3401 9.86252 14.4301 9.98252 14.3963 10.1025L14.3101 10.4006C14.2857 10.4813 14.2126 10.5375 14.1282 10.5375ZM12.9976 14.3831H14.1282C14.2126 14.3831 14.2857 14.4394 14.3101 14.52L14.3963 14.8181C14.4319 14.9381 14.3401 15.0581 14.2144 15.0581H12.9113C12.7857 15.0581 12.6957 14.9381 12.7294 14.8181L12.8157 14.52C12.8401 14.4375 12.9151 14.3831 12.9976 14.3831Z" fill="#FFF176"/>
</svg>
