<svg width="104" height="26" viewBox="0 0 104 26" fill="none" xmlns="http://www.w3.org/2000/svg">
<path d="M4.54663 5.35857C3.81779 10.5349 3.81779 15.8474 4.54663 21.0237C4.81289 22.9148 6.03222 24.4208 7.6132 24.7999C14.856 26.537 92.8063 26.2792 100.079 24.7267L103.039 24.0946C103.952 23.8997 104.317 22.5745 103.679 21.7739L97.5912 14.1444C97.0073 13.4127 97.0073 12.2644 97.5912 11.5325L103.679 3.90314C104.317 3.10261 103.952 1.77741 103.039 1.58249L100.079 0.950336C92.8064 -0.602004 14.856 -0.154737 7.6132 1.58247C6.03222 1.9615 4.81289 3.46758 4.54663 5.35857Z" fill="#2157AD"/>
<path d="M38.8232 8.04688L37.0938 18H34.8242L32.4521 11.7178L31.3584 18H29.0205L30.7432 8.04688H33.0264L35.3984 14.3291L36.4854 8.04688H38.8232ZM42.1182 18.1367C41.6077 18.1276 41.1429 18.0342 40.7236 17.8564C40.3044 17.6742 39.9489 17.4235 39.6572 17.1045C39.3656 16.7855 39.1491 16.4118 39.0078 15.9834C38.8711 15.5505 38.821 15.0788 38.8574 14.5684L38.8848 14.3018C38.9395 13.764 39.0671 13.2627 39.2676 12.7979C39.4681 12.3285 39.737 11.9183 40.0742 11.5674C40.4115 11.2119 40.8079 10.9362 41.2637 10.7402C41.724 10.5443 42.2389 10.4531 42.8086 10.4668C43.3236 10.4759 43.7679 10.5785 44.1416 10.7744C44.5199 10.9704 44.8275 11.237 45.0645 11.5742C45.3014 11.9069 45.4655 12.2897 45.5566 12.7227C45.6523 13.151 45.6751 13.6068 45.625 14.0898L45.4951 15.0264H39.6162L39.8486 13.584L43.4717 13.5908L43.5127 13.3926C43.5446 13.1784 43.5355 12.9847 43.4854 12.8115C43.4352 12.6383 43.3418 12.5016 43.2051 12.4014C43.0684 12.2965 42.8838 12.2396 42.6514 12.2305C42.3688 12.2259 42.1341 12.2874 41.9473 12.415C41.765 12.5426 41.6169 12.7113 41.5029 12.9209C41.3936 13.1305 41.3092 13.3584 41.25 13.6045C41.1908 13.846 41.1475 14.0785 41.1201 14.3018L41.0928 14.5615C41.0745 14.7848 41.0814 15.0013 41.1133 15.2109C41.1452 15.4206 41.209 15.6097 41.3047 15.7783C41.4049 15.9469 41.5394 16.0837 41.708 16.1885C41.8766 16.2887 42.0885 16.3434 42.3438 16.3525C42.6855 16.3617 43.0046 16.2979 43.3008 16.1611C43.597 16.0244 43.8636 15.8376 44.1006 15.6006L45.0371 16.8447C44.832 17.1546 44.5677 17.4053 44.2441 17.5967C43.9206 17.7835 43.5719 17.9202 43.1982 18.0068C42.8291 18.098 42.4691 18.1413 42.1182 18.1367ZM48.4482 15.6895L50.6289 10.6035H52.0918L51.1074 13.3037L49.0088 18H47.833L48.4482 15.6895ZM48.8037 10.6035L48.7285 15.874L48.4482 18H47.1084L46.6914 10.6035H48.8037ZM52.3789 15.5391L54.0469 10.6035H56.248L53.2812 18H51.873L52.3789 15.5391ZM52.2012 10.6035L52.6523 15.9082L52.4814 18H51.374L50.9092 13.126L50.8818 10.6035H52.2012ZM64.0615 13.7686H61.4707L61.7373 12.1963L63.6377 12.2031C63.9157 12.2031 64.1823 12.1712 64.4375 12.1074C64.6973 12.0391 64.916 11.9206 65.0938 11.752C65.276 11.5833 65.3923 11.3441 65.4424 11.0342C65.4834 10.7516 65.4606 10.5306 65.374 10.3711C65.2874 10.207 65.1484 10.0908 64.957 10.0225C64.7702 9.94954 64.5469 9.91081 64.2871 9.90625L63.0361 9.89941L61.6279 18H59.29L61.0127 8.04688L64.3623 8.05371C64.7952 8.05827 65.2236 8.10612 65.6475 8.19727C66.0713 8.28841 66.4518 8.43652 66.7891 8.6416C67.1263 8.84212 67.3906 9.11556 67.582 9.46191C67.7734 9.80371 67.8532 10.2321 67.8213 10.7471C67.7894 11.3076 67.6322 11.7633 67.3496 12.1143C67.0716 12.4606 66.7116 12.7181 66.2695 12.8867C65.8275 13.0508 65.349 13.1396 64.834 13.1533L64.0615 13.7686ZM63.2686 18H60.124L61.2451 16.1543L63.3438 16.1611C63.6035 16.1566 63.8473 16.1133 64.0752 16.0312C64.3076 15.9492 64.5013 15.8216 64.6562 15.6484C64.8158 15.4707 64.9183 15.2451 64.9639 14.9717C65.0049 14.7393 65.0003 14.5365 64.9502 14.3633C64.9046 14.1855 64.8089 14.0465 64.6631 13.9463C64.5218 13.846 64.3304 13.7891 64.0889 13.7754L62.0039 13.7686L62.291 12.1963L64.5605 12.2031L64.9707 12.8252C65.431 12.8298 65.8389 12.9118 66.1943 13.0713C66.5498 13.2308 66.8232 13.4723 67.0146 13.7959C67.2106 14.1149 67.2926 14.516 67.2607 14.999C67.2152 15.7419 67.001 16.3343 66.6182 16.7764C66.2354 17.2139 65.7477 17.5283 65.1553 17.7197C64.5628 17.9111 63.9339 18.0046 63.2686 18ZM68.3135 14.418L68.3271 14.2744C68.3864 13.7412 68.5163 13.2422 68.7168 12.7773C68.9173 12.3125 69.1839 11.9046 69.5166 11.5537C69.8538 11.2028 70.2503 10.9316 70.7061 10.7402C71.1618 10.5443 71.6722 10.4531 72.2373 10.4668C72.7796 10.4759 73.249 10.5807 73.6455 10.7812C74.042 10.9818 74.3678 11.2552 74.623 11.6016C74.8783 11.9434 75.0583 12.3398 75.1631 12.791C75.2725 13.2376 75.3044 13.7139 75.2588 14.2197L75.2451 14.3701C75.1859 14.8988 75.0537 15.3932 74.8486 15.8535C74.6436 16.3138 74.3724 16.7171 74.0352 17.0635C73.7025 17.4098 73.3083 17.6787 72.8525 17.8701C72.3968 18.0615 71.8887 18.1504 71.3281 18.1367C70.7949 18.1276 70.3278 18.0251 69.9268 17.8291C69.5303 17.6286 69.2044 17.3597 68.9492 17.0225C68.694 16.6807 68.5117 16.2887 68.4023 15.8467C68.2975 15.4001 68.2679 14.9238 68.3135 14.418ZM70.5762 14.2744L70.5625 14.418C70.5488 14.6048 70.5397 14.8099 70.5352 15.0332C70.5352 15.252 70.5602 15.4639 70.6104 15.6689C70.6605 15.8695 70.7516 16.0358 70.8838 16.168C71.0205 16.2956 71.2165 16.3639 71.4717 16.373C71.7451 16.3822 71.973 16.3252 72.1553 16.2021C72.3421 16.0791 72.4925 15.915 72.6064 15.71C72.7204 15.5049 72.807 15.2839 72.8662 15.0469C72.93 14.8099 72.9733 14.582 72.9961 14.3633L73.0098 14.2197C73.0234 14.0374 73.0303 13.8346 73.0303 13.6113C73.0348 13.3835 73.012 13.167 72.9619 12.9619C72.9118 12.7568 72.8184 12.5882 72.6816 12.4561C72.5449 12.3193 72.349 12.2464 72.0938 12.2373C71.8203 12.2282 71.5902 12.2874 71.4033 12.415C71.221 12.5426 71.0729 12.7113 70.959 12.9209C70.8451 13.126 70.7585 13.3493 70.6992 13.5908C70.64 13.8278 70.599 14.0557 70.5762 14.2744ZM75.9424 14.418L75.9561 14.2744C76.0153 13.7412 76.1452 13.2422 76.3457 12.7773C76.5462 12.3125 76.8128 11.9046 77.1455 11.5537C77.4827 11.2028 77.8792 10.9316 78.335 10.7402C78.7907 10.5443 79.3011 10.4531 79.8662 10.4668C80.4085 10.4759 80.8779 10.5807 81.2744 10.7812C81.6709 10.9818 81.9967 11.2552 82.252 11.6016C82.5072 11.9434 82.6872 12.3398 82.792 12.791C82.9014 13.2376 82.9333 13.7139 82.8877 14.2197L82.874 14.3701C82.8148 14.8988 82.6826 15.3932 82.4775 15.8535C82.2725 16.3138 82.0013 16.7171 81.6641 17.0635C81.3314 17.4098 80.9372 17.6787 80.4814 17.8701C80.0257 18.0615 79.5176 18.1504 78.957 18.1367C78.4238 18.1276 77.9567 18.0251 77.5557 17.8291C77.1592 17.6286 76.8333 17.3597 76.5781 17.0225C76.3229 16.6807 76.1406 16.2887 76.0312 15.8467C75.9264 15.4001 75.8968 14.9238 75.9424 14.418ZM78.2051 14.2744L78.1914 14.418C78.1777 14.6048 78.1686 14.8099 78.1641 15.0332C78.1641 15.252 78.1891 15.4639 78.2393 15.6689C78.2894 15.8695 78.3805 16.0358 78.5127 16.168C78.6494 16.2956 78.8454 16.3639 79.1006 16.373C79.374 16.3822 79.6019 16.3252 79.7842 16.2021C79.971 16.0791 80.1214 15.915 80.2354 15.71C80.3493 15.5049 80.4359 15.2839 80.4951 15.0469C80.5589 14.8099 80.6022 14.582 80.625 14.3633L80.6387 14.2197C80.6523 14.0374 80.6592 13.8346 80.6592 13.6113C80.6637 13.3835 80.641 13.167 80.5908 12.9619C80.5407 12.7568 80.4473 12.5882 80.3105 12.4561C80.1738 12.3193 79.9779 12.2464 79.7227 12.2373C79.4492 12.2282 79.2191 12.2874 79.0322 12.415C78.8499 12.5426 78.7018 12.7113 78.5879 12.9209C78.474 13.126 78.3874 13.3493 78.3281 13.5908C78.2689 13.8278 78.2279 14.0557 78.2051 14.2744ZM87.2969 7.49316L85.4717 18H83.2227L85.0479 7.49316H87.2969ZM91.4258 10.6035L87.625 14.4043L85.7178 16.0654L84.9316 14.4863L86.5654 12.7158L88.5752 10.6035H91.4258ZM87.7139 18L86.3535 14.5479L88.124 13.3994L90.1885 18H87.7139Z" fill="white"/>
<g clip-path="url(#clip0_391_18325)">
<path d="M25.295 18.8895C25.295 19.6382 24.9976 20.3562 24.4682 20.8856C23.9388 21.415 23.2208 21.7124 22.4722 21.7124H4.12363C3.37496 21.7124 2.65696 21.415 2.12757 20.8856C1.59819 20.3562 1.30078 19.6382 1.30078 18.8895V4.99618C1.30078 3.43726 5.38756 0.541016 6.94648 0.541016H21.5018C23.6853 0.541016 25.295 2.17262 25.295 4.33422V18.8895Z" fill="#2157AD"/>
<path d="M23.8833 21.7124C23.8833 22.461 23.5859 23.179 23.0565 23.7084C22.5271 24.2378 21.8091 24.5352 21.0604 24.5352H5.53477C4.7861 24.5352 4.0681 24.2378 3.53871 23.7084C3.00932 23.179 2.71192 22.461 2.71192 21.7124V4.77525C2.71192 1.86842 2.6971 1.9524 6.24048 1.9524H21.0604C21.8091 1.9524 22.5271 2.24981 23.0565 2.77919C23.5859 3.30858 23.8833 4.02658 23.8833 4.77525V21.7124Z" fill="#8FCCF4"/>
<path d="M22.4722 22.4185C22.4722 22.98 22.2491 23.5185 21.8521 23.9155C21.455 24.3126 20.9165 24.5356 20.355 24.5356H3.41792C2.85642 24.5356 2.31792 24.3126 1.92088 23.9155C1.52384 23.5185 1.30078 22.98 1.30078 22.4185V5.4814C1.30078 4.9199 1.52384 4.38139 1.92088 3.98435C2.31792 3.58731 2.85642 3.36426 3.41792 3.36426H20.355C20.9165 3.36426 21.455 3.58731 21.8521 3.98435C22.2491 4.38139 22.4722 4.9199 22.4722 5.4814V22.4185Z" fill="white"/>
<path d="M22.4725 23.1239C22.4725 23.8726 22.1751 24.5906 21.6457 25.12C21.1163 25.6494 20.3983 25.9468 19.6496 25.9468H4.82969C4.08102 25.9468 3.36302 25.6494 2.83363 25.12C2.30424 24.5906 2.00684 23.8726 2.00684 23.1239V7.59824C2.00684 6.84957 2.30424 6.13157 2.83363 5.60218C3.36302 5.0728 4.08102 4.77539 4.82969 4.77539H19.6496C20.3983 4.77539 21.1163 5.0728 21.6457 5.60218C22.1751 6.13157 22.4725 6.84957 22.4725 7.59824V23.1239Z" fill="#2157AD"/>
<path d="M21.0611 23.1236C21.0611 23.8723 20.7637 24.5903 20.2343 25.1197C19.7049 25.6491 18.9869 25.9465 18.2382 25.9465H4.82969C4.08102 25.9465 3.36302 25.6491 2.83363 25.1197C2.30424 24.5903 2.00684 23.8723 2.00684 23.1236V9.00937C2.00684 8.26071 2.30424 7.5427 2.83363 7.01332C3.36302 6.48393 4.08102 6.18652 4.82969 6.18652H18.4746C20.0336 6.18652 21.0611 7.21404 21.0611 8.77296V23.1236Z" fill="#E0EEF8"/>
<path d="M4.82934 4.77529C3.6381 4.77529 3.60776 3.41891 4.12363 2.83458C4.71078 2.17051 5.62327 1.95244 7.25558 1.95244H8.35791V0.541016H6.43907C3.6381 0.541016 1.30078 2.3053 1.30078 4.33422V23.1238C1.30078 23.8725 1.59819 24.5905 2.12757 25.1199C2.65696 25.6493 3.37496 25.9467 4.12363 25.9467H5.53506V4.77529H4.82934Z" fill="#2157AD"/>
<path d="M12.5908 3.36426V19.5956L15.4137 15.3614L18.2365 19.5956V3.36426H12.5908Z" fill="#E20A62"/>
<path d="M18.2372 20.301C18.121 20.301 18.0067 20.2724 17.9042 20.2176C17.8018 20.1628 17.7145 20.0836 17.65 19.987L15.4143 16.6334L13.1786 19.987C13.0952 20.114 12.9729 20.2106 12.83 20.2623C12.6871 20.3141 12.5313 20.3183 12.3858 20.2742C12.2404 20.2302 12.1131 20.1402 12.023 20.0179C11.9328 19.8955 11.8847 19.7473 11.8858 19.5953V3.36392C11.8858 3.17675 11.9601 2.99725 12.0925 2.8649C12.2248 2.73255 12.4043 2.6582 12.5915 2.6582H18.2372C18.4243 2.6582 18.6038 2.73255 18.7362 2.8649C18.8685 2.99725 18.9429 3.17675 18.9429 3.36392V19.5953C18.9429 19.7825 18.8685 19.962 18.7362 20.0943C18.6038 20.2267 18.4243 20.301 18.2372 20.301ZM15.4143 14.6553C15.65 14.6553 15.8702 14.7732 16.0015 14.9694L17.5315 17.2643V4.06963H13.2972V17.2643L14.8272 14.9694C14.9584 14.7732 15.1786 14.6553 15.4143 14.6553Z" fill="#E20A62"/>
<path d="M11.1797 1.95312H19.6482V3.36455H11.1797V1.95312Z" fill="#E20A62"/>
</g>
<defs>
<clipPath id="clip0_391_18325">
<rect width="25.4057" height="25.4057" fill="white" transform="translate(0.594727 0.541016)"/>
</clipPath>
</defs>
</svg>
