<svg width="24" height="24" viewBox="0 0 24 24" fill="none" xmlns="http://www.w3.org/2000/svg">
<path d="M7 6.2H8H8.9H15.1H16H17L17.9 4.5C18.2 4 18.2 3.4 17.9 2.9C17.6 2.3 17 2 16.4 2H7.6C7 2 6.4 2.3 6.1 2.8C5.8 3.3 5.8 3.9 6.1 4.4L7 6.2Z" fill="#098041"/>
<path d="M20.5999 12L17.2999 7.79999H16.1999H15.0999H8.79995H7.69995H6.69995L3.39995 12C1.79995 14 1.59995 16.7 2.89995 18.9C3.89995 20.8 5.99995 22 8.19995 22H15.8999C18.0999 22 20.1999 20.8 21.2999 18.9C22.3999 16.7 22.1999 14 20.5999 12Z" fill="#098041"/>
</svg>
