<svg width="35" height="33" viewBox="0 0 35 33" fill="none" xmlns="http://www.w3.org/2000/svg">
<path opacity="0.2" d="M21.8128 16.7319L16.4266 16.8138C16.4266 16.5737 16.4175 16.3139 16.4077 16.0623L21.6456 16.0156L21.8095 16.727L21.8128 16.7319Z" fill="white"/>
<path d="M14.9144 16.0723L14.2852 16.078L14.2991 15.7297L14.8726 15.7248C14.8857 15.824 14.9005 15.9411 14.9144 16.0723Z" fill="#00162D"/>
<path opacity="0.2" d="M14.8725 15.7247L14.299 15.7297L14.285 16.078L14.9143 16.0722C14.9364 16.2878 14.956 16.5426 14.9667 16.8319L13.6222 16.8508H13.4911C13.3344 16.854 13.1789 16.8239 13.0347 16.7623C12.796 16.6607 12.5995 16.4799 12.4783 16.2504C12.3571 16.0209 12.3187 15.7566 12.3695 15.5021C12.4203 15.2475 12.5571 15.0183 12.7571 14.8529C12.9571 14.6874 13.2079 14.5959 13.4673 14.5938H13.5337L21.3058 14.5463H21.3688V14.8175L21.5671 15.6723L16.3907 15.7125L14.8725 15.7247Z" fill="white"/>
<path d="M21.8494 16.8702L21.8126 16.7317L21.8101 16.7227L21.6454 16.0113L21.5676 15.6729L21.3685 14.8181V14.5468L21.3644 13.1184L21.3447 5.45087L21.8773 7.43823V7.43987V7.44069L21.9133 7.57673L21.8797 11.8866L21.8494 16.8702Z" fill="#B1CBF4"/>
<path d="M22.0055 17.4596C22.0055 17.4596 21.9719 17.331 21.9687 17.3203L21.813 16.7319L21.8425 11.7483L21.8228 7.23273L22.103 7.25158V12.976L22.0858 14.4028L22.0719 15.5297L22.0678 15.8689L22.0055 17.4596Z" fill="#2258AE"/>
<path d="M15.9056 7.45798L15.9055 7.45798L15.8605 11.9327C15.8605 11.9329 15.8605 11.933 15.8605 11.9331C15.8597 12.0724 15.8866 12.2105 15.9395 12.3394C15.9925 12.4685 16.0705 12.5857 16.169 12.6844C16.2675 12.783 16.3846 12.8612 16.5135 12.9144C16.6424 12.9675 16.7804 12.9945 16.9197 12.994L16.92 12.994M15.9056 7.45798L16.9206 13.144L16.92 12.994M15.9056 7.45798L15.9055 7.45434L15.8626 4.43052L21.1916 4.44991L21.1916 5.45599L21.1916 5.45644L21.2141 12.9695M15.9056 7.45798L21.2141 12.9695M16.92 12.994L21.2141 12.9695M16.92 12.994L21.2141 12.9695" stroke="#2258AE" stroke-width="0.3"/>
<path d="M16.9222 13.3982L21.1155 13.3742L21.1181 14.2982L13.7837 14.3431V4.5195L15.4633 4.52582L15.5048 7.45379L15.4606 11.9295L15.4606 11.9298C15.4589 12.1225 15.4955 12.3136 15.5682 12.4921C15.641 12.6706 15.7484 12.8328 15.8843 12.9694C16.0203 13.106 16.182 13.2143 16.3601 13.2879C16.5382 13.3615 16.7291 13.399 16.9218 13.3982L16.9222 13.3982Z" stroke="#2258AE" stroke-width="0.5"/>
<path d="M13.4894 17.2907L13.4788 16.9994C13.3072 17.0028 13.1366 16.971 12.9776 16.9058C12.9776 16.9058 12.9775 16.9058 12.9775 16.9057L13.0344 16.767C12.7916 16.6679 12.5908 16.4875 12.4665 16.2565C12.3423 16.0256 12.3022 15.7585 12.3533 15.5013C12.4044 15.244 12.5434 15.0126 12.7464 14.8466C12.9467 14.683 13.1968 14.5932 13.4552 14.5919L13.4894 17.2907ZM13.4894 17.2907C13.0175 17.29 12.6999 17.1483 12.4822 16.9469C12.2506 16.7326 12.1168 16.4364 12.0442 16.1242C11.9718 15.8125 11.9631 15.4959 11.9733 15.2547C11.9784 15.1347 11.9881 15.0347 11.9964 14.9651C12.0006 14.9304 12.0044 14.9033 12.0071 14.8852L12.0103 14.8649L12.0111 14.8602L12.0113 14.8592L12.0113 14.8592L12.0113 14.8591L12.0113 14.8591L12.0134 14.8471L12.0136 14.8349L12.116 7.19112L12.1167 7.19113L12.1156 7.17708C11.9871 5.58125 12.3758 4.91361 12.7404 4.63231C12.9258 4.48925 13.1183 4.43484 13.2652 4.41619C13.3092 4.41061 13.3488 4.40827 13.3826 4.40771M13.4894 17.2907L13.3826 4.40771M13.4667 14.4419C13.4668 14.4419 13.4669 14.4419 13.4669 14.4419L13.5326 14.4419V4.41585H13.5268H13.514L13.5021 4.41379L13.502 4.41378L13.4667 14.4419ZM13.4667 14.4419H13.4662V14.5919L13.4667 14.4419ZM13.3826 4.40771V14.4443V4.40771Z" stroke="#2258AE" stroke-width="0.3"/>
<path d="M21.6457 16.0114L16.4078 16.0581C16.4029 15.9409 16.3972 15.8245 16.3906 15.7131L21.5671 15.6729L21.6457 16.0114Z" fill="#00162D"/>
<path d="M14.9748 17.4229C14.4586 17.4229 14.0022 17.432 13.645 17.441L13.6221 16.8517L14.9666 16.8329C14.9739 17.0132 14.9772 17.2131 14.9748 17.4229Z" fill="#2258AE"/>
<path d="M22.0055 17.4599H21.8457C21.1681 17.4517 18.6545 17.4247 16.4309 17.4222C16.4309 17.2518 16.4309 17.0403 16.4268 16.8117L21.813 16.7297L21.8498 16.8682L22.0055 17.4599Z" fill="#2258AE"/>
<path d="M15.9373 19.3078C16.0692 18.3661 15.7128 17.5343 15.553 17.7506C15.3482 18.0268 14.855 18.9857 14.855 18.9857C14.9283 18.4698 14.9683 17.9496 14.9746 17.4286C14.9746 17.2196 14.9746 17.0188 14.9664 16.8385C14.9558 16.5492 14.9361 16.2943 14.914 16.0788C14.9 15.9477 14.8853 15.8329 14.8722 15.7313L16.3904 15.7198C16.3969 15.8313 16.4027 15.9477 16.4076 16.0649C16.4174 16.3165 16.4232 16.5763 16.4264 16.8164C16.4297 17.0565 16.4305 17.2565 16.4305 17.4269C16.4305 17.6728 16.4305 17.8367 16.4305 17.8367C16.3744 18.3569 16.2061 18.8588 15.9373 19.3078Z" fill="#0069E9"/>
<path d="M10.7132 23.2793L7.65408 18.8762C7.47283 18.6155 7.37598 18.3079 7.37598 17.9932V10.7901C7.37616 10.583 7.33438 10.3779 7.25302 10.1865C7.17166 9.99517 7.05231 9.82126 6.9018 9.67476C6.7513 9.52826 6.57258 9.41204 6.37586 9.33275C6.17915 9.25346 5.9683 9.21265 5.75536 9.21265H5.61631C5.40348 9.21282 5.19278 9.25377 4.99623 9.33314C4.79967 9.41251 4.62112 9.52875 4.47076 9.67524C4.3204 9.82172 4.20118 9.99557 4.1199 10.1869C4.03863 10.3781 3.99689 10.5831 3.99707 10.7901V19.7424C3.99703 20.0624 4.09718 20.3749 4.28421 20.6383L9.80935 28.414C10.1285 28.7961 12.8803 29.8475 15.9971 28.6723C15.9971 28.6723 14.8151 22.802 14.6066 22.5315C14.398 22.261 14.1894 20.7735 12.8684 19.8269C11.9083 19.1392 10.6909 18.4151 10.0979 18.0689C9.88782 17.9457 9.65124 17.8714 9.40673 17.8521C9.16221 17.8327 8.9164 17.8687 8.68861 17.9573C8.34099 18.0966 7.9878 18.3833 7.79313 18.9513" fill="white"/>
<path d="M10.7132 23.2793L7.65408 18.8762C7.47283 18.6155 7.37598 18.3079 7.37598 17.9932V10.7901C7.37616 10.583 7.33438 10.3779 7.25302 10.1865C7.17166 9.99517 7.05231 9.82126 6.9018 9.67476C6.7513 9.52826 6.57258 9.41204 6.37586 9.33275C6.17915 9.25346 5.9683 9.21265 5.75536 9.21265H5.61631C5.40348 9.21282 5.19278 9.25377 4.99623 9.33314C4.79967 9.41251 4.62112 9.52875 4.47076 9.67524C4.3204 9.82172 4.20118 9.99557 4.1199 10.1869C4.03863 10.3781 3.99689 10.5831 3.99707 10.7901V19.7424C3.99703 20.0624 4.09718 20.3749 4.28421 20.6383L9.80935 28.414C10.1285 28.7961 12.8803 29.8475 15.9971 28.6723C15.9971 28.6723 14.8151 22.802 14.6066 22.5315C14.398 22.261 14.1894 20.7735 12.8684 19.8269C11.9083 19.1392 10.6909 18.4151 10.0979 18.0689C9.88782 17.9457 9.65124 17.8714 9.40673 17.8521C9.16221 17.8327 8.9164 17.8687 8.68861 17.9573C8.34099 18.0966 7.9878 18.3833 7.79313 18.9513" stroke="#2258AE" stroke-width="1.1954" stroke-linecap="round" stroke-linejoin="round"/>
<path d="M24.281 23.2793L27.3401 18.8762C27.521 18.6153 27.6179 18.3079 27.6182 17.9932V10.7901C27.618 10.3722 27.7884 9.97123 28.092 9.67543C28.3957 9.37964 28.8076 9.21318 29.2374 9.21265H29.3764C29.5894 9.21265 29.8002 9.25346 29.997 9.33275C30.1937 9.41204 30.3724 9.52826 30.5229 9.67476C30.6734 9.82126 30.7927 9.99517 30.8741 10.1865C30.9555 10.3779 30.9973 10.583 30.9971 10.7901V19.7424C30.9971 20.0624 30.897 20.3749 30.7099 20.6383L25.1848 28.414C24.8657 28.7961 22.1146 29.8475 18.9971 28.6723C18.9971 28.6723 20.179 22.802 20.3876 22.5315C20.5961 22.261 20.8047 20.7735 22.1257 19.8269C23.0858 19.1392 24.3032 18.4151 24.8963 18.0689C25.1063 17.9457 25.3429 17.8714 25.5874 17.8521C25.8319 17.8327 26.0777 17.8687 26.3055 17.9573C26.6532 18.0966 27.0063 18.3833 27.201 18.9513" fill="white"/>
<path d="M24.281 23.2793L27.3401 18.8762C27.521 18.6153 27.6179 18.3079 27.6182 17.9932V10.7901C27.618 10.3722 27.7884 9.97123 28.092 9.67543C28.3957 9.37964 28.8076 9.21318 29.2374 9.21265H29.3764C29.5894 9.21265 29.8002 9.25346 29.997 9.33275C30.1937 9.41204 30.3724 9.52826 30.5229 9.67476C30.6734 9.82126 30.7927 9.99517 30.8741 10.1865C30.9555 10.3779 30.9973 10.583 30.9971 10.7901V19.7424C30.9971 20.0624 30.897 20.3749 30.7099 20.6383L25.1848 28.414C24.8657 28.7961 22.1146 29.8475 18.9971 28.6723C18.9971 28.6723 20.179 22.802 20.3876 22.5315C20.5961 22.261 20.8047 20.7735 22.1257 19.8269C23.0858 19.1392 24.3032 18.4151 24.8963 18.0689C25.1063 17.9457 25.3429 17.8714 25.5874 17.8521C25.8319 17.8327 26.0777 17.8687 26.3055 17.9573C26.6532 18.0966 27.0063 18.3833 27.201 18.9513" stroke="#2258AE" stroke-width="1.1954" stroke-linecap="round" stroke-linejoin="round"/>
</svg>
