<svg width="243" height="189" viewBox="0 0 243 189" fill="none" xmlns="http://www.w3.org/2000/svg">
<path d="M212.69 158.564C207.815 162.535 203.203 165.095 199.558 167.118C156.721 190.896 106.032 183.965 95.2603 182.272C79.3521 179.775 48.606 174.941 26.3715 154.715C-7.26581 124.116 -2.02553 75.9073 24.0634 44.0846C28.8356 38.2632 54.0476 5.95569 105.277 0.774196C136.284 -2.36141 172.427 3.96307 198.601 20.9277C253.543 56.538 249.631 128.477 212.69 158.564Z" fill="url(#paint0_linear_1122_67057)"/>
<path d="M217.784 21.8293C217.742 21.8569 217.693 21.8762 217.64 21.8855C217.586 21.8948 217.531 21.8938 217.478 21.8825C217.049 21.7928 216.617 21.7099 216.192 21.6357C216.149 21.6288 216.107 21.6153 216.07 21.5959C216.034 21.5765 216.002 21.5515 215.978 21.5226C215.954 21.4937 215.937 21.4613 215.929 21.4273C215.922 21.3934 215.923 21.3586 215.933 21.325C215.942 21.2914 215.961 21.2596 215.987 21.2316C216.012 21.2035 216.045 21.1797 216.083 21.1616C216.121 21.1435 216.163 21.1315 216.207 21.1262C216.251 21.1208 216.296 21.1224 216.34 21.1307C216.775 21.2062 217.216 21.2911 217.653 21.3829C217.696 21.3917 217.735 21.4069 217.77 21.4277C217.805 21.4484 217.834 21.4743 217.856 21.5038C217.878 21.5333 217.892 21.5659 217.898 21.5996C217.903 21.6334 217.9 21.6676 217.888 21.7005C217.871 21.7504 217.834 21.7953 217.784 21.8293Z" fill="#91B3FA"/>
<path d="M230.302 64.5625C229.709 64.957 229.091 65.3386 228.465 65.6967C228.43 65.7178 228.39 65.7333 228.347 65.7422C228.304 65.7511 228.259 65.7533 228.214 65.7486C228.17 65.7439 228.128 65.7324 228.089 65.7148C228.051 65.6972 228.018 65.6739 227.991 65.6462C227.965 65.6185 227.945 65.587 227.935 65.5535C227.924 65.52 227.923 65.4852 227.93 65.4511C227.937 65.4171 227.952 65.3844 227.976 65.3552C228 65.3259 228.03 65.3006 228.067 65.2807C228.787 64.868 229.494 64.4249 230.17 63.9644C230.238 63.9278 230.321 63.9121 230.404 63.9201C230.486 63.9282 230.561 63.9596 230.616 64.0082C230.67 64.0568 230.699 64.1191 230.697 64.1833C230.695 64.2474 230.663 64.3087 230.606 64.3555L230.302 64.5625ZM233.726 61.9077C233.662 61.9503 233.579 61.9726 233.495 61.9702C233.41 61.9678 233.33 61.9408 233.271 61.8947C233.211 61.8486 233.176 61.7867 233.173 61.7215C233.169 61.6562 233.198 61.5924 233.253 61.5429C233.837 61.0156 234.399 60.464 234.924 59.8969C234.95 59.8692 234.982 59.8458 235.019 59.8279C235.057 59.8099 235.098 59.7978 235.142 59.7923C235.185 59.7868 235.229 59.788 235.272 59.7957C235.315 59.8035 235.355 59.8177 235.391 59.8375C235.427 59.8574 235.457 59.8824 235.48 59.9113C235.504 59.9402 235.519 59.9724 235.526 60.006C235.533 60.0395 235.532 60.0738 235.522 60.1069C235.512 60.1401 235.494 60.1713 235.468 60.199C234.932 60.7755 234.357 61.3413 233.762 61.8794C233.751 61.8898 233.739 61.8993 233.726 61.9077ZM237.754 57.3223C237.695 57.3618 237.62 57.3841 237.542 57.3852C237.464 57.3864 237.388 57.3664 237.327 57.3287C237.266 57.291 237.223 57.238 237.208 57.1788C237.192 57.1196 237.203 57.058 237.24 57.0047C237.66 56.389 238.051 55.7538 238.402 55.1166C238.437 55.0534 238.502 55.0034 238.585 54.9777C238.667 54.9519 238.759 54.9525 238.841 54.9794C238.922 55.0062 238.987 55.057 239.02 55.1207C239.054 55.1844 239.053 55.2557 239.018 55.3189C238.661 55.9703 238.261 56.619 237.832 57.2474C237.812 57.2771 237.785 57.3034 237.752 57.325L237.754 57.3223ZM240.369 52.1657C240.315 52.2017 240.247 52.2233 240.176 52.2273C240.105 52.2314 240.034 52.2178 239.973 52.1884C239.913 52.159 239.866 52.1154 239.84 52.0641C239.814 52.0127 239.81 51.9562 239.828 51.9028C240.06 51.2325 240.258 50.546 240.414 49.8609C240.421 49.8268 240.437 49.7941 240.46 49.7646C240.483 49.7352 240.514 49.7097 240.55 49.6896C240.587 49.6695 240.628 49.6552 240.671 49.6475C240.715 49.6399 240.76 49.6391 240.804 49.6451C240.848 49.6511 240.89 49.6639 240.927 49.6826C240.965 49.7014 240.997 49.7257 241.022 49.7542C241.047 49.7828 241.065 49.8149 241.073 49.8487C241.082 49.8826 241.082 49.9174 241.073 49.9513C240.913 50.6505 240.712 51.3525 240.475 52.037C240.459 52.0878 240.423 52.1337 240.373 52.1684L240.369 52.1657ZM241.433 46.6882C241.383 46.7212 241.322 46.7424 241.258 46.7491C241.193 46.7558 241.127 46.7477 241.069 46.7258C241.01 46.704 240.96 46.6693 240.927 46.6261C240.893 46.5829 240.877 46.533 240.879 46.4826C240.912 45.7887 240.907 45.0847 240.863 44.3922C240.86 44.3579 240.866 44.3235 240.881 44.291C240.895 44.2585 240.918 44.2285 240.948 44.2029C240.977 44.1773 241.013 44.1564 241.053 44.1416C241.093 44.1268 241.137 44.1184 241.181 44.1167C241.226 44.115 241.27 44.1202 241.312 44.132C241.353 44.1437 241.392 44.1618 241.424 44.1851C241.457 44.2084 241.483 44.2365 241.502 44.2678C241.52 44.2991 241.53 44.3328 241.532 44.3672C241.576 45.0766 241.582 45.7954 241.548 46.5035C241.547 46.539 241.537 46.5741 241.518 46.6063C241.498 46.6386 241.47 46.6674 241.436 46.6909L241.433 46.6882ZM240.895 41.1635C240.85 41.1932 240.796 41.2133 240.739 41.2217C240.681 41.2302 240.621 41.2267 240.566 41.2117C240.51 41.1966 240.461 41.1706 240.422 41.1361C240.384 41.1016 240.358 41.0599 240.347 41.0151C240.181 40.3314 239.974 39.6456 239.737 38.9767C239.713 38.9105 239.725 38.8397 239.768 38.7799C239.812 38.7201 239.884 38.6761 239.97 38.6577C240.055 38.6393 240.147 38.6479 240.224 38.6817C240.302 38.7154 240.358 38.7716 240.382 38.8378C240.627 39.5202 240.839 40.2208 241.009 40.9187C241.021 40.9639 241.017 41.0106 240.997 41.0542C240.978 41.0977 240.944 41.1364 240.898 41.1662L240.895 41.1635ZM238.798 35.8687C238.771 35.8855 238.742 35.8993 238.71 35.9099C238.67 35.9234 238.627 35.9306 238.583 35.9311C238.539 35.9317 238.495 35.9255 238.454 35.913C238.413 35.9004 238.376 35.8818 238.344 35.8581C238.313 35.8345 238.288 35.8062 238.27 35.775C237.912 35.1371 237.514 34.5039 237.088 33.8923C237.067 33.8623 237.054 33.8295 237.05 33.7957C237.045 33.7618 237.05 33.7277 237.062 33.6951C237.075 33.6625 237.095 33.6321 237.123 33.6057C237.151 33.5794 237.185 33.5575 237.224 33.5413C237.263 33.5251 237.305 33.515 237.349 33.5115C237.392 33.5081 237.437 33.5113 237.479 33.521C237.521 33.5308 237.56 33.5468 237.594 33.5683C237.628 33.5898 237.657 33.6162 237.677 33.6461C238.113 34.2706 238.519 34.9172 238.884 35.5686C238.913 35.6192 238.92 35.6757 238.904 35.7297C238.889 35.7837 238.851 35.8324 238.798 35.8687ZM235.224 31.0642L235.204 31.0763C235.168 31.0965 235.128 31.111 235.085 31.1191C235.043 31.1273 234.998 31.1288 234.955 31.1237C234.911 31.1185 234.87 31.1068 234.832 31.0892C234.795 31.0716 234.762 31.0484 234.736 31.021C234.266 30.5267 233.766 30.0405 233.249 29.5759C233.18 29.5139 233.11 29.4519 233.04 29.3905C233.011 29.365 232.989 29.3352 232.975 29.303C232.961 29.2708 232.955 29.2368 232.958 29.2029C232.961 29.1689 232.972 29.1358 232.991 29.1052C233.011 29.0747 233.038 29.0475 233.071 29.025C233.138 28.9805 233.224 28.9581 233.312 28.9628C233.4 28.9674 233.482 28.9988 233.541 29.05C233.612 29.1127 233.683 29.1761 233.753 29.2394C234.281 29.7115 234.792 30.2105 235.272 30.7155C235.322 30.7677 235.345 30.8325 235.336 30.8971C235.327 30.9617 235.287 31.0213 235.224 31.0642ZM230.356 26.9993C230.295 27.0395 230.218 27.0615 230.138 27.0615C230.058 27.0615 229.981 27.0395 229.92 26.9993C229.241 26.5469 228.525 26.1106 227.797 25.7019C227.727 25.6609 227.682 25.6006 227.669 25.5339C227.656 25.4672 227.678 25.3992 227.729 25.3446C227.78 25.29 227.857 25.2529 227.943 25.2413C228.029 25.2297 228.117 25.2445 228.189 25.2825C228.934 25.6993 229.664 26.145 230.357 26.6069C230.424 26.6518 230.465 26.7154 230.472 26.7839C230.479 26.8524 230.45 26.9202 230.392 26.9724C230.381 26.9811 230.369 26.9906 230.357 26.9993H230.356ZM224.444 23.8718C224.393 23.9058 224.33 23.927 224.263 23.9326C224.196 23.9383 224.128 23.9281 224.069 23.9035C223.273 23.5765 222.453 23.2724 221.628 22.9999C221.586 22.9878 221.547 22.9691 221.514 22.945C221.481 22.9209 221.455 22.8919 221.437 22.8597C221.419 22.8275 221.409 22.7928 221.409 22.7578C221.409 22.7227 221.418 22.688 221.436 22.6557C221.454 22.6235 221.48 22.5943 221.512 22.57C221.545 22.5458 221.584 22.5269 221.626 22.5146C221.669 22.5023 221.714 22.4967 221.759 22.4983C221.804 22.4999 221.849 22.5086 221.89 22.5239C222.732 22.8017 223.569 23.1119 224.381 23.4463C224.42 23.4623 224.454 23.484 224.482 23.5103C224.51 23.5366 224.531 23.5668 224.544 23.5994C224.557 23.632 224.561 23.6662 224.557 23.7001C224.553 23.734 224.54 23.7669 224.519 23.797C224.5 23.8252 224.475 23.8505 224.444 23.8718Z" fill="#91B3FA"/>
<path d="M224.725 67.5346C224.707 67.5469 224.687 67.5575 224.666 67.5663C224.266 67.7342 223.861 67.8954 223.464 68.0457C223.384 68.076 223.292 68.0804 223.208 68.0582C223.124 68.0359 223.055 67.9887 223.016 67.927C222.977 67.8653 222.971 67.7942 223 67.7292C223.028 67.6642 223.089 67.6107 223.169 67.5804C223.559 67.4328 223.953 67.275 224.347 67.1084C224.419 67.0774 224.504 67.0683 224.585 67.0831C224.666 67.0978 224.737 67.1352 224.784 67.1881C224.831 67.2409 224.851 67.3054 224.84 67.3691C224.829 67.4328 224.788 67.491 224.725 67.5326V67.5346Z" fill="#91B3FA"/>
<path d="M199.737 69.3868C199.693 69.4157 199.641 69.4355 199.585 69.4444C199.529 69.4532 199.471 69.4508 199.417 69.4373C198.991 69.3328 198.561 69.2188 198.136 69.1002C198.053 69.0766 197.985 69.0284 197.947 68.9662C197.91 68.9039 197.906 68.8326 197.936 68.7681C197.967 68.7035 198.029 68.6509 198.109 68.6219C198.19 68.5929 198.282 68.5898 198.366 68.6133C198.78 68.7306 199.203 68.8419 199.619 68.9437C199.676 68.9577 199.727 68.9832 199.767 69.0175C199.806 69.0518 199.834 69.0937 199.846 69.1389C199.858 69.1841 199.854 69.231 199.835 69.2746C199.816 69.3183 199.782 69.3572 199.737 69.3874V69.3868Z" fill="#91B3FA"/>
<path d="M194.476 67.6831C194.425 67.7173 194.362 67.7387 194.296 67.7446C194.229 67.7505 194.161 67.7406 194.102 67.7161C193.306 67.3904 192.516 67.0344 191.753 66.6567C191.679 66.6196 191.626 66.5611 191.607 66.4939C191.588 66.4268 191.604 66.3565 191.652 66.2987C191.7 66.2408 191.776 66.2001 191.863 66.1854C191.949 66.1707 192.04 66.1834 192.115 66.2205C192.861 66.59 193.635 66.9393 194.414 67.2582C194.453 67.2741 194.488 67.2958 194.516 67.322C194.544 67.3482 194.565 67.3784 194.578 67.4109C194.591 67.4434 194.595 67.4775 194.591 67.5114C194.587 67.5453 194.574 67.5782 194.554 67.6082C194.534 67.6368 194.508 67.6622 194.476 67.6831ZM188.636 64.6257C188.576 64.6661 188.498 64.6883 188.418 64.6883C188.338 64.6883 188.261 64.6661 188.201 64.6257C187.512 64.1725 186.841 63.6917 186.205 63.1975C186.144 63.1485 186.111 63.0829 186.112 63.0149C186.112 62.9468 186.148 62.8818 186.21 62.8339C186.273 62.786 186.357 62.759 186.445 62.7587C186.533 62.7585 186.618 62.7851 186.68 62.8327C187.302 63.3168 187.96 63.7868 188.635 64.2305C188.702 64.2752 188.744 64.3387 188.751 64.4072C188.758 64.4756 188.73 64.5435 188.673 64.596C188.663 64.6065 188.651 64.6164 188.639 64.6257H188.636ZM183.803 60.6559L183.786 60.6667C183.751 60.6873 183.711 60.7023 183.668 60.7108C183.625 60.7194 183.581 60.7213 183.537 60.7166C183.494 60.7118 183.452 60.7004 183.414 60.6831C183.376 60.6657 183.343 60.6428 183.317 60.6155C182.775 60.0578 182.257 59.4752 181.777 58.8832C181.752 58.8544 181.734 58.8219 181.726 58.7878C181.717 58.7536 181.717 58.7184 181.726 58.6843C181.736 58.6502 181.754 58.6179 181.779 58.5893C181.805 58.5607 181.838 58.5364 181.876 58.5179C181.914 58.4994 181.957 58.487 182.001 58.4815C182.046 58.476 182.091 58.4775 182.135 58.4859C182.179 58.4944 182.22 58.5095 182.256 58.5305C182.291 58.5515 182.322 58.5778 182.344 58.608C182.815 59.1873 183.321 59.7584 183.852 60.304C183.903 60.3563 183.927 60.4217 183.918 60.487C183.91 60.5523 183.87 60.6127 183.806 60.6559H183.803ZM180.216 55.962C180.192 55.9781 180.165 55.9915 180.135 56.0018C180.095 56.0157 180.052 56.0235 180.008 56.0245C179.964 56.0255 179.92 56.0198 179.879 56.0077C179.838 55.9956 179.8 55.9774 179.768 55.954C179.736 55.9307 179.711 55.9027 179.693 55.8716C179.322 55.2357 178.982 54.579 178.681 53.9201C178.666 53.888 178.659 53.8537 178.661 53.8195C178.663 53.7852 178.674 53.7515 178.692 53.7205C178.711 53.6894 178.738 53.6616 178.771 53.6385C178.804 53.6155 178.842 53.5978 178.884 53.5863C178.926 53.5749 178.97 53.57 179.014 53.5719C179.059 53.5739 179.102 53.5826 179.142 53.5976C179.182 53.6126 179.217 53.6335 179.247 53.6593C179.276 53.685 179.298 53.715 179.312 53.7475C179.607 54.3928 179.94 55.0361 180.304 55.6592C180.333 55.71 180.341 55.7669 180.326 55.8214C180.311 55.876 180.273 55.9252 180.219 55.962H180.216ZM178.045 50.7764C178.001 50.806 177.948 50.826 177.89 50.8346C177.833 50.8432 177.774 50.8401 177.719 50.8255C177.664 50.8109 177.614 50.7854 177.576 50.7514C177.537 50.7175 177.511 50.6764 177.499 50.6321C177.316 49.949 177.169 49.2511 177.064 48.5579C177.058 48.5241 177.062 48.4899 177.074 48.4571C177.085 48.4243 177.106 48.3937 177.133 48.3669C177.16 48.3402 177.194 48.3178 177.232 48.3011C177.27 48.2844 177.312 48.2737 177.356 48.2696C177.4 48.2656 177.444 48.2682 177.486 48.2774C177.529 48.2865 177.568 48.3021 177.603 48.3231C177.638 48.3441 177.666 48.3701 177.688 48.3998C177.71 48.4295 177.723 48.4621 177.729 48.4959C177.834 49.1743 177.979 49.858 178.158 50.5276C178.17 50.5731 178.166 50.6202 178.146 50.664C178.126 50.7078 178.091 50.7467 178.045 50.7764ZM177.383 45.3488C177.334 45.3816 177.273 45.4027 177.209 45.4095C177.145 45.4163 177.079 45.4085 177.021 45.387C176.962 45.3656 176.913 45.3315 176.879 45.2888C176.845 45.2461 176.828 45.1967 176.829 45.1465C176.843 44.4479 176.896 43.7419 176.986 43.048C176.995 42.9796 177.039 42.9168 177.107 42.8733C177.176 42.8297 177.265 42.8092 177.353 42.8161C177.441 42.8229 177.523 42.8567 177.579 42.91C177.635 42.9632 177.662 43.0315 177.653 43.1C177.566 43.7797 177.513 44.4708 177.499 45.1546C177.499 45.1913 177.488 45.2275 177.468 45.2607C177.448 45.2939 177.419 45.3235 177.383 45.3475V45.3488ZM178.269 39.9421C178.215 39.9779 178.149 39.9996 178.078 40.0041C178.007 40.0085 177.937 39.9955 177.876 39.967C177.816 39.9384 177.769 39.8957 177.741 39.8451C177.714 39.7945 177.709 39.7385 177.725 39.6852C177.937 39.0055 178.189 38.3257 178.474 37.6622C178.488 37.6299 178.51 37.6001 178.539 37.5744C178.567 37.5487 178.603 37.5276 178.642 37.5124C178.681 37.4972 178.724 37.4881 178.768 37.4857C178.812 37.4833 178.856 37.4876 178.898 37.4984C178.939 37.5091 178.978 37.5261 179.011 37.5484C179.044 37.5707 179.072 37.5978 179.091 37.6283C179.111 37.6587 179.123 37.6918 179.126 37.7258C179.129 37.7597 179.123 37.7938 179.109 37.8261C178.83 38.4741 178.586 39.1403 178.376 39.8052C178.36 39.8579 178.322 39.9053 178.269 39.9408V39.9421ZM180.671 34.8172C180.613 34.8585 180.538 34.8826 180.46 34.8853C180.381 34.888 180.303 34.8691 180.241 34.832C180.178 34.7948 180.135 34.7418 180.118 34.6822C180.101 34.6227 180.112 34.5604 180.148 34.5064C180.547 33.882 180.985 33.2616 181.456 32.6621C181.478 32.6316 181.507 32.6048 181.542 32.5833C181.578 32.5618 181.618 32.546 181.662 32.5369C181.705 32.5279 181.751 32.5257 181.795 32.5305C181.84 32.5353 181.883 32.547 181.921 32.5649C181.96 32.5828 181.993 32.6066 182.02 32.6348C182.046 32.663 182.065 32.695 182.075 32.7289C182.085 32.7629 182.087 32.798 182.079 32.8323C182.071 32.8666 182.054 32.8993 182.029 32.9285C181.573 33.5165 181.143 34.124 180.753 34.7357C180.733 34.7662 180.705 34.7934 180.671 34.8159V34.8172ZM184.46 30.2197C184.397 30.2623 184.316 30.285 184.232 30.2833C184.148 30.2816 184.068 30.2557 184.008 30.2106C183.948 30.1655 183.911 30.1046 183.906 30.0398C183.901 29.9751 183.928 29.9113 183.981 29.861C184.548 29.3148 185.15 28.7821 185.77 28.2783C185.832 28.2285 185.916 28.1996 186.005 28.1978C186.048 28.1969 186.092 28.2027 186.133 28.2149C186.174 28.2271 186.212 28.2455 186.244 28.2689C186.276 28.2923 186.301 28.3204 186.319 28.3514C186.337 28.3825 186.347 28.416 186.348 28.45C186.349 28.484 186.341 28.5179 186.326 28.5496C186.31 28.5814 186.286 28.6104 186.256 28.6351C185.646 29.1287 185.058 29.6506 184.503 30.186C184.49 30.1977 184.476 30.2085 184.46 30.2184V30.2197ZM191.626 25.1434C191.616 25.1503 191.605 25.1566 191.593 25.1623C190.857 25.5419 190.134 25.9506 189.443 26.3761C189.408 26.3973 189.369 26.413 189.327 26.4225C189.285 26.4319 189.24 26.4348 189.197 26.4309C189.153 26.4271 189.111 26.4167 189.072 26.4002C189.034 26.3837 189 26.3615 188.973 26.3349C188.945 26.3085 188.924 26.278 188.911 26.2453C188.899 26.2125 188.895 26.1781 188.9 26.1442C188.905 26.1102 188.919 26.0774 188.94 26.0476C188.962 26.0178 188.991 25.9917 189.026 25.9708C189.731 25.5365 190.469 25.1191 191.222 24.7314C191.293 24.6935 191.38 24.6783 191.465 24.6888C191.55 24.6993 191.626 24.7348 191.678 24.7879C191.73 24.841 191.754 24.9075 191.744 24.9738C191.735 25.04 191.692 25.1007 191.626 25.1434Z" fill="#91B3FA"/>
<path d="M196.65 23.0252C196.623 23.0424 196.594 23.0565 196.562 23.067C196.155 23.2019 195.751 23.3469 195.359 23.4939C195.279 23.5227 195.188 23.5261 195.105 23.5033C195.022 23.4806 194.954 23.4335 194.916 23.3722C194.877 23.311 194.872 23.2406 194.9 23.1761C194.928 23.1117 194.988 23.0585 195.067 23.0279C195.467 22.8775 195.881 22.7312 196.296 22.5916C196.369 22.5684 196.45 22.566 196.526 22.5848C196.601 22.6036 196.665 22.6425 196.707 22.6944C196.749 22.7464 196.765 22.8081 196.754 22.8687C196.742 22.9292 196.704 22.9847 196.644 23.0252H196.65Z" fill="#91B3FA"/>
<path d="M202.315 27.2836C202.236 27.2945 202.164 27.3242 202.108 27.3684C202.052 27.4126 202.015 27.4693 202.003 27.5304L201.279 31.1043C199.243 31.7817 197.363 32.7115 195.714 33.8569L191.216 32.869C191.139 32.8519 191.057 32.8538 190.982 32.8746C190.906 32.8954 190.841 32.9341 190.796 32.985L187.585 36.5488C187.54 36.5996 187.516 36.6601 187.516 36.722C187.517 36.7838 187.543 36.844 187.59 36.8941L190.345 39.8179C189.527 41.4109 189.05 43.0963 188.932 44.8079L184.843 46.574C184.773 46.6041 184.717 46.6503 184.683 46.7063C184.648 46.7623 184.637 46.8252 184.651 46.8862L185.638 51.1614C185.652 51.2223 185.691 51.2783 185.748 51.3216C185.805 51.3649 185.878 51.3933 185.957 51.4028L190.577 51.9632C191.452 53.5381 192.654 54.992 194.135 56.2674L192.862 59.7455C192.84 59.805 192.843 59.8684 192.869 59.9267C192.896 59.9851 192.946 60.0354 193.012 60.0705L197.617 62.5541C197.683 62.5893 197.761 62.6079 197.841 62.6072C197.921 62.6064 197.999 62.5865 198.063 62.55L201.843 60.4185C203.902 61.0519 206.08 61.4213 208.293 61.5123L210.572 64.6742C210.611 64.7281 210.671 64.7714 210.743 64.7978C210.816 64.8243 210.897 64.8327 210.976 64.8218L216.502 64.0592C216.581 64.048 216.653 64.0182 216.709 63.9739C216.765 63.9296 216.802 63.8729 216.814 63.8117L217.538 60.2378C219.574 59.5603 221.453 58.6303 223.102 57.4845L227.601 58.4731C227.678 58.49 227.76 58.4878 227.835 58.4671C227.911 58.4463 227.976 58.4078 228.021 58.3571L231.232 54.7946C231.277 54.7439 231.302 54.6833 231.301 54.6214C231.3 54.5595 231.274 54.4993 231.226 54.4494L228.471 51.5255C229.29 49.9327 229.767 48.2473 229.885 46.5355L233.972 44.7722C234.042 44.7421 234.098 44.6959 234.132 44.6401C234.166 44.5842 234.177 44.5215 234.163 44.4606L233.176 40.1854C233.162 40.1246 233.124 40.0687 233.067 40.0254C233.01 39.9822 232.937 39.9537 232.858 39.944L228.238 39.3837C227.362 37.808 226.159 36.3535 224.677 35.0774L225.955 31.5973C225.977 31.5378 225.974 31.4744 225.947 31.4162C225.92 31.3579 225.871 31.3076 225.805 31.2722L221.2 28.7887C221.134 28.7534 221.056 28.7347 220.976 28.7353C220.896 28.7359 220.818 28.7558 220.754 28.7921L216.974 30.9236C214.915 30.2908 212.737 29.9216 210.524 29.8305L208.244 26.6686C208.205 26.6144 208.146 26.571 208.074 26.5444C208.001 26.5178 207.92 26.5093 207.841 26.5203L202.315 27.2836Z" fill="#91B3FA"/>
<path d="M212.998 48.8894C212.598 49.1552 212.151 49.3752 211.67 49.5428C210.412 49.98 208.986 50.0323 207.68 49.6893C206.373 49.3463 205.283 48.6333 204.629 47.6938C203.974 46.7543 203.804 45.658 204.152 44.6252C204.499 43.5924 205.34 42.6998 206.504 42.1269C207.668 41.554 209.069 41.3432 210.425 41.537C211.782 41.7308 212.994 42.3148 213.816 43.1715C214.639 44.0282 215.012 45.0942 214.86 46.1549C214.708 47.2157 214.043 48.1927 212.998 48.8894ZM206.485 43.0464C205.918 43.424 205.484 43.9059 205.221 44.4476C204.855 45.1979 204.836 46.0232 205.168 46.783C205.5 47.5428 206.162 48.19 207.042 48.6143C207.922 49.0387 208.964 49.2139 209.992 49.1102C211.02 49.0066 211.97 48.6303 212.68 48.0457C213.389 47.461 213.815 46.7041 213.884 45.9039C213.953 45.1036 213.662 44.3096 213.059 43.6571C212.456 43.0046 211.58 42.5339 210.579 42.3253C209.578 42.1167 208.514 42.183 207.569 42.513C207.176 42.6494 206.81 42.8288 206.482 43.0457L206.485 43.0464Z" fill="#BDD0FB"/>
<path d="M218.603 53.9994C213.859 57.1552 206.772 57.5679 201.408 54.6737C200.441 54.1522 199.562 53.5387 198.793 52.8476C194.712 49.1779 194.179 43.6943 197.917 39.5439C197.985 39.4697 198.053 39.3955 198.123 39.322C198.59 38.8297 199.11 38.3684 199.677 37.9431C199.743 37.8932 199.809 37.8446 199.876 37.7961L200.562 38.3652C199.882 38.8549 199.272 39.399 198.742 39.9883L198.727 40.0051C194.63 44.5683 196.091 50.8617 201.983 54.0358C207.875 57.2098 216.028 56.0925 220.141 51.528C223.613 47.6749 223.117 42.5831 219.329 39.1757C218.203 38.1655 216.831 37.3375 215.29 36.7394C213.749 36.1413 212.07 35.7849 210.351 35.6908L210.42 34.916C212.273 35.0165 214.082 35.3998 215.743 36.044C217.403 36.6882 218.882 37.5805 220.095 38.6693C224.176 42.3383 224.709 47.8226 220.966 51.9723C220.292 52.7223 219.498 53.4034 218.603 53.9994Z" fill="#BDD0FB"/>
<path d="M191.344 2.91357C191.32 2.93017 191.29 2.9418 191.258 2.94744C191.226 2.95309 191.192 2.95257 191.161 2.94594C190.899 2.89199 190.643 2.84209 190.387 2.79759C190.336 2.78816 190.291 2.76344 190.263 2.72876C190.235 2.69408 190.226 2.65224 190.237 2.61228C190.249 2.57233 190.28 2.53746 190.324 2.51522C190.369 2.49299 190.423 2.48517 190.475 2.49346C190.736 2.53932 190.998 2.58989 191.259 2.64519C191.311 2.65593 191.354 2.68206 191.381 2.71785C191.408 2.75363 191.415 2.79614 191.401 2.83602C191.392 2.86551 191.373 2.89242 191.344 2.91357Z" fill="#91B3FA"/>
<path d="M198.868 28.598C198.511 28.8347 198.14 29.0639 197.763 29.2797C197.742 29.2933 197.718 29.3034 197.691 29.3094C197.665 29.3154 197.638 29.3172 197.61 29.3147C197.583 29.3121 197.557 29.3053 197.533 29.2946C197.509 29.2839 197.489 29.2696 197.472 29.2526C197.456 29.2355 197.445 29.216 197.438 29.1954C197.432 29.1747 197.431 29.1533 197.436 29.1324C197.441 29.1115 197.451 29.0916 197.467 29.0739C197.482 29.0562 197.501 29.0411 197.524 29.0295C197.96 28.7814 198.382 28.515 198.788 28.2379C198.829 28.2152 198.88 28.2052 198.93 28.2098C198.98 28.2144 199.026 28.2334 199.058 28.2629C199.091 28.2925 199.109 28.3304 199.107 28.3694C199.105 28.4083 199.085 28.4453 199.05 28.4732L198.868 28.598ZM200.926 27.0025C200.887 27.0286 200.837 27.0425 200.786 27.0412C200.735 27.0399 200.687 27.0236 200.65 26.9956C200.614 26.9677 200.593 26.9301 200.591 26.8905C200.59 26.851 200.608 26.8124 200.641 26.7827C200.99 26.4658 201.33 26.1326 201.646 25.7935C201.677 25.7599 201.724 25.7374 201.777 25.7307C201.829 25.7241 201.883 25.7339 201.927 25.7581C201.97 25.7822 201.999 25.8187 202.008 25.8595C202.016 25.9002 202.004 25.942 201.972 25.9755C201.65 26.3215 201.306 26.6613 200.947 26.987L200.926 27.0025ZM203.347 24.2479C203.311 24.2716 203.266 24.285 203.219 24.2857C203.172 24.2864 203.127 24.2744 203.09 24.2517C203.053 24.2291 203.028 24.1973 203.018 24.1617C203.009 24.1262 203.016 24.0892 203.038 24.0571C203.29 23.6869 203.526 23.3052 203.735 22.9215C203.757 22.8853 203.797 22.8572 203.845 22.8429C203.894 22.8287 203.947 22.8295 203.995 22.8451C204.043 22.8608 204.081 22.8901 204.102 22.9269C204.122 22.9638 204.123 23.0053 204.105 23.0429C203.891 23.4347 203.65 23.8251 203.392 24.2027C203.381 24.2198 203.366 24.2351 203.347 24.2479ZM204.921 21.146C204.889 21.1678 204.848 21.1809 204.805 21.1835C204.762 21.186 204.719 21.1778 204.682 21.16C204.646 21.1423 204.618 21.116 204.602 21.0849C204.586 21.0539 204.584 21.0197 204.595 20.9876C204.735 20.583 204.857 20.1723 204.944 19.7603C204.953 19.7196 204.983 19.6835 205.027 19.6598C205.071 19.6362 205.125 19.6269 205.177 19.6342C205.23 19.6414 205.277 19.6645 205.307 19.6984C205.338 19.7323 205.35 19.7742 205.34 19.8149C205.244 20.2357 205.122 20.6571 204.98 21.0685C204.971 21.0991 204.951 21.127 204.921 21.1487V21.146ZM205.559 17.854C205.521 17.8796 205.471 17.8929 205.421 17.8911C205.394 17.8904 205.368 17.8856 205.344 17.8772C205.32 17.8687 205.298 17.8566 205.281 17.8416C205.263 17.8266 205.249 17.8091 205.239 17.7899C205.23 17.7707 205.226 17.7503 205.227 17.7299C205.247 17.3132 205.244 16.8904 205.218 16.4723C205.215 16.4513 205.218 16.4302 205.226 16.4102C205.235 16.3901 205.248 16.3716 205.266 16.3557C205.284 16.3398 205.306 16.3269 205.33 16.3177C205.355 16.3085 205.381 16.3032 205.408 16.3022C205.436 16.3012 205.463 16.3045 205.488 16.3118C205.514 16.3192 205.537 16.3304 205.557 16.345C205.576 16.3595 205.592 16.3769 205.603 16.3962C205.614 16.4156 205.619 16.4364 205.619 16.4575C205.646 16.8836 205.65 17.3159 205.63 17.7387C205.629 17.7611 205.623 17.7832 205.611 17.8035C205.599 17.8239 205.581 17.842 205.559 17.8567V17.854ZM205.237 14.5329C205.21 14.5508 205.178 14.563 205.143 14.5681C205.108 14.5732 205.072 14.5711 205.039 14.5621C205.005 14.5531 204.976 14.5374 204.952 14.5167C204.929 14.4959 204.914 14.4708 204.907 14.4439C204.807 14.0326 204.683 13.6206 204.538 13.2187C204.53 13.1987 204.527 13.1777 204.53 13.1568C204.533 13.136 204.541 13.1158 204.553 13.0974C204.566 13.079 204.584 13.0628 204.605 13.0497C204.626 13.0367 204.651 13.0271 204.677 13.0215C204.703 13.016 204.73 13.0145 204.757 13.0173C204.784 13.02 204.81 13.027 204.833 13.0376C204.856 13.0483 204.877 13.0625 204.893 13.0793C204.909 13.0962 204.92 13.1154 204.926 13.1357C205.074 13.5457 205.2 13.9665 205.303 14.3859C205.31 14.413 205.309 14.4412 205.297 14.4675C205.286 14.4938 205.266 14.5173 205.239 14.5356L205.237 14.5329ZM203.973 11.3495C203.949 11.365 203.92 11.3761 203.89 11.3817C203.859 11.3874 203.827 11.3875 203.797 11.3821C203.766 11.3767 203.737 11.3659 203.713 11.3505C203.689 11.3351 203.669 11.3156 203.656 11.2935C203.442 10.9098 203.202 10.5295 202.946 10.162C202.921 10.1256 202.915 10.0829 202.93 10.0432C202.945 10.0036 202.98 9.97025 203.028 9.95058C203.075 9.93091 203.13 9.92649 203.181 9.93832C203.232 9.95014 203.275 9.97723 203.301 10.0136C203.562 10.3892 203.806 10.7776 204.026 11.1694C204.044 11.2003 204.048 11.2347 204.038 11.2676C204.029 11.3005 204.006 11.3301 203.973 11.3522V11.3495ZM201.827 8.46134L201.815 8.46875C201.793 8.48097 201.769 8.48981 201.744 8.49477C201.718 8.49972 201.691 8.5007 201.665 8.49762C201.639 8.49455 201.614 8.4875 201.591 8.47687C201.568 8.46625 201.549 8.45226 201.533 8.43571C201.251 8.13833 200.95 7.84635 200.64 7.56718L200.514 7.45592C200.479 7.42489 200.461 7.3843 200.464 7.34307C200.468 7.30185 200.492 7.26337 200.532 7.23609C200.573 7.20957 200.625 7.19633 200.678 7.19923C200.731 7.20213 200.78 7.22093 200.815 7.2516L200.943 7.36556C201.26 7.6508 201.567 7.94885 201.856 8.2523C201.886 8.28388 201.9 8.32326 201.895 8.36253C201.89 8.4018 201.865 8.43806 201.827 8.46403V8.46134ZM198.901 6.01826C198.864 6.04222 198.818 6.05536 198.77 6.05536C198.722 6.05536 198.676 6.04222 198.639 6.01826C198.231 5.74854 197.802 5.48353 197.363 5.23875C197.32 5.2146 197.291 5.17813 197.282 5.13734C197.274 5.09656 197.286 5.05481 197.317 5.02128C197.349 4.98774 197.396 4.96517 197.449 4.95854C197.501 4.9519 197.555 4.96173 197.599 4.98588C198.047 5.23672 198.485 5.50443 198.906 5.78225C198.926 5.79556 198.943 5.81183 198.955 5.83012C198.967 5.84841 198.974 5.86835 198.976 5.88879C198.978 5.90923 198.974 5.92977 198.966 5.94921C198.958 5.96866 198.944 5.98663 198.927 6.00208L198.901 6.01826ZM195.347 4.13758C195.316 4.15793 195.278 4.17062 195.238 4.17398C195.198 4.17735 195.157 4.17124 195.121 4.15646C194.643 3.95955 194.149 3.77681 193.654 3.61363C193.605 3.59735 193.567 3.56665 193.547 3.52827C193.527 3.48989 193.527 3.44697 193.548 3.40897C193.57 3.37097 193.609 3.34098 193.659 3.32562C193.708 3.31025 193.764 3.31076 193.813 3.32704C194.319 3.49427 194.822 3.68106 195.311 3.88201C195.357 3.90146 195.393 3.93453 195.408 3.97397C195.424 4.0134 195.418 4.05599 195.393 4.0924C195.382 4.11037 195.366 4.12658 195.347 4.14027V4.13758Z" fill="#91B3FA"/>
<path d="M195.516 30.3861C195.505 30.3934 195.493 30.3997 195.481 30.405C195.24 30.5061 194.997 30.6026 194.758 30.6929C194.734 30.7042 194.708 30.7116 194.68 30.7144C194.652 30.7172 194.624 30.7155 194.597 30.7094C194.57 30.7033 194.545 30.6928 194.523 30.6788C194.502 30.6647 194.484 30.6473 194.472 30.6277C194.46 30.6082 194.453 30.5868 194.452 30.5651C194.451 30.5433 194.456 30.5217 194.467 30.5016C194.477 30.4814 194.493 30.4632 194.513 30.4481C194.534 30.4329 194.558 30.4212 194.584 30.4137C194.818 30.3247 195.056 30.2297 195.292 30.1312C195.335 30.1134 195.386 30.1087 195.434 30.1178C195.482 30.127 195.524 30.1494 195.552 30.1808C195.579 30.2122 195.592 30.2505 195.585 30.2883C195.579 30.3261 195.556 30.3609 195.518 30.3861H195.516Z" fill="#91B3FA"/>
<path d="M180.496 31.502C180.471 31.5195 180.439 31.5315 180.406 31.537C180.372 31.5424 180.337 31.541 180.305 31.533C180.049 31.4703 179.79 31.3982 179.535 31.3307C179.51 31.3241 179.486 31.3136 179.466 31.2998C179.446 31.2861 179.429 31.2693 179.418 31.2506C179.406 31.2319 179.4 31.2116 179.398 31.1908C179.397 31.1701 179.401 31.1493 179.41 31.1298C179.419 31.1103 179.433 31.0924 179.452 31.0772C179.47 31.0619 179.492 31.0497 179.516 31.0411C179.541 31.0326 179.567 31.0279 179.594 31.0274C179.621 31.0269 179.648 31.0305 179.673 31.0381C179.922 31.1055 180.176 31.1729 180.427 31.2363C180.477 31.249 180.52 31.2767 180.544 31.3133C180.569 31.3499 180.573 31.3925 180.557 31.4319C180.546 31.4592 180.525 31.4835 180.496 31.502Z" fill="#91B3FA"/>
<path d="M177.335 30.4763C177.305 30.4967 177.267 30.5095 177.227 30.513C177.187 30.5165 177.146 30.5105 177.11 30.4959C176.632 30.3003 176.157 30.0866 175.699 29.8593C175.656 29.8366 175.625 29.8016 175.615 29.7618C175.604 29.7219 175.614 29.6805 175.642 29.6462C175.67 29.612 175.715 29.5876 175.766 29.5784C175.817 29.5693 175.871 29.5759 175.916 29.597C176.365 29.8195 176.83 30.0293 177.299 30.2208C177.346 30.2398 177.382 30.2726 177.398 30.312C177.415 30.3515 177.41 30.3943 177.386 30.4312C177.373 30.4487 177.356 30.4641 177.335 30.4763ZM173.827 28.6388C173.79 28.6628 173.744 28.6759 173.696 28.6759C173.648 28.6759 173.602 28.6628 173.565 28.6388C173.151 28.3691 172.748 28.0778 172.366 27.7804C172.328 27.7512 172.307 27.7117 172.307 27.6705C172.307 27.6293 172.328 27.5898 172.366 27.5606C172.385 27.5459 172.407 27.5343 172.431 27.5264C172.455 27.5184 172.482 27.5143 172.508 27.5143C172.535 27.5143 172.561 27.5184 172.585 27.5264C172.61 27.5343 172.632 27.5459 172.65 27.5606C173.024 27.8512 173.419 28.1344 173.824 28.4008C173.865 28.4275 173.89 28.4655 173.895 28.5066C173.899 28.5477 173.882 28.5884 173.848 28.6199C173.842 28.6267 173.835 28.633 173.827 28.6388ZM170.922 26.2531L170.911 26.2591C170.869 26.2839 170.815 26.2946 170.762 26.2889C170.71 26.2833 170.662 26.2616 170.63 26.2288C170.304 25.8916 169.993 25.543 169.705 25.1869C169.68 25.1521 169.673 25.111 169.686 25.0723C169.698 25.0336 169.73 25.0002 169.774 24.979C169.818 24.9578 169.87 24.9504 169.921 24.9583C169.971 24.9663 170.016 24.989 170.046 25.0217C170.328 25.3704 170.632 25.7129 170.951 26.0413C170.982 26.0729 170.996 26.1124 170.991 26.1517C170.985 26.1911 170.961 26.2274 170.922 26.2531ZM168.766 23.4317C168.752 23.4415 168.735 23.4494 168.717 23.4553C168.669 23.4711 168.615 23.4718 168.566 23.4572C168.517 23.4426 168.478 23.4138 168.456 23.3771C168.234 22.9947 168.029 22.6002 167.846 22.2044C167.831 22.1661 167.836 22.1248 167.859 22.0892C167.882 22.0535 167.923 22.0261 167.971 22.0128C168.02 21.9994 168.074 22.0011 168.121 22.0175C168.168 22.0338 168.205 22.0636 168.225 22.1006C168.399 22.4883 168.602 22.8754 168.82 23.2469C168.839 23.278 168.843 23.313 168.834 23.3464C168.824 23.3798 168.8 23.4098 168.766 23.4317ZM167.459 20.3143C167.434 20.3308 167.404 20.3424 167.372 20.348C167.319 20.3564 167.265 20.3484 167.22 20.3257C167.176 20.3031 167.144 20.2677 167.134 20.2273C167.024 19.8166 166.935 19.3972 166.872 18.9805C166.867 18.9596 166.868 18.9382 166.874 18.9176C166.881 18.897 166.892 18.8776 166.909 18.8606C166.925 18.8436 166.946 18.8293 166.969 18.8187C166.993 18.808 167.019 18.8012 167.046 18.7987C167.074 18.7962 167.101 18.798 167.127 18.804C167.154 18.81 167.178 18.82 167.199 18.8336C167.22 18.8471 167.237 18.8639 167.25 18.8827C167.262 18.9016 167.27 18.9223 167.271 18.9434C167.335 19.3514 167.422 19.762 167.533 20.1646C167.539 20.1923 167.536 20.2208 167.523 20.2472C167.511 20.2735 167.489 20.2967 167.46 20.3143H167.459ZM167.062 17.0519C167.025 17.0765 166.977 17.0899 166.928 17.0897C166.875 17.0888 166.824 17.0716 166.787 17.042C166.75 17.0123 166.729 16.9725 166.73 16.9312C166.739 16.5111 166.77 16.087 166.824 15.6702C166.829 15.6291 166.856 15.5913 166.897 15.5651C166.938 15.5389 166.991 15.5265 167.045 15.5306C167.098 15.5348 167.147 15.555 167.181 15.587C167.214 15.619 167.23 15.6601 167.225 15.7012C167.172 16.1058 167.138 16.5246 167.133 16.9359C167.132 16.958 167.126 16.9798 167.114 16.9998C167.101 17.0198 167.084 17.0376 167.062 17.0519ZM167.596 13.8024C167.563 13.8238 167.523 13.8367 167.481 13.8393C167.438 13.842 167.396 13.8342 167.36 13.817C167.323 13.7999 167.295 13.7743 167.279 13.7439C167.262 13.7135 167.259 13.6799 167.269 13.6479C167.396 13.2393 167.548 12.8307 167.718 12.4342C167.737 12.3964 167.773 12.3656 167.82 12.3482C167.867 12.3308 167.921 12.3282 167.971 12.341C168.02 12.3537 168.061 12.3808 168.085 12.4166C168.11 12.4523 168.115 12.4939 168.1 12.5326C167.933 12.9224 167.785 13.3222 167.659 13.7221C167.649 13.7534 167.626 13.7815 167.595 13.8024H167.596ZM169.038 10.7227C169.003 10.7466 168.958 10.7603 168.912 10.7614C168.865 10.7625 168.819 10.751 168.783 10.7289C168.746 10.7068 168.72 10.6754 168.71 10.6402C168.7 10.605 168.706 10.5681 168.727 10.5359C168.966 10.161 169.229 9.78743 169.511 9.42734C169.525 9.40963 169.543 9.39418 169.564 9.38185C169.586 9.36952 169.61 9.36056 169.636 9.35548C169.662 9.35041 169.688 9.34932 169.715 9.35228C169.741 9.35524 169.767 9.36219 169.789 9.37273C169.812 9.38326 169.832 9.39719 169.848 9.4137C169.864 9.43021 169.876 9.44899 169.882 9.46897C169.889 9.48894 169.89 9.50972 169.886 9.53012C169.883 9.55051 169.874 9.57012 169.86 9.58783C169.585 9.94118 169.327 10.306 169.092 10.6735C169.079 10.6927 169.06 10.7095 169.038 10.7227ZM171.316 7.958C171.278 7.98372 171.229 7.99746 171.178 7.99649C171.128 7.99552 171.079 7.97991 171.043 7.95276C171.007 7.92561 170.985 7.88889 170.982 7.8499C170.979 7.8109 170.995 7.77246 171.027 7.74221C171.368 7.41382 171.73 7.09419 172.103 6.79142C172.121 6.77608 172.143 6.76369 172.167 6.75496C172.191 6.74623 172.218 6.74135 172.244 6.74059C172.271 6.73983 172.298 6.74322 172.323 6.75055C172.348 6.75788 172.371 6.769 172.39 6.78328C172.41 6.79755 172.425 6.81468 172.436 6.83367C172.447 6.85265 172.453 6.87311 172.453 6.89384C172.453 6.91457 172.448 6.93516 172.438 6.95439C172.428 6.97362 172.414 6.99112 172.395 7.00585C172.03 7.30256 171.675 7.61612 171.341 7.93709C171.333 7.94469 171.325 7.95169 171.316 7.958ZM175.622 4.90669C175.616 4.9111 175.609 4.91516 175.602 4.91882C175.16 5.14674 174.726 5.39085 174.311 5.64777C174.29 5.66123 174.266 5.67136 174.241 5.67756C174.215 5.68377 174.188 5.68592 174.161 5.68389C174.134 5.68187 174.108 5.67569 174.084 5.66575C174.061 5.65581 174.04 5.64229 174.023 5.62601C174.006 5.60972 173.994 5.59099 173.987 5.57093C173.979 5.55087 173.977 5.52988 173.981 5.50921C173.984 5.48854 173.993 5.46861 174.006 5.4506C174.02 5.43258 174.038 5.41685 174.06 5.40434C174.483 5.14337 174.931 4.89253 175.379 4.66258C175.422 4.64076 175.474 4.6323 175.524 4.63892C175.574 4.64553 175.62 4.66674 175.651 4.69822C175.682 4.7297 175.696 4.76911 175.691 4.80845C175.685 4.84779 175.661 4.88411 175.622 4.91006V4.90669Z" fill="#91B3FA"/>
<path d="M178.642 3.63284C178.627 3.64308 178.609 3.65149 178.591 3.65779C178.347 3.74006 178.103 3.82638 177.867 3.91471C177.819 3.93056 177.766 3.93153 177.717 3.91744C177.669 3.90334 177.629 3.87526 177.606 3.83907C177.584 3.80287 177.58 3.76135 177.596 3.72318C177.613 3.685 177.647 3.65312 177.693 3.63419C177.933 3.54451 178.182 3.45617 178.432 3.37188C178.476 3.3573 178.526 3.3554 178.571 3.36653C178.617 3.37765 178.656 3.40107 178.682 3.43256C178.707 3.46404 178.717 3.50152 178.71 3.53825C178.703 3.57497 178.679 3.60852 178.643 3.63284H178.642Z" fill="#91B3FA"/>
<path d="M182.048 6.19192C182 6.19839 181.957 6.21619 181.923 6.2428C181.889 6.26941 181.867 6.30349 181.86 6.34027L181.424 8.49001C180.201 8.89705 179.071 9.45601 178.081 10.1448L175.379 9.55072C175.333 9.54035 175.284 9.54126 175.239 9.55335C175.194 9.56543 175.155 9.58808 175.127 9.61815L173.197 11.7591C173.169 11.7895 173.154 11.8258 173.154 11.863C173.154 11.9002 173.169 11.9365 173.197 11.9668L174.853 13.7234C174.361 14.6811 174.074 15.6944 174.004 16.7235L171.547 17.7835C171.505 17.8018 171.472 17.8296 171.451 17.8632C171.431 17.8968 171.424 17.9344 171.433 17.971L172.025 20.5402C172.034 20.5768 172.057 20.6106 172.091 20.6367C172.126 20.6628 172.17 20.68 172.217 20.6858L174.996 21.023C175.522 21.9697 176.245 22.8436 177.135 23.6104L176.367 25.7008C176.354 25.7363 176.355 25.7742 176.37 25.8093C176.386 25.8443 176.415 25.8747 176.454 25.8963L179.223 27.3886C179.262 27.4103 179.308 27.4219 179.356 27.4219C179.404 27.4219 179.451 27.4103 179.49 27.3886L181.762 26.1074C183 26.4879 184.309 26.7099 185.64 26.7648L187.01 28.6651C187.033 28.6977 187.069 28.7238 187.112 28.7397C187.156 28.7557 187.205 28.7607 187.252 28.7541L190.573 28.2949C190.62 28.2886 190.664 28.2709 190.698 28.2442C190.731 28.2176 190.753 28.1834 190.76 28.1465L191.196 25.9968C192.421 25.5895 193.551 25.0303 194.542 24.3413L197.244 24.9347C197.29 24.9452 197.339 24.9443 197.385 24.9322C197.43 24.9201 197.469 24.8974 197.497 24.8673L199.426 22.7263C199.454 22.696 199.469 22.6597 199.469 22.6225C199.469 22.5853 199.454 22.549 199.426 22.5186L197.77 20.7613C198.262 19.8037 198.549 18.7904 198.619 17.7613L201.076 16.7019C201.118 16.6836 201.151 16.6558 201.172 16.6222C201.193 16.5887 201.199 16.5511 201.191 16.5145L200.598 13.9446C200.589 13.908 200.566 13.8743 200.532 13.8483C200.498 13.8223 200.453 13.8053 200.406 13.7996L197.627 13.4625C197.101 12.5159 196.378 11.6421 195.488 10.8758L196.256 8.78537C196.27 8.74981 196.269 8.71185 196.253 8.67679C196.237 8.64173 196.208 8.61132 196.169 8.58981L193.401 7.09686C193.362 7.07528 193.315 7.06368 193.267 7.06368C193.219 7.06368 193.172 7.07528 193.133 7.09686L190.862 8.37808C189.624 7.99693 188.314 7.77485 186.984 7.72061L185.613 5.82037C185.59 5.7878 185.554 5.76169 185.511 5.74572C185.467 5.72976 185.418 5.72473 185.371 5.73136L182.048 6.19192Z" fill="#91B3FA"/>
<path d="M188.466 19.1782C187.858 19.585 187.078 19.8058 186.274 19.7992C185.469 19.7925 184.696 19.5589 184.098 19.1421C183.501 18.7253 183.121 18.1541 183.03 17.5359C182.939 16.9176 183.143 16.2949 183.603 15.7847C184.064 15.2745 184.749 14.912 185.531 14.7653C186.313 14.6186 187.137 14.6978 187.848 14.9881C188.56 15.2783 189.109 15.7596 189.395 16.3414C189.68 16.9233 189.68 17.5657 189.396 18.1479C189.203 18.5462 188.883 18.9005 188.466 19.1782ZM184.552 15.667C184.211 15.8939 183.95 16.1836 183.792 16.5092C183.562 16.9826 183.563 17.5046 183.795 17.9772C184.028 18.4498 184.475 18.8406 185.054 19.0761C185.632 19.3116 186.302 19.3756 186.937 19.2562C187.572 19.1368 188.129 18.8421 188.503 18.4275C188.877 18.0129 189.043 17.5069 188.969 17.0045C188.895 16.5021 188.586 16.0378 188.101 15.6989C187.616 15.36 186.988 15.1698 186.334 15.1639C185.681 15.158 185.047 15.3369 184.552 15.667Z" fill="#BDD0FB"/>
<path d="M191.836 22.2528C190.278 23.2908 188.284 23.8532 186.228 23.8344C184.172 23.8156 182.195 23.2169 180.669 22.1507C179.143 21.0845 178.172 19.624 177.939 18.0434C177.706 16.4628 178.227 14.8708 179.403 13.5661C179.444 13.5212 179.484 13.4762 179.526 13.4313C179.808 13.1355 180.12 12.8583 180.461 12.6025L180.581 12.5142L180.992 12.8561C180.584 13.1506 180.218 13.4777 179.899 13.8318L179.89 13.8419C178.904 14.9413 178.417 16.262 178.503 17.5982C178.589 18.9344 179.244 20.2111 180.365 21.2292C181.487 22.2474 183.013 22.9498 184.705 23.2271C186.397 23.5044 188.159 23.3409 189.719 22.7622C191.278 22.1835 192.546 21.222 193.325 20.0276C194.104 18.8332 194.35 17.473 194.026 16.1589C193.701 14.8448 192.824 13.6507 191.53 12.7626C190.237 11.8745 188.6 11.3424 186.875 11.2492L186.916 10.7832C188.586 10.8735 190.183 11.3456 191.506 12.1396C192.828 12.9337 193.815 14.0138 194.343 15.2428C194.87 16.4719 194.913 17.7944 194.467 19.0425C194.021 20.2906 193.105 21.408 191.836 22.2528Z" fill="#BDD0FB"/>
<path d="M16.7239 160.587C16.7264 161.365 17.1271 162.111 17.8383 162.661C18.5495 163.211 19.5133 163.521 20.519 163.522H225.724C226.729 163.521 227.692 163.211 228.403 162.662C229.114 162.112 229.515 161.367 229.519 160.59L231.226 69.3593C231.226 67.7464 228.769 64.5973 224.267 64.834L23.7179 60.817C22.4228 60.7906 21.1342 60.9681 19.9305 61.3386C18.7268 61.7092 17.6329 62.2651 16.7153 62.9727C15.7977 63.6802 15.0755 64.5246 14.5926 65.4546C14.1096 66.3847 13.876 67.3809 13.9059 68.3829L16.7239 160.587Z" fill="url(#paint1_linear_1122_67057)"/>
<path d="M20.4684 157.775C20.4713 158.511 20.8506 159.216 21.5232 159.736C22.1959 160.257 23.1073 160.55 24.0586 160.552H220.772C221.723 160.55 222.635 160.257 223.307 159.736C223.98 159.216 224.359 158.511 224.362 157.775L225.973 74.955C225.784 69.9711 220.133 68.1801 216.712 68.286L24.5049 64.2967C23.5945 64.2783 22.6887 64.4033 21.8427 64.664C20.9966 64.9247 20.2278 65.3157 19.583 65.8132C18.9382 66.3108 18.4309 66.9046 18.0917 67.5584C17.7526 68.2123 17.5888 68.9127 17.6103 69.6171L20.4684 157.775Z" fill="#D1DDF8"/>
<path d="M222.236 118.429C222.167 118.429 222.098 118.419 222.034 118.398C221.97 118.377 221.911 118.346 221.863 118.308C221.814 118.269 221.776 118.224 221.75 118.173C221.724 118.123 221.712 118.07 221.714 118.016L221.841 111.299C221.842 111.192 221.898 111.091 221.996 111.016C222.094 110.941 222.226 110.898 222.364 110.898H222.372C222.441 110.899 222.509 110.91 222.573 110.931C222.636 110.952 222.694 110.983 222.742 111.021C222.79 111.06 222.828 111.105 222.853 111.155C222.879 111.205 222.891 111.258 222.889 111.312L222.762 118.028C222.761 118.135 222.705 118.237 222.606 118.313C222.508 118.388 222.375 118.43 222.236 118.429Z" fill="#BDD0FB"/>
<path d="M222.55 101.971H222.542C222.473 101.971 222.405 101.96 222.341 101.938C222.278 101.917 222.22 101.887 222.172 101.848C222.124 101.81 222.086 101.765 222.061 101.715C222.035 101.665 222.023 101.612 222.024 101.558L222.513 75.8337C222.503 74.3057 221.902 73.0859 220.73 72.216C218.54 70.5922 215.064 70.6751 214.915 70.6805L153.483 69.4061C153.413 69.4049 153.345 69.3932 153.282 69.3716C153.219 69.3499 153.162 69.3188 153.114 69.28C153.067 69.2412 153.029 69.1954 153.005 69.1454C152.98 69.0954 152.969 69.0421 152.971 68.9887C152.97 68.9345 152.983 68.8808 153.01 68.8308C153.037 68.7809 153.077 68.7358 153.128 68.6986C153.179 68.6613 153.239 68.6327 153.305 68.6145C153.371 68.5962 153.441 68.5889 153.511 68.5928L214.908 69.8673C215.289 69.8498 218.992 69.7999 221.458 71.628C222.846 72.6563 223.554 74.0731 223.565 75.8378L223.077 101.571C223.075 101.678 223.019 101.78 222.92 101.855C222.822 101.93 222.688 101.972 222.55 101.971Z" fill="#BDD0FB"/>
<path d="M0.568771 171.094L241.51 171.094C241.782 171.094 242.003 170.923 242.003 170.713V163.459C242.003 163.249 241.782 163.078 241.51 163.078L0.568771 163.078C0.296799 163.078 0.0763092 163.249 0.0763092 163.459V170.713C0.0763092 170.923 0.296799 171.094 0.568771 171.094Z" fill="url(#paint2_linear_1122_67057)"/>
<path d="M60.2969 30.1598C60.2969 27.4771 61.6744 24.9044 64.1263 23.0075C66.5783 21.1106 69.9038 20.0449 73.3714 20.0449H184.546C187.5 20.0444 190.341 20.9218 192.482 22.4958C194.623 24.0698 195.901 26.2201 196.051 28.5023L204.258 153.199C204.316 154.079 204.144 154.959 203.754 155.787C203.363 156.614 202.762 157.373 201.985 158.017C201.208 158.661 200.271 159.178 199.231 159.536C198.191 159.895 197.068 160.088 195.929 160.104L68.5077 161.895C67.4368 161.91 66.3729 161.76 65.3779 161.453C64.3829 161.147 63.4768 160.69 62.7126 160.109C61.9484 159.529 61.3414 158.836 60.9271 158.072C60.5128 157.308 60.2994 156.488 60.2995 155.659L60.2969 30.1598Z" fill="url(#paint3_linear_1122_67057)"/>
<path d="M87.1325 159.775L72.8751 159.632C68.1073 159.584 64.2285 156.545 64.2285 152.857V136.201C64.2285 136.138 64.2607 136.078 64.3179 136.034C64.3751 135.99 64.4527 135.965 64.5336 135.965C64.6145 135.965 64.6921 135.99 64.7493 136.034C64.8065 136.078 64.8387 136.138 64.8387 136.201V152.857C64.8387 156.288 68.4472 159.117 72.8839 159.162L87.1412 159.304C87.2221 159.304 87.2997 159.329 87.3569 159.373C87.4141 159.417 87.4463 159.477 87.4463 159.54C87.4463 159.602 87.4141 159.662 87.3569 159.707C87.2997 159.751 87.2221 159.776 87.1412 159.776L87.1325 159.775Z" fill="#91B3FA"/>
<path d="M64.5248 131.28C64.444 131.28 64.3666 131.255 64.3094 131.211C64.2522 131.167 64.22 131.107 64.2197 131.045V128.347C64.2197 128.285 64.2519 128.225 64.3091 128.18C64.3663 128.136 64.4439 128.111 64.5248 128.111C64.6057 128.111 64.6833 128.136 64.7405 128.18C64.7977 128.225 64.8299 128.285 64.8299 128.347V131.045C64.8299 131.076 64.822 131.106 64.8066 131.135C64.7913 131.163 64.7688 131.189 64.7405 131.211C64.7121 131.233 64.6785 131.25 64.6415 131.262C64.6045 131.274 64.5648 131.28 64.5248 131.28Z" fill="#91B3FA"/>
<path d="M69.4044 21.9648C69.4009 21.5442 69.5141 21.1279 69.7365 20.7442C69.9588 20.3604 70.2851 20.018 70.6932 19.7402C71.1014 19.4623 71.5818 19.2555 72.1022 19.1337C72.6225 19.0119 73.1706 18.978 73.7094 19.0342C88.8906 20.6269 141.098 25.5535 184.262 22.9897C184.729 22.9613 185.199 23.0055 185.644 23.1196C186.088 23.2338 186.499 23.4156 186.851 23.6544C187.204 23.8931 187.491 24.1841 187.696 24.51C187.901 24.8359 188.019 25.1903 188.044 25.5522L196.649 150.805C196.706 151.63 196.339 152.439 195.627 153.055C194.916 153.67 193.918 154.044 192.852 154.092C174.699 154.924 99.936 158.138 73.264 155.976C72.4803 155.911 71.7548 155.626 71.2263 155.174C70.6978 154.721 70.4036 154.134 70.3998 153.525L69.4044 21.9648Z" fill="#7D97F4"/>
<path d="M71.1934 25.1028C71.1901 24.698 71.2991 24.2973 71.5132 23.9279C71.7274 23.5585 72.0415 23.229 72.4345 22.9617C72.8275 22.6944 73.2901 22.4955 73.791 22.3785C74.2919 22.2615 74.8195 22.2291 75.3381 22.2834C89.9484 23.8162 140.188 28.5546 181.729 26.09C182.178 26.0629 182.63 26.1055 183.057 26.2154C183.485 26.3253 183.88 26.5003 184.219 26.73C184.558 26.9597 184.834 27.2395 185.031 27.553C185.228 27.8664 185.342 28.2072 185.366 28.5553L193.647 149.093C193.702 149.886 193.348 150.665 192.664 151.258C191.979 151.85 191.019 152.21 189.994 152.256C172.523 153.056 100.575 156.148 74.911 154.068C74.1563 154.007 73.4577 153.732 72.9489 153.296C72.4402 152.861 72.1571 152.295 72.154 151.708L71.1934 25.1028Z" fill="#BDD0FB"/>
<path opacity="0.78" d="M84.7188 34.3962L86.2703 60.2376C86.2947 60.6518 86.5207 61.0435 86.9028 61.3341C87.285 61.6248 87.7951 61.7929 88.3308 61.8047C94.5194 61.9396 113.794 62.3037 124.678 61.8647C125.272 61.8406 125.832 61.645 126.248 61.3166C126.664 60.9881 126.905 60.5508 126.924 60.0912C127.132 55.2449 127.586 41.1394 126.158 35.2431C126.046 34.7805 125.732 34.3613 125.271 34.0548C124.809 33.7483 124.225 33.5728 123.617 33.5573L87.053 32.5694C86.7412 32.561 86.4305 32.6026 86.1406 32.6917C85.8506 32.7808 85.5877 32.9154 85.3684 33.087C85.149 33.2587 84.9781 33.4636 84.8663 33.6889C84.7545 33.9143 84.7042 34.1551 84.7188 34.3962Z" fill="white"/>
<g opacity="0.6">
<path d="M176.199 36.6449C176.916 36.6449 177.488 36.2544 177.469 35.7777C177.451 35.3009 176.85 34.9011 176.135 34.893L136.04 34.34C135.323 34.3299 134.932 34.75 135.168 35.2726L135.36 35.6941C135.598 36.2167 136.379 36.6449 137.095 36.6449H176.199Z" fill="white"/>
</g>
<g opacity="0.6">
<path d="M136.039 39.1603C135.322 39.1509 134.931 39.5703 135.167 40.0929L135.359 40.5144C135.597 41.0376 136.378 41.4652 137.094 41.4652H176.198C176.915 41.4652 177.487 41.0747 177.468 40.598C177.45 40.1212 176.849 39.7214 176.134 39.7133L136.039 39.1603Z" fill="white"/>
</g>
<g opacity="0.6">
<path d="M136.039 44.0451C135.322 44.0356 134.931 44.4551 135.167 44.9777L135.359 45.3991C135.597 45.9224 136.378 46.3499 137.094 46.3499H176.198C176.915 46.3499 177.487 45.9595 177.468 45.4827C177.45 45.006 176.849 44.6061 176.134 44.598L136.039 44.0451Z" fill="white"/>
</g>
<g opacity="0.6">
<path d="M180.095 69.9199C180.811 69.9199 181.364 69.5294 181.323 69.0527C181.282 68.5759 180.663 68.1828 179.946 68.1761L86.0103 67.6036C85.2938 67.5988 85.0724 67.9502 85.5187 68.3838L86.2866 69.1295C86.7329 69.5631 87.6812 69.9178 88.4003 69.9178L180.095 69.9199Z" fill="white"/>
</g>
<g opacity="0.6">
<path d="M86.0103 73.7871C85.2938 73.7831 85.0724 74.1344 85.5187 74.568L86.2866 75.3098C86.7329 75.7434 87.6812 76.0987 88.4003 76.0987H180.096C180.813 76.0987 181.365 75.7083 181.324 75.2315C181.283 74.7548 180.665 74.361 179.948 74.3549L86.0103 73.7871Z" fill="white"/>
</g>
<path d="M97.7086 105.276H97.6868L89.7593 105.217C88.6261 105.208 87.6909 104.605 87.5802 103.814L86.8829 98.6687C86.8631 98.5178 86.8832 98.3654 86.9419 98.2207C87.0006 98.076 87.0968 97.9421 87.2246 97.8271C87.3765 97.6912 87.562 97.5803 87.7703 97.5009C87.9785 97.4214 88.2052 97.3751 88.437 97.3645C89.1055 97.3288 90.046 97.2667 91.0414 97.2013C93.1386 97.0665 95.7483 96.8911 97.2161 96.877C98.2821 96.8729 99.1851 97.3605 99.4362 98.0786C99.8493 99.26 99.8136 101.496 99.7343 103.878C99.7133 104.654 98.8051 105.276 97.7086 105.276ZM88.4832 97.8345C88.3335 97.8409 88.187 97.8704 88.0523 97.9212C87.9176 97.9721 87.7974 98.0432 87.6987 98.1305C87.6242 98.1973 87.5679 98.275 87.5333 98.359C87.4987 98.443 87.4865 98.5316 87.4974 98.6194L88.1947 103.765C88.2697 104.318 88.9469 104.74 89.7706 104.746L97.7025 104.805H97.7182C98.4869 104.805 99.1232 104.386 99.1398 103.866C99.2174 101.52 99.254 99.3214 98.8626 98.202C98.6883 97.6996 98.0119 97.3504 97.2379 97.349C95.7919 97.3632 93.1944 97.5338 91.1077 97.6713C90.1088 97.7388 89.1657 97.7994 88.4928 97.8352L88.4832 97.8345Z" fill="white"/>
<path opacity="0.6" d="M89.335 98.3657C91.0007 98.2781 94.6206 97.9935 96.3377 97.9767C97.0647 97.9699 97.7027 98.3098 97.8736 98.798C98.2048 99.7461 98.1612 101.635 98.1037 103.379C98.0862 103.901 97.4665 104.318 96.7091 104.312L90.374 104.265C89.5948 104.259 88.948 103.849 88.8757 103.313L88.3187 99.1999C88.2655 98.7751 88.7179 98.3988 89.335 98.3657Z" fill="white"/>
<g opacity="0.6">
<path d="M104.672 101.859C104.783 102.186 105.032 102.475 105.379 102.68C105.727 102.885 106.152 102.996 106.589 102.993L179.943 102.51C180.338 102.509 180.716 102.387 180.995 102.171C181.274 101.954 181.43 101.661 181.429 101.356C181.428 101.05 181.271 100.757 180.991 100.542C180.711 100.326 180.332 100.206 179.937 100.206L106.581 99.9473C106.279 99.9466 105.981 99.9996 105.71 100.102C105.439 100.205 105.202 100.354 105.017 100.539C104.833 100.724 104.706 100.939 104.646 101.168C104.586 101.397 104.595 101.633 104.672 101.859Z" fill="white"/>
</g>
<path d="M97.7086 118.421H97.6868L89.7593 118.363C88.6262 118.354 87.6909 117.751 87.5802 116.96L86.8829 111.814C86.8631 111.664 86.8831 111.511 86.9419 111.367C87.0006 111.222 87.0968 111.088 87.2246 110.974C87.3766 110.838 87.5622 110.727 87.7704 110.647C87.9786 110.568 88.2052 110.521 88.437 110.51C89.1056 110.475 90.0461 110.413 91.0415 110.347C93.1386 110.209 95.7483 110.038 97.2161 110.023H97.2484C98.2943 110.023 99.1878 110.515 99.4362 111.225C99.8493 112.406 99.8136 114.643 99.7343 117.024C99.7134 117.798 98.8051 118.421 97.7086 118.421ZM88.4832 110.98C88.3337 110.987 88.1873 111.017 88.0527 111.068C87.918 111.118 87.7977 111.189 87.6987 111.276C87.6242 111.343 87.5679 111.421 87.5333 111.505C87.4987 111.589 87.4865 111.677 87.4974 111.765L88.1947 116.911C88.2697 117.464 88.9469 117.885 89.7706 117.892L97.7025 117.951H97.7182C98.487 117.951 99.1233 117.532 99.1398 117.012C99.2174 114.666 99.254 112.468 98.8626 111.348C98.6883 110.846 98.0023 110.485 97.2379 110.495C95.7919 110.509 93.1944 110.68 91.1077 110.817C90.1088 110.885 89.1657 110.945 88.4928 110.981L88.4832 110.98Z" fill="white"/>
<path opacity="0.6" d="M89.335 111.512C91.0007 111.424 94.6206 111.139 96.3377 111.123C97.0647 111.116 97.7027 111.456 97.8736 111.944C98.2048 112.892 98.1612 114.781 98.1037 116.524C98.0862 117.047 97.4665 117.464 96.7091 117.458L90.374 117.411C89.5948 117.405 88.948 116.995 88.8757 116.459L88.3187 112.346C88.2655 111.922 88.7179 111.545 89.335 111.512Z" fill="white"/>
<g opacity="0.6">
<path d="M104.672 115.007C104.783 115.334 105.032 115.622 105.379 115.828C105.727 116.033 106.152 116.143 106.589 116.141L179.943 115.657C180.338 115.657 180.717 115.535 180.995 115.318C181.274 115.102 181.43 114.809 181.429 114.503C181.428 114.198 181.271 113.905 180.991 113.69C180.711 113.474 180.332 113.353 179.937 113.354L106.581 113.096C106.279 113.095 105.981 113.148 105.71 113.25C105.439 113.353 105.202 113.502 105.018 113.687C104.833 113.872 104.706 114.087 104.646 114.316C104.586 114.545 104.595 114.781 104.672 115.007Z" fill="white"/>
</g>
<path d="M97.7086 131.567H97.6868L89.7593 131.507C88.6262 131.499 87.6909 130.896 87.5802 130.105L86.8829 124.959C86.8631 124.808 86.8831 124.656 86.9419 124.511C87.0006 124.367 87.0968 124.233 87.2246 124.118C87.3766 123.982 87.5622 123.871 87.7704 123.792C87.9786 123.712 88.2052 123.666 88.437 123.655C89.1056 123.62 90.0461 123.558 91.0415 123.492C93.1386 123.357 95.7483 123.182 97.2161 123.168H97.2484C98.2943 123.168 99.1878 123.66 99.4362 124.37C99.8493 125.551 99.8136 127.787 99.7343 130.169C99.7134 130.943 98.8051 131.567 97.7086 131.567ZM88.4832 124.125C88.3337 124.132 88.1873 124.161 88.0527 124.212C87.918 124.263 87.7977 124.334 87.6987 124.421C87.6242 124.488 87.5679 124.566 87.5333 124.65C87.4987 124.734 87.4865 124.823 87.4974 124.91L88.1947 130.056C88.2697 130.609 88.9469 131.031 89.7698 131.037L97.7016 131.095H97.7173C98.4861 131.095 99.1224 130.677 99.139 130.157C99.2165 127.811 99.2531 125.612 98.8618 124.492C98.6875 123.99 98.0015 123.628 97.2371 123.639C95.791 123.653 93.1935 123.824 91.1068 123.962C90.1079 124.029 89.1648 124.089 88.4919 124.125H88.4832Z" fill="white"/>
<path opacity="0.6" d="M89.335 124.659C91.0007 124.57 94.6206 124.286 96.3377 124.27C97.0647 124.263 97.7027 124.603 97.8736 125.091C98.2048 126.038 98.1612 127.928 98.1037 129.672C98.0862 130.194 97.4665 130.61 96.7091 130.605L90.374 130.558C89.5948 130.552 88.948 130.141 88.8757 129.606L88.3187 125.492C88.2655 125.068 88.7179 124.691 89.335 124.659Z" fill="white"/>
<g opacity="0.6">
<path d="M104.672 128.149C104.783 128.476 105.032 128.765 105.379 128.971C105.726 129.176 106.152 129.286 106.589 129.284L179.943 128.8C180.332 128.792 180.701 128.667 180.972 128.452C181.243 128.236 181.394 127.947 181.393 127.646C181.392 127.346 181.24 127.057 180.968 126.842C180.696 126.628 180.326 126.504 179.937 126.497L106.581 126.238C106.279 126.237 105.981 126.29 105.71 126.393C105.439 126.495 105.202 126.645 105.018 126.83C104.833 127.014 104.706 127.229 104.646 127.458C104.586 127.687 104.595 127.924 104.672 128.149Z" fill="white"/>
</g>
<path d="M97.7085 144.713H97.6868L89.7592 144.654C88.6261 144.646 87.6909 144.043 87.5802 143.252L86.8828 138.106C86.8631 137.955 86.8832 137.803 86.9419 137.658C87.0007 137.514 87.0968 137.38 87.2245 137.265C87.3766 137.129 87.5621 137.018 87.7703 136.938C87.9785 136.859 88.2052 136.812 88.437 136.801C89.1055 136.766 90.046 136.704 91.0414 136.639C93.1386 136.504 95.7482 136.329 97.2161 136.314H97.2483C98.2943 136.314 99.1877 136.805 99.4361 137.516C99.8493 138.698 99.8135 140.934 99.7342 143.315C99.7133 144.089 98.8051 144.713 97.7085 144.713ZM88.4832 137.271C88.3335 137.278 88.1872 137.308 88.0525 137.359C87.9179 137.41 87.7976 137.481 87.6987 137.568C87.6241 137.635 87.5677 137.712 87.5331 137.796C87.4985 137.881 87.4863 137.969 87.4974 138.057L88.1947 143.203C88.2696 143.756 88.9469 144.177 89.7697 144.183L97.7016 144.242H97.7173C98.4861 144.242 99.1223 143.823 99.1389 143.304C99.2165 140.958 99.2531 138.759 98.8617 137.639C98.6874 137.138 98.0014 136.773 97.237 136.786C95.791 136.8 93.1935 136.971 91.1068 137.109C90.1079 137.176 89.1648 137.237 88.4919 137.272L88.4832 137.271Z" fill="white"/>
<path opacity="0.6" d="M89.335 137.803C91.0007 137.716 94.6206 137.431 96.3377 137.414C97.0647 137.407 97.7027 137.747 97.8736 138.235C98.2048 139.183 98.1612 141.072 98.1037 142.816C98.0862 143.338 97.4665 143.755 96.7091 143.749L90.374 143.703C89.5948 143.697 88.948 143.285 88.8757 142.751L88.3187 138.637C88.2655 138.213 88.7179 137.836 89.335 137.803Z" fill="white"/>
<g opacity="0.6">
<path d="M104.672 141.295C104.784 141.621 105.033 141.91 105.38 142.116C105.727 142.321 106.153 142.431 106.59 142.429L179.944 141.945C180.332 141.937 180.702 141.812 180.973 141.596C181.243 141.381 181.395 141.092 181.394 140.791C181.393 140.49 181.24 140.202 180.968 139.987C180.696 139.772 180.326 139.648 179.938 139.642L106.585 139.381C106.282 139.38 105.984 139.433 105.712 139.535C105.44 139.638 105.203 139.787 105.018 139.972C104.833 140.158 104.705 140.373 104.645 140.602C104.586 140.832 104.595 141.068 104.672 141.295Z" fill="white"/>
</g>
<path d="M97.0097 93.8401H96.9879L89.056 93.7814C87.9229 93.7727 86.9885 93.1698 86.8813 92.3788L86.184 87.2331C86.1644 87.0822 86.1846 86.9299 86.2434 86.7852C86.3021 86.6406 86.3981 86.5066 86.5257 86.3915C86.6778 86.2556 86.8635 86.1447 87.0719 86.0651C87.2802 85.9856 87.507 85.939 87.739 85.9283C88.4066 85.8932 89.3471 85.8312 90.3434 85.7658C92.4397 85.6309 95.0503 85.4556 96.5181 85.4414H96.5503C97.5963 85.4414 98.4897 85.9323 98.7381 86.643C99.1513 87.8238 99.1147 90.0605 99.0362 92.4422C99.0145 93.2163 98.1053 93.8401 97.0097 93.8401ZM87.7834 86.3983C87.6337 86.4049 87.4873 86.4345 87.3525 86.4855C87.2178 86.5364 87.0976 86.6076 86.999 86.695C86.924 86.7615 86.8675 86.8392 86.8327 86.9233C86.7979 87.0073 86.7857 87.096 86.7967 87.1839L87.4941 92.3296C87.5681 92.8826 88.2463 93.304 89.0691 93.3101L97.001 93.3687H97.0167C97.7846 93.3687 98.4209 92.95 98.4383 92.4308C98.5159 90.0841 98.5525 87.8858 98.1611 86.7664C97.9868 86.2647 97.3008 85.8999 96.5364 85.9128C95.0895 85.9269 92.492 86.0982 90.4053 86.2358C89.4073 86.3032 88.4633 86.3639 87.7904 86.3989L87.7834 86.3983Z" fill="white"/>
<path opacity="0.6" d="M88.6368 86.9282C90.3025 86.8406 93.9224 86.556 95.6387 86.5392C96.3665 86.5324 97.0045 86.8723 97.1754 87.3605C97.5066 88.3045 97.4621 90.1974 97.4055 91.9412C97.388 92.4631 96.7674 92.8805 96.0109 92.8744L89.675 92.8272C88.8966 92.8218 88.2489 92.4105 88.1766 91.8758L87.6196 87.7624C87.5621 87.3376 88.0197 86.9613 88.6368 86.9282Z" fill="white"/>
<g opacity="0.6">
<path d="M103.974 90.4215C104.085 90.7484 104.334 91.0374 104.681 91.2427C105.028 91.4481 105.454 91.5582 105.891 91.5557L179.245 91.0715C179.634 91.0637 180.003 90.9386 180.274 90.723C180.545 90.5075 180.696 90.2185 180.695 89.9178C180.694 89.6172 180.542 89.3287 180.27 89.114C179.998 88.8993 179.628 88.7754 179.239 88.7687L105.883 88.5098C105.581 88.509 105.283 88.5619 105.012 88.6644C104.741 88.767 104.504 88.9165 104.319 89.1013C104.134 89.2861 104.007 89.5013 103.947 89.7302C103.887 89.9591 103.896 90.1957 103.974 90.4215Z" fill="white"/>
</g>
<path d="M135.857 3.04202C131.841 0.880813 128.35 0.923295 125.892 1.48501C124.805 1.73525 123.863 2.26945 123.228 2.99654C122.593 3.72363 122.304 4.5986 122.409 5.47228L123.469 14.4239L136.084 15.2897C136.084 15.2897 143.729 7.28149 135.857 3.04202ZM130.31 10.2633C129.688 10.2633 129.08 10.1206 128.562 9.85315C128.045 9.58571 127.642 9.20559 127.404 8.76086C127.166 8.31614 127.103 7.82678 127.225 7.35468C127.346 6.88259 127.646 6.44896 128.086 6.10864C128.526 5.76831 129.087 5.53658 129.697 5.44276C130.307 5.34893 130.94 5.39722 131.514 5.58152C132.089 5.76582 132.58 6.07785 132.926 6.47815C133.272 6.87844 133.456 7.34903 133.456 7.83039C133.456 8.15023 133.374 8.46693 133.216 8.76237C133.057 9.05782 132.825 9.3262 132.533 9.55218C132.24 9.77815 131.893 9.95728 131.511 10.0793C131.129 10.2013 130.719 10.2639 130.306 10.2633H130.31Z" fill="url(#paint4_linear_1122_67057)"/>
<path d="M124.726 10.6599C124.65 10.6598 124.577 10.6378 124.52 10.5981C124.464 10.5584 124.429 10.504 124.422 10.4454L124.254 9.01992C124.25 8.9888 124.253 8.95729 124.265 8.92726C124.276 8.89722 124.295 8.86925 124.321 8.84499C124.347 8.82073 124.378 8.80067 124.414 8.78598C124.45 8.77129 124.489 8.76226 124.529 8.75944C124.569 8.75661 124.61 8.76003 124.649 8.76951C124.687 8.77899 124.723 8.79433 124.754 8.81464C124.785 8.83494 124.81 8.8598 124.828 8.88775C124.846 8.91571 124.857 8.9462 124.86 8.97744L125.029 10.403C125.036 10.4651 125.011 10.5269 124.96 10.5749C124.908 10.6228 124.834 10.6529 124.754 10.6585L124.726 10.6599ZM124.395 7.86616C124.319 7.86605 124.246 7.84399 124.19 7.80432C124.134 7.76464 124.099 7.71021 124.092 7.65172L123.964 6.5728C123.865 5.74062 124.141 4.9076 124.746 4.21511C125.351 3.52262 126.247 3.01333 127.281 2.77367C128.779 2.43002 130.363 2.37973 131.892 2.62734C131.971 2.63995 132.041 2.67634 132.085 2.7285C132.13 2.78067 132.145 2.84433 132.129 2.9055C132.113 2.96666 132.066 3.02031 131.998 3.05465C131.931 3.08898 131.849 3.10119 131.769 3.08858C130.339 2.85644 128.856 2.90278 127.454 3.22344C126.554 3.43218 125.776 3.87522 125.25 4.47744C124.724 5.07966 124.484 5.80399 124.57 6.52762L124.698 7.60991C124.705 7.67213 124.68 7.73404 124.629 7.78207C124.577 7.8301 124.503 7.86034 124.422 7.86616H124.395Z" fill="#91B3FA"/>
<path d="M106.249 20.2087V15.7109C106.249 15.3424 106.345 14.9777 106.531 14.6384C106.717 14.2992 106.99 13.9924 107.332 13.7363C107.675 13.4802 108.08 13.2801 108.525 13.1478C108.97 13.0155 109.444 12.9539 109.92 12.9664L150.029 14.0251C150.887 14.0479 151.704 14.3177 152.32 14.7817C152.935 15.2458 153.305 15.8707 153.357 16.5343L153.691 20.8587L106.249 20.2087Z" fill="url(#paint5_linear_1122_67057)"/>
<path d="M121.205 14.6615H119.48C119.399 14.6615 119.321 14.6366 119.264 14.5924C119.207 14.5481 119.175 14.4881 119.175 14.4255C119.175 14.3629 119.207 14.3028 119.264 14.2586C119.321 14.2143 119.399 14.1895 119.48 14.1895H121.205C121.286 14.1895 121.363 14.2143 121.421 14.2586C121.478 14.3028 121.51 14.3629 121.51 14.4255C121.51 14.4881 121.478 14.5481 121.421 14.5924C121.363 14.6366 121.286 14.6615 121.205 14.6615Z" fill="#91B3FA"/>
<path d="M108.42 18.7984C108.339 18.7984 108.262 18.7736 108.205 18.7295C108.148 18.6853 108.116 18.6255 108.116 18.563V16.7424C108.117 16.066 108.464 15.4176 109.083 14.9394C109.701 14.4611 110.539 14.1921 111.413 14.1914H117.754C117.835 14.1914 117.913 14.2163 117.97 14.2605C118.027 14.3048 118.059 14.3648 118.059 14.4274C118.059 14.49 118.027 14.55 117.97 14.5943C117.913 14.6386 117.835 14.6634 117.754 14.6634H111.413C110.7 14.6641 110.017 14.8835 109.513 15.2735C109.009 15.6635 108.725 16.1922 108.724 16.7437V18.5644C108.724 18.6266 108.691 18.6861 108.634 18.7299C108.577 18.7738 108.5 18.7984 108.42 18.7984Z" fill="#91B3FA"/>
<path d="M89.9061 21.3461C89.9529 20.5959 90.371 19.8883 91.0739 19.3701C91.7767 18.8518 92.7103 18.5627 93.6812 18.5625H163.817C165.039 18.5625 166.221 18.8962 167.156 19.5048C168.09 20.1134 168.717 20.9578 168.925 21.8889L168.985 22.1539C169.096 22.6486 169.065 23.156 168.896 23.6407C168.727 24.1253 168.422 24.5754 168.004 24.9595C167.586 25.3435 167.065 25.6523 166.477 25.8641C165.888 26.0759 165.247 26.1857 164.598 26.1857H92.6431C92.2513 26.1857 91.8636 26.1242 91.5034 26.0048C91.1433 25.8855 90.8182 25.7108 90.5479 25.4914C90.2776 25.272 90.0676 25.0124 89.9308 24.7284C89.794 24.4444 89.7331 24.1418 89.7519 23.8391L89.9061 21.3461Z" fill="url(#paint6_linear_1122_67057)"/>
<path d="M98.397 51.9039V50.802C98.397 49.7937 98.5971 48.9146 98.9975 48.1648C99.3979 47.4149 100.127 46.6093 101.185 45.748C102.189 44.8974 102.83 44.231 103.108 43.7486C103.386 43.2662 103.525 42.6522 103.526 41.9064C103.526 41.2239 103.322 40.6676 102.916 40.2374C102.509 39.8072 101.864 39.5921 100.982 39.5921C99.5167 39.5921 97.9768 39.9967 96.3626 40.8059L94.4502 37.6568C96.5307 36.545 99.0037 35.9563 101.532 35.971C103.771 35.971 105.538 36.4511 106.834 37.4113C108.129 38.3716 108.777 39.7072 108.777 41.4181C108.777 42.6153 108.553 43.6308 108.105 44.4647C107.657 45.2987 106.727 46.3036 105.316 47.4796C104.406 48.2461 103.825 48.8366 103.573 49.2511C103.321 49.6656 103.195 50.2298 103.196 50.9436V51.9039H98.397ZM97.4382 57.1636C97.4382 56.3351 97.7264 55.6974 98.3028 55.2505C98.8793 54.8037 99.7172 54.5807 100.817 54.5816C101.929 54.5816 102.771 54.81 103.344 55.2667C103.917 55.7235 104.202 56.3558 104.199 57.1636C104.199 57.9611 103.908 58.5905 103.327 59.0517C102.746 59.5129 101.909 59.7435 100.817 59.7435C99.7314 59.7435 98.897 59.5188 98.3142 59.0692C97.7313 58.6197 97.4402 57.984 97.4408 57.1622L97.4382 57.1636Z" fill="url(#paint7_linear_1122_67057)"/>
<path d="M54.1963 182.852C54.1963 182.852 53.7361 184.864 53.5112 186.858C53.491 187.043 53.5194 187.229 53.5947 187.405C53.67 187.581 53.7906 187.743 53.9493 187.882C54.108 188.021 54.3014 188.134 54.5179 188.214C54.7345 188.293 54.9696 188.338 55.2091 188.345C58.639 188.456 65.9773 188.671 68.6097 188.58C68.7016 188.577 68.7912 188.556 68.8709 188.521C68.9506 188.485 69.0182 188.435 69.0679 188.375C69.1177 188.315 69.1482 188.247 69.1568 188.176C69.1655 188.105 69.1521 188.034 69.1178 187.968C68.9956 187.729 68.759 187.535 68.4571 187.428L56.3362 183.119L54.1963 182.852Z" fill="url(#paint8_linear_1122_67057)"/>
<path d="M53.8203 181.667L54.189 184.075C54.189 184.075 56.3123 184.84 57.7627 183.979L56.8832 181.295L53.8203 181.667Z" fill="url(#paint9_linear_1122_67057)"/>
<path d="M54.0969 136.394C53.9374 137.022 53.241 167.775 57.4893 181.556C57.524 181.664 57.5074 181.779 57.4425 181.879C57.3776 181.979 57.2687 182.057 57.1355 182.1C56.0294 182.431 54.8592 182.614 53.6742 182.644C53.4436 182.65 53.217 182.596 53.03 182.491C52.843 182.387 52.7063 182.237 52.6413 182.066C51.4271 178.868 45.6072 162.848 44.848 147.545C43.9991 130.445 44.848 146.963 44.848 146.963L45.3457 136.393L54.0969 136.394Z" fill="url(#paint10_linear_1122_67057)"/>
<path d="M40.2533 183.9C40.2533 183.9 39.522 184.917 38.8134 187.618C38.7827 187.733 38.7836 187.851 38.816 187.966C38.8483 188.081 38.9115 188.189 39.0013 188.283C39.0911 188.378 39.2056 188.457 39.3374 188.515C39.4691 188.573 39.6152 188.609 39.7661 188.621C40.8992 188.707 42.6425 188.818 44.0371 188.81C44.189 188.81 44.3392 188.785 44.4777 188.736C44.6162 188.688 44.7399 188.617 44.8408 188.53C44.9417 188.442 45.0174 188.338 45.0631 188.226C45.1087 188.114 45.1233 187.996 45.1057 187.879C44.9514 186.893 44.4694 185.275 42.9798 184.015L40.2533 183.9Z" fill="url(#paint11_linear_1122_67057)"/>
<path d="M39.6104 180.804L40.4733 184.445C40.4733 184.445 41.3266 184.936 43.0141 184.58L42.6027 180.662L39.6104 180.804Z" fill="url(#paint12_linear_1122_67057)"/>
<path d="M37.2794 137.341C33.8042 153.566 38.0325 177.443 39.4585 182.116C39.5005 182.256 39.5951 182.383 39.7303 182.481C39.8656 182.58 40.0354 182.645 40.2185 182.669C40.8557 182.751 41.9034 182.817 42.9372 182.585C43.1108 182.546 43.2642 182.465 43.3755 182.355C43.4869 182.244 43.5506 182.11 43.5578 181.97C43.7487 178.194 43.4044 154.997 46.6425 145.831C46.807 145.368 47.1738 144.963 47.6806 144.685L53.9651 141.228L54.4471 135.641L37.2794 137.341Z" fill="url(#paint13_linear_1122_67057)"/>
<path d="M59.4228 106.597C49.0085 106.462 37.5177 108.712 37.5177 108.712C34.4129 122.725 36.9747 138.888 36.9747 138.888C45.0373 140.524 54.1319 137.888 54.1319 137.888C55.4725 132.031 61.7247 115.547 61.7247 115.547C66.8133 115.059 71.005 113.923 74.4567 112.421C71.8235 110.061 70.5823 107.055 70.0428 105.279C66.361 106.165 62.6347 106.638 59.4228 106.597Z" fill="url(#paint14_linear_1122_67057)"/>
<path d="M90.1846 94.7279C89.1613 93.7717 87.8661 94.2242 87.8661 94.2242C86.3337 99.2324 78.2981 103.293 70.042 105.278C70.5815 107.054 71.8227 110.059 74.456 112.419C88.1589 106.46 90.1846 94.7279 90.1846 94.7279Z" fill="url(#paint15_linear_1122_67057)"/>
<path d="M89.9368 94.9709C90.0441 95.2346 88.8037 95.6352 88.0742 94.5589C88.0489 94.0424 87.6383 91.832 88.0419 91.4112C90.1643 89.1724 94.2802 86.3652 94.2802 86.3652C94.9775 86.8966 94.4031 87.4179 94.4031 87.4179L92.4062 89.0275C92.8237 89.6107 93.3336 90.1064 93.5716 90.8104C93.7472 91.3493 93.6473 91.9198 93.2926 92.4031C92.944 92.8913 92.4646 93.5265 92.0122 94.0215C91.1563 94.9642 89.9368 94.9709 89.9368 94.9709Z" fill="url(#paint16_linear_1122_67057)"/>
<path d="M91.533 90.0703L89.7139 91.2639L89.1421 92.4514L90.7642 93.8438C90.7642 93.8438 91.3098 91.4837 91.7151 90.9766C92.1205 90.4695 91.9104 90.2193 91.533 90.0703Z" fill="url(#paint17_linear_1122_67057)"/>
<path d="M41.5125 116.512L37.5178 108.711C37.5178 108.711 27.7903 113.824 26.1865 120.309C28.0248 120.414 31.3693 120.781 34.6414 122.063C35.3666 118.999 41.5125 116.512 41.5125 116.512Z" fill="url(#paint18_linear_1122_67057)"/>
<path d="M50.0131 123.852C50.0131 123.852 39.0915 128.628 35.4071 124.55C34.6418 123.703 34.4587 122.864 34.647 122.06C31.3732 120.779 28.0287 120.411 26.1922 120.307C25.7101 122.262 25.9655 124.34 27.4499 126.443C33.9 135.578 51.4609 125.939 51.4609 125.939L50.0131 123.852Z" fill="url(#paint19_linear_1122_67057)"/>
<path d="M48.7007 129.895L54.6609 113.791C54.6943 113.702 54.7607 113.623 54.852 113.563C54.9433 113.503 55.0554 113.465 55.1743 113.454C56.2543 113.357 59.3834 113.083 62.9972 112.847C67.3493 112.563 72.403 112.332 75.4233 112.528C75.5222 112.534 75.6176 112.559 75.7012 112.601C75.7849 112.642 75.8543 112.699 75.9033 112.765C75.9523 112.832 75.9796 112.907 75.9826 112.984C75.9857 113.061 75.9645 113.137 75.9209 113.206C74.2038 115.894 67.1392 126.827 63.6013 130.41C63.5438 130.469 63.4694 130.517 63.3841 130.549C63.2987 130.581 63.2048 130.598 63.1097 130.597L49.2803 130.497C49.1863 130.497 49.0938 130.479 49.01 130.446C48.9262 130.413 48.8535 130.366 48.7973 130.307C48.7412 130.249 48.7033 130.181 48.6865 130.11C48.6698 130.038 48.6746 129.965 48.7007 129.895Z" fill="url(#paint20_linear_1122_67057)"/>
<path d="M63.6154 111.45L67.937 110.893C67.9899 110.885 68.0444 110.888 68.0951 110.902C68.1458 110.916 68.191 110.94 68.2261 110.971C68.2613 111.003 68.2853 111.041 68.2958 111.082C68.3062 111.122 68.3027 111.165 68.2856 111.204L67.8585 112.207C67.8403 112.25 67.8068 112.288 67.762 112.317C67.7171 112.345 67.6627 112.364 67.6049 112.37L63.4463 112.8C63.3965 112.805 63.3458 112.8 63.2986 112.787C63.2514 112.774 63.2091 112.752 63.1753 112.723C63.1415 112.694 63.1173 112.659 63.1046 112.622C63.092 112.584 63.0914 112.545 63.1029 112.507L63.3644 111.63C63.3785 111.584 63.4099 111.543 63.4546 111.511C63.4993 111.478 63.5552 111.457 63.6154 111.45Z" fill="#91B3FA"/>
<path d="M60.3798 114.279L60.7354 112.845C60.7522 112.775 60.7981 112.71 60.8661 112.662C60.9341 112.613 61.0207 112.583 61.1128 112.575L69.8414 111.89C69.9091 111.885 69.9775 111.892 70.0408 111.912C70.1041 111.931 70.1606 111.962 70.2056 112.001C70.2506 112.041 70.2827 112.088 70.2994 112.139C70.3161 112.19 70.3169 112.244 70.3016 112.295L69.7463 114.083C69.7248 114.152 69.6747 114.214 69.6035 114.26C69.5323 114.306 69.4439 114.332 69.3515 114.336L60.8217 114.668C60.7574 114.671 60.6933 114.662 60.634 114.643C60.5748 114.623 60.522 114.594 60.4795 114.556C60.4371 114.519 60.406 114.475 60.3888 114.427C60.3715 114.379 60.3684 114.328 60.3798 114.279Z" fill="#91B3FA"/>
<path d="M50.141 126.004C50.141 126.004 49.3112 123.363 49.646 122.426C49.9807 121.49 50.63 120.284 52.7926 120.552C54.9551 120.819 57.5072 121.525 57.5072 121.525C57.5072 121.525 57.3782 122.745 55.7343 122.351L56.7541 122.958C56.7541 122.958 56.6077 123.935 55.2192 123.413L56.1675 124.223C56.1675 124.223 55.5713 125.025 54.5498 124.511C53.5282 123.996 53.0384 126.322 50.141 126.004Z" fill="url(#paint21_linear_1122_67057)"/>
<path d="M48.8739 100.055L45.5617 107.468C45.5354 107.528 45.5368 107.592 45.5656 107.651C45.5944 107.71 45.6488 107.759 45.7194 107.79C46.6224 108.176 49.8771 109.293 53.7986 107.369C54.0011 107.271 54.1733 107.14 54.3027 106.985C54.4321 106.829 54.5156 106.654 54.5473 106.471L55.6203 100.055H48.8739Z" fill="url(#paint22_linear_1122_67057)"/>
<path d="M56.0839 93.1914C56.0839 93.1914 59.7221 98.4902 59.2558 100.631C58.7895 102.771 54.2796 102.618 50.3416 100.879L47.5898 95.1577L56.0839 93.1914Z" fill="url(#paint23_linear_1122_67057)"/>
<path d="M50.5153 98.067C50.5528 98.0542 50.5863 98.0353 50.6135 98.0115C50.6406 97.9877 50.6608 97.9597 50.6726 97.9293C50.6843 97.8989 50.6874 97.8669 50.6816 97.8355C50.6759 97.8041 50.6613 97.774 50.6391 97.7474C50.3471 97.4028 49.8005 96.6995 49.6262 96.0845C49.6262 96.0845 48.9725 95.7601 51.291 95.3306C53.6096 94.901 57.0682 94.2348 57.7952 92.7075C58.5038 91.2186 56.642 87.4747 53.6715 90.4579C53.6451 90.4844 53.6112 90.5058 53.5725 90.5205C53.5337 90.5353 53.4911 90.5429 53.4479 90.5429C53.4047 90.5429 53.3621 90.5353 53.3233 90.5205C53.2846 90.5058 53.2507 90.4844 53.2243 90.4579C52.7371 89.967 51.4567 88.9495 49.6785 89.5665C48.0154 90.1437 47.828 91.0871 47.8481 91.5625C47.8499 91.5951 47.8421 91.6276 47.8254 91.6576C47.8086 91.6876 47.7834 91.7142 47.7514 91.7355C47.7195 91.7569 47.6817 91.7724 47.6409 91.7808C47.6002 91.7893 47.5574 91.7905 47.516 91.7843C46.6749 91.6602 44.6562 91.5537 43.7139 93.1559C42.9382 94.4749 43.4428 95.222 43.9022 95.5875C43.9362 95.6143 43.9607 95.6475 43.9732 95.6838C43.9858 95.7201 43.986 95.7583 43.9738 95.7947C43.9616 95.8311 43.9374 95.8644 43.9036 95.8915C43.8699 95.9185 43.8276 95.9383 43.781 95.9489C43.2284 96.0798 42.5146 96.4425 42.586 97.4439C42.6854 98.829 44.6867 98.7069 45.2567 98.6442C45.3025 98.6387 45.3493 98.6419 45.3931 98.6537C45.4369 98.6654 45.4763 98.6853 45.5077 98.7116C45.9959 99.1304 48.1976 100.907 50.5807 101.121C50.6283 101.125 50.6765 101.119 50.7207 101.105C50.7649 101.091 50.8036 101.068 50.8335 101.039C50.8633 101.01 50.8831 100.975 50.8912 100.939C50.8993 100.902 50.8953 100.865 50.8796 100.83L49.8485 98.5107C49.8261 98.4591 49.8293 98.4029 49.8575 98.3531C49.8857 98.3032 49.9368 98.2632 50.001 98.241L50.5153 98.067Z" fill="url(#paint24_linear_1122_67057)"/>
<path d="M50.9312 98.3957C50.9312 98.3957 48.3398 97.0208 48.1507 98.1786C47.9616 99.3364 50.4841 99.8563 51.7331 99.4241L50.9312 98.3957Z" fill="url(#paint25_linear_1122_67057)"/>
<path d="M174.227 96.8462C174.264 96.7904 174.323 96.7446 174.395 96.7149C174.467 96.6851 174.548 96.6728 174.63 96.6795C174.711 96.6862 174.787 96.7116 174.849 96.7524C174.911 96.7932 174.956 96.8475 174.978 96.9083C175.342 97.9238 176.225 99.6959 178.077 100.325C178.171 100.357 178.259 100.388 178.344 100.421C178.394 100.312 178.409 100.195 178.389 100.081C178.369 99.966 178.314 99.8568 178.228 99.762C177.652 99.0809 178.692 98.1517 178.692 98.1517C178.692 98.1517 178.761 98.9703 179.564 99.4855C180.261 99.9299 180.589 100.918 180.115 101.729C179.113 104.741 177.612 108.725 183.459 111.635C189.306 114.546 197.54 106.142 197.54 106.142L193.453 116.166C193.453 116.166 187.145 119.766 179.809 114.703C172.472 109.639 177.334 102.27 177.334 102.27C177.334 102.27 171.74 100.524 174.227 96.8462Z" fill="url(#paint26_linear_1122_67057)"/>
<path d="M198.566 91.4167C198.566 91.4167 196.872 85.538 205.576 87.0943C205.576 87.0943 209.8 86.5602 210.016 89.6453C210.016 89.6453 212.739 91.0337 210.744 93.7033C210.744 93.7033 218.838 91.2845 222.364 96.7729C225.89 102.261 222.649 105.281 219.252 106.067C219.252 106.067 222.004 107.137 220.701 109.551C219.398 111.966 212.799 113.668 208.901 110.731C208.901 110.731 197.808 111.866 198.03 105.804C198.03 105.804 192.871 103.227 198.291 98.2173C203.712 93.2077 198.566 91.4167 198.566 91.4167Z" fill="url(#paint27_linear_1122_67057)"/>
<path d="M198.093 105.041C199.841 104.636 204.934 103.886 209.778 107.345C210.181 107.632 210.475 108 210.627 108.408C210.78 108.815 210.784 109.247 210.641 109.657C209.341 113.366 205.909 124.309 208.918 129.047C208.918 129.047 203.614 133.57 197.828 129.923C197.828 129.923 195.232 121.17 191.831 117.327C189.483 114.674 195.574 107.364 197.115 105.598C197.348 105.331 197.694 105.134 198.093 105.041Z" fill="url(#paint28_linear_1122_67057)"/>
<path d="M202.917 97.6777C202.917 97.6777 205.504 103.338 205.698 105.837C205.698 105.837 202.839 106.842 200.146 105.145C200.146 105.145 199.863 99.4917 199.455 98.4795L202.917 97.6777Z" fill="url(#paint29_linear_1122_67057)"/>
<path d="M199.324 89.9616C199.324 89.9616 192.558 97.2868 196.603 99.4143C200.647 101.542 205.463 96.336 205.463 96.336C205.463 96.336 207.032 92.3271 205.392 90.967C203.751 89.6069 199.324 89.9616 199.324 89.9616Z" fill="url(#paint30_linear_1122_67057)"/>
<path d="M202.456 88.2111C202.456 88.2111 199.348 88.7809 198.912 89.8686C198.476 90.9563 203.32 91.9651 204.677 92.015L205.77 96.4048C205.77 96.4048 209.002 92.2746 207.722 89.8895C206.441 87.5044 202.456 88.2111 202.456 88.2111Z" fill="url(#paint31_linear_1122_67057)"/>
<path d="M204.151 95.7974C204.151 95.7974 206.785 93.4372 207.832 94.9761C208.879 96.5149 205.462 97.6693 204.279 96.9141L204.151 95.7974Z" fill="url(#paint32_linear_1122_67057)"/>
<path d="M191.067 148.305C191.087 148.703 190.186 151.854 189.695 153.536C189.498 154.212 189.635 154.921 190.08 155.522L207.077 177.655C207.282 177.923 207.433 178.213 207.523 178.516C207.835 179.555 208.482 182.1 208.144 184.416L207.264 185.832L211.067 185.164L211.895 177.263L210.818 176.755C209.888 176.316 209.163 175.66 208.749 174.88C207.212 171.992 203.395 164.639 202.411 161.057C201.293 156.984 195.447 153.676 195.447 153.676L196.474 151.798L191.067 148.305Z" fill="url(#paint33_linear_1122_67057)"/>
<path d="M215.296 182.442C215.296 182.442 213.242 179.923 213.001 178.942C212.759 177.962 212.086 176.231 210.821 176.752C210.821 176.752 210.225 181.515 210.431 183.376C210.637 185.237 207.711 185.177 207.711 185.177C207.188 185.25 206.703 185.439 206.317 185.722C205.91 186.037 206.201 186.584 206.776 186.613C208.139 186.684 209.508 186.624 210.851 186.434C211.122 186.393 211.368 186.283 211.55 186.122C211.732 185.961 211.84 185.758 211.856 185.545L212.278 180.063L214.868 182.593L215.296 182.442Z" fill="url(#paint34_linear_1122_67057)"/>
<path d="M201.223 151.829C201.223 151.829 201.822 171.627 201.904 174.439C201.986 177.251 201.329 183.482 197.686 185.345L199.272 186.252C199.272 186.252 201.253 184.95 203.189 182.442C205.368 179.626 206.021 179.111 206.021 179.111L205.299 177.965C204.984 177.465 204.892 176.898 205.037 176.353C205.822 173.405 208.451 163.599 209.167 161.487C210.013 158.992 210.073 155.666 207.13 152.879C204.188 150.093 201.223 151.829 201.223 151.829Z" fill="url(#paint35_linear_1122_67057)"/>
<path d="M204.588 187.145C204.642 187.145 204.695 187.131 204.737 187.103C204.778 187.076 204.805 187.038 204.813 186.996C204.934 186.336 205.439 183.692 205.852 183.005C206.325 182.22 207.871 178.917 205.852 178.637C205.852 178.637 200.831 184.312 199.867 185.077C198.903 185.841 197.688 185.346 197.688 185.346C197.038 185.524 196.466 185.841 196.041 186.261C195.966 186.337 195.92 186.427 195.908 186.522C195.895 186.617 195.918 186.713 195.972 186.799C196.026 186.885 196.11 186.957 196.215 187.008C196.319 187.059 196.44 187.087 196.564 187.087L199.946 187.112C200.425 187.115 200.895 187.006 201.293 186.799C201.691 186.592 201.999 186.297 202.176 185.952C202.772 184.802 203.794 183.115 204.985 182.366L204.367 186.952C204.363 186.976 204.367 187 204.376 187.023C204.386 187.047 204.402 187.068 204.422 187.086C204.443 187.104 204.469 187.119 204.497 187.129C204.526 187.139 204.557 187.144 204.588 187.145Z" fill="url(#paint36_linear_1122_67057)"/>
<path d="M197.022 127.791C197.022 127.791 197.784 129.67 196.613 132.765L189.351 152.388C189.295 152.537 189.314 152.696 189.405 152.834C189.497 152.972 189.653 153.078 189.841 153.13C192.014 153.733 199.156 155.438 208.904 154.918C209.143 154.906 209.37 154.835 209.552 154.714C209.734 154.594 209.86 154.432 209.913 154.251L213.198 142.815C214.917 136.84 216.838 130.396 208.392 126.5C204.499 127.785 200.868 128.545 197.022 127.791Z" fill="url(#paint37_linear_1122_67057)"/>
<path d="M210.47 108.085C210.47 108.085 218.733 113.397 220.784 120.657C222.835 127.917 208.709 128.688 208.709 128.688C208.709 128.688 206.791 127.032 204.515 127.622C202.238 128.213 204.34 124.731 207.002 124.74C209.664 124.749 208.432 126.379 212.2 125.058C215.87 123.773 218.139 119.794 208.774 113.764C208.228 113.416 207.803 112.968 207.537 112.461C205.714 108.918 207.158 106.595 210.47 108.085Z" fill="url(#paint38_linear_1122_67057)"/>
<defs>
<linearGradient id="paint0_linear_1122_67057" x1="271.076" y1="238.979" x2="120.235" y2="-3.17158" gradientUnits="userSpaceOnUse">
<stop stop-color="#DAE3FE"/>
<stop offset="1" stop-color="#E9EFFD"/>
</linearGradient>
<linearGradient id="paint1_linear_1122_67057" x1="84.4516" y1="162.066" x2="146.114" y2="28.5468" gradientUnits="userSpaceOnUse">
<stop stop-color="#09005D"/>
<stop offset="1" stop-color="#1A0F91"/>
</linearGradient>
<linearGradient id="paint2_linear_1122_67057" x1="130.47" y1="112.442" x2="124.889" y2="166.473" gradientUnits="userSpaceOnUse">
<stop stop-color="#09005D"/>
<stop offset="1" stop-color="#1A0F91"/>
</linearGradient>
<linearGradient id="paint3_linear_1122_67057" x1="215.544" y1="-21.7496" x2="122.038" y2="190.52" gradientUnits="userSpaceOnUse">
<stop stop-color="#4042E2"/>
<stop offset="1" stop-color="#4F52FF"/>
</linearGradient>
<linearGradient id="paint4_linear_1122_67057" x1="194.315" y1="-120.656" x2="180.239" y2="-73.2541" gradientUnits="userSpaceOnUse">
<stop stop-color="#09005D"/>
<stop offset="1" stop-color="#1A0F91"/>
</linearGradient>
<linearGradient id="paint5_linear_1122_67057" x1="198.207" y1="-119.501" x2="184.13" y2="-72.0984" gradientUnits="userSpaceOnUse">
<stop stop-color="#09005D"/>
<stop offset="1" stop-color="#1A0F91"/>
</linearGradient>
<linearGradient id="paint6_linear_1122_67057" x1="147.422" y1="-3.31321" x2="124.152" y2="51.9174" gradientUnits="userSpaceOnUse">
<stop stop-color="#4042E2"/>
<stop offset="1" stop-color="#4F52FF"/>
</linearGradient>
<linearGradient id="paint7_linear_1122_67057" x1="105.28" y1="38.4329" x2="67.5369" y2="137.486" gradientUnits="userSpaceOnUse">
<stop stop-color="#FE7062"/>
<stop offset="1" stop-color="#FF928E"/>
</linearGradient>
<linearGradient id="paint8_linear_1122_67057" x1="68.227" y1="180.069" x2="35.675" y2="225.837" gradientUnits="userSpaceOnUse">
<stop stop-color="#09005D"/>
<stop offset="1" stop-color="#1A0F91"/>
</linearGradient>
<linearGradient id="paint9_linear_1122_67057" x1="53.8203" y1="182.842" x2="57.7627" y2="182.842" gradientUnits="userSpaceOnUse">
<stop stop-color="#FEBBBA"/>
<stop offset="1" stop-color="#FF928E"/>
</linearGradient>
<linearGradient id="paint10_linear_1122_67057" x1="71.7205" y1="137.827" x2="45.3901" y2="183.957" gradientUnits="userSpaceOnUse">
<stop stop-color="#4042E2"/>
<stop offset="1" stop-color="#4F52FF"/>
</linearGradient>
<linearGradient id="paint11_linear_1122_67057" x1="58.27" y1="172.986" x2="25.7181" y2="218.754" gradientUnits="userSpaceOnUse">
<stop stop-color="#09005D"/>
<stop offset="1" stop-color="#1A0F91"/>
</linearGradient>
<linearGradient id="paint12_linear_1122_67057" x1="39.6104" y1="182.686" x2="43.015" y2="182.686" gradientUnits="userSpaceOnUse">
<stop stop-color="#FEBBBA"/>
<stop offset="1" stop-color="#FF928E"/>
</linearGradient>
<linearGradient id="paint13_linear_1122_67057" x1="64.9904" y1="133.989" x2="38.6598" y2="180.119" gradientUnits="userSpaceOnUse">
<stop stop-color="#4042E2"/>
<stop offset="1" stop-color="#4F52FF"/>
</linearGradient>
<linearGradient id="paint14_linear_1122_67057" x1="65.0692" y1="108.118" x2="20.8902" y2="166.354" gradientUnits="userSpaceOnUse">
<stop stop-color="#FE7062"/>
<stop offset="1" stop-color="#FF928E"/>
</linearGradient>
<linearGradient id="paint15_linear_1122_67057" x1="87.0798" y1="85.1134" x2="82.7261" y2="101.194" gradientUnits="userSpaceOnUse">
<stop stop-color="#FEBBBA"/>
<stop offset="1" stop-color="#FF928E"/>
</linearGradient>
<linearGradient id="paint16_linear_1122_67057" x1="93.0242" y1="86.7233" x2="88.6705" y2="102.804" gradientUnits="userSpaceOnUse">
<stop stop-color="#FEBBBA"/>
<stop offset="1" stop-color="#FF928E"/>
</linearGradient>
<linearGradient id="paint17_linear_1122_67057" x1="87.6812" y1="96.5458" x2="91.0867" y2="87.6657" gradientUnits="userSpaceOnUse">
<stop stop-color="#FEBBBA"/>
<stop offset="1" stop-color="#FF928E"/>
</linearGradient>
<linearGradient id="paint18_linear_1122_67057" x1="54.7866" y1="100.315" x2="10.6077" y2="158.552" gradientUnits="userSpaceOnUse">
<stop stop-color="#FE7062"/>
<stop offset="1" stop-color="#FF928E"/>
</linearGradient>
<linearGradient id="paint19_linear_1122_67057" x1="25.969" y1="125.34" x2="51.4591" y2="125.34" gradientUnits="userSpaceOnUse">
<stop stop-color="#FEBBBA"/>
<stop offset="1" stop-color="#FF928E"/>
</linearGradient>
<linearGradient id="paint20_linear_1122_67057" x1="59.8236" y1="113.427" x2="68.3997" y2="159.617" gradientUnits="userSpaceOnUse">
<stop stop-color="#09005D"/>
<stop offset="1" stop-color="#1A0F91"/>
</linearGradient>
<linearGradient id="paint21_linear_1122_67057" x1="49.5666" y1="123.274" x2="57.5072" y2="123.274" gradientUnits="userSpaceOnUse">
<stop stop-color="#FEBBBA"/>
<stop offset="1" stop-color="#FF928E"/>
</linearGradient>
<linearGradient id="paint22_linear_1122_67057" x1="45.5407" y1="104.259" x2="55.6186" y2="104.259" gradientUnits="userSpaceOnUse">
<stop stop-color="#FEBBBA"/>
<stop offset="1" stop-color="#FF928E"/>
</linearGradient>
<linearGradient id="paint23_linear_1122_67057" x1="57.649" y1="100.377" x2="48.2162" y2="92.9456" gradientUnits="userSpaceOnUse">
<stop stop-color="#FEBBBA"/>
<stop offset="1" stop-color="#FF928E"/>
</linearGradient>
<linearGradient id="paint24_linear_1122_67057" x1="40.6001" y1="89.5802" x2="52.0526" y2="101.263" gradientUnits="userSpaceOnUse">
<stop stop-color="#09005D"/>
<stop offset="1" stop-color="#1A0F91"/>
</linearGradient>
<linearGradient id="paint25_linear_1122_67057" x1="54.7234" y1="102.337" x2="46.2359" y2="95.6523" gradientUnits="userSpaceOnUse">
<stop stop-color="#FEBBBA"/>
<stop offset="1" stop-color="#FF928E"/>
</linearGradient>
<linearGradient id="paint26_linear_1122_67057" x1="171.902" y1="89.2989" x2="186.816" y2="119.893" gradientUnits="userSpaceOnUse">
<stop stop-color="#FEBBBA"/>
<stop offset="1" stop-color="#FF928E"/>
</linearGradient>
<linearGradient id="paint27_linear_1122_67057" x1="232.753" y1="87.2749" x2="214.352" y2="103.136" gradientUnits="userSpaceOnUse">
<stop stop-color="#09005D"/>
<stop offset="1" stop-color="#1A0F91"/>
</linearGradient>
<linearGradient id="paint28_linear_1122_67057" x1="204.617" y1="116.748" x2="251.266" y2="83.3221" gradientUnits="userSpaceOnUse">
<stop stop-color="#FE7062"/>
<stop offset="1" stop-color="#FF928E"/>
</linearGradient>
<linearGradient id="paint29_linear_1122_67057" x1="198.808" y1="108.635" x2="201.453" y2="101.041" gradientUnits="userSpaceOnUse">
<stop stop-color="#FEBBBA"/>
<stop offset="1" stop-color="#FF928E"/>
</linearGradient>
<linearGradient id="paint30_linear_1122_67057" x1="198.594" y1="91.43" x2="203.981" y2="106.502" gradientUnits="userSpaceOnUse">
<stop stop-color="#FEBBBA"/>
<stop offset="1" stop-color="#FF928E"/>
</linearGradient>
<linearGradient id="paint31_linear_1122_67057" x1="226.786" y1="80.3512" x2="208.384" y2="96.2123" gradientUnits="userSpaceOnUse">
<stop stop-color="#09005D"/>
<stop offset="1" stop-color="#1A0F91"/>
</linearGradient>
<linearGradient id="paint32_linear_1122_67057" x1="202.529" y1="90.0241" x2="207.916" y2="105.096" gradientUnits="userSpaceOnUse">
<stop stop-color="#FEBBBA"/>
<stop offset="1" stop-color="#FF928E"/>
</linearGradient>
<linearGradient id="paint33_linear_1122_67057" x1="221.783" y1="196.88" x2="201.516" y2="149.538" gradientUnits="userSpaceOnUse">
<stop stop-color="#FEBBBA"/>
<stop offset="1" stop-color="#FF928E"/>
</linearGradient>
<linearGradient id="paint34_linear_1122_67057" x1="215.17" y1="181.75" x2="206.043" y2="181.632" gradientUnits="userSpaceOnUse">
<stop stop-color="#09005D"/>
<stop offset="1" stop-color="#1A0F91"/>
</linearGradient>
<linearGradient id="paint35_linear_1122_67057" x1="215.672" y1="163.002" x2="242.278" y2="145.639" gradientUnits="userSpaceOnUse">
<stop stop-color="#FEBBBA"/>
<stop offset="1" stop-color="#FF928E"/>
</linearGradient>
<linearGradient id="paint36_linear_1122_67057" x1="206.692" y1="182.959" x2="195.812" y2="182.818" gradientUnits="userSpaceOnUse">
<stop stop-color="#09005D"/>
<stop offset="1" stop-color="#1A0F91"/>
</linearGradient>
<linearGradient id="paint37_linear_1122_67057" x1="192.564" y1="126.23" x2="208.867" y2="174.49" gradientUnits="userSpaceOnUse">
<stop stop-color="#09005D"/>
<stop offset="1" stop-color="#1A0F91"/>
</linearGradient>
<linearGradient id="paint38_linear_1122_67057" x1="219.252" y1="129.907" x2="188.962" y2="72.4025" gradientUnits="userSpaceOnUse">
<stop stop-color="#FEBBBA"/>
<stop offset="1" stop-color="#FF928E"/>
</linearGradient>
</defs>
</svg>
