<svg width="42" height="51" viewBox="0 0 42 51" fill="none" xmlns="http://www.w3.org/2000/svg">
<g filter="url(#filter0_d_2623_12517)">
<path fill-rule="evenodd" clip-rule="evenodd" d="M6.41609 1.35996C6.23013 1.17401 6.00938 1.02651 5.76642 0.925871C5.52346 0.825235 5.26306 0.773438 5.00008 0.773438C4.73711 0.773437 4.47671 0.825235 4.23375 0.925871C3.99079 1.02651 3.77004 1.17401 3.58408 1.35996C3.39813 1.54592 3.25063 1.76667 3.14999 2.00963C3.04936 2.25259 2.99756 2.51299 2.99756 2.77596C2.99756 3.03894 3.04936 3.29934 3.14999 3.5423C3.25063 3.78525 3.39813 4.00601 3.58408 4.19196L19.5841 20.192C19.7699 20.3782 19.9906 20.526 20.2336 20.6268C20.4765 20.7276 20.737 20.7795 21.0001 20.7795C21.2632 20.7795 21.5236 20.7276 21.7666 20.6268C22.0096 20.526 22.2303 20.3782 22.4161 20.192L38.4161 4.19196C38.7916 3.81642 39.0026 3.30707 39.0026 2.77596C39.0026 2.24486 38.7916 1.73551 38.4161 1.35996C38.0405 0.984417 37.5312 0.773438 37.0001 0.773438C36.469 0.773438 35.9596 0.984417 35.5841 1.35996L21.0001 15.948L6.41609 1.35996ZM6.41609 25.36C6.04054 24.9844 5.53119 24.7734 5.00008 24.7734C4.46898 24.7734 3.95963 24.9844 3.58408 25.36C3.20854 25.7355 2.99756 26.2449 2.99756 26.776C2.99756 27.3071 3.20854 27.8164 3.58408 28.192L19.5841 44.192C19.7699 44.3782 19.9906 44.526 20.2336 44.6268C20.4765 44.7276 20.737 44.7795 21.0001 44.7795C21.2632 44.7795 21.5236 44.7276 21.7666 44.6268C22.0096 44.526 22.2303 44.3782 22.4161 44.192L38.4161 28.192C38.7916 27.8164 39.0026 27.3071 39.0026 26.776C39.0026 26.2449 38.7916 25.7355 38.4161 25.36C38.0405 24.9844 37.5312 24.7734 37.0001 24.7734C36.469 24.7734 35.9596 24.9844 35.5841 25.36L21.0001 39.948L6.41609 25.36Z" fill="#2258AE"/>
</g>
<defs>
<filter id="filter0_d_2623_12517" x="0.997559" y="0.773438" width="40.0049" height="50.0059" filterUnits="userSpaceOnUse" color-interpolation-filters="sRGB">
<feFlood flood-opacity="0" result="BackgroundImageFix"/>
<feColorMatrix in="SourceAlpha" type="matrix" values="0 0 0 0 0 0 0 0 0 0 0 0 0 0 0 0 0 0 127 0" result="hardAlpha"/>
<feOffset dy="4"/>
<feGaussianBlur stdDeviation="1"/>
<feComposite in2="hardAlpha" operator="out"/>
<feColorMatrix type="matrix" values="0 0 0 0 0 0 0 0 0 0 0 0 0 0 0 0 0 0 0.5 0"/>
<feBlend mode="normal" in2="BackgroundImageFix" result="effect1_dropShadow_2623_12517"/>
<feBlend mode="normal" in="SourceGraphic" in2="effect1_dropShadow_2623_12517" result="shape"/>
</filter>
</defs>
</svg>
