<svg width="196" height="197" viewBox="0 0 196 197" fill="none" xmlns="http://www.w3.org/2000/svg">
<path d="M25.7224 24.0051L21.1638 22.6082C21.1638 22.6082 19.9681 26.4264 15.97 25.2576C15.196 25.0452 14.5073 24.5981 13.9994 23.9783C13.4915 23.3584 13.1894 22.5965 13.1349 21.798C13.075 21.1246 13.1773 20.4468 13.4332 19.8207C13.6891 19.1947 14.0912 18.6386 14.6062 18.1987C15.7785 17.165 17.8336 16.5364 20.7341 18.0311L23.9429 7.78727L19.4357 6.39038L17.5674 12.3923C17.5674 12.3923 10.7295 12.0524 8.5576 18.9949C6.47913 25.6395 11.9719 29.0432 14.5314 29.8394C16.4744 30.4447 23.2983 32.0465 25.7224 24.0051Z" fill="#F5F5F5"/>
<path d="M20.0465 4.25834L24.6211 5.6814L25.9539 1.42317L21.3793 0.000119915L20.0465 4.25834Z" fill="#F5F5F5"/>
<path d="M38.3005 12.4389L40.1268 11.9733C40.071 11.7665 40.0575 11.5507 40.0871 11.3386C40.1167 11.1266 40.1888 10.9226 40.299 10.7389C40.4093 10.5551 40.5554 10.3953 40.7288 10.269C40.9023 10.1427 41.0994 10.0525 41.3085 10.0037C41.6127 9.91208 41.938 9.91712 42.2393 10.0181C42.5406 10.119 42.8029 10.3109 42.9899 10.5671C43.1487 10.7798 43.2547 11.0269 43.2994 11.2883C43.344 11.5497 43.326 11.8179 43.2468 12.071C43.074 12.6624 42.5182 13.305 41.2291 13.4121L42.3173 17.5142L44.1202 17.0486L43.485 14.646C44.1687 14.2349 44.6978 13.611 44.9907 12.8705C45.2836 12.1301 45.324 11.3141 45.1058 10.5484C44.4051 7.88505 41.8363 7.89902 40.8227 8.16442C40.038 8.34602 37.4178 9.23537 38.3005 12.4389Z" fill="#EBEBEB"/>
<path d="M44.7535 17.6469L42.9141 18.1384L43.3743 19.8502L45.2137 19.3587L44.7535 17.6469Z" fill="#EBEBEB"/>
<path d="M189.074 59.5651L190.849 60.203C190.924 60.0026 191.037 59.8192 191.184 59.6634C191.331 59.5076 191.507 59.3826 191.703 59.2958C191.899 59.209 192.11 59.1622 192.325 59.1581C192.539 59.1539 192.752 59.1926 192.951 59.2717C193.25 59.3676 193.512 59.5533 193.701 59.8034C193.89 60.0535 193.997 60.3557 194.006 60.6686C194.017 60.9357 193.965 61.2015 193.853 61.4443C193.741 61.6872 193.572 61.9 193.362 62.0655C192.895 62.452 192.059 62.6615 190.938 62.0189L189.485 66.0094L191.241 66.6426L192.091 64.3145C192.889 64.3637 193.68 64.1508 194.344 63.7083C195.008 63.2659 195.508 62.6184 195.767 61.8653C196.701 59.2764 194.595 57.8376 193.6 57.4791C192.839 57.1811 190.177 56.4314 189.074 59.5651Z" fill="#EBEBEB"/>
<path d="M190.978 67.4516L189.195 66.8079L188.592 68.4671L190.375 69.1109L190.978 67.4516Z" fill="#EBEBEB"/>
<path d="M0.713555 79.8294L4.45012 78.3859C4.45012 78.3859 3.23574 75.2429 6.49122 73.9252C7.11427 73.6624 7.80377 73.5987 8.46464 73.743C9.12551 73.8873 9.72521 74.2324 10.1811 74.7307C10.5689 75.1451 10.8531 75.6448 11.0106 76.1894C11.168 76.7339 11.1943 77.3078 11.0872 77.8644C10.8537 79.1588 9.8261 80.6582 7.12176 81.175L10.3913 89.6169L14.1278 88.192L12.2128 83.2471C12.2128 83.2471 16.8835 79.9039 14.693 74.1766C12.5678 68.7008 7.1311 69.3248 5.0433 70.1303C3.4319 70.7496 -1.91138 73.25 0.713555 79.8294Z" fill="#F5F5F5"/>
<path d="M14.8364 89.9104L11.0664 91.3584L12.4232 94.8691L16.1932 93.4211L14.8364 89.9104Z" fill="#F5F5F5"/>
<path d="M190.535 94.0355L187.872 95.0552C187.872 95.0552 188.732 97.2856 186.424 98.2169C185.983 98.4009 185.495 98.4451 185.027 98.3435C184.559 98.2419 184.134 97.9994 183.809 97.6488C183.534 97.3551 183.333 97.0008 183.222 96.6148C183.111 96.2288 183.092 95.822 183.169 95.4277C183.337 94.4965 184.066 93.4535 185.971 93.0996L183.683 87.0977L181.049 88.1081L182.403 91.6143C181.444 92.3454 180.753 93.3703 180.436 94.5313C180.119 95.6923 180.193 96.925 180.647 98.0399C182.146 101.919 185.985 101.481 187.48 100.908C188.61 100.466 192.394 98.6965 190.535 94.0355Z" fill="#F5F5F5"/>
<path d="M180.528 86.8919L183.199 85.8657L182.239 83.3804L179.567 84.4065L180.528 86.8919Z" fill="#F5F5F5"/>
<path d="M175.031 22.3893H173.163C173.164 22.6005 173.123 22.8099 173.041 23.0049C172.96 23.2 172.84 23.3768 172.689 23.5249C172.538 23.6729 172.359 23.7892 172.162 23.8669C171.964 23.9446 171.754 23.982 171.542 23.9771C171.229 23.9882 170.921 23.9018 170.659 23.7299C170.398 23.558 170.197 23.309 170.085 23.0179C169.986 22.7754 169.947 22.5131 169.97 22.2525C169.992 21.992 170.077 21.7404 170.215 21.5185C170.533 20.997 171.224 20.5267 172.476 20.7456V16.5549H170.641V19.0041C169.887 19.2252 169.228 19.6865 168.763 20.3174C168.298 20.9482 168.053 21.7137 168.067 22.4964C168.067 25.2063 170.505 25.8349 171.551 25.8349C172.35 25.8535 175.068 25.6626 175.031 22.3893Z" fill="#3669D8"/>
<path d="M170.625 15.7075H172.488V13.9707H170.625V15.7075Z" fill="#3669D8"/>
<path d="M185.217 19.9122C185.224 19.8332 185.224 19.7538 185.217 19.6747C185.217 19.5071 185.217 19.2789 185.217 18.9856C185.217 18.8366 185.217 18.6643 185.194 18.4781C185.171 18.2918 185.143 18.0869 185.11 17.8727C185.077 17.6586 185.044 17.4071 185.007 17.1603L184.811 16.3688C184.464 15.0056 183.896 13.708 183.129 12.5273C182.016 10.7788 180.516 9.30798 178.744 8.22795C176.971 7.14791 174.974 6.48741 172.905 6.29722C172.284 6.24253 171.66 6.23008 171.037 6.25997C170.724 6.25997 170.402 6.25997 170.103 6.3205L169.141 6.46485C167.821 6.70946 166.543 7.14392 165.348 7.75464C164.101 8.4127 162.954 9.2453 161.943 10.2271C160.908 11.2728 160.043 12.4731 159.379 13.7845C158.664 15.1366 158.196 16.6043 157.996 18.1195C157.938 18.5034 157.905 18.8907 157.898 19.2789C157.867 19.6677 157.859 20.058 157.875 20.4477C157.977 22.9455 158.76 25.3684 160.14 27.4554V27.311C159.491 28.9268 158.851 30.5146 158.225 32.0604L158.113 32.3445L158.407 32.2607L163.499 30.8638L163.377 30.8358C165.092 32.1299 167.089 33.0011 169.206 33.3782C170.188 33.5607 171.189 33.6216 172.186 33.5598C172.667 33.5526 173.146 33.5075 173.62 33.4247L174.316 33.3176C174.545 33.2757 174.783 33.2059 174.988 33.1547C178.126 32.3621 180.878 30.482 182.751 27.8512C183.45 26.882 184.011 25.8212 184.419 24.6989C184.507 24.4521 184.591 24.2332 184.671 23.9911C184.75 23.749 184.792 23.5255 184.844 23.3159C184.895 23.1064 184.951 22.8922 184.998 22.6967C185.044 22.5011 185.058 22.3102 185.087 22.1286C185.129 21.7701 185.194 21.4534 185.208 21.1973C185.222 20.9412 185.208 20.6945 185.208 20.4989C185.208 20.3033 185.208 20.1823 185.208 20.0752C185.208 19.9681 185.208 19.9308 185.208 19.9308C185.201 19.9787 185.201 20.0273 185.208 20.0752C185.208 20.1823 185.208 20.3219 185.175 20.4989C185.143 20.6758 185.147 20.9226 185.129 21.1927C185.11 21.4627 185.04 21.7794 184.984 22.1239C184.538 24.701 183.352 27.0937 181.568 29.0113C179.785 30.929 177.481 32.2891 174.937 32.9265C174.718 32.9777 174.498 33.0429 174.274 33.0848L173.587 33.1873C173.124 33.2643 172.656 33.3064 172.186 33.313C171.207 33.3644 170.226 33.3003 169.262 33.1221C167.195 32.7428 165.245 31.8865 163.569 30.6216L163.513 30.5751H163.442L158.347 31.972L158.524 32.1722L160.444 27.4274L160.472 27.3529L160.43 27.2831C159.51 25.8959 158.858 24.35 158.506 22.7246C158.344 21.9705 158.247 21.2041 158.216 20.4337C158.2 20.0533 158.208 19.6723 158.239 19.2929C158.242 18.914 158.273 18.5358 158.333 18.1614C158.512 16.6818 158.953 15.2456 159.636 13.9196C160.285 12.6379 161.128 11.4632 162.135 10.4367C163.124 9.47278 164.247 8.65577 165.47 8.01073C166.638 7.40497 167.889 6.97354 169.183 6.73026L170.117 6.58591C170.43 6.53935 170.743 6.544 171.051 6.52072C171.66 6.49185 172.27 6.50273 172.877 6.55332C174.912 6.73087 176.879 7.36828 178.63 8.41713C180.38 9.46598 181.868 10.8987 182.98 12.6065C183.751 13.7666 184.328 15.0434 184.689 16.3874L184.9 17.1696C184.942 17.4164 184.979 17.6353 185.016 17.8681C185.054 18.1009 185.082 18.2872 185.115 18.4734C185.147 18.6597 185.138 18.8273 185.152 18.9763C185.152 19.265 185.189 19.4931 185.203 19.6608C185.194 19.7448 185.199 19.8297 185.217 19.9122Z" fill="#263238"/>
<path d="M45.9317 74.8238H72.905C72.905 74.8238 72.905 52.2455 96.4407 51.845C108.664 51.6308 115.002 59.6164 117.58 65.7301C120.57 72.8309 119.663 80.9235 115.656 87.5122C111.083 95.0321 101.228 102.589 83.0498 99.395L82.877 159.307H109.551V123.789C109.551 123.789 146.959 114.151 146.959 73.0358C146.959 33.7134 115.063 25.2204 97.9166 24.6709C88.3791 24.3683 84.9227 23.9585 73.1245 25.6301C58.0895 27.772 45.6141 45.1772 45.9317 74.8238Z" fill="#3669D8"/>
<path d="M109.872 171.796H82.8008V197H109.872V171.796Z" fill="#3669D8"/>
<path opacity="0.1" d="M109.872 171.796H82.8008V197H109.872V171.796Z" fill="black"/>
<path opacity="0.1" d="M45.9317 74.8238H72.905C72.905 74.8238 72.905 52.2455 96.4407 51.845C108.664 51.6308 115.002 59.6164 117.58 65.7301C120.57 72.8309 119.663 80.9235 115.656 87.5122C111.083 95.0321 101.228 102.589 83.0498 99.395L82.877 159.307H109.551V123.789C109.551 123.789 146.959 114.151 146.959 73.0358C146.959 33.7134 115.063 25.2204 97.9166 24.6709C88.3791 24.3683 84.9227 23.9585 73.1245 25.6301C58.0895 27.772 45.6141 45.1772 45.9317 74.8238Z" fill="black"/>
<path d="M34.7549 74.8238H61.7329C61.7329 74.8238 61.7329 52.2455 85.2685 51.8451C97.4918 51.6309 103.83 59.6164 106.403 65.7301C109.397 72.8309 108.491 80.9236 104.484 87.5122C99.9112 95.0321 89.8832 101.868 71.7048 98.6873V159.307H98.3792V123.789C98.3792 123.789 135.787 114.151 135.787 73.0358C135.787 33.7135 100.411 24.5825 85.2732 24.5825C73.6945 24.5965 34.2458 27.3856 34.7549 74.8238Z" fill="#3669D8"/>
<path opacity="0.3" d="M34.7549 74.8238H61.7329C61.7329 74.8238 61.7329 52.2455 85.2685 51.8451C97.4918 51.6309 103.83 59.6164 106.403 65.7301C109.397 72.8309 108.491 80.9236 104.484 87.5122C99.9112 95.0321 89.8832 101.868 71.7048 98.6873V159.307H98.3792V123.789C98.3792 123.789 135.787 114.151 135.787 73.0358C135.787 33.7135 100.411 24.5825 85.2732 24.5825C73.6945 24.5965 34.2458 27.3856 34.7549 74.8238Z" fill="black"/>
<path d="M98.7003 171.796H71.6289V197H98.7003V171.796Z" fill="#3669D8"/>
<path opacity="0.3" d="M98.7003 171.796H71.6289V197H98.7003V171.796Z" fill="black"/>
<path d="M88.3137 51.966C88.1801 51.9776 88.0457 51.9776 87.912 51.966C87.6458 51.966 87.2628 51.8776 86.763 51.8729C85.35 51.8037 83.9336 51.8629 82.5314 52.0499C80.452 52.3123 78.4059 52.7914 76.4268 53.4793C75.2601 53.8859 74.1238 54.3745 73.0265 54.9414C71.8404 55.5323 70.7235 56.2522 69.6963 57.088C68.6761 57.9313 67.7618 58.8943 66.9733 59.9562C66.2258 60.938 65.544 61.9677 64.9322 63.0387C63.9107 64.8628 63.1006 66.7967 62.5174 68.8032C62.122 70.1574 61.85 71.5444 61.7047 72.9473C61.6487 73.4408 61.6346 73.832 61.6206 74.0927C61.6209 74.2271 61.6084 74.3612 61.5833 74.4932C61.5712 74.3599 61.5712 74.2259 61.5833 74.0927C61.5833 73.8273 61.5833 73.4362 61.6253 72.938C61.7327 71.52 61.9815 70.1161 62.3679 68.7473C62.9297 66.7176 63.7292 64.7609 64.75 62.9176C65.3631 61.8349 66.0481 60.7942 66.8004 59.8026C67.5956 58.7233 68.5211 57.7459 69.5562 56.8924C70.5959 56.0451 71.7269 55.3158 72.9284 54.7179C74.0325 54.1405 75.1767 53.6426 76.352 53.2279C78.3492 52.5426 80.4147 52.0742 82.5127 51.831C83.9243 51.6581 85.3496 51.6254 86.7677 51.7332C87.1531 51.7578 87.5367 51.8044 87.9167 51.8729C88.0511 51.8946 88.1837 51.9258 88.3137 51.966Z" fill="#263238"/>
<path d="M128.957 47.1748C128.957 47.1748 128.925 47.1423 128.868 47.0724C128.812 47.0026 128.728 46.8815 128.635 46.7465L127.743 45.4893C127.551 45.2192 127.346 44.9072 127.103 44.586L126.262 43.5662L125.3 42.3882C124.95 41.9784 124.539 41.5826 124.128 41.1496C123.717 40.7166 123.296 40.2556 122.82 39.8133C122.344 39.3709 121.834 38.9193 121.311 38.4536C121.05 38.2208 120.793 37.988 120.513 37.7412L119.644 37.0567C119.051 36.5911 118.462 36.1255 117.822 35.6599C115.033 33.6705 112.075 31.9286 108.981 30.4541L106.519 29.3459L104.076 28.4147C103.278 28.0841 102.465 27.8513 101.68 27.5905C100.896 27.3298 100.13 27.0644 99.345 26.8828L97.1124 26.3007C96.3884 26.1098 95.6691 25.9934 94.9825 25.8351C94.2959 25.6768 93.6327 25.5371 92.9835 25.4579L91.1152 25.1879C89.9335 24.9877 88.8499 24.9457 87.9064 24.8526C87.4394 24.8154 86.9723 24.7642 86.5846 24.7455L85.473 24.7176L83.9317 24.6664H83.53H83.3945C83.4394 24.6594 83.4851 24.6594 83.53 24.6664H83.9317H85.473H86.5893C86.9956 24.6664 87.4394 24.7222 87.9158 24.7548C88.8499 24.834 89.9522 24.8666 91.1339 25.0575L93.0022 25.3089C93.6514 25.3834 94.3146 25.5511 95.0059 25.6768C95.6972 25.8025 96.4071 25.9329 97.1497 26.1424L99.3917 26.7198C100.167 26.8967 100.933 27.1854 101.727 27.4229C102.521 27.6604 103.329 27.8885 104.128 28.2424L106.585 29.1737L109.06 30.2865C112.17 31.7644 115.141 33.5191 117.934 35.5295C118.579 35.9951 119.167 36.4933 119.761 36.9543L120.629 37.5829C120.91 37.8157 121.166 38.0485 121.428 38.3L122.932 39.6969C123.399 40.1625 123.819 40.6281 124.235 41.0518C124.651 41.4756 125.048 41.89 125.398 42.3044L126.332 43.4917L127.164 44.5254C127.402 44.8514 127.603 45.168 127.79 45.4567C128.154 46.0015 128.439 46.4298 128.64 46.7372L128.859 47.0771C128.896 47.1053 128.929 47.1382 128.957 47.1748Z" fill="#263238"/>
<path d="M126.146 104.913C126.09 105.013 126.023 105.107 125.945 105.192L125.3 105.951C125.034 106.291 124.698 106.696 124.282 107.148C123.867 107.599 123.423 108.13 122.881 108.68C122.339 109.229 121.76 109.844 121.101 110.463C120.443 111.082 119.728 111.734 118.967 112.414C115.628 115.319 111.967 117.836 108.056 119.915C107.15 120.381 106.295 120.846 105.469 121.205C104.642 121.563 103.871 121.931 103.161 122.229C102.451 122.527 101.797 122.774 101.228 122.993C100.658 123.212 100.158 123.389 99.747 123.519L98.8129 123.822C98.7044 123.865 98.5917 123.896 98.4766 123.915C98.5773 123.857 98.6837 123.811 98.7942 123.775L99.7283 123.431C100.135 123.286 100.625 123.1 101.19 122.867C101.755 122.634 102.409 122.402 103.11 122.071C103.81 121.74 104.586 121.428 105.394 121.023C106.202 120.618 107.066 120.19 107.967 119.72C109.747 118.742 111.667 117.596 113.605 116.274C115.543 114.952 117.285 113.559 118.836 112.246C119.597 111.576 120.326 110.947 120.975 110.314C121.625 109.681 122.232 109.108 122.769 108.558C123.306 108.009 123.778 107.501 124.198 107.054C124.618 106.607 124.964 106.216 125.244 105.89L125.898 105.15C125.974 105.064 126.057 104.985 126.146 104.913Z" fill="#263238"/>
<path d="M97.9074 157.194C97.8373 157.194 97.7812 149.716 97.7812 140.491C97.7812 131.267 97.8373 123.785 97.9074 123.785C97.9774 123.785 98.0288 131.263 98.0288 140.491C98.0288 149.72 97.9728 157.194 97.9074 157.194Z" fill="#263238"/>
<path d="M98.9339 195.291C98.8639 195.291 98.8125 190.043 98.8125 183.571C98.8125 177.099 98.8639 171.847 98.9339 171.847C99.004 171.847 99.0554 177.094 99.0554 183.571C99.0554 190.048 98.9993 195.291 98.9339 195.291Z" fill="#263238"/>
<path d="M125.484 71.2524C125.017 72.1837 126.759 72.9473 127.764 73.2499C128.788 73.5006 129.848 73.5731 130.898 73.4641C132.299 73.3896 133.733 73.2593 134.942 72.5701C136.002 71.9158 136.849 70.9698 137.381 69.8462C137.905 68.7262 138.319 67.5582 138.618 66.3586C138.618 66.3586 127.581 67.0757 125.484 71.2524Z" fill="#3669D8"/>
<g opacity="0.4">
<path d="M125.484 71.2524C125.017 72.1837 126.759 72.9473 127.764 73.2499C128.788 73.5006 129.848 73.5731 130.898 73.4641C132.299 73.3896 133.733 73.2593 134.942 72.5701C136.002 71.9158 136.849 70.9698 137.381 69.8462C137.905 68.7262 138.319 67.5582 138.618 66.3586C138.618 66.3586 127.581 67.0757 125.484 71.2524Z" fill="black"/>
</g>
<path d="M156.657 68.2723C158.476 69.559 160.657 70.2401 162.888 70.2187C163.957 70.2781 165.011 69.947 165.853 69.2874C166.213 68.9568 166.484 68.5377 166.853 68.2211C167.105 68.0069 167.399 67.844 167.638 67.6158C167.763 67.5079 167.86 67.3706 167.92 67.2162C167.979 67.0618 167.999 66.8952 167.979 66.7311C167.886 66.3267 167.659 65.9655 167.334 65.7067C166.068 64.9897 164.555 65.0176 163.098 65.0502C161.639 65.1131 160.199 65.3941 158.824 65.8837C157.694 66.2655 156.512 66.8149 155.938 67.8393" fill="#3669D8"/>
<g opacity="0.4">
<path d="M167.979 66.7312C167.813 66.3384 167.523 66.011 167.152 65.7999C165.886 65.0829 164.555 65.0177 163.098 65.0503C161.639 65.1132 160.199 65.3942 158.824 65.8837C157.694 66.2655 156.512 66.815 155.938 67.8394L156.657 68.2724C158.476 69.559 160.657 70.2402 162.888 70.2187C163.957 70.2781 165.011 69.9471 165.853 69.2875C166.213 68.9569 166.484 68.5378 166.853 68.2212C167.105 68.007 167.399 67.844 167.638 67.6159C167.763 67.508 167.86 67.3707 167.92 67.2163C167.979 67.0619 167.999 66.8952 167.979 66.7312Z" fill="black"/>
</g>
<path d="M135.107 84.9837L158.39 85.291C158.438 85.2909 158.484 85.2797 158.527 85.2583C158.569 85.237 158.606 85.2061 158.634 85.1681C158.662 85.13 158.681 85.086 158.689 85.0394C158.697 84.9928 158.694 84.945 158.68 84.8999L155.947 76.4068C155.947 76.4068 156.349 72.1603 156.905 67.057C157.75 59.3043 158.876 49.5586 158.89 49.5866C157.297 45.1352 147.9 44.3809 147.9 44.3809L137.19 45.0141L136.816 44.3855L133.734 45.815C133.061 46.1268 132.415 46.4912 131.8 46.9046C129.763 48.2595 124.859 51.3746 123.962 54.8435C121.893 62.8756 125.396 71.839 125.396 71.839L127.648 70.0835C128.215 69.6479 128.811 69.2512 129.432 68.8962L133.944 80.9513C133.675 81.1201 133.448 81.3464 133.278 81.6138C133.109 81.8813 133.001 82.183 132.963 82.4972C132.926 83.475 133.43 84.6484 135.107 84.9837Z" fill="#3669D8"/>
<g opacity="0.3">
<path d="M145.098 70.7728C145.836 66.815 145.448 62.7454 145.051 58.741C143.762 62.0004 143.809 65.7254 142.44 68.9569C142.272 69.2981 142.15 69.6597 142.076 70.0325C142.04 70.2197 142.05 70.4126 142.103 70.5956C142.157 70.7785 142.253 70.9461 142.384 71.0848C142.758 71.4247 143.318 71.2384 143.813 71.1826C144.257 71.0983 144.688 70.9607 145.098 70.7728Z" fill="black"/>
</g>
<g opacity="0.4">
<path d="M136.509 79.9364C138.377 80.5836 140.367 79.3776 142.343 79.1634C143.651 79.0237 144.958 79.3217 146.257 79.5313C148.882 79.9547 151.554 80.0205 154.197 79.7268C154.603 79.7046 155 79.6017 155.365 79.4242C155.553 79.2959 155.708 79.1237 155.814 78.9225C155.921 78.7212 155.977 78.497 155.977 78.2694C151.577 77.8038 147.182 77.5523 142.782 77.1007C141.687 76.9144 140.565 76.9508 139.484 77.2078C138.158 77.6175 137.149 78.6559 136.215 79.6849" fill="black"/>
</g>
<path d="M167.308 65.2039C165.407 60.9341 158.705 49.1257 158.705 49.1257L153.516 55.6119L154.725 68.3469C154.725 68.3469 157.467 65.297 165.132 65.2365C165.689 65.2587 166.234 65.4049 166.727 65.6643C167.22 65.9237 167.648 66.2898 167.981 66.7358L167.308 65.2039Z" fill="#3669D8"/>
<path d="M136.15 62.9456C135.78 62.0404 135.486 61.1059 135.272 60.1519C134.982 59.2226 134.769 58.2711 134.637 57.3069C135.001 58.2137 135.294 59.1478 135.51 60.1007C135.8 61.0302 136.014 61.9816 136.15 62.9456Z" fill="#263238"/>
<path d="M153.123 54.7505C153.292 54.8695 153.448 55.0052 153.59 55.1556C154.002 55.5529 154.389 55.9759 154.748 56.4221C155.956 57.8938 156.805 59.6248 157.228 61.4788C157.448 62.5037 157.497 63.5578 157.373 64.5985C157.256 65.5531 157.074 66.3912 156.953 67.0989C156.831 67.8067 156.756 68.3841 156.719 68.7845C156.718 68.9926 156.696 69.2001 156.654 69.4038C156.621 69.196 156.611 68.9851 156.626 68.7752C156.646 68.2046 156.699 67.6356 156.784 67.071C156.882 66.3586 157.046 65.5112 157.153 64.5752C157.261 63.558 157.206 62.53 156.99 61.53C156.572 59.7106 155.76 58.004 154.613 56.5292C153.758 55.3837 153.085 54.7877 153.123 54.7505Z" fill="#263238"/>
<path d="M148.368 83.9595C148.206 84.0316 148.034 84.0817 147.859 84.1085C147.659 84.161 147.456 84.1998 147.252 84.2249C147.013 84.2575 146.742 84.3087 146.439 84.3226C145.727 84.3877 145.011 84.3877 144.3 84.3226C143.429 84.2334 142.569 84.0619 141.731 83.8104C140.897 83.5433 140.09 83.1988 139.321 82.7814C138.697 82.4344 138.105 82.034 137.551 81.5847C137.308 81.3985 137.111 81.2029 136.934 81.04C136.781 80.9025 136.636 80.7563 136.5 80.6023C136.37 80.4824 136.258 80.3444 136.168 80.1925C136.201 80.1599 136.7 80.7187 137.658 81.4497C138.217 81.874 138.809 82.2539 139.428 82.5858C140.189 82.9843 140.983 83.3161 141.801 83.5776C142.625 83.825 143.469 83.9995 144.323 84.0991C145.021 84.174 145.724 84.1958 146.425 84.1643C147.625 84.0991 148.359 83.9222 148.368 83.9595Z" fill="#263238"/>
<path d="M155.554 81.3147C155.664 81.5253 155.726 81.7573 155.736 81.9945C155.811 82.5621 155.768 83.139 155.61 83.6894C155.449 84.2525 155.124 84.755 154.676 85.1328C154.335 85.4169 154.073 85.5054 154.059 85.4821C154.045 85.4588 154.265 85.3051 154.559 85.0164C154.937 84.6237 155.211 84.1438 155.358 83.6196C155.731 82.3903 155.465 81.3194 155.554 81.3147Z" fill="#263238"/>
<path d="M154.289 82.9536C154.39 83.4325 154.35 83.9305 154.172 84.3868C153.995 84.8432 153.688 85.2382 153.289 85.5239C153.238 85.4727 153.672 85.0117 153.943 84.2993C154.214 83.5869 154.219 82.9583 154.289 82.9536Z" fill="#263238"/>
<path d="M150.121 67.6345C149.874 68.0516 149.596 68.45 149.29 68.8265C149.049 69.2471 148.775 69.6487 148.473 70.0279C148.562 69.5365 148.774 69.0754 149.089 68.6868C149.338 68.2544 149.693 67.8923 150.121 67.6345Z" fill="#263238"/>
<path d="M134.14 56.3569C133.784 56.1486 133.44 55.9216 133.108 55.6771C131.447 54.5891 129.562 53.8874 127.592 53.6237C127.179 53.5937 126.769 53.5393 126.363 53.4607C126.777 53.4037 127.197 53.4037 127.61 53.4607C129.634 53.6328 131.572 54.3525 133.215 55.542C133.56 55.7696 133.871 56.0438 134.14 56.3569Z" fill="#263238"/>
<path d="M158.703 48.9722C157.867 49.6433 157.086 50.3797 156.368 51.1746C155.706 52.0229 155.114 52.9229 154.598 53.8659C154.653 53.5488 154.762 53.2433 154.92 52.9626C155.258 52.2644 155.682 51.6107 156.181 51.0163C156.682 50.4231 157.256 49.8958 157.89 49.4471C158.132 49.2433 158.407 49.0826 158.703 48.9722Z" fill="#263238"/>
<path d="M149.093 45.1353C149.135 45.2024 149.17 45.2743 149.195 45.3494C149.286 45.5603 149.36 45.7784 149.415 46.0013C149.612 46.8311 149.612 47.6952 149.415 48.525C149.124 49.7637 148.459 50.8836 147.509 51.7332C146.31 52.7456 144.783 53.2885 143.212 53.2605C141.64 53.2659 140.108 52.7644 138.845 51.831C137.839 51.065 137.022 50.0789 136.458 48.9488C136.078 48.192 135.811 47.3842 135.664 46.5508C135.621 46.3262 135.593 46.0991 135.58 45.8709C135.567 45.7908 135.567 45.709 135.58 45.6288C135.58 45.6288 135.632 45.9548 135.762 46.5321C135.944 47.3421 136.231 48.1248 136.617 48.8603C137.187 49.9564 137.996 50.9111 138.985 51.6541C140.202 52.5525 141.674 53.0417 143.189 53.0509C144.703 53.0787 146.176 52.5631 147.341 51.5982C148.259 50.7797 148.909 49.7061 149.209 48.5157C149.417 47.7122 149.446 46.873 149.293 46.0572C149.205 45.4426 149.064 45.1446 149.093 45.1353Z" fill="#263238"/>
<g opacity="0.3">
<path d="M150.724 68.4587C150.724 68.2259 150.687 67.9511 150.481 67.8347C150.416 67.802 150.344 67.7849 150.271 67.7849C150.198 67.7849 150.126 67.802 150.061 67.8347C149.93 67.9051 149.814 68 149.72 68.1141C149.171 68.6838 148.746 69.3608 148.473 70.1023L150.761 69.9021C150.747 69.4318 150.738 68.9383 150.724 68.4587Z" fill="black"/>
</g>
<g opacity="0.3">
<path d="M158.323 63.6579C158.093 62.3523 157.519 61.1311 156.66 60.1191C157.65 63.3413 157.319 65.1619 156.763 67.369L156.884 67.0617C157.524 65.7719 158.496 64.9617 158.323 63.6579Z" fill="black"/>
</g>
<path d="M153.751 171.898L152.354 192.781L143.246 192.674L141.812 170.962L153.751 171.898Z" fill="#FFBE9D"/>
<path d="M152.611 190.034V190.64C152.611 190.64 162.886 194.756 162.984 196.693L142.578 196.581L142.896 189.815C145.936 191.236 149.117 191.413 152.611 190.034Z" fill="#3669D8"/>
<path d="M144.966 191.985C144.772 192.044 144.606 192.17 144.5 192.342C144.393 192.513 144.353 192.717 144.387 192.916C144.437 193.115 144.562 193.287 144.736 193.395C144.91 193.504 145.12 193.541 145.321 193.498C145.529 193.437 145.706 193.3 145.818 193.115C145.93 192.93 145.969 192.71 145.928 192.497C145.854 192.296 145.704 192.132 145.511 192.039C145.317 191.946 145.095 191.932 144.891 191.999" fill="white"/>
<path d="M142.578 196.581L142.653 194.956L162.195 195.664C162.195 195.664 163.101 196.064 162.994 196.697L142.578 196.581Z" fill="#263238"/>
<path d="M152.688 190.695C152.688 190.793 152.184 190.835 151.693 191.161C151.203 191.487 150.937 191.892 150.848 191.855C150.759 191.817 150.908 191.24 151.511 190.868C152.114 190.495 152.711 190.588 152.688 190.695Z" fill="#263238"/>
<path d="M154.823 191.589C154.847 191.687 154.412 191.85 154.071 192.269C153.73 192.688 153.632 193.131 153.53 193.126C153.427 193.121 153.371 192.558 153.805 192.05C154.24 191.543 154.819 191.52 154.823 191.589Z" fill="#263238"/>
<path d="M156.022 194.15C155.928 194.15 155.793 193.685 156.054 193.131C156.316 192.577 156.778 192.376 156.82 192.456C156.862 192.535 156.573 192.828 156.353 193.28C156.134 193.731 156.125 194.141 156.022 194.15Z" fill="#263238"/>
<path d="M152.09 19.1672C152.618 17.8634 151.978 16.2849 150.843 15.4422C149.646 14.6572 148.188 14.3744 146.784 14.6552C145.399 14.9448 144.058 15.4144 142.795 16.0521C142.208 15.4619 141.468 15.0459 140.657 14.8507C139.847 14.6555 138.998 14.6887 138.205 14.9466C137.413 15.2045 136.708 15.677 136.169 16.3113C135.63 16.9456 135.278 17.7167 135.154 18.5386C134.649 18.4119 134.119 18.4246 133.62 18.5755C133.122 18.7263 132.674 19.0096 132.325 19.3949C131.976 19.7802 131.739 20.2529 131.639 20.7624C131.539 21.2719 131.58 21.7989 131.758 22.2869L138.073 24.4986L144.967 36.605C145.986 37.4715 147.286 37.939 148.625 37.92C149.964 37.9011 151.251 37.3972 152.245 36.5022C153.239 35.6072 153.872 34.3823 154.026 33.0561C154.181 31.7299 153.846 30.3929 153.085 29.2946C153.471 28.9522 153.799 28.5496 154.056 28.1026C154.607 27.7778 155.088 27.3471 155.47 26.8355C155.853 26.324 156.129 25.7417 156.284 25.1226C156.896 22.4266 154.803 19.4838 152.09 19.1672Z" fill="#263238"/>
<path d="M147.911 44.3809C147.518 42.4113 147.247 41.061 147.252 41.075C147.257 41.0889 150.989 39.6315 150.718 34.4491C150.587 31.8695 149.601 27.8046 148.686 24.5079C147.864 21.5372 145.085 18.2638 142.147 19.2091L133.24 23.5394C132.348 23.8281 132.194 24.6662 132.404 25.5742V26.0398L135.865 40.316L137.327 46.6951C137.638 48.005 138.431 49.1511 139.548 49.9077C140.664 50.6644 142.025 50.9767 143.361 50.7833C144.091 50.681 144.792 50.4311 145.422 50.0488C146.051 49.6666 146.596 49.1602 147.022 48.5606C147.448 47.9611 147.746 47.2811 147.899 46.5623C148.052 45.8436 148.056 45.1012 147.911 44.3809Z" fill="#FFBE9D"/>
<path d="M148.652 27.9535C148.689 28.1187 148.661 28.292 148.575 28.4376C148.488 28.5831 148.348 28.6899 148.184 28.7358C148.102 28.7588 148.016 28.7649 147.931 28.7537C147.846 28.7425 147.764 28.7144 147.69 28.6709C147.616 28.6274 147.552 28.5694 147.502 28.5006C147.451 28.4317 147.415 28.3533 147.395 28.2702C147.358 28.1055 147.385 27.9329 147.472 27.7881C147.559 27.6433 147.699 27.5375 147.862 27.4926C147.944 27.4688 148.031 27.462 148.116 27.4726C148.2 27.4832 148.282 27.5109 148.356 27.554C148.43 27.5971 148.494 27.6548 148.545 27.7235C148.596 27.7922 148.632 27.8704 148.652 27.9535Z" fill="#263238"/>
<path d="M148.246 26.9618C148.181 27.0642 147.616 26.8081 146.924 26.9618C146.233 27.1155 145.794 27.5625 145.701 27.4926C145.607 27.4228 145.701 27.2924 145.892 27.0875C146.149 26.8168 146.483 26.6315 146.85 26.5567C147.211 26.479 147.588 26.5199 147.924 26.6731C148.185 26.7802 148.274 26.9199 148.246 26.9618Z" fill="#263238"/>
<path d="M141.87 29.4809C141.908 29.6455 141.88 29.8182 141.793 29.9629C141.706 30.1077 141.567 30.2136 141.403 30.2585C141.323 30.2819 141.238 30.2891 141.155 30.2798C141.071 30.2704 140.99 30.2446 140.917 30.2039C140.844 30.1632 140.779 30.1084 140.727 30.0426C140.675 29.9769 140.637 29.9015 140.614 29.8208C140.577 29.6556 140.604 29.4824 140.691 29.3368C140.778 29.1912 140.918 29.0845 141.081 29.0386C141.162 29.0152 141.247 29.0082 141.331 29.0179C141.414 29.0276 141.495 29.0537 141.569 29.0949C141.642 29.1361 141.707 29.1914 141.758 29.2577C141.81 29.3239 141.848 29.3998 141.87 29.4809Z" fill="#263238"/>
<path d="M141.527 28.6054C141.467 28.7078 140.897 28.4471 140.206 28.6054C139.514 28.7637 139.075 29.2014 138.982 29.1362C138.888 29.071 138.982 28.936 139.173 28.7264C139.432 28.4582 139.766 28.2746 140.131 28.2003C140.492 28.1238 140.868 28.1629 141.205 28.312C141.453 28.4238 141.56 28.5495 141.527 28.6054Z" fill="#263238"/>
<path d="M145.048 32.9823C145.39 32.7939 145.754 32.647 146.131 32.5446C146.304 32.4887 146.468 32.4189 146.472 32.2931C146.448 32.1079 146.368 31.9344 146.243 31.7949L145.435 30.5563C144.305 28.7916 143.446 27.3295 143.516 27.297C143.586 27.2644 144.562 28.6473 145.692 30.412L146.482 31.6599C146.637 31.8509 146.721 32.0894 146.72 32.3351C146.706 32.402 146.677 32.4651 146.636 32.5199C146.595 32.5746 146.542 32.6196 146.482 32.6517C146.39 32.6999 146.293 32.7359 146.192 32.7588C145.823 32.8849 145.438 32.9601 145.048 32.9823Z" fill="#263238"/>
<path d="M147.251 41.0749C144.889 41.6072 142.424 41.475 140.133 40.6931C140.133 40.6931 142.58 43.878 147.517 42.3554L147.251 41.0749Z" fill="#EB996E"/>
<path d="M141.647 27.6184C141.6 27.8186 140.885 27.8139 140.073 28.0142C139.26 28.2144 138.615 28.517 138.484 28.3587C138.428 28.2842 138.522 28.0886 138.769 27.8931C139.098 27.6169 139.489 27.4236 139.909 27.3297C140.325 27.2313 140.759 27.2313 141.175 27.3297C141.506 27.3902 141.679 27.5252 141.647 27.6184Z" fill="#263238"/>
<path d="M147.979 24.7642C147.867 24.9504 147.269 24.9038 146.578 25.0389C145.887 25.1739 145.34 25.4067 145.177 25.2717C145.102 25.2018 145.177 25.0249 145.378 24.8061C145.686 24.5475 146.059 24.3769 146.457 24.3125C146.848 24.2339 147.253 24.2629 147.629 24.3963C147.914 24.5267 148.026 24.671 147.979 24.7642Z" fill="#263238"/>
<path d="M135.438 20.2054C135.541 20.7099 135.755 21.1854 136.063 21.5983C136.372 22.0111 136.768 22.3512 137.223 22.5943C137.678 22.8374 138.182 22.9777 138.697 23.005C139.213 23.0323 139.728 22.9461 140.207 22.7524C140.945 22.4544 141.711 21.8957 142.458 22.1657C143.205 22.4358 143.514 23.4974 144.228 23.8932C145.279 24.4799 146.564 23.4648 147.736 23.5673C148.67 23.6464 149.375 24.3589 150.099 24.9642C150.823 25.5695 151.823 26.0258 152.64 25.5881C152.453 24.8105 152.176 24.0573 151.814 23.3438C151.448 22.6254 150.844 22.0559 150.104 21.7327C149.693 21.5697 149.249 21.5139 148.857 21.3136C148.012 20.8853 147.633 19.9168 147.021 19.1857C146.62 18.725 146.113 18.3665 145.545 18.1397C144.976 17.913 144.362 17.8246 143.752 17.882C142.743 17.9844 141.786 18.4919 140.767 18.45C140.015 18.4174 139.296 18.0822 138.544 18.0962C137.082 18.0962 135.985 19.3999 135.172 20.6152" fill="#263238"/>
<path d="M140.36 21.2718C139.687 21.2206 138.314 21.0809 137.861 20.606C137.401 20.0928 136.813 19.7091 136.158 19.4934C135.502 19.2776 134.801 19.2374 134.125 19.3767C133.453 19.5762 132.864 19.9851 132.444 20.5434C132.024 21.1017 131.794 21.7797 131.789 22.4778C130.972 22.6766 130.224 23.0918 129.624 23.6794C129.023 24.2671 128.594 25.0054 128.38 25.8164C128.162 26.6654 128.155 27.5543 128.358 28.4067C128.562 29.2592 128.97 30.0496 129.547 30.7101C129.828 31.0599 130.084 31.4286 130.313 31.8137C129.997 32.2053 129.718 32.6263 129.482 33.0709C128.412 35.4269 131.313 36.3303 131.313 36.3303C131.313 37.9134 132.784 37.9041 133.723 37.8994C134.662 37.8948 135.18 40.3952 135.913 40.2974L135.171 32.5819C135.28 32.6241 135.395 32.6462 135.512 32.6471C137.282 32.6797 136.82 29.3365 136.25 28.4565C136.777 27.802 137.223 27.0858 137.576 26.3239C137.897 25.1592 137.919 23.9328 137.642 22.7572C138.235 22.6827 140.65 21.2905 140.36 21.2718Z" fill="#263238"/>
<path d="M135.407 32.9917C135.347 32.7465 135.225 32.5206 135.054 32.3349C134.882 32.1493 134.666 32.01 134.426 31.93C134.186 31.85 133.929 31.832 133.68 31.8776C133.431 31.9232 133.198 32.0309 133.002 32.1908C132.535 32.5912 132.287 33.2617 132.567 34.3839C133.324 37.3825 136.187 36.0089 136.168 35.9251C136.15 35.8413 135.734 34.2302 135.407 32.9917Z" fill="#FFBE9D"/>
<path d="M134.962 35.0173C134.962 35.0173 134.92 35.0685 134.841 35.129C134.73 35.2134 134.591 35.2518 134.453 35.2361C134.107 35.1989 133.71 34.7705 133.561 34.2257C133.49 33.9712 133.475 33.7041 133.519 33.4434C133.524 33.3422 133.553 33.2436 133.604 33.156C133.655 33.0684 133.727 32.9945 133.813 32.9406C133.87 32.9101 133.936 32.9004 133.999 32.9132C134.062 32.9259 134.119 32.9603 134.159 33.0104C134.22 33.0803 134.215 33.1454 134.234 33.1501C134.252 33.1548 134.285 33.0803 134.234 32.9639C134.198 32.8948 134.14 32.8392 134.07 32.8055C133.971 32.7657 133.861 32.7657 133.762 32.8055C133.645 32.8611 133.543 32.9452 133.467 33.0503C133.391 33.1553 133.343 33.2777 133.327 33.4062C133.267 33.6994 133.278 34.0029 133.36 34.2909C133.412 34.5613 133.543 34.8103 133.737 35.0066C133.931 35.203 134.178 35.3379 134.448 35.3944C134.536 35.398 134.624 35.3818 134.705 35.3472C134.786 35.3125 134.858 35.2603 134.916 35.1942C134.976 35.0918 134.976 35.0219 134.962 35.0173Z" fill="#EB996E"/>
<path d="M151.535 28.8057C151.535 28.8057 151.81 28.5962 152.193 28.1305C152.722 27.4596 153.046 26.6516 153.127 25.8024C153.189 25.2227 153.132 24.6365 152.959 24.0796C152.76 23.4407 152.39 22.8678 151.889 22.4219C151.312 21.9189 150.612 21.5752 149.86 21.4249C149.108 21.2746 148.329 21.323 147.602 21.5652C147.462 21.6117 147.331 21.6816 147.2 21.7375C147.069 21.7933 146.953 21.8771 146.831 21.947L146.644 22.0494V21.8445C146.64 21.4839 146.506 21.1367 146.266 20.8667C146.02 20.6047 145.718 20.4011 145.383 20.2707C144.749 20.0072 144.046 19.9549 143.379 20.1217C142.09 20.4151 140.997 21.0018 139.965 21.1228C139.156 21.2631 138.323 21.097 137.63 20.6572C137.447 20.5317 137.289 20.3739 137.163 20.1916C137.088 20.0659 137.051 19.996 137.06 19.9914C137.229 20.2213 137.436 20.4212 137.672 20.5827C138.354 20.9751 139.155 21.109 139.928 20.9599C140.466 20.859 140.992 20.7029 141.497 20.4942C142.091 20.2577 142.699 20.0601 143.319 19.9029C143.664 19.8196 144.019 19.7836 144.374 19.7958C144.749 19.8155 145.117 19.9006 145.463 20.0472C145.82 20.1993 146.139 20.4283 146.397 20.7177C146.673 21.033 146.828 21.4354 146.836 21.8539L146.649 21.7514L147.037 21.5279C147.181 21.472 147.317 21.3975 147.466 21.3463C148.233 21.0845 149.056 21.0298 149.851 21.1876C150.646 21.3454 151.385 21.7103 151.992 22.245C152.518 22.7191 152.902 23.3279 153.104 24.0051C153.313 24.7227 153.342 25.481 153.186 26.2122C153.03 26.9433 152.696 27.6248 152.212 28.1957C152.058 28.3707 151.884 28.527 151.693 28.6613C151.646 28.7157 151.593 28.7642 151.535 28.8057Z" fill="#455A64"/>
<path d="M150.927 18.2779C150.62 18.1227 150.293 18.0114 149.955 17.9473C149.569 17.8946 149.176 17.9313 148.806 18.0544C148.328 18.2004 147.912 18.502 147.625 18.9111L147.508 19.0741L147.438 18.8878C147.194 18.3155 146.801 17.8183 146.301 17.4475C145.8 17.0767 145.209 16.8458 144.589 16.7785C143.615 16.742 142.655 17.0196 141.852 17.5701C141.167 18.0148 140.44 18.3892 139.68 18.6876C139.156 18.8852 138.592 18.9523 138.036 18.8832C137.888 18.8559 137.742 18.8154 137.601 18.7621C137.508 18.7202 137.457 18.6969 137.461 18.6876C137.466 18.6783 137.671 18.7482 138.05 18.7854C138.587 18.8189 139.125 18.7313 139.624 18.5293C140.362 18.2083 141.07 17.8218 141.74 17.3745C142.153 17.1187 142.591 16.905 143.047 16.7366C143.549 16.5543 144.085 16.4859 144.617 16.5364C145.279 16.6085 145.91 16.8583 146.441 17.2593C146.972 17.6602 147.385 18.1973 147.634 18.8133H147.452C147.773 18.3758 148.232 18.0578 148.755 17.91C149.153 17.7951 149.572 17.7744 149.979 17.8495C150.236 17.8983 150.483 17.9929 150.707 18.1289C150.787 18.1679 150.861 18.218 150.927 18.2779Z" fill="#455A64"/>
<path d="M144.775 34.3607C144.666 34.2697 144.539 34.2028 144.402 34.1643C144.265 34.1258 144.122 34.1165 143.981 34.1372C143.817 34.1722 143.662 34.2413 143.526 34.3399C143.39 34.4386 143.276 34.5646 143.192 34.7099C143.192 34.7099 143.169 34.7332 143.164 34.7471C143.1 34.8535 143.07 34.9772 143.08 35.101C143.1 35.2359 143.153 35.3637 143.235 35.4733C143.316 35.5829 143.423 35.6709 143.547 35.7296C143.744 35.8294 143.968 35.8659 144.187 35.8343C144.406 35.8026 144.61 35.7043 144.771 35.5527C144.923 35.3918 145.009 35.179 145.01 34.9576C145.011 34.7362 144.927 34.5227 144.775 34.3607Z" fill="#3669D8"/>
<path d="M145.01 35.8087C144.973 35.8087 144.931 35.669 144.805 35.4781C144.653 35.2222 144.426 35.0189 144.154 34.8956C143.883 34.7724 143.58 34.7352 143.287 34.789C143.058 34.8216 142.918 34.8868 142.904 34.8542C142.89 34.8216 142.997 34.7098 143.249 34.6213C143.579 34.5154 143.937 34.5354 144.253 34.6772C144.573 34.8189 144.825 35.0772 144.959 35.3989C145.057 35.6411 145.043 35.804 145.01 35.8087Z" fill="#263238"/>
<path d="M135.477 36.3861C135.477 36.3861 135.613 36.6189 135.435 36.9728C135.335 37.1846 135.158 37.3508 134.94 37.4384C134.804 37.487 134.659 37.5034 134.515 37.4864C134.372 37.4695 134.234 37.4196 134.114 37.3406C133.991 37.2661 133.887 37.1644 133.81 37.0432C133.733 36.9221 133.685 36.7848 133.67 36.6422C133.656 36.4122 133.724 36.1846 133.861 35.9996C134.104 35.6923 134.375 35.683 134.375 35.7109C134.375 35.7389 134.17 35.818 134.006 36.0974C133.911 36.2539 133.872 36.4375 133.894 36.6189C133.911 36.7252 133.952 36.8264 134.012 36.9157C134.073 37.0049 134.152 37.08 134.244 37.1358C134.335 37.1939 134.438 37.2323 134.545 37.2483C134.652 37.2643 134.761 37.2577 134.865 37.2289C135.038 37.1674 135.187 37.0533 135.291 36.903C135.473 36.6143 135.44 36.3861 135.477 36.3861Z" fill="#3669D8"/>
<path d="M133.902 36.2046C133.925 36.2046 133.902 36.3629 133.683 36.4653C133.575 36.51 133.456 36.523 133.341 36.5027C133.226 36.4824 133.119 36.4298 133.034 36.3509C132.948 36.2721 132.886 36.1704 132.856 36.0578C132.826 35.9452 132.83 35.8265 132.865 35.7156C132.911 35.5897 132.998 35.483 133.113 35.413C133.304 35.2966 133.449 35.3431 133.444 35.3711C133.44 35.399 133.332 35.4316 133.216 35.548C133.158 35.6196 133.123 35.7065 133.115 35.7978C133.107 35.8891 133.126 35.9807 133.17 36.0613C133.214 36.1418 133.28 36.2077 133.362 36.2505C133.443 36.2934 133.535 36.3114 133.627 36.3023C133.785 36.2697 133.869 36.1859 133.902 36.2046Z" fill="#3669D8"/>
<path d="M139.037 77.5571C139.037 77.5571 150.601 78.2276 157.439 78.2881C162.731 78.3394 165.094 76.9378 166.15 73.5434C167.037 70.6984 165.132 65.2366 165.132 65.2366C161.549 65.2366 159.34 65.7488 157.037 66.8244L157.649 69.3201L139.004 70.9219L139.037 77.5571Z" fill="#FFBE9D"/>
<path d="M161.533 71.9834C161.031 71.3333 160.445 70.7524 159.79 70.2559C159.088 69.8274 158.331 69.4954 157.539 69.2688C157.788 69.233 158.043 69.2553 158.282 69.3339C158.869 69.4724 159.427 69.717 159.926 70.0557C160.426 70.3954 160.858 70.8249 161.201 71.3222C161.462 71.704 161.561 71.9694 161.533 71.9834Z" fill="#EB996E"/>
<path d="M134.805 66.8057C134.805 66.8057 131.227 67.6625 128.598 69.4132L131.4 76.9844C132.334 79.4708 135.188 80.7094 137.472 79.4056C140.989 77.3988 142.231 71.5505 142.231 71.5505L146.094 54.8437L139.691 50.844L134.828 66.8057" fill="#FFBE9D"/>
<path d="M139.665 50.8438L139.927 45.3494L138.493 39.7618C138.414 39.4545 138.376 39.068 138.629 38.8818C138.754 38.7862 138.908 38.7367 139.066 38.7418C139.223 38.7469 139.374 38.8062 139.493 38.9097C139.88 39.3102 141.749 44.1946 141.749 44.1946C141.749 44.1946 144.584 42.4997 145.088 42.4159C145.593 42.3321 146.223 43.8547 146.265 43.9711C146.284 44.3123 146.284 44.6543 146.265 44.9955C146.265 44.9955 148.017 45.0467 148.175 45.2842C148.303 45.7693 148.37 46.2681 148.376 46.7695C148.376 46.7695 149.119 47.007 149.236 47.5658C149.352 48.1245 149.595 49.0465 149.236 49.2513C148.876 49.4562 148.147 49.8567 148.147 49.8567C148.147 49.8567 147.853 52.7063 147.774 52.9671C147.694 53.2278 146.055 54.8296 146.055 54.8296L139.665 50.8438Z" fill="#FFBE9D"/>
<path d="M133.707 79.5173C133.707 79.5173 133.88 79.6197 134.244 79.7361C134.777 79.9028 135.34 79.9473 135.893 79.8665C136.78 79.7403 137.612 79.3584 138.284 78.7676C139.173 77.9636 139.924 77.0198 140.508 75.9739C140.851 75.3591 141.14 74.7156 141.372 74.0508C141.615 73.3193 141.816 72.5747 141.974 71.8205C142.338 70.2513 142.736 68.5611 143.156 66.7637C143.997 63.1737 144.94 59.16 145.958 54.8343V54.8017H145.982C146.304 54.4851 146.626 54.1638 146.948 53.8286C147.107 53.6609 147.266 53.4933 147.416 53.321C147.49 53.2326 147.57 53.1441 147.63 53.0556C147.678 52.968 147.705 52.871 147.71 52.7716C147.836 51.8403 147.934 50.8765 148.037 49.9033V49.8428L148.093 49.8149L148.985 49.3166C149.05 49.2747 149.153 49.2282 149.195 49.1909C149.24 49.1507 149.269 49.0965 149.279 49.0373C149.301 48.8828 149.301 48.7261 149.279 48.5716C149.234 48.2302 149.164 47.8925 149.069 47.5612C148.91 47.2716 148.643 47.0558 148.326 46.9606L148.247 46.9326V46.8535C148.247 46.5834 148.219 46.304 148.186 46.0293C148.174 45.8917 148.153 45.7549 148.125 45.6196C148.115 45.5599 148.096 45.5019 148.069 45.4473C148.069 45.4147 148.069 45.4473 148.041 45.4193C148.016 45.4061 147.989 45.3951 147.962 45.3867C147.4 45.2647 146.827 45.2007 146.253 45.1958H146.131V45.0748C146.131 44.7861 146.131 44.4648 146.131 44.1435C146.112 44.0339 146.074 43.9284 146.019 43.8315C145.972 43.7198 145.916 43.6127 145.86 43.5009C145.751 43.2853 145.623 43.0796 145.477 42.8863C145.411 42.7962 145.331 42.7176 145.239 42.6535C145.205 42.625 145.164 42.6071 145.119 42.6021C145.075 42.5971 145.031 42.6053 144.991 42.6256C144.765 42.7118 144.545 42.813 144.333 42.9282C143.464 43.3938 142.614 43.8595 141.783 44.3624L141.661 44.4369L141.61 44.3065C141.171 43.2029 140.732 42.1134 140.302 41.0471C140.087 40.5116 139.877 39.9761 139.662 39.45C139.629 39.3321 139.563 39.2259 139.472 39.1436C139.382 39.0612 139.269 39.006 139.148 38.9843C139.037 38.9474 138.916 38.9494 138.806 38.99C138.695 39.0306 138.602 39.1075 138.541 39.2078C138.483 39.3077 138.458 39.4236 138.471 39.5384C138.471 39.6409 138.537 39.7992 138.565 39.9249C138.639 40.195 138.709 40.4604 138.779 40.7258C138.92 41.2613 139.055 41.7874 139.195 42.3089C139.469 43.3581 139.738 44.3825 140.003 45.3821V45.4147C139.91 47.3269 139.821 49.1583 139.737 50.9091V50.8998L135.482 64.701L134.282 68.5424C134.141 68.9755 134.034 69.3154 133.959 69.5528C133.885 69.7903 133.838 69.8928 133.838 69.8928C133.838 69.8928 133.861 69.7717 133.927 69.5435L134.221 68.5238C134.492 67.6252 134.879 66.326 135.37 64.6684C136.379 61.3345 137.813 56.5758 139.545 50.8392V50.8625C139.626 49.118 139.709 47.2865 139.793 45.3681V45.4007C139.527 44.3996 139.251 43.3752 138.976 42.3322L138.555 40.7491C138.485 40.4837 138.415 40.2136 138.34 39.9482C138.3 39.8088 138.267 39.6673 138.242 39.5245C138.225 39.3628 138.259 39.1999 138.34 39.0588C138.427 38.9136 138.56 38.802 138.719 38.7422C138.875 38.6965 139.041 38.6913 139.201 38.7271C139.36 38.763 139.508 38.8387 139.629 38.9471C139.747 39.0567 139.834 39.1946 139.882 39.3475L140.522 40.9446C140.956 42.0156 141.39 43.1052 141.834 44.204L141.661 44.1435C142.497 43.6499 143.338 43.1564 144.225 42.6954C144.45 42.5785 144.681 42.4744 144.917 42.3834C144.99 42.3528 145.071 42.3416 145.15 42.3508C145.23 42.3623 145.307 42.3909 145.374 42.4347C145.487 42.5151 145.586 42.6125 145.669 42.7233C145.825 42.9271 145.961 43.1454 146.075 43.3752C146.136 43.4916 146.192 43.6034 146.243 43.7198C146.31 43.8431 146.354 43.977 146.374 44.1156C146.374 44.4462 146.374 44.7535 146.374 45.0468L146.257 44.9211C146.858 44.9251 147.456 44.9938 148.041 45.126C148.082 45.14 148.121 45.1571 148.158 45.1772C148.21 45.2051 148.252 45.2471 148.28 45.2983C148.316 45.3738 148.343 45.4536 148.359 45.5357C148.387 45.6847 148.406 45.8244 148.424 45.9688C148.452 46.2528 148.471 46.5322 148.485 46.8116L148.401 46.6998C148.592 46.7557 148.77 46.8497 148.923 46.9762C149.076 47.1027 149.202 47.2589 149.293 47.4355C149.396 47.7893 149.47 48.1505 149.517 48.5158C149.55 48.7022 149.55 48.8928 149.517 49.0792C149.497 49.1921 149.437 49.2943 149.349 49.3679C149.273 49.419 149.193 49.4656 149.111 49.5075L148.224 49.9685L148.284 49.88C148.177 50.8532 148.079 51.8077 147.948 52.753L147.92 52.9346C147.909 53.0081 147.878 53.0773 147.831 53.1348C147.762 53.2367 147.686 53.3332 147.602 53.4235C147.444 53.6004 147.285 53.7727 147.135 53.9403C146.813 54.2756 146.491 54.5969 146.164 54.9135L146.196 54.8576C145.169 59.1786 144.216 63.1924 143.361 66.7824C142.936 68.575 142.53 70.2653 142.156 71.8298C141.996 72.5896 141.791 73.3391 141.54 74.0741C141.299 74.7451 141.003 75.3947 140.652 76.0158C140.056 77.0751 139.287 78.0286 138.378 78.8375C137.685 79.4321 136.832 79.8109 135.926 79.9271C135.361 80.0026 134.787 79.9452 134.249 79.7594C134.112 79.7093 133.979 79.6486 133.852 79.5778L133.707 79.5173Z" fill="#EB996E"/>
<path d="M146.268 45.0096C146.268 45.0422 146.109 45.0608 145.862 45.0701C145.547 45.0761 145.234 45.1135 144.928 45.1819C144.631 45.2545 144.358 45.4002 144.133 45.6056C143.965 45.7639 143.891 45.899 143.853 45.885C143.816 45.871 143.853 45.7034 144.007 45.4892C144.225 45.2181 144.528 45.0278 144.867 44.9491C145.194 44.8687 145.533 44.8529 145.866 44.9025C146.119 44.9351 146.268 44.977 146.268 45.0096Z" fill="#EB996E"/>
<path d="M144.914 45.0607C144.854 45.0374 144.849 44.8931 144.914 44.7394C144.98 44.5858 145.073 44.4787 145.134 44.502C145.195 44.5252 145.204 44.6696 145.134 44.8232C145.064 44.9769 144.961 45.084 144.914 45.0607Z" fill="#EB996E"/>
<path d="M148.456 46.7511C148.002 46.891 147.529 46.9555 147.055 46.942C146.905 46.9371 146.757 46.9679 146.622 47.0319C146.487 47.0959 146.37 47.1912 146.279 47.3099C146.158 47.5008 146.2 47.6591 146.163 47.6684C146.125 47.6777 146.013 47.5148 146.13 47.2354C146.194 47.0781 146.311 46.948 146.461 46.8675C146.634 46.7729 146.825 46.7158 147.022 46.6999C147.499 46.6271 147.985 46.6445 148.456 46.7511Z" fill="#EB996E"/>
<path d="M148.148 48.4273C148.213 48.4273 148.25 48.7719 148.232 49.1956C148.213 49.6193 148.143 49.9546 148.078 49.9546C148.012 49.9546 147.97 49.6053 147.989 49.1816C148.008 48.7579 148.078 48.4226 148.148 48.4273Z" fill="#EB996E"/>
<path d="M150.086 60.9666L150.502 59.5417C150.521 59.4765 150.556 59.4174 150.605 59.3701C150.654 59.3228 150.715 59.2891 150.781 59.2721C150.847 59.2552 150.916 59.2557 150.982 59.2736C151.047 59.2915 151.107 59.3261 151.156 59.3741L151.702 59.9282L152.038 58.5825C152.058 58.5048 152.101 58.435 152.162 58.3826C152.223 58.3302 152.299 58.2977 152.379 58.2896C152.459 58.2815 152.539 58.2981 152.61 58.3371C152.68 58.3762 152.736 58.4359 152.772 58.508L153.533 60.1005L150.086 60.9666Z" fill="white"/>
<path d="M153.542 60.7104C153.019 60.9622 152.465 61.1408 151.893 61.2413C151.34 61.4212 150.765 61.5216 150.184 61.5393C151.259 61.1087 152.389 60.8297 153.542 60.7104Z" fill="white"/>
<path d="M125.765 52.7622C125.765 52.7622 125.592 52.9391 125.349 53.3163C125.023 53.8534 124.809 54.4504 124.719 55.0717C124.586 55.9969 124.557 56.934 124.635 57.8655C124.686 58.9225 124.77 60.0772 124.901 61.2879C125.122 63.3554 125.451 65.41 125.886 67.4435C126.05 68.2257 126.199 68.8404 126.302 69.306C126.349 69.5016 126.391 69.6645 126.423 69.8042C126.456 69.9439 126.461 69.9811 126.461 69.9811C126.461 69.9811 126.437 69.9253 126.405 69.8135C126.372 69.7018 126.321 69.5062 126.269 69.3153C126.153 68.8823 125.994 68.2583 125.802 67.4761C125.348 65.4433 125.01 63.3866 124.789 61.3158C124.658 60.1052 124.579 58.9458 124.532 57.8888C124.461 56.9566 124.496 56.0195 124.635 55.095C124.735 54.4655 124.964 53.8633 125.307 53.3256C125.434 53.1182 125.588 52.9286 125.765 52.7622Z" fill="white"/>
<path d="M135.597 46.4203L135.49 46.4762L135.182 46.6252C134.916 46.7509 134.528 46.9371 134.065 47.1932C132.86 47.8634 131.689 48.5939 130.558 49.3817C129.222 50.313 128.04 51.1604 127.176 51.775L126.153 52.4968L125.868 52.6877C125.837 52.713 125.802 52.7348 125.766 52.7528C125.792 52.7216 125.824 52.6948 125.859 52.6737L126.13 52.4688L127.134 51.7192C127.989 51.0906 129.166 50.2152 130.502 49.3025C131.635 48.5113 132.814 47.7868 134.033 47.1327C134.5 46.8859 134.892 46.709 135.168 46.5926L135.481 46.4622C135.574 46.4296 135.574 46.4157 135.597 46.4203Z" fill="white"/>
<path d="M157.871 49.4516C157.842 49.4354 157.815 49.415 157.792 49.391L157.582 49.2094C157.321 48.9904 157.048 48.7867 156.764 48.5995C155.816 47.9968 154.81 47.4899 153.761 47.0862C152.715 46.6732 151.647 46.3188 150.562 46.0246C150.141 45.9081 149.805 45.8243 149.567 45.7685L149.3 45.6986C149.268 45.6919 149.237 45.681 149.207 45.666H149.305L149.576 45.7172C149.814 45.7638 150.155 45.8383 150.576 45.9454C151.671 46.2212 152.748 46.568 153.798 46.9837C154.853 47.3873 155.861 47.9058 156.802 48.5296C157.193 48.794 157.552 49.1034 157.871 49.4516Z" fill="white"/>
<path d="M135.728 84.993C135.665 84.9818 135.603 84.9614 135.546 84.9324C135.384 84.8614 135.227 84.7773 135.079 84.681C134.827 84.5307 134.608 84.3324 134.433 84.0975C134.258 83.8626 134.132 83.5957 134.061 83.312C133.932 82.7394 133.996 82.1407 134.243 81.6078C134.314 81.4423 134.405 81.286 134.514 81.1422C134.588 81.0444 134.64 80.9979 134.644 81.0025C134.517 81.2011 134.403 81.408 134.303 81.6218C134.086 82.145 134.036 82.722 134.159 83.2748C134.292 83.8206 134.626 84.297 135.093 84.6111C135.481 84.8905 135.737 84.9743 135.728 84.993Z" fill="white"/>
<path d="M134.242 79.9502C134.342 80.135 134.415 80.3324 134.462 80.5369C134.535 80.7328 134.579 80.9383 134.592 81.1469C134.486 80.9664 134.411 80.7698 134.368 80.5648C134.292 80.3685 134.249 80.1607 134.242 79.9502Z" fill="white"/>
<path d="M140.559 184.349L154.805 184.279L154.548 135.178L154.412 85.2304L135.108 84.9836L131.638 91.5024C130.218 94.1232 129.313 96.9899 128.971 99.9489C128.738 102.212 130.438 109.569 131.026 111.431L136.337 128.222L140.559 184.349Z" fill="#263238"/>
<path d="M158.593 85.2912L174.249 127.836C175.176 130.577 175.484 133.489 175.151 136.362C174.817 139.236 173.851 142.001 172.32 144.459L154.141 179.846L143.922 167.097L159.13 135.435L145.725 113.76L147.981 85.3563L154.295 85.2539L158.593 85.2912Z" fill="#263238"/>
<path d="M153.113 99.5439C153.113 99.5439 153.113 99.6184 153.113 99.7628C153.113 99.9071 153.137 100.131 153.155 100.405C153.188 100.978 153.23 101.802 153.286 102.869C153.394 105.024 153.543 108.121 153.753 111.944C153.963 115.766 154.141 120.325 154.374 125.4C154.486 127.933 154.608 130.592 154.729 133.349C154.818 134.745 154.781 136.142 154.795 137.539C154.809 138.936 154.795 140.407 154.795 141.87C154.795 153.571 154.832 164.164 154.846 171.842C154.846 175.67 154.846 178.771 154.846 180.926C154.846 181.993 154.846 182.822 154.846 183.399C154.846 183.669 154.846 183.865 154.846 184.042C154.846 184.218 154.846 184.26 154.846 184.26C154.846 184.26 154.846 184.186 154.846 184.042V183.399C154.846 182.822 154.846 182.002 154.818 180.926C154.818 178.771 154.781 175.674 154.753 171.847C154.72 164.169 154.678 153.575 154.631 141.874C154.631 140.412 154.631 138.969 154.631 137.544C154.631 136.119 154.659 134.713 154.571 133.353C154.454 130.601 154.337 127.943 154.23 125.41C154.015 120.344 153.819 115.785 153.66 111.948C153.501 108.112 153.384 105.029 153.295 102.873C153.258 101.812 153.23 100.983 153.211 100.405C153.211 100.131 153.211 99.9397 153.211 99.7628C153.211 99.5859 153.113 99.5439 153.113 99.5439Z" fill="#455A64"/>
<path d="M152.754 86.1292C152.809 86.279 152.842 86.4357 152.852 86.5948C152.903 86.8928 152.959 87.3258 153.025 87.8659C153.146 88.9415 153.277 90.4362 153.352 92.0892C153.427 93.7422 153.431 95.2415 153.408 96.3264C153.408 96.8665 153.375 97.3089 153.352 97.6115C153.357 97.7687 153.338 97.9256 153.296 98.0772C153.237 97.4956 153.217 96.9107 153.235 96.3264C153.235 95.2415 153.184 93.7515 153.109 92.0985C153.034 90.4455 152.931 88.9602 152.852 87.9078C152.786 87.3173 152.753 86.7234 152.754 86.1292Z" fill="#455A64"/>
<path d="M149.615 87.0884C149.638 87.121 149.372 87.242 149.297 87.6192C149.276 87.7215 149.282 87.8275 149.314 87.9269C149.346 88.0264 149.403 88.116 149.479 88.1873C149.572 88.2729 149.687 88.3303 149.811 88.3526C149.935 88.3749 150.063 88.3612 150.18 88.313C150.292 88.2555 150.385 88.1679 150.45 88.06C150.514 87.9522 150.547 87.8285 150.544 87.703C150.54 87.5988 150.509 87.4974 150.454 87.4086C150.399 87.3197 150.323 87.2464 150.231 87.1955C150.041 87.1038 149.83 87.0667 149.62 87.0884C149.62 87.0884 149.666 87.0279 149.788 86.9906C149.963 86.948 150.147 86.966 150.311 87.0418C150.441 87.0959 150.554 87.1851 150.636 87.2994C150.719 87.4137 150.768 87.5486 150.778 87.689C150.796 87.8624 150.76 88.0372 150.674 88.1888C150.587 88.3404 150.455 88.4612 150.297 88.5342C150.138 88.6072 149.96 88.6287 149.788 88.5957C149.617 88.5627 149.46 88.4769 149.339 88.3502C149.24 88.2519 149.17 88.1282 149.136 87.9928C149.102 87.8573 149.106 87.7152 149.148 87.582C149.195 87.4077 149.3 87.2548 149.447 87.1489C149.54 87.0837 149.61 87.0744 149.615 87.0884Z" fill="#455A64"/>
<path d="M142.143 86.2456C142.212 86.3924 142.254 86.5499 142.269 86.7112C142.344 87.1292 142.358 87.5558 142.311 87.9777C142.244 88.6061 142.062 89.2168 141.774 89.7797C141.426 90.4799 140.911 91.0843 140.274 91.5397C139.637 91.9952 138.898 92.2878 138.121 92.3919C137.5 92.4844 136.866 92.4608 136.253 92.3221C135.838 92.2323 135.439 92.0833 135.067 91.8797C134.926 91.8134 134.797 91.7254 134.684 91.619C135.2 91.8505 135.738 92.0299 136.29 92.1544C136.955 92.2921 137.64 92.291 138.304 92.1512C138.968 92.0114 139.596 91.7359 140.147 91.3421C140.699 90.9484 141.163 90.4448 141.509 89.8634C141.856 89.2819 142.078 88.6351 142.161 87.9638C142.216 87.392 142.21 86.816 142.143 86.2456Z" fill="#455A64"/>
<path d="M160.467 90.3244C160.162 90.3595 159.853 90.3228 159.565 90.2173C158.86 89.9958 158.226 89.5907 157.73 89.0439C157.229 88.4996 156.885 87.8303 156.735 87.1069C156.661 86.8118 156.661 86.5033 156.735 86.2083C156.777 86.2083 156.782 86.5482 156.922 87.0697C157.111 87.7435 157.455 88.3641 157.927 88.8822C158.399 89.4003 158.985 89.8016 159.64 90.0543C160.126 90.2452 160.471 90.2778 160.467 90.3244Z" fill="#455A64"/>
<path d="M166.03 136.189C165.796 136.455 165.516 136.677 165.204 136.845C164.876 137.053 164.518 137.21 164.144 137.311C163.672 137.436 163.174 137.423 162.71 137.274C161.894 136.967 161.195 136.413 160.711 135.691C160.488 135.419 160.304 135.118 160.164 134.797C160.416 135.036 160.645 135.3 160.846 135.584C161.342 136.239 162.012 136.744 162.78 137.041C163.172 137.145 163.581 137.169 163.982 137.111C164.384 137.052 164.769 136.913 165.115 136.701C165.41 136.513 165.716 136.342 166.03 136.189Z" fill="#455A64"/>
<path d="M162.462 138.904C161.91 138.334 161.417 137.71 160.991 137.041C160.5 136.418 160.071 135.749 159.711 135.043C160.267 135.611 160.761 136.236 161.187 136.906C161.682 137.525 162.109 138.194 162.462 138.904Z" fill="#455A64"/>
<path d="M138.53 101.188C138.465 101.211 138.301 100.945 138.156 100.587C138.012 100.228 137.951 99.9257 138.012 99.8977C138.072 99.8698 138.241 100.14 138.381 100.498C138.521 100.857 138.591 101.188 138.53 101.188Z" fill="#FAFAFA"/>
<path d="M147.575 102.482C147.505 102.482 147.453 102.254 147.453 101.97C147.453 101.686 147.505 101.453 147.575 101.453C147.645 101.453 147.696 101.686 147.696 101.97C147.696 102.254 147.64 102.482 147.575 102.482Z" fill="#FAFAFA"/>
<path d="M143.856 107.38C143.79 107.38 143.716 107.101 143.692 106.743C143.669 106.384 143.692 106.095 143.767 106.091C143.842 106.086 143.912 106.37 143.935 106.729C143.959 107.087 143.921 107.376 143.856 107.38Z" fill="#FAFAFA"/>
<path d="M137.064 110.966C137.008 111.008 136.817 110.836 136.565 110.659C136.313 110.482 136.098 110.347 136.098 110.281C136.098 110.216 136.406 110.254 136.691 110.458C136.976 110.663 137.121 110.966 137.064 110.966Z" fill="#FAFAFA"/>
<path d="M149.033 115.534C148.977 115.496 149.033 115.296 149.192 115.068C149.35 114.84 149.495 114.71 149.551 114.747C149.607 114.784 149.551 114.989 149.393 115.212C149.234 115.436 149.089 115.571 149.033 115.534Z" fill="#FAFAFA"/>
<path d="M141.645 116.823C141.579 116.823 141.523 116.437 141.523 115.967C141.523 115.496 141.579 115.105 141.645 115.105C141.71 115.105 141.766 115.492 141.766 115.967C141.766 116.442 141.696 116.823 141.645 116.823Z" fill="#FAFAFA"/>
<path d="M139.224 122.048C139.187 122.099 138.944 121.992 138.683 121.801C138.421 121.61 138.216 121.415 138.276 121.359C138.337 121.303 138.561 121.415 138.823 121.605C139.084 121.796 139.267 121.992 139.224 122.048Z" fill="#FAFAFA"/>
<path d="M146.708 123.864C146.736 123.924 146.587 124.05 146.372 124.148C146.157 124.246 145.961 124.269 145.933 124.208C145.905 124.148 146.059 124.022 146.274 123.924C146.489 123.827 146.685 123.803 146.708 123.864Z" fill="#FAFAFA"/>
<path d="M141.647 132.385C141.591 132.413 141.348 132.054 141.11 131.579C140.871 131.104 140.727 130.694 140.787 130.648C140.848 130.601 141.091 130.979 141.324 131.453C141.558 131.928 141.689 132.334 141.647 132.385Z" fill="#FAFAFA"/>
<path d="M149.9 131.593C149.839 131.56 149.947 131.249 150.133 130.89C150.32 130.531 150.53 130.271 150.6 130.303C150.67 130.336 150.554 130.648 150.362 131.006C150.171 131.365 149.956 131.626 149.9 131.593Z" fill="#FAFAFA"/>
<path d="M146.281 138.806C146.21 138.806 146.22 138.429 146.145 137.991C146.07 137.553 145.958 137.204 146.024 137.171C146.089 137.139 146.313 137.469 146.388 137.954C146.463 138.438 146.346 138.82 146.281 138.806Z" fill="#FAFAFA"/>
<path d="M142.401 142.927C142.354 142.973 142.12 142.796 141.882 142.535C141.644 142.275 141.49 142.028 141.541 141.981C141.593 141.935 141.821 142.112 142.06 142.372C142.298 142.633 142.452 142.88 142.401 142.927Z" fill="#FAFAFA"/>
<path d="M151.808 144.491C151.762 144.445 151.935 144.193 152.196 143.928C152.458 143.662 152.7 143.49 152.752 143.537C152.803 143.583 152.626 143.839 152.369 144.1C152.112 144.361 151.86 144.538 151.808 144.491Z" fill="#FAFAFA"/>
<path d="M146.401 150.661C146.335 150.661 146.335 150.293 146.401 149.864C146.466 149.436 146.569 149.101 146.639 149.11C146.709 149.119 146.704 149.473 146.639 149.902C146.573 150.33 146.466 150.67 146.401 150.661Z" fill="#FAFAFA"/>
<path d="M142.761 153.655C142.7 153.687 142.495 153.445 142.294 153.115C142.093 152.784 141.99 152.491 142.046 152.458C142.102 152.425 142.308 152.663 142.514 152.994C142.719 153.324 142.817 153.617 142.761 153.655Z" fill="#FAFAFA"/>
<path d="M151.53 157.431C151.572 157.487 151.334 157.724 150.998 157.962C150.661 158.199 150.367 158.348 150.325 158.292C150.283 158.236 150.526 157.999 150.858 157.762C151.189 157.524 151.493 157.38 151.53 157.431Z" fill="#FAFAFA"/>
<path d="M144.223 162.334C144.157 162.311 144.223 161.938 144.283 161.473C144.344 161.007 144.307 160.625 144.377 160.616C144.447 160.607 144.568 160.998 144.521 161.496C144.475 161.994 144.283 162.362 144.223 162.334Z" fill="#FAFAFA"/>
<path d="M147.142 169.374C147.086 169.416 146.889 169.258 146.698 169.02C146.506 168.783 146.399 168.555 146.45 168.513C146.502 168.471 146.698 168.629 146.889 168.867C147.081 169.104 147.193 169.332 147.142 169.374Z" fill="#FAFAFA"/>
<path d="M143.954 174.096C143.898 174.133 143.641 173.858 143.379 173.476C143.118 173.095 142.954 172.759 143.006 172.722C143.057 172.685 143.318 172.96 143.58 173.341C143.842 173.723 144.01 174.058 143.954 174.096Z" fill="#FAFAFA"/>
<path d="M152.739 168.168C152.678 168.145 152.683 167.973 152.739 167.786C152.795 167.6 152.921 167.46 152.987 167.484C153.052 167.507 153.043 167.679 152.987 167.87C152.931 168.061 152.805 168.196 152.739 168.168Z" fill="#FAFAFA"/>
<path d="M148.861 179.413C148.8 179.381 148.917 179.05 149.01 178.636C149.103 178.221 149.136 177.872 149.206 177.867C149.276 177.863 149.346 178.24 149.248 178.687C149.15 179.134 148.917 179.45 148.861 179.413Z" fill="#FAFAFA"/>
<path d="M151.383 107.455C151.323 107.483 151.173 107.297 151.052 107.036C150.93 106.775 150.879 106.542 150.94 106.514C151 106.487 151.15 106.673 151.271 106.934C151.393 107.194 151.453 107.427 151.383 107.455Z" fill="#FAFAFA"/>
<path d="M144.915 92.9553C144.952 93.0112 144.625 93.2719 144.275 93.6444C143.925 94.0169 143.687 94.3615 143.626 94.3289C143.565 94.2963 143.724 93.8633 144.093 93.4815C144.462 93.0997 144.868 92.8948 144.915 92.9553Z" fill="#FAFAFA"/>
<path d="M150.675 92.8063C150.605 92.8063 150.498 92.5409 150.334 92.2242C150.171 91.9076 150.021 91.6469 150.073 91.6003C150.124 91.5537 150.376 91.7586 150.54 92.1125C150.703 92.4664 150.736 92.769 150.675 92.8063Z" fill="#FAFAFA"/>
<path d="M132.691 97.5139C132.631 97.486 132.691 97.1787 132.836 96.8248C132.981 96.4709 133.14 96.1962 133.205 96.2241C133.271 96.2521 133.205 96.5547 133.06 96.9133C132.916 97.2718 132.771 97.5372 132.691 97.5139Z" fill="#FAFAFA"/>
<path d="M133.274 104.545C133.227 104.596 132.961 104.447 132.676 104.21C132.391 103.972 132.209 103.744 132.237 103.688C132.265 103.632 132.55 103.786 132.835 104.023C133.12 104.261 133.316 104.494 133.274 104.545Z" fill="#FAFAFA"/>
<path d="M145.073 87.3724C145.012 87.3724 144.882 87.2234 144.788 86.9859C144.695 86.7484 144.667 86.5203 144.727 86.5203C144.788 86.5203 144.919 86.6693 145.012 86.9067C145.106 87.1442 145.134 87.3491 145.073 87.3724Z" fill="#FAFAFA"/>
<path d="M156.372 90.8088C156.306 90.8088 156.311 90.5154 156.372 90.1848C156.432 89.8542 156.554 89.5935 156.619 89.6075C156.684 89.6214 156.68 89.9055 156.619 90.2361C156.558 90.5667 156.437 90.8228 156.372 90.8088Z" fill="#FAFAFA"/>
<path d="M159.024 96.1308C158.963 96.1029 159.047 95.7583 159.215 95.3532C159.383 94.9481 159.565 94.6455 159.626 94.6687C159.687 94.692 159.626 95.0412 159.439 95.4463C159.252 95.8514 159.089 96.1541 159.024 96.1308Z" fill="#FAFAFA"/>
<path d="M157.135 100.424C157.074 100.452 156.85 100.131 156.635 99.707C156.42 99.2833 156.299 98.9061 156.359 98.8782C156.42 98.8502 156.64 99.1715 156.854 99.5952C157.069 100.019 157.195 100.391 157.135 100.424Z" fill="#FAFAFA"/>
<path d="M161.18 104.717C161.12 104.694 161.18 104.424 161.283 104.116C161.386 103.809 161.549 103.576 161.615 103.6C161.68 103.623 161.615 103.893 161.512 104.2C161.409 104.507 161.265 104.74 161.18 104.717Z" fill="#FAFAFA"/>
<path d="M157.564 108.922C157.508 108.959 157.363 108.833 157.246 108.647C157.129 108.461 157.073 108.275 157.134 108.237C157.195 108.2 157.33 108.326 157.452 108.517C157.573 108.708 157.62 108.889 157.564 108.922Z" fill="#FAFAFA"/>
<path d="M158.335 117.601C158.288 117.643 157.994 117.415 157.686 117.08C157.377 116.744 157.167 116.442 157.219 116.395C157.27 116.349 157.56 116.581 157.868 116.917C158.176 117.252 158.386 117.555 158.335 117.601Z" fill="#FAFAFA"/>
<path d="M163.075 112.614C163.023 112.656 162.766 112.423 162.505 112.088C162.243 111.753 162.075 111.455 162.126 111.413C162.178 111.371 162.435 111.608 162.696 111.939C162.958 112.27 163.131 112.577 163.075 112.614Z" fill="#FAFAFA"/>
<path d="M165.677 119.491C165.616 119.463 165.724 119.114 165.915 118.714C166.107 118.313 166.308 118.006 166.382 118.034C166.457 118.062 166.34 118.416 166.149 118.816C165.957 119.217 165.738 119.524 165.677 119.491Z" fill="#FAFAFA"/>
<path d="M160.146 125.154C160.086 125.186 159.871 124.93 159.572 124.655C159.273 124.381 158.997 124.19 159.025 124.12C159.053 124.05 159.408 124.176 159.735 124.478C160.062 124.781 160.202 125.121 160.146 125.154Z" fill="#FAFAFA"/>
<path d="M160.493 130.988C160.493 131.053 160.26 131.109 159.975 131.109C159.69 131.109 159.461 131.053 159.461 130.988C159.461 130.923 159.69 130.867 159.975 130.867C160.26 130.867 160.493 130.923 160.493 130.988Z" fill="#FAFAFA"/>
<path d="M166.177 129.358C166.116 129.325 166.237 129.032 166.326 128.669C166.415 128.306 166.452 127.989 166.522 127.984C166.592 127.98 166.667 128.32 166.564 128.725C166.461 129.13 166.228 129.395 166.177 129.358Z" fill="#FAFAFA"/>
<path d="M171.821 131.318C171.761 131.342 171.588 131.011 171.438 130.587C171.289 130.164 171.219 129.8 171.28 129.782C171.34 129.763 171.518 130.084 171.667 130.508C171.817 130.932 171.887 131.295 171.821 131.318Z" fill="#FAFAFA"/>
<path d="M170.922 139.327C170.866 139.295 171.011 138.903 171.244 138.452C171.478 138 171.712 137.66 171.782 137.693C171.852 137.725 171.698 138.117 171.459 138.564C171.221 139.011 170.983 139.369 170.922 139.327Z" fill="#FAFAFA"/>
<path d="M165.769 144.026C165.708 144.049 165.517 143.728 165.34 143.304C165.162 142.88 165.073 142.517 165.139 142.489C165.204 142.461 165.391 142.787 165.564 143.211C165.737 143.634 165.83 144.026 165.769 144.026Z" fill="#FAFAFA"/>
<path d="M160.063 145.846C160.063 145.911 159.867 145.967 159.629 145.967C159.391 145.967 159.199 145.911 159.199 145.846C159.199 145.781 159.395 145.725 159.629 145.725C159.862 145.725 160.063 145.781 160.063 145.846Z" fill="#FAFAFA"/>
<path d="M163.333 153.338C163.272 153.338 163.141 153.082 163.043 152.728C162.945 152.374 162.926 152.067 162.992 152.053C163.057 152.039 163.183 152.309 163.281 152.663C163.379 153.017 163.398 153.301 163.333 153.338Z" fill="#FAFAFA"/>
<path d="M159.197 150.824C159.141 150.791 159.197 150.572 159.351 150.335C159.505 150.097 159.659 149.934 159.715 149.967C159.772 149.999 159.715 150.223 159.561 150.46C159.407 150.698 159.258 150.861 159.197 150.824Z" fill="#FAFAFA"/>
<path d="M159.116 159.07C159.05 159.07 158.957 158.758 158.91 158.353C158.864 157.948 158.878 157.617 158.943 157.608C159.008 157.599 159.102 157.92 159.149 158.325C159.195 158.73 159.181 159.061 159.116 159.07Z" fill="#FAFAFA"/>
</svg>
