<svg width="35" height="33" viewBox="0 0 35 33" fill="none" xmlns="http://www.w3.org/2000/svg">
<g filter="url(#filter0_d_1838_13286)">
<path d="M5.68128 25.7518H30.1459C31.064 25.7518 31.8089 26.4227 31.8089 27.2504C31.8089 28.0495 31.0895 28.6976 30.1999 28.6976H21.1903C21.0971 28.6977 21.0057 28.7239 20.9264 28.7732C20.8472 28.8226 20.7832 28.8931 20.7417 28.9769C20.5524 29.3523 20.4085 29.9034 19.7886 30.503C18.9055 31.3582 17.0504 31.8543 15.7017 29.8379C15.4433 29.4521 15.1508 28.6976 14.6842 28.6976C13.5096 28.708 8.30587 28.8068 5.57432 28.8544C4.64772 28.8705 3.8877 28.1977 3.8877 27.3625C3.8877 26.4702 4.69031 25.7471 5.68128 25.7471V25.7518Z" fill="white" stroke="#00356D" stroke-width="0.720067" stroke-miterlimit="10"/>
<path d="M30.4035 25.705H5.21289V20.0501C16.9492 19.0999 17.7689 22.8781 17.7689 22.8781C18.369 19.2899 30.2747 20.0501 30.2747 20.0501L30.4035 25.705Z" fill="white" stroke="#00356D" stroke-width="0.720067" stroke-miterlimit="10"/>
<path d="M5.78612 22.8011C3.2751 22.842 16.0346 22.2661 17.6966 25.2566C17.7129 25.2844 17.7351 25.3082 17.7617 25.3263C17.7884 25.3444 17.8187 25.3562 17.8505 25.3609C17.8823 25.3657 17.9147 25.3632 17.9454 25.3537C17.9761 25.3442 18.0043 25.3279 18.0279 25.306C18.6611 24.7282 20.5171 23.1356 21.6813 23.186" stroke="#00356D" stroke-width="0.720067" stroke-linecap="round" stroke-linejoin="round"/>
<path d="M24.1428 22.9971C24.2996 22.9971 24.4268 22.8695 24.4268 22.712C24.4268 22.5546 24.2996 22.4269 24.1428 22.4269C23.986 22.4269 23.8589 22.5546 23.8589 22.712C23.8589 22.8695 23.986 22.9971 24.1428 22.9971Z" stroke="#00356D" stroke-width="0.720067" stroke-miterlimit="10"/>
<path d="M30.3361 22.7632C27.0765 22.8058 26.1177 22.8011 26.1177 22.8011" stroke="#00356D" stroke-width="0.720067" stroke-miterlimit="10" stroke-linecap="round"/>
<path d="M32.3267 3.62355V13.9453C32.3268 14.348 32.1698 14.7347 31.8894 15.0226C31.609 15.3105 31.2274 15.4766 30.8265 15.4856L22.8167 15.6683C22.5325 15.6757 22.2569 15.7682 22.0254 15.9339L17.5248 19.1437C17.4568 19.1927 17.3751 19.2191 17.2913 19.2191C17.2076 19.2191 17.1259 19.1927 17.0579 19.1437L12.4329 15.8124C12.2101 15.6522 11.9428 15.5661 11.6687 15.5661H4.3113C3.79908 15.5658 3.30794 15.3613 2.94586 14.9976C2.58377 14.6339 2.38037 14.1407 2.38037 13.6264V4.06507C2.38037 3.45791 2.62061 2.87561 3.04824 2.44628C3.47587 2.01695 4.05586 1.77576 4.66063 1.77576H30.4862C30.9743 1.77576 31.4424 1.97043 31.7876 2.31696C32.1328 2.66349 32.3267 3.13349 32.3267 3.62355Z" fill="white" stroke="#00356D" stroke-width="0.86008" stroke-miterlimit="10"/>
<path d="M8.08843 5.75671V12.1024H6.78094V5.75671H8.08843ZM10.6163 8.46758V9.48743H7.73105V8.46758H10.6163ZM10.9213 5.75671V6.78091H7.73105V5.75671H10.9213ZM12.7431 8.41528V12.1024H11.4879V7.38672H12.669L12.7431 8.41528ZM14.1639 7.35621L14.1421 8.51988C14.0811 8.51116 14.007 8.5039 13.9199 8.49809C13.8356 8.48937 13.7586 8.48501 13.6889 8.48501C13.5116 8.48501 13.3576 8.50826 13.2269 8.55475C13.099 8.59833 12.9915 8.6637 12.9044 8.75087C12.8201 8.83804 12.7562 8.94409 12.7126 9.06903C12.6719 9.19397 12.6487 9.33634 12.6429 9.49614L12.3901 9.41769C12.3901 9.11261 12.4206 8.83223 12.4816 8.57654C12.5426 8.31794 12.6313 8.09276 12.7475 7.901C12.8666 7.70923 13.0119 7.56105 13.1833 7.45645C13.3547 7.35185 13.5509 7.29955 13.7717 7.29955C13.8414 7.29955 13.9126 7.30536 13.9852 7.31698C14.0579 7.3257 14.1174 7.33878 14.1639 7.35621ZM16.8399 12.1896C16.4738 12.1896 16.1455 12.1315 15.855 12.0153C15.5644 11.8961 15.3174 11.732 15.114 11.5228C14.9136 11.3136 14.7596 11.0709 14.6521 10.7949C14.5446 10.516 14.4908 10.2196 14.4908 9.90582V9.73149C14.4908 9.37411 14.5416 9.04724 14.6433 8.75087C14.745 8.45451 14.8903 8.19736 15.0792 7.97945C15.2709 7.76153 15.5034 7.59446 15.7765 7.47824C16.0496 7.35911 16.3576 7.29955 16.7005 7.29955C17.0346 7.29955 17.331 7.35476 17.5896 7.46517C17.8482 7.57558 18.0646 7.73248 18.239 7.93587C18.4162 8.13925 18.5498 8.38332 18.6399 8.66806C18.73 8.9499 18.775 9.2637 18.775 9.60946V10.1325H15.0269V9.29566H17.5416V9.19978C17.5416 9.02544 17.5097 8.87 17.4457 8.73344C17.3847 8.59397 17.2917 8.48356 17.1668 8.40221C17.0419 8.32085 16.8821 8.28017 16.6874 8.28017C16.5218 8.28017 16.3794 8.31649 16.2603 8.38913C16.1412 8.46177 16.0438 8.56346 15.9683 8.69421C15.8956 8.82496 15.8404 8.97896 15.8027 9.15619C15.7678 9.33053 15.7504 9.52229 15.7504 9.73149V9.90582C15.7504 10.0947 15.7765 10.269 15.8288 10.4288C15.884 10.5886 15.961 10.7266 16.0598 10.8429C16.1615 10.9591 16.2835 11.0492 16.4259 11.1131C16.5712 11.177 16.7353 11.209 16.9184 11.209C17.145 11.209 17.3557 11.1654 17.5503 11.0782C17.7479 10.9881 17.9179 10.853 18.0603 10.6729L18.6704 11.3354C18.5716 11.4777 18.4365 11.6143 18.2651 11.745C18.0966 11.8758 17.8932 11.9833 17.6549 12.0676C17.4167 12.1489 17.145 12.1896 16.8399 12.1896ZM21.6602 12.1896C21.2941 12.1896 20.9658 12.1315 20.6753 12.0153C20.3847 11.8961 20.1377 11.732 19.9343 11.5228C19.7339 11.3136 19.5799 11.0709 19.4724 10.7949C19.3649 10.516 19.3111 10.2196 19.3111 9.90582V9.73149C19.3111 9.37411 19.3619 9.04724 19.4636 8.75087C19.5653 8.45451 19.7106 8.19736 19.8995 7.97945C20.0912 7.76153 20.3237 7.59446 20.5968 7.47824C20.8699 7.35911 21.1779 7.29955 21.5208 7.29955C21.8549 7.29955 22.1513 7.35476 22.4099 7.46517C22.6685 7.57558 22.8849 7.73248 23.0593 7.93587C23.2365 8.13925 23.3701 8.38332 23.4602 8.66806C23.5503 8.9499 23.5953 9.2637 23.5953 9.60946V10.1325H19.8472V9.29566H22.3619V9.19978C22.3619 9.02544 22.33 8.87 22.266 8.73344C22.205 8.59397 22.112 8.48356 21.9871 8.40221C21.8622 8.32085 21.7024 8.28017 21.5077 8.28017C21.3421 8.28017 21.1997 8.31649 21.0806 8.38913C20.9614 8.46177 20.8641 8.56346 20.7886 8.69421C20.7159 8.82496 20.6607 8.97896 20.623 9.15619C20.5881 9.33053 20.5707 9.52229 20.5707 9.73149V9.90582C20.5707 10.0947 20.5968 10.269 20.6491 10.4288C20.7043 10.5886 20.7813 10.7266 20.8801 10.8429C20.9818 10.9591 21.1038 11.0492 21.2462 11.1131C21.3915 11.177 21.5556 11.209 21.7387 11.209C21.9653 11.209 22.176 11.1654 22.3706 11.0782C22.5682 10.9881 22.7382 10.853 22.8806 10.6729L23.4907 11.3354C23.3919 11.4777 23.2568 11.6143 23.0854 11.745C22.9169 11.8758 22.7135 11.9833 22.4752 12.0676C22.237 12.1489 21.9653 12.1896 21.6602 12.1896ZM27.9493 5.75671L27.8055 10.163H26.7595L26.6113 5.75671H27.9493ZM26.5764 11.5271C26.5764 11.3412 26.6403 11.1872 26.7682 11.0651C26.8989 10.9402 27.0704 10.8777 27.2825 10.8777C27.4975 10.8777 27.6689 10.9402 27.7967 11.0651C27.9246 11.1872 27.9885 11.3412 27.9885 11.5271C27.9885 11.7073 27.9246 11.8598 27.7967 11.9847C27.6689 12.1097 27.4975 12.1722 27.2825 12.1722C27.0704 12.1722 26.8989 12.1097 26.7682 11.9847C26.6403 11.8598 26.5764 11.7073 26.5764 11.5271Z" fill="#3868B5"/>
</g>
<defs>
<filter id="filter0_d_1838_13286" x="1.56104" y="1" width="32.7993" height="31.0235" filterUnits="userSpaceOnUse" color-interpolation-filters="sRGB">
<feFlood flood-opacity="0" result="BackgroundImageFix"/>
<feColorMatrix in="SourceAlpha" type="matrix" values="0 0 0 0 0 0 0 0 0 0 0 0 0 0 0 0 0 0 127 0" result="hardAlpha"/>
<feOffset dx="1"/>
<feComposite in2="hardAlpha" operator="out"/>
<feColorMatrix type="matrix" values="0 0 0 0 0 0 0 0 0 0 0 0 0 0 0 0 0 0 0.25 0"/>
<feBlend mode="normal" in2="BackgroundImageFix" result="effect1_dropShadow_1838_13286"/>
<feBlend mode="normal" in="SourceGraphic" in2="effect1_dropShadow_1838_13286" result="shape"/>
</filter>
</defs>
</svg>
