<svg width="64" height="63" viewBox="0 0 64 63" fill="none" xmlns="http://www.w3.org/2000/svg">
<g filter="url(#filter0_i_720_33204)">
<path fill-rule="evenodd" clip-rule="evenodd" d="M28.5947 19.8083C29.749 20.0259 30.8312 20.527 31.744 21.2664C32.6567 22.0058 33.3715 22.9605 33.8239 24.0445C34.2764 25.1285 34.4525 26.308 34.3363 27.477C34.2201 28.6459 33.8153 29.7676 33.1582 30.7414L51.3153 44.835C51.9067 44.5286 52.5842 44.4312 53.238 44.5584C53.8917 44.6856 54.4832 45.0301 54.9165 45.5359C55.3498 46.0417 55.5994 46.679 55.6248 47.3446C55.6502 48.0101 55.4499 48.6646 55.0564 49.202C54.6628 49.7393 54.0993 50.1278 53.4571 50.3045C52.815 50.4811 52.132 50.4355 51.519 50.1751C50.9061 49.9147 50.3991 49.4547 50.0805 48.8698C49.7619 48.285 49.6504 47.6096 49.764 46.9534L31.2971 32.6182C30.4275 33.2142 29.4359 33.6086 28.3946 33.7728C27.3532 33.937 26.2884 33.8668 25.2776 33.5674C24.2668 33.268 23.3355 32.7469 22.5517 32.042C21.7678 31.3371 21.151 30.4662 20.7463 29.4928C20.3415 28.5194 20.159 27.468 20.2121 26.4151C20.2652 25.3622 20.5524 24.3345 21.053 23.4067C21.5535 22.4789 22.2547 21.6744 23.1055 21.0519C23.9563 20.4294 24.9352 20.0045 25.971 19.8083L25.9683 7.875H28.5933V19.8083H28.5947ZM29.6433 26.775C29.6433 27.0852 29.5822 27.3925 29.4635 27.6791C29.3448 27.9657 29.1708 28.2262 28.9514 28.4455C28.732 28.6649 28.4716 28.8389 28.1849 28.9577C27.8983 29.0764 27.5911 29.1375 27.2808 29.1375C26.9706 29.1375 26.6634 29.0764 26.3768 28.9577C26.0901 28.8389 25.8297 28.6649 25.6103 28.4455C25.3909 28.2262 25.2169 27.9657 25.0982 27.6791C24.9795 27.3925 24.9183 27.0852 24.9183 26.775C24.9183 26.1484 25.1672 25.5475 25.6103 25.1045C26.0534 24.6614 26.6543 24.4125 27.2808 24.4125C27.9074 24.4125 28.5083 24.6614 28.9514 25.1045C29.3944 25.5475 29.6433 26.1484 29.6433 26.775V26.775Z" fill="#02284E"/>
</g>
<path d="M36.763 26.754C36.7634 24.9385 36.2409 23.1613 35.258 21.6349C34.2751 20.1085 32.8733 18.8975 31.2203 18.1467V8.01416C36.8497 8.50897 39.7739 10.2822 42.3923 12.709C42.5236 12.8323 42.6548 12.9518 42.7808 13.0673V13.0686C43.8965 14.0923 44.7837 14.9074 45.2418 16.128L50.7989 30.9225C50.9478 31.3196 50.9983 31.7469 50.9459 32.1677C50.8936 32.5886 50.74 32.9905 50.4983 33.339C50.2567 33.6875 49.9341 33.9722 49.5583 34.1688C49.1825 34.3653 48.7647 34.4679 48.3406 34.4676H46.1999V37.5375L36.2577 29.8161C36.5943 28.8308 36.7655 27.7966 36.7643 26.7553L36.763 26.754ZM23.3453 18.1729V8.19135C11.546 9.96716 8.37891 18.7701 8.37891 23.5922C8.37891 31.1614 13.2128 37.0322 15.4795 39.3855V55.125H37.939V46.578H43.5736C43.97 46.578 44.348 46.4888 44.684 46.3313L30.7912 35.5425C28.4949 36.4901 25.918 36.4955 23.6178 35.5575C21.3177 34.6194 19.4794 32.8135 18.5007 30.5304C17.522 28.2472 17.4816 25.6706 18.3883 23.3579C19.2949 21.0452 21.0757 19.1826 23.3453 18.1729V18.1729Z" fill="white"/>
<defs>
<filter id="filter0_i_720_33204" x="20.2031" y="7.175" width="35.4219" height="43.2352" filterUnits="userSpaceOnUse" color-interpolation-filters="sRGB">
<feFlood flood-opacity="0" result="BackgroundImageFix"/>
<feBlend mode="normal" in="SourceGraphic" in2="BackgroundImageFix" result="shape"/>
<feColorMatrix in="SourceAlpha" type="matrix" values="0 0 0 0 0 0 0 0 0 0 0 0 0 0 0 0 0 0 127 0" result="hardAlpha"/>
<feOffset dy="-0.7"/>
<feGaussianBlur stdDeviation="0.75"/>
<feComposite in2="hardAlpha" operator="arithmetic" k2="-1" k3="1"/>
<feColorMatrix type="matrix" values="0 0 0 0 1 0 0 0 0 1 0 0 0 0 1 0 0 0 0.5 0"/>
<feBlend mode="normal" in2="shape" result="effect1_innerShadow_720_33204"/>
</filter>
</defs>
</svg>
