<svg width="11" height="12" viewBox="0 0 11 12" fill="none" xmlns="http://www.w3.org/2000/svg">
<path fill-rule="evenodd" clip-rule="evenodd" d="M6.40883 2.22826C5.90104 1.74097 5.09919 1.74097 4.5914 2.22826L1.89263 4.81787C1.82651 4.8813 1.78203 4.96396 1.7655 5.05408C1.44226 6.81686 1.4184 8.62146 1.69492 10.3922L1.76056 10.8125H3.49683V7.1892C3.49683 6.94753 3.6927 6.7517 3.93433 6.7517H7.0659C7.30751 6.7517 7.5034 6.94753 7.5034 7.1892V10.8125H9.23969L9.30531 10.3922C9.58181 8.62146 9.55796 6.81686 9.23473 5.05408C9.21822 4.96396 9.17371 4.8813 9.10762 4.81787L6.40883 2.22826ZM3.98557 1.59691C4.83196 0.784755 6.16826 0.784755 7.01468 1.59691L9.71341 4.18652C9.9121 4.37715 10.0457 4.62547 10.0954 4.89629C10.4363 6.75573 10.4615 8.65938 10.1698 10.5272L10.0644 11.2024C10.0208 11.4816 9.78026 11.6875 9.49764 11.6875H7.0659C6.82428 11.6875 6.6284 11.4916 6.6284 11.25V7.6267H4.37183V11.25C4.37183 11.4916 4.17595 11.6875 3.93433 11.6875H1.50257C1.21995 11.6875 0.979451 11.4816 0.935847 11.2024L0.830403 10.5272C0.538707 8.65938 0.563878 6.75573 0.904854 4.89629C0.954513 4.62547 1.08814 4.37715 1.28681 4.18652L3.98557 1.59691Z" fill="white"/>
</svg>
