<svg width="34" height="33" viewBox="0 0 34 33" fill="none" xmlns="http://www.w3.org/2000/svg">
<path d="M26.8811 14.7782C26.8811 19.0327 23.3417 22.4823 18.9762 22.4823C18.7444 22.4823 18.5153 22.4725 18.2889 22.453L18.3795 21.516C18.5427 21.5285 18.7082 21.5348 18.8758 21.5348C20.3915 21.5352 21.8611 21.0143 23.0372 20.06C24.2132 19.1056 25.024 17.776 25.333 16.2949C25.6419 14.8138 25.4302 13.2717 24.7335 11.9281C24.0368 10.5846 22.8976 9.52161 21.5076 8.91816C20.1177 8.31472 18.5619 8.20764 17.1022 8.61494C15.6424 9.02225 14.3678 9.91907 13.4929 11.1544C12.618 12.3898 12.1962 13.8883 12.2986 15.3977C12.4009 16.9071 13.0211 18.3353 14.0548 19.4417L13.2949 20.1334C11.8715 18.7131 11.0709 16.7871 11.0688 14.7782C11.0688 10.5228 14.6083 7.07324 18.9737 7.07324C23.3392 7.07324 26.8811 10.5228 26.8811 14.7782Z" fill="#B8DBFF"/>
<path d="M16.8961 25.3794L17.173 22.5267C17.3779 22.5441 17.585 22.5528 17.7943 22.5528C19.4821 22.5538 21.1186 21.9741 22.4283 20.9115C23.7379 19.8489 24.6406 18.3683 24.9843 16.719C25.3281 15.0698 25.0918 13.3527 24.3154 11.8569C23.5389 10.3612 22.2698 9.17825 20.7216 8.50733C19.1735 7.83642 17.441 7.71854 15.816 8.17354C14.1909 8.62855 12.7726 9.62864 11.8 11.0054C10.8274 12.3821 10.3598 14.0513 10.4761 15.7319C10.5924 17.4124 11.2855 19.0016 12.4385 20.2318L10.0535 22.4063C10.004 22.3512 9.95608 22.2954 9.90812 22.2395L7.07833 23.2731L6.16704 22.04L8.20181 19.492C7.94193 18.8854 7.73832 18.2563 7.59356 17.6126L4.68674 16.8968L4.62061 15.3663L7.35229 14.5075C7.40251 13.7105 7.54045 12.9215 7.76361 12.1546L5.49265 9.98294L6.19974 8.62295L9.09929 9.25907C9.58039 8.52388 10.1508 7.85098 10.7976 7.25571L9.80057 4.53066L11.036 3.6211L13.4021 5.50695C14.1092 5.17231 14.8527 4.9204 15.6178 4.75624L16.0924 2.15957L17.6185 2L18.6053 4.56548C19.4548 4.63528 20.292 4.81171 21.0972 5.09062L23.0535 3.08074L24.411 3.79591L23.7947 6.50065C24.4558 6.98262 25.0587 7.53952 25.5912 8.1602L28.5292 7.43052L29.3039 8.75351L27.264 10.8127C27.5766 11.5199 27.8117 12.2587 27.9653 13.0163L31.0124 13.7227L31.0989 15.2524L28.139 16.2265C28.0732 16.9431 27.9361 17.6514 27.7299 18.3409L30.0219 20.5169L29.3184 21.8783L26.3644 21.2386C25.9339 21.8826 25.4341 22.4778 24.8739 23.0134L25.9109 25.8422L24.6755 26.7518L22.2708 24.8383C21.5953 25.1714 20.8849 25.4285 20.1525 25.605L19.5501 28.449L18.0189 28.5658L16.9019 25.3287" fill="#2258AE"/>
<path opacity="0.4" d="M8.27544 19.4956L8.15381 19.648" stroke="black" stroke-width="0.314731" stroke-miterlimit="10"/>
<path d="M16.9729 15.8502L12.8159 23.9688L13.9205 24.5322L18.0775 16.4136L16.9729 15.8502Z" fill="#3868B5"/>
<path d="M10.9216 30.3895L10.609 31.0005L9.50391 30.4374L9.81653 29.8257L10.9216 30.3895Z" fill="#3868B5"/>
<path d="M13.3407 29.78C13.3408 29.8974 13.3057 30.0122 13.2399 30.1095C13.1742 30.2068 13.0807 30.2823 12.9716 30.3262C12.7143 30.4292 12.5828 30.5133 11.4506 30.147C11.1461 30.0484 10.4136 29.5363 10.1338 29.3811C9.71592 29.1497 8.99576 28.8414 8.62441 28.8588C8.58853 28.8613 8.5527 28.8535 8.52114 28.8362C8.48959 28.819 8.46364 28.7931 8.44637 28.7616L8.25161 28.399C8.23041 28.3589 8.22455 28.3125 8.23511 28.2685C8.24568 28.2244 8.27195 28.1857 8.30902 28.1596L8.74505 27.8543C8.76515 27.8397 8.78799 27.8292 8.81221 27.8236C8.83643 27.818 8.86154 27.8173 8.88603 27.8216C9.24575 27.8876 10.5807 28.2713 11.5182 28.882C12.2565 29.3637 12.8204 29.4623 13.0922 29.4275C13.1316 29.4217 13.1718 29.4287 13.2069 29.4475C13.242 29.4664 13.27 29.496 13.287 29.5319C13.3227 29.6098 13.341 29.6944 13.3407 29.78Z" fill="#00356D"/>
<path d="M14.176 28.2511C14.1762 28.3684 14.1412 28.4831 14.0754 28.5804C14.0095 28.6776 13.916 28.7529 13.8068 28.7965C13.5503 28.8995 13.418 28.9844 12.2865 28.6173C11.982 28.5187 11.2488 28.0066 10.969 27.8514C10.5512 27.62 9.831 27.3125 9.45965 27.3299C9.42389 27.3322 9.38821 27.3243 9.3568 27.3071C9.32538 27.2899 9.29955 27.2641 9.28233 27.2327L9.08685 26.87C9.06581 26.8299 9.06003 26.7836 9.07058 26.7396C9.08114 26.6956 9.10731 26.6569 9.14426 26.6307L9.58028 26.3246C9.60046 26.3104 9.62325 26.3005 9.64733 26.2952C9.67142 26.29 9.6963 26.2896 9.72054 26.2941C10.0839 26.3594 11.4159 26.7431 12.3527 27.3545C13.091 27.8362 13.6549 27.9348 13.9274 27.8993C13.9668 27.8938 14.0069 27.9011 14.0418 27.92C14.0767 27.9389 14.1046 27.9685 14.1215 28.0044C14.1573 28.0817 14.1759 28.1659 14.176 28.2511Z" fill="#00356D"/>
<path d="M14.8734 26.7709C14.8728 26.8878 14.8372 27.0018 14.7713 27.0985C14.7055 27.1951 14.6122 27.2699 14.5036 27.3135C14.247 27.4165 14.1155 27.5013 12.9833 27.1343C12.6788 27.0386 11.9456 26.5265 11.6694 26.3705C11.2523 26.1392 10.5321 25.8316 10.1608 25.8483C10.125 25.8508 10.0892 25.843 10.0577 25.8259C10.0262 25.8088 10.0002 25.7831 9.98272 25.7518L9.78796 25.3855C9.7666 25.3455 9.76065 25.2991 9.77123 25.255C9.7818 25.2109 9.80817 25.1722 9.84537 25.1462L10.2814 24.8408C10.3015 24.8265 10.3243 24.8164 10.3484 24.811C10.3724 24.8057 10.3974 24.8052 10.4216 24.8096C10.7806 24.8756 12.1163 25.2593 13.0531 25.8708C13.7914 26.3517 14.356 26.451 14.6278 26.4155C14.6673 26.4099 14.7075 26.4171 14.7426 26.436C14.7776 26.455 14.8057 26.4846 14.8226 26.5207C14.8577 26.5994 14.875 26.6848 14.8734 26.7709Z" fill="#00356D"/>
</svg>
