<svg width="42" height="43" viewBox="0 0 42 43" fill="none" xmlns="http://www.w3.org/2000/svg">
<rect x="4.56104" y="0.806763" width="33" height="33.3864" rx="16.5" fill="#B9D9FB"/>
<path d="M13.2837 29.4006L13.8231 29.6704C16.0712 31.0191 18.5889 31.6486 21.1067 31.6486C29.0195 31.6486 35.4936 25.1745 35.4936 17.2616C35.4936 13.4851 33.9649 9.79839 31.2675 7.10079C28.5699 4.40319 24.973 2.87463 21.1067 2.87463C13.1938 2.87463 6.71954 9.34877 6.80952 17.3516C6.80952 20.0491 7.61879 22.6568 8.96752 24.9047L9.32717 25.4443L7.88859 30.7495L13.2837 29.4006Z" fill="#00E676"/>
<g filter="url(#filter0_d_2192_10301)">
<path d="M32.7958 5.66236C29.7385 2.51527 25.5124 0.806763 21.1962 0.806763C12.0246 0.806763 4.65126 8.26999 4.7411 17.3517C4.7411 20.2292 5.55037 23.0167 6.89923 25.5344L4.56128 34.0767L13.2834 31.8287C15.7112 33.1776 18.4087 33.807 21.1064 33.807C30.1881 33.807 37.5615 26.3437 37.5615 17.262C37.5615 12.8559 35.853 8.71961 32.7959 5.66236H32.7958ZM21.1962 31.0196C18.7684 31.0196 16.3406 30.3902 14.2725 29.1314L13.733 28.8616L8.51777 30.2103L9.8665 25.085L9.50686 24.5454C5.55037 18.1613 7.4387 9.7087 13.9128 5.75221C20.387 1.79585 28.7494 3.68418 32.7059 10.1583C36.6623 16.6325 34.774 24.9949 28.2999 28.9514C26.2317 30.3001 23.714 31.0194 21.1962 31.0194V31.0196ZM29.1091 21.0387L28.12 20.5891C28.12 20.5891 26.6814 19.9596 25.7822 19.51C25.6922 19.51 25.6023 19.42 25.5124 19.42C25.2426 19.42 25.0627 19.51 24.8829 19.6C24.8829 19.6 24.7931 19.6898 23.5342 21.1285C23.4442 21.3084 23.2644 21.3983 23.0846 21.3983H22.9946C22.9047 21.3983 22.7249 21.3084 22.6349 21.2185L22.1853 21.0387C21.1962 20.5891 20.2971 20.0495 19.5777 19.3302C19.3979 19.1504 19.1281 18.9705 18.9483 18.7907C18.3188 18.1613 17.6894 17.4418 17.2399 16.6326L17.1499 16.4528C17.0601 16.3628 17.0601 16.2729 16.9701 16.0931C16.9701 15.9133 16.9701 15.7335 17.0601 15.6435C17.0601 15.6435 17.4197 15.1939 17.6894 14.9242C17.8693 14.7442 17.9592 14.4746 18.139 14.2948C18.3188 14.025 18.4088 13.6653 18.3188 13.3955C18.229 12.9459 17.1499 10.5181 16.8802 9.97863C16.7003 9.70883 16.5206 9.61898 16.2508 9.529H15.2617C15.0817 9.529 14.9021 9.61898 14.7221 9.61898L14.6321 9.70883C14.4523 9.7988 14.2725 9.97862 14.0927 10.0685C13.9128 10.2484 13.8229 10.4281 13.643 10.6081C13.0136 11.4173 12.6539 12.4064 12.6539 13.3955C12.6539 14.1148 12.8338 14.8342 13.1036 15.4637L13.1935 15.7335C14.0028 17.4418 15.0817 18.9705 16.5206 20.3193L16.8802 20.6789C17.1499 20.9487 17.4197 21.1285 17.5995 21.3982C19.4879 23.0169 21.6459 24.1858 24.0737 24.8152C24.3435 24.9051 24.7031 24.9051 24.9729 24.995H25.872C26.3216 24.995 26.8611 24.8152 27.2209 24.6354C27.4905 24.4556 27.6704 24.4556 27.8502 24.2758L28.0301 24.0958C28.21 23.916 28.3898 23.8261 28.5696 23.6463C28.7494 23.4665 28.9293 23.2867 29.0192 23.1067C29.1991 22.7471 29.2889 22.2974 29.3789 21.848V21.2185C29.3789 21.2185 29.2889 21.1285 29.1091 21.0387Z" fill="white"/>
</g>
<defs>
<filter id="filter0_d_2192_10301" x="0.561279" y="0.806763" width="41.0002" height="41.2699" filterUnits="userSpaceOnUse" color-interpolation-filters="sRGB">
<feFlood flood-opacity="0" result="BackgroundImageFix"/>
<feColorMatrix in="SourceAlpha" type="matrix" values="0 0 0 0 0 0 0 0 0 0 0 0 0 0 0 0 0 0 127 0" result="hardAlpha"/>
<feOffset dy="4"/>
<feGaussianBlur stdDeviation="2"/>
<feComposite in2="hardAlpha" operator="out"/>
<feColorMatrix type="matrix" values="0 0 0 0 0.203922 0 0 0 0 0.2 0 0 0 0 0.270588 0 0 0 0.25 0"/>
<feBlend mode="normal" in2="BackgroundImageFix" result="effect1_dropShadow_2192_10301"/>
<feBlend mode="normal" in="SourceGraphic" in2="effect1_dropShadow_2192_10301" result="shape"/>
</filter>
</defs>
</svg>
