<svg width="35" height="27" viewBox="0 0 35 27" fill="none" xmlns="http://www.w3.org/2000/svg">
<g clip-path="url(#clip0_2788_2015)">
<path d="M22.079 19.1286H13.0156V2.66504H22.079V19.1286Z" fill="#6C6BBD"/>
<path d="M13.5881 10.8972C13.5881 7.55746 15.135 4.58255 17.5442 2.66545C15.7825 1.26355 13.5589 0.426758 11.1426 0.426758C5.42224 0.426758 0.785156 5.11443 0.785156 10.8972C0.785156 16.6799 5.42224 21.3676 11.1426 21.3676C13.559 21.3676 15.7825 20.5308 17.5442 19.1289C15.135 17.2118 13.5881 14.2369 13.5881 10.8972Z" fill="#D32011"/>
<path d="M34.3104 10.8972C34.3104 16.6799 29.6734 21.3676 23.953 21.3676C21.5366 21.3676 19.3131 20.5308 17.5508 19.1289C19.9606 17.2118 21.5075 14.2369 21.5075 10.8972C21.5075 7.55746 19.9606 4.58255 17.5508 2.66545C19.3131 1.26355 21.5367 0.426758 23.953 0.426758C29.6734 0.426758 34.3104 5.11443 34.3104 10.8972Z" fill="#0099DF"/>
<path d="M25.1491 23.7809C25.2695 23.7809 25.4427 23.8042 25.5751 23.8567L25.3908 24.4266C25.2643 24.374 25.1378 24.3567 25.0167 24.3567C24.6255 24.3567 24.4299 24.6122 24.4299 25.0716V26.6306H23.8312V23.8507H24.424V24.1882C24.5794 23.9439 24.8039 23.7809 25.1491 23.7809ZM22.9375 24.4033H21.9594V25.6593C21.9594 25.9383 22.057 26.1246 22.3567 26.1246C22.5121 26.1246 22.7076 26.0721 22.8855 25.9675L23.058 26.4849C22.8684 26.6185 22.5693 26.7006 22.3105 26.7006C21.6025 26.7006 21.3556 26.3164 21.3556 25.6707V24.4033H20.7972V23.8507H21.3556V23.0073H21.9594V23.8507H22.9375V24.4033ZM15.2788 24.9964C15.3427 24.595 15.5838 24.3215 16.0099 24.3215C16.3951 24.3215 16.6427 24.5656 16.7059 24.9964H15.2788ZM17.3277 25.2407C17.3217 24.3739 16.7922 23.7809 16.021 23.7809C15.2157 23.7809 14.6519 24.374 14.6519 25.2406C14.6519 26.124 15.2387 26.6998 16.0619 26.6998C16.4761 26.6998 16.8555 26.5952 17.1893 26.3104L16.8956 25.8625C16.6659 26.0488 16.3721 26.1534 16.0962 26.1534C15.7108 26.1534 15.3598 25.973 15.2735 25.4731H17.3158C17.3217 25.3972 17.3276 25.3218 17.3276 25.2407H17.3277ZM19.9568 24.5604C19.7902 24.4551 19.4509 24.3213 19.0999 24.3213C18.7719 24.3213 18.5763 24.4439 18.5763 24.6476C18.5763 24.8332 18.7832 24.8858 19.042 24.9205L19.3239 24.9611C19.9225 25.049 20.2847 25.3046 20.2847 25.7932C20.2847 26.3224 19.8243 26.7005 19.0308 26.7005C18.5817 26.7005 18.1674 26.584 17.8393 26.3397L18.1213 25.8684C18.3228 26.0255 18.6225 26.1593 19.0366 26.1593C19.445 26.1593 19.6637 26.0376 19.6637 25.8218C19.6637 25.6654 19.5083 25.5775 19.1803 25.5316L18.8984 25.491C18.2826 25.4031 17.9487 25.1241 17.9487 24.6709C17.9487 24.1183 18.3978 23.7809 19.094 23.7809C19.5313 23.7809 19.9284 23.8801 20.2156 24.0717L19.9567 24.5604H19.9568ZM27.3361 24.3552C27.2131 24.3552 27.0992 24.3773 26.9931 24.4206C26.8905 24.4626 26.7973 24.5251 26.7191 24.6043C26.6404 24.6854 26.5786 24.7816 26.5373 24.8872C26.4932 24.9971 26.4715 25.1182 26.4715 25.25C26.4715 25.3825 26.4932 25.5029 26.5373 25.6127C26.5815 25.7226 26.6421 25.8172 26.7191 25.8957C26.7973 25.9749 26.8905 26.0374 26.9931 26.0794C27.0992 26.1233 27.2131 26.1446 27.3361 26.1446C27.4592 26.1446 27.5739 26.1234 27.6792 26.0794C27.7823 26.0376 27.876 25.9751 27.9545 25.8957C28.033 25.8172 28.0936 25.7226 28.1384 25.6127C28.1825 25.5029 28.2042 25.3825 28.2042 25.25C28.2042 25.1182 28.1825 24.9971 28.1384 24.8872C28.0936 24.7774 28.033 24.6829 27.9545 24.6043C27.876 24.5249 27.7824 24.4624 27.6793 24.4206C27.5703 24.3765 27.4537 24.3544 27.3363 24.3554L27.3361 24.3552ZM27.3361 23.7809C27.5496 23.7809 27.7471 23.8182 27.9289 23.8934C28.1046 23.964 28.2649 24.069 28.4005 24.2022C28.534 24.3345 28.6399 24.4924 28.712 24.6668C28.787 24.8459 28.8246 25.0404 28.8246 25.25C28.8246 25.4596 28.787 25.654 28.712 25.8331C28.6399 26.0077 28.5339 26.1659 28.4004 26.2984C28.2681 26.4295 28.1106 26.5321 27.929 26.6073C27.747 26.6819 27.5496 26.7191 27.3361 26.7191C27.1227 26.7191 26.9252 26.6819 26.7434 26.6073C26.5617 26.5321 26.4056 26.4295 26.2739 26.2984C26.1412 26.1655 26.0357 26.0073 25.9636 25.8331C25.8886 25.654 25.851 25.4596 25.851 25.25C25.851 25.0404 25.8886 24.8459 25.9636 24.6669C26.0357 24.4928 26.1412 24.3349 26.2739 24.2022C26.4086 24.0689 26.5682 23.9639 26.7434 23.8934C26.9252 23.8182 27.1227 23.7809 27.3361 23.7809ZM11.7832 25.2406C11.7832 24.7521 12.1 24.3507 12.6176 24.3507C13.1122 24.3507 13.4461 24.7348 13.4461 25.2407C13.4461 25.7465 13.1122 26.1301 12.6176 26.1301C12.1 26.1301 11.7832 25.7293 11.7832 25.2407V25.2406ZM14.0099 25.2406V23.8507H13.4118V24.1882C13.2216 23.938 12.9344 23.7809 12.5432 23.7809C11.772 23.7809 11.168 24.3912 11.168 25.2406C11.168 26.0894 11.772 26.7005 12.5432 26.7005C12.9344 26.7005 13.2214 26.5434 13.4118 26.2931V26.6306H14.0099V25.2407V25.2406ZM10.6384 26.6307V24.886C10.6384 24.229 10.2242 23.7869 9.55705 23.781C9.20603 23.775 8.84308 23.8855 8.59025 24.2756C8.40053 23.9673 8.10096 23.781 7.6808 23.781C7.38765 23.781 7.09986 23.8682 6.87531 24.1936V23.8509H6.27734V26.6307H6.8812V25.0897C6.8812 24.6071 7.14595 24.3509 7.55419 24.3509C7.95144 24.3509 8.15294 24.6124 8.15294 25.0838V26.6307H8.75693V25.0896C8.75693 24.6069 9.03346 24.3507 9.42992 24.3507C9.83895 24.3507 10.0346 24.6122 10.0346 25.0836V26.6307H10.6384Z" fill="#110F0D"/>
</g>
<defs>
<clipPath id="clip0_2788_2015">
<rect width="33.5185" height="26.336" fill="white" transform="translate(0.785156 0.426758)"/>
</clipPath>
</defs>
</svg>
