<svg width="41" height="32" viewBox="0 0 41 32" fill="none" xmlns="http://www.w3.org/2000/svg">
<g clip-path="url(#clip0_2788_2022)">
<path d="M7.88992 30.9201V28.8918C7.88992 28.1141 7.41843 27.6072 6.61029 27.6072C6.20629 27.6072 5.76856 27.7424 5.46548 28.1819C5.22989 27.81 4.89323 27.6072 4.38816 27.6072C4.05134 27.6072 3.71483 27.7085 3.44535 28.0804V27.6748H2.73828V30.9201H3.44535V29.1284C3.44535 28.5538 3.74842 28.2832 4.21991 28.2832C4.69108 28.2832 4.92697 28.5875 4.92697 29.1284V30.9201H5.63404V29.1284C5.63404 28.5538 5.97055 28.2832 6.40829 28.2832C6.87977 28.2832 7.11536 28.5875 7.11536 29.1284V30.9201H7.88992ZM18.3611 27.6748H17.2165V26.6944H16.5094V27.6748H15.8697V28.317H16.5093V29.8046C16.5093 30.5484 16.8123 30.9877 17.6205 30.9877C17.9235 30.9877 18.2601 30.8864 18.496 30.7512L18.2938 30.1426C18.0918 30.2778 17.8562 30.3117 17.6878 30.3117C17.3511 30.3117 17.2165 30.1089 17.2165 29.7707V28.317H18.3611V27.6748ZM24.3545 27.607C23.9505 27.607 23.6812 27.81 23.5128 28.0804V27.6748H22.8057V30.9201H23.5128V29.0946C23.5128 28.5538 23.7484 28.2495 24.1861 28.2495C24.3208 28.2495 24.4892 28.2834 24.6238 28.3171L24.8258 27.6411C24.6912 27.6072 24.4892 27.6072 24.3545 27.6072V27.607ZM15.2973 27.9452C14.9605 27.7085 14.4891 27.6072 13.9841 27.6072C13.1761 27.6072 12.6374 28.0128 12.6374 28.6551C12.6374 29.1961 13.0414 29.5003 13.7485 29.6018L14.0851 29.6356C14.4555 29.7031 14.6575 29.8046 14.6575 29.9737C14.6575 30.2102 14.3882 30.3793 13.9167 30.3793C13.4454 30.3793 13.075 30.2102 12.8392 30.0413L12.5026 30.5821C12.873 30.8525 13.3781 30.9877 13.883 30.9877C14.8258 30.9877 15.3646 30.5484 15.3646 29.9398C15.3646 29.3651 14.9269 29.0608 14.2534 28.9594L13.9167 28.9256C13.6136 28.8917 13.3781 28.8242 13.3781 28.6214C13.3781 28.3847 13.6136 28.2495 13.9841 28.2495C14.3882 28.2495 14.7922 28.4184 14.9942 28.5199L15.2973 27.9452ZM34.0852 27.6072C33.6811 27.6072 33.4117 27.81 33.2433 28.0804V27.6748H32.5363V30.9201H33.2433V29.0946C33.2433 28.5538 33.4791 28.2495 33.9167 28.2495C34.0515 28.2495 34.2199 28.2834 34.3545 28.3171L34.5565 27.6411C34.4219 27.6072 34.2199 27.6072 34.0852 27.6072ZM25.0616 29.2975C25.0616 30.2778 25.7349 30.9877 26.7788 30.9877C27.2501 30.9877 27.5868 30.8864 27.9234 30.616L27.5868 30.0413C27.3174 30.2441 27.0481 30.3454 26.745 30.3454C26.1726 30.3454 25.7686 29.9398 25.7686 29.2975C25.7686 28.689 26.1726 28.2832 26.745 28.2495C27.0481 28.2495 27.3174 28.3508 27.5868 28.5538L27.9234 27.9791C27.5868 27.7085 27.2501 27.6072 26.7788 27.6072C25.7349 27.6072 25.0616 28.3171 25.0616 29.2975ZM31.5936 29.2975V27.6748H30.8865V28.0804C30.6508 27.7763 30.3141 27.6072 29.8764 27.6072C28.9673 27.6072 28.2603 28.3171 28.2603 29.2975C28.2603 30.2778 28.9673 30.9877 29.8764 30.9877C30.3477 30.9877 30.6845 30.8188 30.8865 30.5145V30.9201H31.5936V29.2975ZM29.0009 29.2975C29.0009 28.7227 29.3713 28.2495 29.9773 28.2495C30.5497 28.2495 30.9539 28.689 30.9539 29.2975C30.9539 29.8722 30.5497 30.3454 29.9773 30.3454C29.3713 30.3115 29.0009 29.8722 29.0009 29.2975ZM20.5498 27.6072C19.607 27.6072 18.9335 28.2832 18.9335 29.2975C18.9335 30.3117 19.6069 30.9877 20.5834 30.9877C21.0547 30.9877 21.5262 30.8525 21.8966 30.5484L21.5598 30.0413C21.2905 30.2441 20.9538 30.3793 20.6172 30.3793C20.1794 30.3793 19.7417 30.1765 19.6406 29.6016H22.0313V29.3313C22.065 28.2832 21.4589 27.6072 20.5497 27.6072H20.5498ZM20.5498 28.2156C20.9874 28.2156 21.2906 28.4862 21.3578 28.9933H19.6743C19.7417 28.5538 20.0448 28.2156 20.5498 28.2156ZM38.0919 29.2975V26.3901H37.3848V28.0804C37.1491 27.7763 36.8124 27.6072 36.3747 27.6072C35.4656 27.6072 34.7585 28.3171 34.7585 29.2975C34.7585 30.2778 35.4656 30.9877 36.3747 30.9877C36.8462 30.9877 37.1828 30.8188 37.3848 30.5145V30.9201H38.0919V29.2975ZM35.4994 29.2975C35.4994 28.7227 35.8696 28.2495 36.4758 28.2495C37.0482 28.2495 37.4522 28.689 37.4522 29.2975C37.4522 29.8722 37.0482 30.3454 36.4758 30.3454C35.8696 30.3115 35.4994 29.8722 35.4994 29.2975ZM11.8628 29.2975V27.6748H11.1558V28.0804C10.92 27.7763 10.5834 27.6072 10.1456 27.6072C9.23657 27.6072 8.5295 28.3171 8.5295 29.2975C8.5295 30.2778 9.23657 30.9877 10.1456 30.9877C10.6171 30.9877 10.9538 30.8188 11.1558 30.5145V30.9201H11.8628V29.2975ZM9.23657 29.2975C9.23657 28.7227 9.60697 28.2495 10.213 28.2495C10.7854 28.2495 11.1895 28.689 11.1895 29.2975C11.1895 29.8722 10.7854 30.3454 10.213 30.3454C9.60697 30.3115 9.23657 29.8722 9.23657 29.2975Z" fill="black"/>
<path d="M15.0586 3.02979H25.6646V22.1641H15.0586V3.02979Z" fill="#FF5F00"/>
<path d="M15.7333 12.597C15.7333 8.70936 17.5514 5.26105 20.3459 3.02978C18.2922 1.40711 15.6997 0.426758 12.8714 0.426758C6.17081 0.426758 0.75 5.86949 0.75 12.597C0.75 19.3244 6.17081 24.7673 12.8712 24.7673C15.6995 24.7673 18.2921 23.787 20.3459 22.1641C17.5514 19.9667 15.7333 16.4847 15.7333 12.597Z" fill="#EB001B"/>
<path d="M39.9748 12.597C39.9748 19.3244 34.554 24.7673 27.8536 24.7673C25.0253 24.7673 22.4328 23.787 20.3789 22.1641C23.2072 19.933 24.9917 16.4847 24.9917 12.597C24.9917 8.70936 23.1734 5.26105 20.3789 3.02978C22.4326 1.40711 25.0253 0.426758 27.8536 0.426758C34.554 0.426758 39.975 5.90337 39.975 12.597H39.9748Z" fill="#F79E1B"/>
</g>
<defs>
<clipPath id="clip0_2788_2022">
<rect width="39.2646" height="30.6455" fill="white" transform="translate(0.75 0.426758)"/>
</clipPath>
</defs>
</svg>
