<svg width="87" height="63" viewBox="0 0 87 63" fill="none" xmlns="http://www.w3.org/2000/svg">
<path fill-rule="evenodd" clip-rule="evenodd" d="M68.3907 0.251871C63.9676 0.859107 59.0163 2.10103 55.5318 3.4773C53.2758 4.36769 52.3078 5.05872 51.5754 6.29967C50.6147 7.9278 49.3839 8.6116 49.9174 7.22088C50.5208 5.64862 47.854 6.73259 45.3966 9.05848L43.8316 10.5397L42.2665 9.02429C38.2316 5.11698 28.1316 2.05528 19.2725 2.05384C10.7374 2.05287 2.41817 4.60798 2.41817 7.23051C2.41817 8.10982 2.16006 8.42476 1.44014 8.42476C0.901766 8.42476 0.351835 8.71032 0.217964 9.05993C-0.110936 9.91757 2.24 59.7547 2.64017 60.402C2.85446 60.7487 8.83629 60.9138 21.1818 60.9138C38.7214 60.9138 39.3984 60.9476 39.173 61.8105C38.862 63.0004 39.5583 63.1126 46.1189 62.9306C51.0914 62.7924 51.5364 62.7038 51.5364 61.8538C51.5364 60.9625 52.1013 60.923 66.5849 60.8002L81.6333 60.6731L81.9444 57.0614C82.1154 55.075 82.4058 51.5539 82.5892 49.2362L82.9239 45.0227H84.8684H86.8134L86.5177 38.8829C86.3554 35.5058 86.0978 26.3505 85.9456 18.5373C85.7935 10.7242 85.557 3.73926 85.4203 3.01501C85.2151 1.92671 84.7634 1.57758 82.8146 0.998756C79.751 0.0886241 72.363 -0.293727 68.3907 0.251871ZM70.0761 1.49427C64.3365 2.30713 61.7963 2.85225 57.6593 4.15918C53.6519 5.42517 52.839 5.85761 52.2207 7.05378C51.548 8.35445 51.5672 8.55285 52.4783 9.71098C53.6172 11.159 53.6976 11.9069 52.8607 13.2735C52.3526 14.1032 52.3902 14.3315 53.1014 14.7355C54.1479 15.3302 54.1893 17.2343 53.1891 18.7608C52.4836 19.8375 52.499 19.9478 53.4299 20.4462C54.5909 21.0674 54.6891 22.2713 53.7612 24.4927C53.1568 25.9388 53.1785 26.1338 54.0019 26.6481C55.1114 27.3411 55.1591 28.5579 54.1334 30.0219C53.4096 31.0553 53.425 31.1964 54.3742 32.2066C55.6378 33.5521 55.646 34.1906 54.4185 35.7514C53.5883 36.8064 53.543 37.0958 54.1045 37.7532C55.2655 39.1121 55.3209 40.014 54.3732 42.1314C53.5276 44.0191 53.5122 44.2796 54.1994 45.0385C54.7195 45.613 54.8495 46.2891 54.6178 47.2123C54.3207 48.3959 54.3881 48.5076 55.1962 48.171C63.2848 44.804 73.4532 42.8398 80.6019 43.2631L85.3495 43.5443L85.0625 37.9029C84.905 34.8003 84.6382 25.6104 84.4702 17.4813L84.1649 2.70104L81.9358 2.22479C79.2506 1.65126 72.0837 1.21016 70.0761 1.49427ZM15.1793 3.63862C11.9851 3.96222 5.82322 5.57157 4.41757 6.44943C3.87583 6.78748 3.93313 9.1572 4.76429 20.7621C5.31229 28.4111 5.98791 38.2448 6.26528 42.6149C6.77621 50.6597 7.17108 55.2335 7.37285 55.4352C7.43401 55.4959 8.89022 55.2248 10.6094 54.8323C12.328 54.4394 17.0934 54.0041 21.1987 53.8639C31.1311 53.5259 36.4812 54.502 43.5282 57.9388C43.7656 58.0549 43.7964 48.1421 43.6 35.0897L43.2518 12.0364L42.0306 10.7367C39.1663 7.68895 30.5721 4.37684 24.1096 3.83124C22.3761 3.68485 20.4161 3.50427 19.754 3.43059C19.0919 3.35691 17.0333 3.45033 15.1793 3.63862ZM46.0718 9.85208L44.2534 11.8645L44.5168 16.7662C45.0114 25.971 45.2705 35.1456 45.3446 46.0705L45.4183 56.9906L46.5384 56.2568C47.5251 55.61 47.5742 55.4381 46.9491 54.8131C46.1647 54.0291 45.9976 53.4845 46.6684 53.8986C47.3825 54.3402 48.8267 51.7514 48.2103 51.135C47.3975 50.3221 47.5853 48.6492 48.6394 47.3086C49.5924 46.0975 49.5924 46.0936 48.6394 45.8442C47.4162 45.5244 47.4254 44.2849 48.6721 41.4669C49.7368 39.0591 49.6063 38.2809 48.1371 38.2809C46.9602 38.2809 46.9684 38.1061 48.2522 35.8217L49.3025 33.9532L48.2522 32.8356C47.0156 31.519 46.9424 30.9098 47.9248 30.0946C48.8556 29.3222 48.8484 28.6499 47.9098 28.6499C46.7469 28.6499 46.5504 27.3695 47.3912 25.2685C48.3601 22.8467 48.362 22.8713 47.2024 22.8713C46.0029 22.8713 46.0048 22.2304 47.213 19.5683C48.3543 17.0532 48.3505 17.0927 47.4432 17.0927C46.4377 17.0927 46.5417 16.0068 47.7423 13.9722C48.6692 12.4009 48.6948 12.165 48.0172 11.4162C47.4711 10.8128 47.3999 10.3596 47.7519 9.73073C48.792 7.87194 47.7952 7.94417 46.0718 9.85208ZM49.6333 10.6197C50.4221 11.5698 50.3099 13.0067 49.3391 14.3926C48.7747 15.1983 48.7954 15.4097 49.4893 15.9167C50.1722 16.4161 50.2049 16.7021 49.7055 17.7982C49.3815 18.5094 49.2611 19.3252 49.4378 19.6107C49.6174 19.9016 49.536 19.9931 49.2534 19.8183C48.9755 19.6463 48.6168 19.8476 48.4569 20.2651C48.0206 21.4021 48.0928 21.5576 48.9129 21.2427C49.3242 21.0852 49.5548 21.1266 49.4262 21.3347C49.2977 21.5432 49.3795 22.0165 49.6087 22.3873C49.8625 22.7981 49.7561 23.7053 49.3362 24.7103C48.414 26.9173 48.4511 27.1364 49.851 27.7745C51.3081 28.4385 51.3751 29.1738 50.084 30.3421L49.1137 31.2204L50.1717 32.3468C51.1926 33.4336 51.2017 33.5314 50.4327 35.1446C49.6694 36.7453 49.6757 36.8372 50.5858 37.3246C51.7858 37.9665 51.783 38.7991 50.5733 41.1702C50.0436 42.2085 49.6102 43.2688 49.6102 43.5265C49.6102 43.7841 50.0436 44.1323 50.5733 44.3003C51.6958 44.6567 51.7964 45.8423 50.8141 47.14C50.4336 47.6428 50.2401 48.2438 50.3836 48.4763C50.5275 48.7089 50.4664 48.8678 50.2478 48.8298C49.2678 48.6598 49.0579 48.9319 49.6343 49.6263C49.9771 50.0395 50.3166 51.5457 50.3884 52.9735C50.5011 55.2166 50.3865 55.611 49.5466 55.8778C47.2429 56.6088 49.237 56.4508 52.9931 55.6043C60.5583 53.8991 75.0529 53.248 78.2374 54.4702C78.7074 54.6503 78.9203 53.9029 79.0705 51.5482C79.1813 49.8078 79.1798 47.5975 79.0681 46.6368L78.8639 44.8897L74.804 45.2018C70.1118 45.5625 63.4249 46.972 58.3932 48.6613C56.4646 49.3085 54.4296 49.8382 53.8705 49.8382C52.9603 49.8382 52.8814 49.6345 53.1168 47.8807C53.308 46.4538 53.1949 45.8529 52.6989 45.6622C51.7984 45.3169 51.8378 43.9883 52.8087 41.9528C53.6018 40.289 53.4106 38.4403 52.5029 39.0013C51.5475 39.5917 51.9876 36.0499 52.9811 35.1509C54.274 33.9807 54.2129 33.7621 52.3074 32.7359C50.9003 31.9779 50.7659 31.7593 51.3491 31.1766C51.7218 30.8034 51.8831 30.266 51.7074 29.9814C51.5229 29.6833 51.613 29.6034 51.9192 29.7926C52.212 29.9737 52.6738 29.7055 52.9464 29.1965C53.3437 28.4544 53.2334 28.1337 52.3897 27.5736C51.3857 26.9067 51.3693 26.7805 52.0208 24.7532C52.916 21.9684 52.9016 21.6404 51.8913 21.8104C50.5926 22.0291 50.4568 20.8955 51.5292 18.7921C52.7383 16.4209 52.7422 15.9066 51.5547 15.3605C50.6532 14.9454 50.646 14.852 51.3992 13.3087C52.3228 11.4166 51.8427 10.2051 50.0657 9.94357C49.0376 9.79236 48.9981 9.85448 49.6333 10.6197ZM16.0167 55.637C14.0939 55.8773 11.8185 56.2938 10.9604 56.5635C9.46808 57.0321 9.46278 57.0417 10.8453 56.7821C11.6399 56.6329 16.5806 56.3926 21.8242 56.2481C27.0678 56.1032 31.2901 55.9168 31.2067 55.833C30.7835 55.4097 19.0519 55.2585 16.0167 55.637ZM59.7228 56.0632C58.2661 56.2226 61.3528 56.3497 66.5825 56.3459C71.8121 56.342 76.0917 56.1763 76.0931 55.9779C76.096 55.5643 63.6975 55.6288 59.7228 56.0632ZM32.154 56.4171C32.4853 56.551 33.027 56.551 33.3578 56.4171C33.6891 56.2837 33.418 56.1744 32.7559 56.1744C32.0938 56.1744 31.8231 56.2837 32.154 56.4171ZM55.0368 56.9136C55.5053 57.0359 56.1554 57.0277 56.4814 56.8958C56.8075 56.7638 56.4241 56.6642 55.6296 56.6738C54.835 56.6834 54.5682 56.7913 55.0368 56.9136Z" fill="black"/>
</svg>
