<svg width="142" height="26" viewBox="0 0 142 26" fill="none" xmlns="http://www.w3.org/2000/svg">
<path d="M0.144531 2.3421C0.144531 1.28429 1.00206 0.426758 2.05988 0.426758H45.1551V25.3262H2.05988C1.00206 25.3262 0.144531 24.4687 0.144531 23.4109V2.3421Z" fill="white"/>
<path d="M6.36045 19.3423V7.27561H8.67036L15.7897 15.9636H14.6692V7.27561H17.4273V19.3423H15.1346L7.99807 10.6543H9.11855V19.3423H6.36045ZM22.8507 12.1368H28.66V14.3088H22.8507V12.1368ZM23.0576 17.1013H29.6253V19.3423H20.2822V7.27561H29.4012V9.51657H23.0576V17.1013ZM34.3468 19.3423V9.55104H30.4854V7.27561H41.0007V9.55104H37.1394V19.3423H34.3468Z" fill="#050CAE"/>
<path d="M45.1523 0.426758H139.962C141.02 0.426758 141.877 1.28429 141.877 2.3421V23.4109C141.877 24.4687 141.02 25.3262 139.962 25.3262H45.1523V0.426758Z" fill="#050CAE"/>
<path d="M50.4112 19.3423V7.27561H56.3067C57.8236 7.27561 58.9613 7.56291 59.7198 8.13752C60.4898 8.71212 60.8748 9.4706 60.8748 10.4129C60.8748 11.045 60.7196 11.5966 60.4093 12.0678C60.099 12.5275 59.6738 12.8837 59.1337 13.1366C58.5936 13.3894 57.973 13.5158 57.272 13.5158L57.5995 12.809C58.358 12.809 59.0303 12.9355 59.6164 13.1883C60.2025 13.4296 60.6564 13.7916 60.9782 14.2743C61.3115 14.7569 61.4781 15.3488 61.4781 16.0498C61.4781 17.0841 61.0701 17.8943 60.2542 18.4804C59.4383 19.055 58.2373 19.3423 56.6514 19.3423H50.4112ZM53.1866 17.2392H56.4446C57.1686 17.2392 57.7144 17.1243 58.0822 16.8945C58.4614 16.6531 58.651 16.2739 58.651 15.7568C58.651 15.2511 58.4614 14.8776 58.0822 14.6363C57.7144 14.3835 57.1686 14.257 56.4446 14.257H52.9797V12.2229H55.9619C56.6399 12.2229 57.1571 12.108 57.5133 11.8782C57.8811 11.6369 58.0649 11.2749 58.0649 10.7922C58.0649 10.321 57.8811 9.9705 57.5133 9.74066C57.1571 9.49933 56.6399 9.37866 55.9619 9.37866H53.1866V17.2392ZM62.0064 19.3423L67.3847 7.27561H70.1428L75.5383 19.3423H72.6078L68.1949 8.68914H69.2981L64.8679 19.3423H62.0064ZM64.6956 16.7566L65.4368 14.6363H71.6425L72.401 16.7566H64.6956ZM76.7902 19.3423V7.27561H79.1002L86.2195 15.9636H85.099V7.27561H87.8571V19.3423H85.5644L78.4279 10.6543H79.5483V19.3423H76.7902ZM93.2116 16.5842L93.0564 13.3607L98.8312 7.27561H101.934L96.7281 12.878L95.1767 14.5329L93.2116 16.5842ZM90.712 19.3423V7.27561H93.4874V19.3423H90.712ZM98.9691 19.3423L94.6768 14.0847L96.504 12.1023L102.227 19.3423H98.9691ZM103.472 19.3423V7.27561H106.265V19.3423H103.472ZM109.129 19.3423V7.27561H111.438L118.558 15.9636H117.437V7.27561H120.195V19.3423H117.903L110.766 10.6543H111.887V19.3423H109.129ZM128.877 19.5491C127.923 19.5491 127.044 19.3997 126.239 19.101C125.446 18.7907 124.751 18.354 124.154 17.7909C123.567 17.2277 123.108 16.567 122.775 15.8085C122.453 15.05 122.292 14.2168 122.292 13.3089C122.292 12.4011 122.453 11.5679 122.775 10.8094C123.108 10.0509 123.573 9.39015 124.171 8.82704C124.768 8.26393 125.469 7.83298 126.274 7.53418C127.078 7.2239 127.963 7.06875 128.929 7.06875C129.997 7.06875 130.957 7.24688 131.807 7.60314C132.669 7.95939 133.393 8.47653 133.979 9.15457L132.187 10.8094C131.75 10.3497 131.273 10.0107 130.756 9.79238C130.239 9.56253 129.675 9.44761 129.066 9.44761C128.48 9.44761 127.946 9.53955 127.463 9.72342C126.981 9.9073 126.561 10.1716 126.205 10.5164C125.86 10.8611 125.59 11.2691 125.395 11.7403C125.211 12.2115 125.119 12.7343 125.119 13.3089C125.119 13.8721 125.211 14.3892 125.395 14.8604C125.59 15.3316 125.86 15.7453 126.205 16.1015C126.561 16.4463 126.975 16.7106 127.446 16.8945C127.929 17.0783 128.457 17.1703 129.032 17.1703C129.584 17.1703 130.118 17.0841 130.635 16.9117C131.164 16.7278 131.675 16.4233 132.169 15.9981L133.755 18.015C133.1 18.5091 132.336 18.8883 131.463 19.1527C130.601 19.417 129.739 19.5491 128.877 19.5491ZM131.204 17.653V13.1193H133.755V18.015L131.204 17.653Z" fill="white"/>
</svg>
