<svg width="105" height="27" viewBox="0 0 105 27" fill="none" xmlns="http://www.w3.org/2000/svg">
<path d="M4.99743 7.03417C4.33419 11.4142 4.33419 15.9094 4.99743 20.2893C5.23973 21.8894 6.34932 23.1637 7.78801 23.4846C14.379 24.9544 85.3137 24.7362 91.9316 23.4226L94.6259 22.8877C95.4567 22.7228 95.7887 21.6015 95.2075 20.924L89.668 14.4683C89.1366 13.8492 89.1366 12.8776 89.668 12.2583L95.2075 5.80266C95.7887 5.12528 95.4567 4.00396 94.6259 3.83903L91.9316 3.30413C85.3139 1.99061 14.379 2.36907 7.78801 3.83901C6.34932 4.15973 5.23973 5.43411 4.99743 7.03417Z" fill="#2157AD"/>
<path d="M37.9199 8.96875L36.4375 17.5H34.4922L32.459 12.1152L31.5215 17.5H29.5176L30.9941 8.96875H32.9512L34.9844 14.3535L35.916 8.96875H37.9199ZM40.7441 17.6172C40.3066 17.6094 39.9082 17.5293 39.5488 17.377C39.1895 17.2207 38.8848 17.0059 38.6348 16.7324C38.3848 16.459 38.1992 16.1387 38.0781 15.7715C37.9609 15.4004 37.918 14.9961 37.9492 14.5586L37.9727 14.3301C38.0195 13.8691 38.1289 13.4395 38.3008 13.041C38.4727 12.6387 38.7031 12.2871 38.9922 11.9863C39.2812 11.6816 39.6211 11.4453 40.0117 11.2773C40.4062 11.1094 40.8477 11.0312 41.3359 11.043C41.7773 11.0508 42.1582 11.1387 42.4785 11.3066C42.8027 11.4746 43.0664 11.7031 43.2695 11.9922C43.4727 12.2773 43.6133 12.6055 43.6914 12.9766C43.7734 13.3438 43.793 13.7344 43.75 14.1484L43.6387 14.9512H38.5996L38.7988 13.7148L41.9043 13.7207L41.9395 13.5508C41.9668 13.3672 41.959 13.2012 41.916 13.0527C41.873 12.9043 41.793 12.7871 41.6758 12.7012C41.5586 12.6113 41.4004 12.5625 41.2012 12.5547C40.959 12.5508 40.7578 12.6035 40.5977 12.7129C40.4414 12.8223 40.3145 12.9668 40.2168 13.1465C40.123 13.3262 40.0508 13.5215 40 13.7324C39.9492 13.9395 39.9121 14.1387 39.8887 14.3301L39.8652 14.5527C39.8496 14.7441 39.8555 14.9297 39.8828 15.1094C39.9102 15.2891 39.9648 15.4512 40.0469 15.5957C40.1328 15.7402 40.248 15.8574 40.3926 15.9473C40.5371 16.0332 40.7188 16.0801 40.9375 16.0879C41.2305 16.0957 41.5039 16.041 41.7578 15.9238C42.0117 15.8066 42.2402 15.6465 42.4434 15.4434L43.2461 16.5098C43.0703 16.7754 42.8438 16.9902 42.5664 17.1543C42.2891 17.3145 41.9902 17.4316 41.6699 17.5059C41.3535 17.584 41.0449 17.6211 40.7441 17.6172ZM46.1699 15.5195L48.0391 11.1602H49.293L48.4492 13.4746L46.6504 17.5H45.6426L46.1699 15.5195ZM46.4746 11.1602L46.4102 15.6777L46.1699 17.5H45.0215L44.6641 11.1602H46.4746ZM49.5391 15.3906L50.9688 11.1602H52.8555L50.3125 17.5H49.1055L49.5391 15.3906ZM49.3867 11.1602L49.7734 15.707L49.627 17.5H48.6777L48.2793 13.3223L48.2559 11.1602H49.3867ZM59.5527 13.873H57.332L57.5605 12.5254L59.1895 12.5312C59.4277 12.5312 59.6562 12.5039 59.875 12.4492C60.0977 12.3906 60.2852 12.2891 60.4375 12.1445C60.5938 12 60.6934 11.7949 60.7363 11.5293C60.7715 11.2871 60.752 11.0977 60.6777 10.9609C60.6035 10.8203 60.4844 10.7207 60.3203 10.6621C60.1602 10.5996 59.9688 10.5664 59.7461 10.5625L58.6738 10.5566L57.4668 17.5H55.4629L56.9395 8.96875L59.8105 8.97461C60.1816 8.97852 60.5488 9.01953 60.9121 9.09766C61.2754 9.17578 61.6016 9.30273 61.8906 9.47852C62.1797 9.65039 62.4062 9.88477 62.5703 10.1816C62.7344 10.4746 62.8027 10.8418 62.7754 11.2832C62.748 11.7637 62.6133 12.1543 62.3711 12.4551C62.1328 12.752 61.8242 12.9727 61.4453 13.1172C61.0664 13.2578 60.6562 13.334 60.2148 13.3457L59.5527 13.873ZM58.873 17.5H56.1777L57.1387 15.918L58.9375 15.9238C59.1602 15.9199 59.3691 15.8828 59.5645 15.8125C59.7637 15.7422 59.9297 15.6328 60.0625 15.4844C60.1992 15.332 60.2871 15.1387 60.3262 14.9043C60.3613 14.7051 60.3574 14.5312 60.3145 14.3828C60.2754 14.2305 60.1934 14.1113 60.0684 14.0254C59.9473 13.9395 59.7832 13.8906 59.5762 13.8789L57.7891 13.873L58.0352 12.5254L59.9805 12.5312L60.332 13.0645C60.7266 13.0684 61.0762 13.1387 61.3809 13.2754C61.6855 13.4121 61.9199 13.6191 62.084 13.8965C62.252 14.1699 62.3223 14.5137 62.2949 14.9277C62.2559 15.5645 62.0723 16.0723 61.7441 16.4512C61.416 16.8262 60.998 17.0957 60.4902 17.2598C59.9824 17.4238 59.4434 17.5039 58.873 17.5ZM63.1973 14.4297L63.209 14.3066C63.2598 13.8496 63.3711 13.4219 63.543 13.0234C63.7148 12.625 63.9434 12.2754 64.2285 11.9746C64.5176 11.6738 64.8574 11.4414 65.248 11.2773C65.6387 11.1094 66.0762 11.0312 66.5605 11.043C67.0254 11.0508 67.4277 11.1406 67.7676 11.3125C68.1074 11.4844 68.3867 11.7188 68.6055 12.0156C68.8242 12.3086 68.9785 12.6484 69.0684 13.0352C69.1621 13.418 69.1895 13.8262 69.1504 14.2598L69.1387 14.3887C69.0879 14.8418 68.9746 15.2656 68.7988 15.6602C68.623 16.0547 68.3906 16.4004 68.1016 16.6973C67.8164 16.9941 67.4785 17.2246 67.0879 17.3887C66.6973 17.5527 66.2617 17.6289 65.7812 17.6172C65.3242 17.6094 64.9238 17.5215 64.5801 17.3535C64.2402 17.1816 63.9609 16.9512 63.7422 16.6621C63.5234 16.3691 63.3672 16.0332 63.2734 15.6543C63.1836 15.2715 63.1582 14.8633 63.1973 14.4297ZM65.1367 14.3066L65.125 14.4297C65.1133 14.5898 65.1055 14.7656 65.1016 14.957C65.1016 15.1445 65.123 15.3262 65.166 15.502C65.209 15.6738 65.2871 15.8164 65.4004 15.9297C65.5176 16.0391 65.6855 16.0977 65.9043 16.1055C66.1387 16.1133 66.334 16.0645 66.4902 15.959C66.6504 15.8535 66.7793 15.7129 66.877 15.5371C66.9746 15.3613 67.0488 15.1719 67.0996 14.9688C67.1543 14.7656 67.1914 14.5703 67.2109 14.3828L67.2227 14.2598C67.2344 14.1035 67.2402 13.9297 67.2402 13.7383C67.2441 13.543 67.2246 13.3574 67.1816 13.1816C67.1387 13.0059 67.0586 12.8613 66.9414 12.748C66.8242 12.6309 66.6562 12.5684 66.4375 12.5605C66.2031 12.5527 66.0059 12.6035 65.8457 12.7129C65.6895 12.8223 65.5625 12.9668 65.4648 13.1465C65.3672 13.3223 65.293 13.5137 65.2422 13.7207C65.1914 13.9238 65.1562 14.1191 65.1367 14.3066ZM69.7363 14.4297L69.748 14.3066C69.7988 13.8496 69.9102 13.4219 70.082 13.0234C70.2539 12.625 70.4824 12.2754 70.7676 11.9746C71.0566 11.6738 71.3965 11.4414 71.7871 11.2773C72.1777 11.1094 72.6152 11.0312 73.0996 11.043C73.5645 11.0508 73.9668 11.1406 74.3066 11.3125C74.6465 11.4844 74.9258 11.7188 75.1445 12.0156C75.3633 12.3086 75.5176 12.6484 75.6074 13.0352C75.7012 13.418 75.7285 13.8262 75.6895 14.2598L75.6777 14.3887C75.627 14.8418 75.5137 15.2656 75.3379 15.6602C75.1621 16.0547 74.9297 16.4004 74.6406 16.6973C74.3555 16.9941 74.0176 17.2246 73.627 17.3887C73.2363 17.5527 72.8008 17.6289 72.3203 17.6172C71.8633 17.6094 71.4629 17.5215 71.1191 17.3535C70.7793 17.1816 70.5 16.9512 70.2812 16.6621C70.0625 16.3691 69.9062 16.0332 69.8125 15.6543C69.7227 15.2715 69.6973 14.8633 69.7363 14.4297ZM71.6758 14.3066L71.6641 14.4297C71.6523 14.5898 71.6445 14.7656 71.6406 14.957C71.6406 15.1445 71.6621 15.3262 71.7051 15.502C71.748 15.6738 71.8262 15.8164 71.9395 15.9297C72.0566 16.0391 72.2246 16.0977 72.4434 16.1055C72.6777 16.1133 72.873 16.0645 73.0293 15.959C73.1895 15.8535 73.3184 15.7129 73.416 15.5371C73.5137 15.3613 73.5879 15.1719 73.6387 14.9688C73.6934 14.7656 73.7305 14.5703 73.75 14.3828L73.7617 14.2598C73.7734 14.1035 73.7793 13.9297 73.7793 13.7383C73.7832 13.543 73.7637 13.3574 73.7207 13.1816C73.6777 13.0059 73.5977 12.8613 73.4805 12.748C73.3633 12.6309 73.1953 12.5684 72.9766 12.5605C72.7422 12.5527 72.5449 12.6035 72.3848 12.7129C72.2285 12.8223 72.1016 12.9668 72.0039 13.1465C71.9062 13.3223 71.832 13.5137 71.7812 13.7207C71.7305 13.9238 71.6953 14.1191 71.6758 14.3066ZM79.4688 8.49414L77.9043 17.5H75.9766L77.541 8.49414H79.4688ZM83.0078 11.1602L79.75 14.418L78.1152 15.8418L77.4414 14.4883L78.8418 12.9707L80.5645 11.1602H83.0078ZM79.8262 17.5L78.6602 14.541L80.1777 13.5566L81.9473 17.5H79.8262Z" fill="white"/>
<g clip-path="url(#clip0_1712_33652)">
<path d="M25.795 19.3891C25.795 20.1377 25.4976 20.8557 24.9682 21.3851C24.4388 21.9145 23.7208 22.2119 22.9722 22.2119H4.62363C3.87496 22.2119 3.15696 21.9145 2.62757 21.3851C2.09819 20.8557 1.80078 20.1377 1.80078 19.3891V5.49569C1.80078 3.93677 5.88756 1.04053 7.44648 1.04053H22.0018C24.1853 1.04053 25.795 2.67213 25.795 4.83373V19.3891Z" fill="#2157AD"/>
<path d="M24.3833 22.2119C24.3833 22.9605 24.0859 23.6785 23.5565 24.2079C23.0271 24.7373 22.3091 25.0347 21.5604 25.0347H6.03477C5.2861 25.0347 4.5681 24.7373 4.03871 24.2079C3.50932 23.6785 3.21192 22.9605 3.21192 22.2119V5.27476C3.21192 2.36793 3.1971 2.45191 6.74048 2.45191H21.5604C22.3091 2.45191 23.0271 2.74932 23.5565 3.2787C24.0859 3.80809 24.3833 4.52609 24.3833 5.27476V22.2119Z" fill="#8FCCF4"/>
<path d="M22.9722 22.9178C22.9722 23.4793 22.7491 24.0178 22.3521 24.4148C21.955 24.8118 21.4165 25.0349 20.855 25.0349H3.91792C3.35642 25.0349 2.81792 24.8118 2.42088 24.4148C2.02384 24.0178 1.80078 23.4793 1.80078 22.9178V5.98066C1.80078 5.41916 2.02384 4.88066 2.42088 4.48362C2.81792 4.08658 3.35642 3.86353 3.91792 3.86353H20.855C21.4165 3.86353 21.955 4.08658 22.3521 4.48362C22.7491 4.88066 22.9722 5.41916 22.9722 5.98066V22.9178Z" fill="white"/>
<path d="M22.9725 23.6232C22.9725 24.3718 22.6751 25.0899 22.1457 25.6192C21.6163 26.1486 20.8983 26.446 20.1496 26.446H5.32969C4.58102 26.446 3.86302 26.1486 3.33363 25.6192C2.80424 25.0899 2.50684 24.3718 2.50684 23.6232V8.09751C2.50684 7.34884 2.80424 6.63084 3.33363 6.10145C3.86302 5.57206 4.58102 5.27466 5.32969 5.27466H20.1496C20.8983 5.27466 21.6163 5.57206 22.1457 6.10145C22.6751 6.63084 22.9725 7.34884 22.9725 8.09751V23.6232Z" fill="#2157AD"/>
<path d="M21.5611 23.6234C21.5611 24.372 21.2637 25.09 20.7343 25.6194C20.2049 26.1488 19.4869 26.4462 18.7382 26.4462H5.32969C4.58102 26.4462 3.86302 26.1488 3.33363 25.6194C2.80424 25.09 2.50684 24.372 2.50684 23.6234V9.50913C2.50684 8.76046 2.80424 8.04246 3.33363 7.51307C3.86302 6.98369 4.58102 6.68628 5.32969 6.68628H18.9746C20.5336 6.68628 21.5611 7.7138 21.5611 9.27272V23.6234Z" fill="#E0EEF8"/>
<path d="M5.32934 5.2748C4.1381 5.2748 4.10776 3.91842 4.62363 3.33409C5.21078 2.67002 6.12327 2.45195 7.75558 2.45195H8.85791V1.04053H6.93907C4.1381 1.04053 1.80078 2.80481 1.80078 4.83373V23.6233C1.80078 24.372 2.09819 25.09 2.62757 25.6194C3.15696 26.1488 3.87496 26.4462 4.62363 26.4462H6.03506V5.2748H5.32934Z" fill="#2157AD"/>
<path d="M13.0908 3.86401V20.0954L15.9137 15.8611L18.7365 20.0954V3.86401H13.0908Z" fill="#2157AD"/>
<path d="M18.7372 20.801C18.621 20.801 18.5067 20.7724 18.4042 20.7176C18.3018 20.6628 18.2145 20.5836 18.15 20.487L15.9143 17.1334L13.6786 20.487C13.5952 20.614 13.4729 20.7106 13.33 20.7623C13.1871 20.8141 13.0313 20.8183 12.8858 20.7742C12.7404 20.7302 12.6131 20.6402 12.523 20.5179C12.4328 20.3955 12.3847 20.2473 12.3858 20.0953V3.86392C12.3858 3.67675 12.4601 3.49725 12.5925 3.3649C12.7248 3.23255 12.9043 3.1582 13.0915 3.1582H18.7372C18.9243 3.1582 19.1038 3.23255 19.2362 3.3649C19.3685 3.49725 19.4429 3.67675 19.4429 3.86392V20.0953C19.4429 20.2825 19.3685 20.462 19.2362 20.5943C19.1038 20.7267 18.9243 20.801 18.7372 20.801ZM15.9143 15.1553C16.15 15.1553 16.3702 15.2732 16.5015 15.4694L18.0315 17.7643V4.56963H13.7972V17.7643L15.3272 15.4694C15.4584 15.2732 15.6786 15.1553 15.9143 15.1553Z" fill="#2157AD"/>
<path d="M11.6797 2.45215H20.1482V3.86357H11.6797V2.45215Z" fill="#2157AD"/>
</g>
<defs>
<clipPath id="clip0_1712_33652">
<rect width="25.4057" height="25.4057" fill="white" transform="translate(1.09473 1.04053)"/>
</clipPath>
</defs>
</svg>
