<svg width="35" height="34" viewBox="0 0 35 34" fill="none" xmlns="http://www.w3.org/2000/svg">
<g clip-path="url(#clip0_1838_13298)">
<g filter="url(#filter0_d_1838_13298)">
<path d="M11.5188 5.88018L1.06104 23.5422C3.10611 34.3253 13.6878 35.4717 18.723 34.6971L19.6526 33.3027C22.2864 28.8097 27.7864 19.4055 28.716 17.7323C29.6455 16.059 29.9775 15.176 29.1808 13.3168C28.4836 11.69 26.4385 8.20412 25.6948 6.34497C24.9512 4.48581 22.6737 4.25344 21.5117 4.25342C19.8075 4.25342 15.9808 4.48581 14.3075 4.48581C12.6343 4.48581 11.7512 5.41539 11.5188 5.88018Z" fill="#2258AE"/>
<path d="M11.5188 5.88018L1.06104 23.5422C3.10611 34.3253 13.6878 35.4717 18.723 34.6971L19.6526 33.3027C22.2864 28.8097 27.7864 19.4055 28.716 17.7323C29.6455 16.059 29.9775 15.176 29.1808 13.3168C28.4836 11.69 26.4385 8.20412 25.6948 6.34497C24.9512 4.48581 22.6737 4.25344 21.5117 4.25342C19.8075 4.25342 15.9808 4.48581 14.3075 4.48581C12.6343 4.48581 11.7512 5.41539 11.5188 5.88018Z" stroke="#3868B5" stroke-width="0.464789"/>
</g>
</g>
<rect x="19.8852" y="6.34482" width="4.1831" height="4.1831" rx="2.09155" fill="white"/>
<rect x="19.8852" y="6.34482" width="4.1831" height="4.1831" rx="2.09155" stroke="white" stroke-width="0.464789"/>
<g filter="url(#filter1_d_1838_13298)">
<path d="M24.0678 7.27489C21.5115 9.59884 24.5616 11.7519 30.1101 8.66931C36.3848 5.18334 31.2721 3.32419 25.6946 6.34535" stroke="#003E7E" stroke-width="0.464789"/>
</g>
<path d="M13.3734 14.9782L13.5725 17.8951C13.5789 17.967 13.5828 18.0396 13.5841 18.1129C13.5873 18.183 13.5896 18.2547 13.5909 18.3281C13.6224 18.2647 13.6506 18.1995 13.6756 18.1325C13.7056 18.0641 13.738 17.9991 13.7727 17.9375L14.9426 15.8631L15.4818 16.1672L13.4654 19.7428L12.9407 19.4469L12.7177 16.1068C12.7163 16.0334 12.7134 15.9592 12.7088 15.884C12.7042 15.8089 12.7004 15.7363 12.6972 15.6662C12.6745 15.7217 12.6508 15.7788 12.6262 15.8375C12.6017 15.8962 12.5738 15.9531 12.5428 16.0081L11.1812 18.4227L10.6419 18.1186L12.4775 14.8636L12.5766 14.5288L13.3734 14.9782ZM16.7197 18.274C16.9432 18.4 17.0988 18.5518 17.1865 18.7293C17.2774 18.9087 17.3131 19.0952 17.2934 19.2891C17.2788 19.4815 17.2222 19.6651 17.1236 19.84C17.0944 19.8918 17.0601 19.9451 17.0207 19.9997C16.9832 20.0511 16.9408 20.0998 16.8936 20.1457L15.4167 19.3129C15.2706 19.572 15.2198 19.8058 15.2643 20.0145C15.3107 20.22 15.4326 20.3784 15.6302 20.4898C15.7241 20.5428 15.8337 20.5832 15.9588 20.6111C16.0872 20.6408 16.2289 20.6545 16.3838 20.6522L16.353 21.0703C16.1935 21.0956 16.0177 21.0819 15.8256 21.029C15.6367 20.9779 15.4758 20.915 15.343 20.8401C15.1552 20.7342 15.0016 20.6091 14.8822 20.465C14.7661 20.3227 14.6857 20.1663 14.6409 19.9959C14.5993 19.8274 14.594 19.6514 14.6247 19.4682C14.6555 19.2849 14.7239 19.0993 14.8298 18.9115C14.9266 18.7398 15.0439 18.5925 15.1815 18.4695C15.321 18.3432 15.4748 18.2485 15.6427 18.1853C15.8125 18.1188 15.9879 18.0918 16.1687 18.1041C16.3547 18.1151 16.5383 18.1717 16.7197 18.274ZM16.4707 18.6586C16.3639 18.5984 16.2567 18.5764 16.1494 18.5927C16.0452 18.6108 15.9491 18.6526 15.8609 18.7181C15.7727 18.7837 15.7017 18.8567 15.6477 18.9373L16.5465 19.4441C16.6156 19.3593 16.661 19.2675 16.6826 19.1687C16.706 19.0666 16.7008 18.9698 16.6671 18.8782C16.6334 18.7866 16.5679 18.7134 16.4707 18.6586ZM18.5913 19.4191L18.3004 20.6957C18.2806 20.7913 18.2521 20.8798 18.2147 20.9612C18.1806 21.0444 18.1446 21.1308 18.1069 21.2205C18.1673 21.1436 18.2227 21.0681 18.273 20.9941C18.3266 20.9218 18.3891 20.8525 18.4607 20.7861L19.4269 19.8903L19.9662 20.1944L19.6752 21.4711C19.6555 21.5666 19.6269 21.6551 19.5896 21.7365C19.554 21.8147 19.519 21.8995 19.4845 21.991C19.5417 21.9123 19.5961 21.8384 19.6479 21.7694C19.7014 21.6971 19.7624 21.6269 19.8307 21.5587L20.7921 20.6602L21.2925 20.9423L19.1523 22.9434L18.7005 22.6886C18.7509 22.478 18.7963 22.2689 18.8367 22.0611C18.8788 21.8501 18.9258 21.6418 18.9777 21.4363C19.0314 21.2275 19.0941 21.0217 19.1658 20.8188C19.0326 20.987 18.8889 21.1471 18.7348 21.2993C18.5825 21.4482 18.4254 21.5944 18.2634 21.7378C18.1065 21.8798 17.9477 22.0251 17.7871 22.1736L17.3256 21.9133L17.9792 19.0739L18.5913 19.4191Z" fill="white"/>
<path d="M10.881 21.4057C10.8024 21.545 10.6988 21.653 10.5701 21.7299C10.4432 21.8035 10.3047 21.8448 10.1544 21.854C10.0041 21.8631 9.85703 21.84 9.71328 21.7845C9.85737 21.9 9.97115 22.0388 10.0546 22.2012C10.1432 22.3621 10.1905 22.5318 10.1966 22.7102C10.2059 22.8905 10.1622 23.0665 10.0654 23.2381C9.96307 23.4195 9.83907 23.5523 9.69334 23.6366C9.55086 23.7228 9.39616 23.77 9.22925 23.7783C9.06234 23.7866 8.89273 23.7657 8.72041 23.7155C8.54992 23.662 8.38695 23.5915 8.23148 23.5038L6.98778 22.8024L8.82612 19.5426C8.82795 19.5393 8.83517 19.5114 8.84778 19.4587C8.86364 19.4079 8.8804 19.3555 8.89808 19.3014C8.91576 19.2474 8.92481 19.2162 8.92523 19.2079L10.1884 19.9202C10.3276 19.9987 10.458 20.0893 10.5794 20.1919C10.7059 20.2931 10.8068 20.4056 10.8822 20.5292C10.9627 20.6514 11.0059 20.7868 11.0118 20.9352C11.0196 21.0805 10.976 21.2373 10.881 21.4057ZM10.1245 21.1008C10.1829 20.9971 10.2094 20.9011 10.2038 20.8125C10.1982 20.724 10.1664 20.6442 10.1084 20.573C10.0521 20.4986 9.97543 20.434 9.87826 20.3792L9.39244 20.1053L8.88012 21.0138L9.38052 21.2959C9.4712 21.3471 9.56313 21.3733 9.6563 21.3746C9.75271 21.3778 9.84115 21.3572 9.92161 21.3129C10.0039 21.2654 10.0715 21.1947 10.1245 21.1008ZM9.40475 22.7631C9.48694 22.6174 9.51636 22.4782 9.49301 22.3455C9.47148 22.2095 9.41429 22.0876 9.32144 21.9798C9.22859 21.8719 9.11738 21.7815 8.98783 21.7084L8.60889 21.4947L7.92945 22.6995L8.45899 22.9982C8.57883 23.0658 8.69687 23.1024 8.81313 23.1082C8.93263 23.1159 9.04294 23.0906 9.14408 23.0323C9.24845 22.9759 9.33534 22.8862 9.40475 22.7631ZM11.1439 25.2231C10.901 25.0861 10.7232 24.9132 10.6104 24.7045C10.5026 24.4943 10.4548 24.2688 10.4668 24.028C10.4839 23.7858 10.5582 23.548 10.6897 23.3149C10.7883 23.14 10.9081 22.9919 11.049 22.8707C11.1917 22.7463 11.3478 22.6551 11.5172 22.5969C11.6916 22.5373 11.8709 22.5146 12.055 22.5288C12.2391 22.543 12.4218 22.6012 12.6032 22.7035C12.8494 22.8423 13.0263 23.0168 13.134 23.227C13.2436 23.4339 13.2898 23.6585 13.2727 23.9007C13.2607 24.1415 13.189 24.3785 13.0575 24.6117C12.9588 24.7866 12.8382 24.9363 12.6954 25.0607C12.5545 25.1819 12.3985 25.2731 12.2273 25.3345C12.0579 25.3927 11.8811 25.4147 11.697 25.4005C11.5129 25.3863 11.3285 25.3272 11.1439 25.2231ZM11.368 24.8371C11.4813 24.9011 11.5892 24.9256 11.6915 24.9107C11.7956 24.8926 11.8917 24.8508 11.9799 24.7852C12.0699 24.7165 12.1497 24.6355 12.2193 24.5424C12.2939 24.4479 12.3559 24.357 12.4052 24.2695C12.4564 24.1788 12.5038 24.0796 12.5474 23.9719C12.5962 23.8628 12.6274 23.7545 12.6411 23.6469C12.6566 23.5361 12.6442 23.4331 12.604 23.3379C12.5671 23.2445 12.4903 23.1649 12.3737 23.0991C12.2636 23.037 12.1564 23.0151 12.0523 23.0332C11.9482 23.0513 11.8511 23.0947 11.7611 23.1635C11.6711 23.2323 11.5897 23.3123 11.5169 23.4036C11.4441 23.4948 11.3839 23.5826 11.3364 23.6668C11.2871 23.7542 11.2406 23.8518 11.197 23.9595C11.1533 24.0672 11.1237 24.1765 11.1082 24.2872C11.0927 24.398 11.1025 24.5017 11.1376 24.5984C11.1778 24.6936 11.2546 24.7732 11.368 24.8371ZM13.9915 26.8289C13.7486 26.6919 13.5707 26.519 13.4579 26.3103C13.3502 26.1001 13.3023 25.8746 13.3143 25.6338C13.3314 25.3916 13.4057 25.1539 13.5372 24.9207C13.6358 24.7458 13.7556 24.5977 13.8965 24.4766C14.0392 24.3522 14.1953 24.2609 14.3647 24.2027C14.5392 24.1432 14.7184 24.1205 14.9025 24.1346C15.0866 24.1488 15.2694 24.2071 15.4508 24.3093C15.6969 24.4481 15.8738 24.6226 15.9816 24.8328C16.0911 25.0397 16.1374 25.2643 16.1203 25.5065C16.1083 25.7473 16.0365 25.9843 15.905 26.2175C15.8064 26.3924 15.6857 26.5421 15.543 26.6665C15.4021 26.7877 15.246 26.879 15.0748 26.9403C14.9054 26.9985 14.7287 27.0205 14.5446 27.0063C14.3605 26.9921 14.1761 26.933 13.9915 26.8289ZM14.2155 26.443C14.3289 26.5069 14.4367 26.5314 14.539 26.5165C14.6431 26.4984 14.7393 26.4566 14.8275 26.3911C14.9175 26.3223 14.9973 26.2414 15.0669 26.1483C15.1415 26.0538 15.2035 25.9628 15.2528 25.8753C15.3039 25.7846 15.3513 25.6854 15.395 25.5777C15.4437 25.4686 15.4749 25.3603 15.4886 25.2527C15.5041 25.142 15.4918 25.039 15.4516 24.9437C15.4146 24.8503 15.3378 24.7707 15.2212 24.705C15.1111 24.6429 15.004 24.6209 14.8999 24.639C14.7957 24.6571 14.6987 24.7006 14.6087 24.7693C14.5187 24.8381 14.4373 24.9181 14.3644 25.0094C14.2916 25.1007 14.2315 25.1884 14.184 25.2726C14.1347 25.36 14.0882 25.4576 14.0445 25.5653C14.0008 25.673 13.9713 25.7823 13.9557 25.8931C13.9402 26.0038 13.95 26.1076 13.9852 26.2042C14.0254 26.2995 14.1022 26.379 14.2155 26.443ZM18.6192 24.4377L17.3124 26.7551L18.6222 26.1811L19.1906 26.5016L17.8331 27.0807L17.9699 28.9956L17.314 28.6257L17.211 26.9348L16.5124 28.1737L15.9149 27.8367L17.8737 24.3631L17.9585 24.0651L18.6192 24.4377Z" fill="white"/>
<defs>
<filter id="filter0_d_1838_13298" x="0.351618" y="4.021" width="29.975" height="33.4254" filterUnits="userSpaceOnUse" color-interpolation-filters="sRGB">
<feFlood flood-opacity="0" result="BackgroundImageFix"/>
<feColorMatrix in="SourceAlpha" type="matrix" values="0 0 0 0 0 0 0 0 0 0 0 0 0 0 0 0 0 0 127 0" result="hardAlpha"/>
<feOffset dy="1.85915"/>
<feGaussianBlur stdDeviation="0.232394"/>
<feComposite in2="hardAlpha" operator="out"/>
<feColorMatrix type="matrix" values="0 0 0 0 0 0 0 0 0 0 0 0 0 0 0 0 0 0 0.25 0"/>
<feBlend mode="normal" in2="BackgroundImageFix" result="effect1_dropShadow_1838_13298"/>
<feBlend mode="normal" in="SourceGraphic" in2="effect1_dropShadow_1838_13298" result="shape"/>
</filter>
<filter id="filter1_d_1838_13298" x="22.4556" y="4.59473" width="11.2362" height="8.16098" filterUnits="userSpaceOnUse" color-interpolation-filters="sRGB">
<feFlood flood-opacity="0" result="BackgroundImageFix"/>
<feColorMatrix in="SourceAlpha" type="matrix" values="0 0 0 0 0 0 0 0 0 0 0 0 0 0 0 0 0 0 127 0" result="hardAlpha"/>
<feOffset dy="1.85915"/>
<feGaussianBlur stdDeviation="0.232394"/>
<feComposite in2="hardAlpha" operator="out"/>
<feColorMatrix type="matrix" values="0 0 0 0 0 0 0 0 0 0 0 0 0 0 0 0 0 0 0.25 0"/>
<feBlend mode="normal" in2="BackgroundImageFix" result="effect1_dropShadow_1838_13298"/>
<feBlend mode="normal" in="SourceGraphic" in2="effect1_dropShadow_1838_13298" result="shape"/>
</filter>
<clipPath id="clip0_1838_13298">
<rect x="0.596191" y="0.535217" width="33.4648" height="33.4648" rx="16.7324" fill="white"/>
</clipPath>
</defs>
</svg>
