<svg width="104" height="26" viewBox="0 0 104 26" fill="none" xmlns="http://www.w3.org/2000/svg">
<path d="M4.49743 6.53417C3.83419 10.9142 3.83419 15.4094 4.49743 19.7893C4.73973 21.3894 5.84932 22.6637 7.28801 22.9846C13.879 24.4544 84.8137 24.2362 91.4316 22.9226L94.1259 22.3877C94.9567 22.2228 95.2887 21.1015 94.7075 20.424L89.168 13.9683C88.6366 13.3492 88.6366 12.3776 89.168 11.7583L94.7075 5.30266C95.2887 4.62528 94.9567 3.50396 94.1259 3.33903L91.4316 2.80413C84.8139 1.49061 13.879 1.86907 7.28801 3.33901C5.84932 3.65973 4.73973 4.93411 4.49743 6.53417Z" fill="#2157AD"/>
<path d="M37.4199 8.46875L35.9375 17H33.9922L31.959 11.6152L31.0215 17H29.0176L30.4941 8.46875H32.4512L34.4844 13.8535L35.416 8.46875H37.4199ZM40.2441 17.1172C39.8066 17.1094 39.4082 17.0293 39.0488 16.877C38.6895 16.7207 38.3848 16.5059 38.1348 16.2324C37.8848 15.959 37.6992 15.6387 37.5781 15.2715C37.4609 14.9004 37.418 14.4961 37.4492 14.0586L37.4727 13.8301C37.5195 13.3691 37.6289 12.9395 37.8008 12.541C37.9727 12.1387 38.2031 11.7871 38.4922 11.4863C38.7812 11.1816 39.1211 10.9453 39.5117 10.7773C39.9062 10.6094 40.3477 10.5312 40.8359 10.543C41.2773 10.5508 41.6582 10.6387 41.9785 10.8066C42.3027 10.9746 42.5664 11.2031 42.7695 11.4922C42.9727 11.7773 43.1133 12.1055 43.1914 12.4766C43.2734 12.8438 43.293 13.2344 43.25 13.6484L43.1387 14.4512H38.0996L38.2988 13.2148L41.4043 13.2207L41.4395 13.0508C41.4668 12.8672 41.459 12.7012 41.416 12.5527C41.373 12.4043 41.293 12.2871 41.1758 12.2012C41.0586 12.1113 40.9004 12.0625 40.7012 12.0547C40.459 12.0508 40.2578 12.1035 40.0977 12.2129C39.9414 12.3223 39.8145 12.4668 39.7168 12.6465C39.623 12.8262 39.5508 13.0215 39.5 13.2324C39.4492 13.4395 39.4121 13.6387 39.3887 13.8301L39.3652 14.0527C39.3496 14.2441 39.3555 14.4297 39.3828 14.6094C39.4102 14.7891 39.4648 14.9512 39.5469 15.0957C39.6328 15.2402 39.748 15.3574 39.8926 15.4473C40.0371 15.5332 40.2188 15.5801 40.4375 15.5879C40.7305 15.5957 41.0039 15.541 41.2578 15.4238C41.5117 15.3066 41.7402 15.1465 41.9434 14.9434L42.7461 16.0098C42.5703 16.2754 42.3438 16.4902 42.0664 16.6543C41.7891 16.8145 41.4902 16.9316 41.1699 17.0059C40.8535 17.084 40.5449 17.1211 40.2441 17.1172ZM45.6699 15.0195L47.5391 10.6602H48.793L47.9492 12.9746L46.1504 17H45.1426L45.6699 15.0195ZM45.9746 10.6602L45.9102 15.1777L45.6699 17H44.5215L44.1641 10.6602H45.9746ZM49.0391 14.8906L50.4688 10.6602H52.3555L49.8125 17H48.6055L49.0391 14.8906ZM48.8867 10.6602L49.2734 15.207L49.127 17H48.1777L47.7793 12.8223L47.7559 10.6602H48.8867ZM59.0527 13.373H56.832L57.0605 12.0254L58.6895 12.0312C58.9277 12.0312 59.1562 12.0039 59.375 11.9492C59.5977 11.8906 59.7852 11.7891 59.9375 11.6445C60.0938 11.5 60.1934 11.2949 60.2363 11.0293C60.2715 10.7871 60.252 10.5977 60.1777 10.4609C60.1035 10.3203 59.9844 10.2207 59.8203 10.1621C59.6602 10.0996 59.4688 10.0664 59.2461 10.0625L58.1738 10.0566L56.9668 17H54.9629L56.4395 8.46875L59.3105 8.47461C59.6816 8.47852 60.0488 8.51953 60.4121 8.59766C60.7754 8.67578 61.1016 8.80273 61.3906 8.97852C61.6797 9.15039 61.9062 9.38477 62.0703 9.68164C62.2344 9.97461 62.3027 10.3418 62.2754 10.7832C62.248 11.2637 62.1133 11.6543 61.8711 11.9551C61.6328 12.252 61.3242 12.4727 60.9453 12.6172C60.5664 12.7578 60.1562 12.834 59.7148 12.8457L59.0527 13.373ZM58.373 17H55.6777L56.6387 15.418L58.4375 15.4238C58.6602 15.4199 58.8691 15.3828 59.0645 15.3125C59.2637 15.2422 59.4297 15.1328 59.5625 14.9844C59.6992 14.832 59.7871 14.6387 59.8262 14.4043C59.8613 14.2051 59.8574 14.0312 59.8145 13.8828C59.7754 13.7305 59.6934 13.6113 59.5684 13.5254C59.4473 13.4395 59.2832 13.3906 59.0762 13.3789L57.2891 13.373L57.5352 12.0254L59.4805 12.0312L59.832 12.5645C60.2266 12.5684 60.5762 12.6387 60.8809 12.7754C61.1855 12.9121 61.4199 13.1191 61.584 13.3965C61.752 13.6699 61.8223 14.0137 61.7949 14.4277C61.7559 15.0645 61.5723 15.5723 61.2441 15.9512C60.916 16.3262 60.498 16.5957 59.9902 16.7598C59.4824 16.9238 58.9434 17.0039 58.373 17ZM62.6973 13.9297L62.709 13.8066C62.7598 13.3496 62.8711 12.9219 63.043 12.5234C63.2148 12.125 63.4434 11.7754 63.7285 11.4746C64.0176 11.1738 64.3574 10.9414 64.748 10.7773C65.1387 10.6094 65.5762 10.5312 66.0605 10.543C66.5254 10.5508 66.9277 10.6406 67.2676 10.8125C67.6074 10.9844 67.8867 11.2188 68.1055 11.5156C68.3242 11.8086 68.4785 12.1484 68.5684 12.5352C68.6621 12.918 68.6895 13.3262 68.6504 13.7598L68.6387 13.8887C68.5879 14.3418 68.4746 14.7656 68.2988 15.1602C68.123 15.5547 67.8906 15.9004 67.6016 16.1973C67.3164 16.4941 66.9785 16.7246 66.5879 16.8887C66.1973 17.0527 65.7617 17.1289 65.2812 17.1172C64.8242 17.1094 64.4238 17.0215 64.0801 16.8535C63.7402 16.6816 63.4609 16.4512 63.2422 16.1621C63.0234 15.8691 62.8672 15.5332 62.7734 15.1543C62.6836 14.7715 62.6582 14.3633 62.6973 13.9297ZM64.6367 13.8066L64.625 13.9297C64.6133 14.0898 64.6055 14.2656 64.6016 14.457C64.6016 14.6445 64.623 14.8262 64.666 15.002C64.709 15.1738 64.7871 15.3164 64.9004 15.4297C65.0176 15.5391 65.1855 15.5977 65.4043 15.6055C65.6387 15.6133 65.834 15.5645 65.9902 15.459C66.1504 15.3535 66.2793 15.2129 66.377 15.0371C66.4746 14.8613 66.5488 14.6719 66.5996 14.4688C66.6543 14.2656 66.6914 14.0703 66.7109 13.8828L66.7227 13.7598C66.7344 13.6035 66.7402 13.4297 66.7402 13.2383C66.7441 13.043 66.7246 12.8574 66.6816 12.6816C66.6387 12.5059 66.5586 12.3613 66.4414 12.248C66.3242 12.1309 66.1562 12.0684 65.9375 12.0605C65.7031 12.0527 65.5059 12.1035 65.3457 12.2129C65.1895 12.3223 65.0625 12.4668 64.9648 12.6465C64.8672 12.8223 64.793 13.0137 64.7422 13.2207C64.6914 13.4238 64.6562 13.6191 64.6367 13.8066ZM69.2363 13.9297L69.248 13.8066C69.2988 13.3496 69.4102 12.9219 69.582 12.5234C69.7539 12.125 69.9824 11.7754 70.2676 11.4746C70.5566 11.1738 70.8965 10.9414 71.2871 10.7773C71.6777 10.6094 72.1152 10.5312 72.5996 10.543C73.0645 10.5508 73.4668 10.6406 73.8066 10.8125C74.1465 10.9844 74.4258 11.2188 74.6445 11.5156C74.8633 11.8086 75.0176 12.1484 75.1074 12.5352C75.2012 12.918 75.2285 13.3262 75.1895 13.7598L75.1777 13.8887C75.127 14.3418 75.0137 14.7656 74.8379 15.1602C74.6621 15.5547 74.4297 15.9004 74.1406 16.1973C73.8555 16.4941 73.5176 16.7246 73.127 16.8887C72.7363 17.0527 72.3008 17.1289 71.8203 17.1172C71.3633 17.1094 70.9629 17.0215 70.6191 16.8535C70.2793 16.6816 70 16.4512 69.7812 16.1621C69.5625 15.8691 69.4062 15.5332 69.3125 15.1543C69.2227 14.7715 69.1973 14.3633 69.2363 13.9297ZM71.1758 13.8066L71.1641 13.9297C71.1523 14.0898 71.1445 14.2656 71.1406 14.457C71.1406 14.6445 71.1621 14.8262 71.2051 15.002C71.248 15.1738 71.3262 15.3164 71.4395 15.4297C71.5566 15.5391 71.7246 15.5977 71.9434 15.6055C72.1777 15.6133 72.373 15.5645 72.5293 15.459C72.6895 15.3535 72.8184 15.2129 72.916 15.0371C73.0137 14.8613 73.0879 14.6719 73.1387 14.4688C73.1934 14.2656 73.2305 14.0703 73.25 13.8828L73.2617 13.7598C73.2734 13.6035 73.2793 13.4297 73.2793 13.2383C73.2832 13.043 73.2637 12.8574 73.2207 12.6816C73.1777 12.5059 73.0977 12.3613 72.9805 12.248C72.8633 12.1309 72.6953 12.0684 72.4766 12.0605C72.2422 12.0527 72.0449 12.1035 71.8848 12.2129C71.7285 12.3223 71.6016 12.4668 71.5039 12.6465C71.4062 12.8223 71.332 13.0137 71.2812 13.2207C71.2305 13.4238 71.1953 13.6191 71.1758 13.8066ZM78.9688 7.99414L77.4043 17H75.4766L77.041 7.99414H78.9688ZM82.5078 10.6602L79.25 13.918L77.6152 15.3418L76.9414 13.9883L78.3418 12.4707L80.0645 10.6602H82.5078ZM79.3262 17L78.1602 14.041L79.6777 13.0566L81.4473 17H79.3262Z" fill="white"/>
<g clip-path="url(#clip0_3036_31647)">
<path d="M25.295 18.8895C25.295 19.6382 24.9976 20.3562 24.4682 20.8856C23.9388 21.415 23.2208 21.7124 22.4722 21.7124H4.12363C3.37496 21.7124 2.65696 21.415 2.12757 20.8856C1.59819 20.3562 1.30078 19.6382 1.30078 18.8895V4.99618C1.30078 3.43726 5.38756 0.541016 6.94648 0.541016H21.5018C23.6853 0.541016 25.295 2.17262 25.295 4.33422V18.8895Z" fill="#2157AD"/>
<path d="M23.8833 21.7133C23.8833 22.462 23.5859 23.18 23.0565 23.7094C22.5271 24.2388 21.8091 24.5362 21.0604 24.5362H5.53477C4.7861 24.5362 4.0681 24.2388 3.53871 23.7094C3.00932 23.18 2.71192 22.462 2.71192 21.7133V4.77623C2.71192 1.8694 2.6971 1.95338 6.24048 1.95338H21.0604C21.8091 1.95338 22.5271 2.25078 23.0565 2.78017C23.5859 3.30956 23.8833 4.02756 23.8833 4.77623V21.7133Z" fill="#8FCCF4"/>
<path d="M22.4722 22.4175C22.4722 22.979 22.2491 23.5175 21.8521 23.9146C21.455 24.3116 20.9165 24.5347 20.355 24.5347H3.41792C2.85642 24.5347 2.31792 24.3116 1.92088 23.9146C1.52384 23.5175 1.30078 22.979 1.30078 22.4175V5.48042C1.30078 4.91892 1.52384 4.38042 1.92088 3.98338C2.31792 3.58634 2.85642 3.36328 3.41792 3.36328H20.355C20.9165 3.36328 21.455 3.58634 21.8521 3.98338C22.2491 4.38042 22.4722 4.91892 22.4722 5.48042V22.4175Z" fill="white"/>
<path d="M22.4725 23.1239C22.4725 23.8726 22.1751 24.5906 21.6457 25.12C21.1163 25.6494 20.3983 25.9468 19.6496 25.9468H4.82969C4.08102 25.9468 3.36302 25.6494 2.83363 25.12C2.30424 24.5906 2.00684 23.8726 2.00684 23.1239V7.59824C2.00684 6.84957 2.30424 6.13157 2.83363 5.60218C3.36302 5.0728 4.08102 4.77539 4.82969 4.77539H19.6496C20.3983 4.77539 21.1163 5.0728 21.6457 5.60218C22.1751 6.13157 22.4725 6.84957 22.4725 7.59824V23.1239Z" fill="#2157AD"/>
<path d="M21.0611 23.1246C21.0611 23.8733 20.7637 24.5913 20.2343 25.1207C19.7049 25.65 18.9869 25.9474 18.2382 25.9474H4.82969C4.08102 25.9474 3.36302 25.65 2.83363 25.1207C2.30424 24.5913 2.00684 23.8733 2.00684 23.1246V9.01035C2.00684 8.26168 2.30424 7.54368 2.83363 7.01429C3.36302 6.48491 4.08102 6.1875 4.82969 6.1875H18.4746C20.0336 6.1875 21.0611 7.21502 21.0611 8.77394V23.1246Z" fill="#E0EEF8"/>
<path d="M4.82934 4.77529C3.6381 4.77529 3.60776 3.41891 4.12363 2.83458C4.71078 2.17051 5.62327 1.95244 7.25558 1.95244H8.35791V0.541016H6.43907C3.6381 0.541016 1.30078 2.3053 1.30078 4.33422V23.1238C1.30078 23.8725 1.59819 24.5905 2.12757 25.1199C2.65696 25.6493 3.37496 25.9467 4.12363 25.9467H5.53506V4.77529H4.82934Z" fill="#2157AD"/>
<path d="M12.5908 3.36328V19.5947L15.4137 15.3604L18.2365 19.5947V3.36328H12.5908Z" fill="#2157AD"/>
<path d="M18.2372 20.301C18.121 20.301 18.0067 20.2724 17.9042 20.2176C17.8018 20.1628 17.7145 20.0836 17.65 19.987L15.4143 16.6334L13.1786 19.987C13.0952 20.114 12.9729 20.2106 12.83 20.2623C12.6871 20.3141 12.5313 20.3183 12.3858 20.2742C12.2404 20.2302 12.1131 20.1402 12.023 20.0179C11.9328 19.8955 11.8847 19.7473 11.8858 19.5953V3.36392C11.8858 3.17675 11.9601 2.99725 12.0925 2.8649C12.2248 2.73255 12.4043 2.6582 12.5915 2.6582H18.2372C18.4243 2.6582 18.6038 2.73255 18.7362 2.8649C18.8685 2.99725 18.9429 3.17675 18.9429 3.36392V19.5953C18.9429 19.7825 18.8685 19.962 18.7362 20.0943C18.6038 20.2267 18.4243 20.301 18.2372 20.301ZM15.4143 14.6553C15.65 14.6553 15.8702 14.7732 16.0015 14.9694L17.5315 17.2643V4.06963H13.2972V17.2643L14.8272 14.9694C14.9584 14.7732 15.1786 14.6553 15.4143 14.6553Z" fill="#2157AD"/>
<path d="M11.1797 1.95312H19.6482V3.36455H11.1797V1.95312Z" fill="#2157AD"/>
</g>
<defs>
<clipPath id="clip0_3036_31647">
<rect width="25.4057" height="25.4057" fill="white" transform="translate(0.594727 0.541016)"/>
</clipPath>
</defs>
</svg>
