<svg width="14" height="14" viewBox="0 0 14 14" fill="none" xmlns="http://www.w3.org/2000/svg">
<path d="M8.75 5.24992H9.91667V6.41658H8.75V5.24992ZM9.91667 2.91659H8.75V4.08325H9.91667V2.91659ZM6.41667 8.74992H7.58333V7.58325H6.41667V8.74992ZM7.58333 2.91659H6.41667V4.08325H7.58333V2.91659ZM6.41667 6.41658H7.58333V5.24992H6.41667V6.41658ZM5.25 2.91659H4.08333V4.08325H5.25V2.91659ZM5.25 5.24992H4.08333V6.41658H5.25V5.24992ZM8.4875 12.2499H7.58333V10.2083H6.41667V12.2499H2.91667V1.74992H11.0833V6.43408C11.4975 6.46908 11.8942 6.59742 12.25 6.78409V0.583252H1.75V13.4166H9.28083C9.04167 13.0899 8.75 12.6933 8.4875 12.2499ZM4.08333 11.0833H5.25V9.91658H4.08333V11.0833ZM5.25 7.58325H4.08333V8.74992H5.25V7.58325ZM12.8333 9.62492C12.8333 11.1416 10.7917 13.4166 10.7917 13.4166C10.7917 13.4166 8.75 11.1416 8.75 9.62492C8.75 8.51658 9.68333 7.58325 10.7917 7.58325C11.9 7.58325 12.8333 8.51658 12.8333 9.62492ZM11.4917 9.68325C11.4917 9.33325 11.1417 8.98325 10.7917 8.98325C10.4417 8.98325 10.0917 9.27492 10.0917 9.68325C10.0917 10.0333 10.3833 10.3833 10.7917 10.3833C11.2 10.3833 11.55 10.0333 11.4917 9.68325Z" fill="white"/>
</svg>
