<svg width="98" height="29" viewBox="0 0 98 29" fill="none" xmlns="http://www.w3.org/2000/svg">
<path d="M16.5 2.5H96C96.8284 2.5 97.5 3.17157 97.5 4V25C97.5 25.8284 96.8284 26.5 96 26.5H16.5V2.5Z" fill="#098041"/>
<g filter="url(#filter0_i_1712_33426)">
<path d="M34.5938 10.4688H36.5977L35.6484 16.0352C35.5547 16.6875 35.3418 17.2461 35.0098 17.7109C34.6816 18.1758 34.2578 18.5293 33.7383 18.7715C33.2188 19.0137 32.6309 19.1309 31.9746 19.123C31.3652 19.1113 30.832 18.9805 30.375 18.7305C29.9219 18.4805 29.582 18.127 29.3555 17.6699C29.1289 17.2129 29.0527 16.6699 29.127 16.041L30.0762 10.4688H32.0859L31.1426 16.0469C31.1113 16.3047 31.1133 16.5449 31.1484 16.7676C31.1875 16.9902 31.2812 17.1719 31.4297 17.3125C31.5781 17.4531 31.8008 17.5273 32.0977 17.5352C32.4141 17.5469 32.6777 17.4883 32.8887 17.3594C33.1035 17.2305 33.2715 17.0508 33.3926 16.8203C33.5176 16.5898 33.6016 16.3301 33.6445 16.041L34.5938 10.4688ZM41.0215 16.6914C41.0566 16.5078 41.043 16.3516 40.9805 16.2227C40.9219 16.0938 40.832 15.9844 40.7109 15.8945C40.5938 15.8047 40.459 15.7285 40.3066 15.666C40.1582 15.5996 40.0137 15.5391 39.873 15.4844C39.5684 15.3633 39.2676 15.2266 38.9707 15.0742C38.6738 14.918 38.4043 14.7344 38.1621 14.5234C37.9199 14.3125 37.7305 14.0664 37.5938 13.7852C37.4609 13.5039 37.4043 13.1738 37.4238 12.7949C37.4512 12.3613 37.5742 11.9883 37.793 11.6758C38.0117 11.3633 38.291 11.1094 38.6309 10.9141C38.9746 10.7148 39.3438 10.5703 39.7383 10.4805C40.1367 10.3867 40.5254 10.3438 40.9043 10.3516C41.4434 10.3594 41.9238 10.4688 42.3457 10.6797C42.7715 10.8906 43.1055 11.1934 43.3477 11.5879C43.5898 11.9785 43.707 12.4512 43.6992 13.0059H41.7129C41.7207 12.7871 41.6914 12.5977 41.625 12.4375C41.5625 12.2734 41.459 12.1465 41.3145 12.0566C41.1699 11.9629 40.9824 11.9141 40.752 11.9102C40.5605 11.9062 40.3691 11.9375 40.1777 12.0039C39.9863 12.0664 39.8203 12.1641 39.6797 12.2969C39.5391 12.4297 39.4492 12.6016 39.4102 12.8125C39.3828 12.9727 39.4082 13.1133 39.4863 13.2344C39.5645 13.3516 39.6719 13.4531 39.8086 13.5391C39.9453 13.6211 40.0879 13.6914 40.2363 13.75C40.3887 13.8086 40.5215 13.8594 40.6348 13.9023C40.9551 14.0234 41.2617 14.166 41.5547 14.3301C41.8516 14.4902 42.1133 14.6797 42.3398 14.8984C42.5703 15.1172 42.7461 15.373 42.8672 15.666C42.9922 15.9551 43.043 16.291 43.0195 16.6738C42.9883 17.1152 42.8711 17.4922 42.668 17.8047C42.4648 18.1172 42.2031 18.3711 41.8828 18.5664C41.5625 18.7617 41.2109 18.9043 40.8281 18.9941C40.4453 19.084 40.0566 19.127 39.6621 19.123C39.2207 19.1152 38.8086 19.0488 38.4258 18.9238C38.043 18.7949 37.709 18.6094 37.4238 18.3672C37.1387 18.1211 36.918 17.8203 36.7617 17.4648C36.6055 17.1055 36.5312 16.6934 36.5391 16.2285L38.5488 16.2344C38.5371 16.4531 38.5508 16.6465 38.5898 16.8145C38.6328 16.9785 38.7031 17.1172 38.8008 17.2305C38.9023 17.3398 39.0332 17.4238 39.1934 17.4824C39.3535 17.5371 39.5469 17.5645 39.7734 17.5645C39.9648 17.5645 40.1484 17.5352 40.3242 17.4766C40.5039 17.4141 40.6562 17.3184 40.7812 17.1895C40.9062 17.0605 40.9863 16.8945 41.0215 16.6914ZM49.6289 17.418L49.3535 19H44.9297L45.2051 17.418H49.6289ZM47.1328 10.4688L45.6504 19H43.6465L45.123 10.4688H47.1328ZM49.6758 13.8555L49.4121 15.3848H45.5566L45.8262 13.8555H49.6758ZM50.8477 10.4688L50.5723 12.0566H46.1309L46.4121 10.4688H50.8477ZM52.9629 19H51.0117L51.2988 17.418L53.0273 17.4297C53.5156 17.4297 53.918 17.3086 54.2344 17.0664C54.5547 16.8242 54.8027 16.5098 54.9785 16.123C55.1582 15.7363 55.2793 15.3281 55.3418 14.8984L55.3828 14.5352C55.418 14.2773 55.4336 14.0078 55.4297 13.7266C55.4258 13.4414 55.3848 13.1758 55.3066 12.9297C55.2285 12.6836 55.0957 12.4805 54.9082 12.3203C54.7246 12.1602 54.4668 12.0742 54.1348 12.0625L52.1836 12.0566L52.459 10.4688L54.1992 10.4746C54.7695 10.4863 55.2695 10.6035 55.6992 10.8262C56.1289 11.0449 56.4824 11.3438 56.7598 11.7227C57.0371 12.0977 57.2324 12.5273 57.3457 13.0117C57.459 13.4961 57.4844 14.0059 57.4219 14.541L57.3809 14.9102C57.3066 15.4805 57.1465 16.0156 56.9004 16.5156C56.6543 17.0117 56.3379 17.4473 55.9512 17.8223C55.5645 18.1934 55.1172 18.4844 54.6094 18.6953C54.1055 18.9023 53.5566 19.0039 52.9629 19ZM53.6484 10.4688L52.166 19H50.1621L51.6387 10.4688H53.6484ZM64.752 15.373H62.5312L62.7598 14.0254L64.3887 14.0312C64.627 14.0312 64.8555 14.0039 65.0742 13.9492C65.2969 13.8906 65.4844 13.7891 65.6367 13.6445C65.793 13.5 65.8926 13.2949 65.9355 13.0293C65.9707 12.7871 65.9512 12.5977 65.877 12.4609C65.8027 12.3203 65.6836 12.2207 65.5195 12.1621C65.3594 12.0996 65.168 12.0664 64.9453 12.0625L63.873 12.0566L62.666 19H60.6621L62.1387 10.4688L65.0098 10.4746C65.3809 10.4785 65.748 10.5195 66.1113 10.5977C66.4746 10.6758 66.8008 10.8027 67.0898 10.9785C67.3789 11.1504 67.6055 11.3848 67.7695 11.6816C67.9336 11.9746 68.002 12.3418 67.9746 12.7832C67.9473 13.2637 67.8125 13.6543 67.5703 13.9551C67.332 14.252 67.0234 14.4727 66.6445 14.6172C66.2656 14.7578 65.8555 14.834 65.4141 14.8457L64.752 15.373ZM64.0723 19H61.377L62.3379 17.418L64.1367 17.4238C64.3594 17.4199 64.5684 17.3828 64.7637 17.3125C64.9629 17.2422 65.1289 17.1328 65.2617 16.9844C65.3984 16.832 65.4863 16.6387 65.5254 16.4043C65.5605 16.2051 65.5566 16.0312 65.5137 15.8828C65.4746 15.7305 65.3926 15.6113 65.2676 15.5254C65.1465 15.4395 64.9824 15.3906 64.7754 15.3789L62.9883 15.373L63.2344 14.0254L65.1797 14.0312L65.5312 14.5645C65.9258 14.5684 66.2754 14.6387 66.5801 14.7754C66.8848 14.9121 67.1191 15.1191 67.2832 15.3965C67.4512 15.6699 67.5215 16.0137 67.4941 16.4277C67.4551 17.0645 67.2715 17.5723 66.9434 17.9512C66.6152 18.3262 66.1973 18.5957 65.6895 18.7598C65.1816 18.9238 64.6426 19.0039 64.0723 19ZM75.9434 14.5293L75.9023 14.875C75.8242 15.4336 75.6738 15.9707 75.4512 16.4863C75.2324 16.998 74.9434 17.4531 74.584 17.8516C74.2285 18.25 73.8066 18.5645 73.3184 18.7949C72.8301 19.0215 72.2812 19.1289 71.6719 19.1172C71.0859 19.1055 70.5859 18.9805 70.1719 18.7422C69.7617 18.5039 69.4336 18.1855 69.1875 17.7871C68.9453 17.3887 68.7812 16.9414 68.6953 16.4453C68.6094 15.9492 68.5977 15.4375 68.6602 14.9102L68.7012 14.5645C68.7793 14.0098 68.9297 13.4785 69.1523 12.9707C69.375 12.459 69.666 12.0039 70.0254 11.6055C70.3848 11.207 70.8086 10.8965 71.2969 10.6738C71.7852 10.4473 72.332 10.3398 72.9375 10.3516C73.5195 10.3594 74.0156 10.4824 74.4258 10.7207C74.8359 10.959 75.1621 11.2773 75.4043 11.6758C75.6504 12.0703 75.8164 12.5156 75.9023 13.0117C75.9922 13.5039 76.0059 14.0098 75.9434 14.5293ZM73.8633 14.9102L73.9102 14.5469C73.9375 14.3164 73.9551 14.0566 73.9629 13.7676C73.9707 13.4785 73.9453 13.1992 73.8867 12.9297C73.8281 12.6562 73.7148 12.4297 73.5469 12.25C73.3828 12.0703 73.1406 11.9727 72.8203 11.957C72.4648 11.9414 72.1641 12.0137 71.918 12.1738C71.6719 12.3301 71.4688 12.541 71.3086 12.8066C71.1523 13.0684 71.0293 13.3535 70.9395 13.6621C70.8496 13.9707 70.7852 14.2676 70.7461 14.5527L70.6992 14.916C70.6719 15.1465 70.6523 15.4082 70.6406 15.7012C70.6328 15.9902 70.6562 16.2715 70.7109 16.5449C70.7695 16.8184 70.8828 17.0469 71.0508 17.2305C71.2188 17.4102 71.4648 17.5059 71.7891 17.5176C72.1367 17.5332 72.4336 17.4609 72.6797 17.3008C72.9258 17.1367 73.1289 16.9219 73.2891 16.6562C73.4531 16.3906 73.5801 16.1035 73.6699 15.7949C73.7637 15.4863 73.8281 15.1914 73.8633 14.9102ZM83.9824 14.5293L83.9414 14.875C83.8633 15.4336 83.7129 15.9707 83.4902 16.4863C83.2715 16.998 82.9824 17.4531 82.623 17.8516C82.2676 18.25 81.8457 18.5645 81.3574 18.7949C80.8691 19.0215 80.3203 19.1289 79.7109 19.1172C79.125 19.1055 78.625 18.9805 78.2109 18.7422C77.8008 18.5039 77.4727 18.1855 77.2266 17.7871C76.9844 17.3887 76.8203 16.9414 76.7344 16.4453C76.6484 15.9492 76.6367 15.4375 76.6992 14.9102L76.7402 14.5645C76.8184 14.0098 76.9688 13.4785 77.1914 12.9707C77.4141 12.459 77.7051 12.0039 78.0645 11.6055C78.4238 11.207 78.8477 10.8965 79.3359 10.6738C79.8242 10.4473 80.3711 10.3398 80.9766 10.3516C81.5586 10.3594 82.0547 10.4824 82.4648 10.7207C82.875 10.959 83.2012 11.2773 83.4434 11.6758C83.6895 12.0703 83.8555 12.5156 83.9414 13.0117C84.0312 13.5039 84.0449 14.0098 83.9824 14.5293ZM81.9023 14.9102L81.9492 14.5469C81.9766 14.3164 81.9941 14.0566 82.002 13.7676C82.0098 13.4785 81.9844 13.1992 81.9258 12.9297C81.8672 12.6562 81.7539 12.4297 81.5859 12.25C81.4219 12.0703 81.1797 11.9727 80.8594 11.957C80.5039 11.9414 80.2031 12.0137 79.957 12.1738C79.7109 12.3301 79.5078 12.541 79.3477 12.8066C79.1914 13.0684 79.0684 13.3535 78.9785 13.6621C78.8887 13.9707 78.8242 14.2676 78.7852 14.5527L78.7383 14.916C78.7109 15.1465 78.6914 15.4082 78.6797 15.7012C78.6719 15.9902 78.6953 16.2715 78.75 16.5449C78.8086 16.8184 78.9219 17.0469 79.0898 17.2305C79.2578 17.4102 79.5039 17.5059 79.8281 17.5176C80.1758 17.5332 80.4727 17.4609 80.7188 17.3008C80.9648 17.1367 81.168 16.9219 81.3281 16.6562C81.4922 16.3906 81.6191 16.1035 81.709 15.7949C81.8027 15.4863 81.8672 15.1914 81.9023 14.9102ZM87.7383 10.4688L86.2559 19H84.252L85.7285 10.4688H87.7383ZM92.7422 10.4688L88.7461 14.8398L86.4844 16.9609L86.4492 14.9277L87.9375 13.0938L90.1465 10.4688H92.7422ZM88.8809 19L87.3809 15.0859L89.0625 13.9609L91.166 19H88.8809Z" fill="white"/>
</g>
<path d="M16.5 2.5H96C96.8284 2.5 97.5 3.17157 97.5 4V25C97.5 25.8284 96.8284 26.5 96 26.5H16.5V2.5Z" stroke="#098041"/>
<g filter="url(#filter1_iii_1712_33426)">
<circle cx="15.1055" cy="14.5" r="12.5" fill="#098041"/>
</g>
<circle cx="15.1055" cy="14.5" r="13.2544" stroke="#0078F4" stroke-width="1.50888"/>
<circle cx="15.1055" cy="14.5" r="13.2544" stroke="#098041" stroke-width="1.50888"/>
<g clip-path="url(#clip0_1712_33426)">
<g filter="url(#filter2_ii_1712_33426)">
<path fill-rule="evenodd" clip-rule="evenodd" d="M15.0605 10.4038C13.7958 10.4038 12.7705 11.4291 12.7705 12.6938C12.7705 13.9585 13.7958 14.9837 15.0605 14.9837C16.3252 14.9837 17.3504 13.9585 17.3504 12.6938C17.3504 11.4291 16.3252 10.4038 15.0605 10.4038ZM13.8274 12.6938C13.8274 12.0128 14.3795 11.4607 15.0605 11.4607C15.7415 11.4607 16.2935 12.0128 16.2935 12.6938C16.2935 13.3748 15.7415 13.9268 15.0605 13.9268C14.3795 13.9268 13.8274 13.3748 13.8274 12.6938Z" fill="white"/>
<path fill-rule="evenodd" clip-rule="evenodd" d="M15.0605 10.4038C13.7958 10.4038 12.7705 11.4291 12.7705 12.6938C12.7705 13.9585 13.7958 14.9837 15.0605 14.9837C16.3252 14.9837 17.3504 13.9585 17.3504 12.6938C17.3504 11.4291 16.3252 10.4038 15.0605 10.4038ZM13.8274 12.6938C13.8274 12.0128 14.3795 11.4607 15.0605 11.4607C15.7415 11.4607 16.2935 12.0128 16.2935 12.6938C16.2935 13.3748 15.7415 13.9268 15.0605 13.9268C14.3795 13.9268 13.8274 13.3748 13.8274 12.6938Z" fill="white"/>
</g>
<g filter="url(#filter3_ii_1712_33426)">
<path fill-rule="evenodd" clip-rule="evenodd" d="M15.0608 7.5853C12.2395 7.5853 9.95241 9.8724 9.95241 12.6937C9.95241 13.7281 10.2599 14.6907 10.7884 15.4952L8.96631 18.6512C8.86269 18.8307 8.87354 19.0541 8.99407 19.2227C9.11459 19.3914 9.32254 19.4739 9.5259 19.4339L11.3676 19.0719L11.975 20.8479C12.042 21.044 12.2175 21.1828 12.4238 21.2029C12.63 21.223 12.829 21.1207 12.9326 20.9411L14.7503 17.7927C14.8531 17.7989 14.9566 17.802 15.0608 17.802C15.165 17.802 15.2685 17.7989 15.3712 17.7927L17.189 20.9411C17.2927 21.1208 17.492 21.2232 17.6984 21.2028C17.9049 21.1825 18.0803 21.0433 18.147 20.8469L18.7512 19.0672L20.5945 19.4337C20.798 19.4742 21.0064 19.3918 21.1272 19.2232C21.2481 19.0546 21.259 18.8308 21.1553 18.6512L19.3332 15.4952C19.8617 14.6907 20.1692 13.7281 20.1692 12.6937C20.1692 9.8724 17.8821 7.5853 15.0608 7.5853ZM11.0093 12.6937C11.0093 10.4561 12.8232 8.6422 15.0608 8.6422C17.2983 8.6422 19.1123 10.4561 19.1123 12.6937C19.1123 14.9312 17.2983 16.7451 15.0608 16.7451C12.8232 16.7451 11.0093 14.9312 11.0093 12.6937ZM13.6401 17.6019C12.8277 17.3672 12.0986 16.9362 11.5074 16.3637L10.463 18.1726L11.6165 17.9459C11.8758 17.8948 12.1329 18.0433 12.2184 18.2934L12.5988 19.4057L13.6401 17.6019ZM17.5211 19.4027L16.4815 17.6019C17.2938 17.3672 18.0229 16.9362 18.6142 16.3637L19.6568 18.1696L18.5028 17.9402C18.2428 17.8885 17.9847 18.0375 17.8994 18.2886L17.5211 19.4027Z" fill="white"/>
<path fill-rule="evenodd" clip-rule="evenodd" d="M15.0608 7.5853C12.2395 7.5853 9.95241 9.8724 9.95241 12.6937C9.95241 13.7281 10.2599 14.6907 10.7884 15.4952L8.96631 18.6512C8.86269 18.8307 8.87354 19.0541 8.99407 19.2227C9.11459 19.3914 9.32254 19.4739 9.5259 19.4339L11.3676 19.0719L11.975 20.8479C12.042 21.044 12.2175 21.1828 12.4238 21.2029C12.63 21.223 12.829 21.1207 12.9326 20.9411L14.7503 17.7927C14.8531 17.7989 14.9566 17.802 15.0608 17.802C15.165 17.802 15.2685 17.7989 15.3712 17.7927L17.189 20.9411C17.2927 21.1208 17.492 21.2232 17.6984 21.2028C17.9049 21.1825 18.0803 21.0433 18.147 20.8469L18.7512 19.0672L20.5945 19.4337C20.798 19.4742 21.0064 19.3918 21.1272 19.2232C21.2481 19.0546 21.259 18.8308 21.1553 18.6512L19.3332 15.4952C19.8617 14.6907 20.1692 13.7281 20.1692 12.6937C20.1692 9.8724 17.8821 7.5853 15.0608 7.5853ZM11.0093 12.6937C11.0093 10.4561 12.8232 8.6422 15.0608 8.6422C17.2983 8.6422 19.1123 10.4561 19.1123 12.6937C19.1123 14.9312 17.2983 16.7451 15.0608 16.7451C12.8232 16.7451 11.0093 14.9312 11.0093 12.6937ZM13.6401 17.6019C12.8277 17.3672 12.0986 16.9362 11.5074 16.3637L10.463 18.1726L11.6165 17.9459C11.8758 17.8948 12.1329 18.0433 12.2184 18.2934L12.5988 19.4057L13.6401 17.6019ZM17.5211 19.4027L16.4815 17.6019C17.2938 17.3672 18.0229 16.9362 18.6142 16.3637L19.6568 18.1696L18.5028 17.9402C18.2428 17.8885 17.9847 18.0375 17.8994 18.2886L17.5211 19.4027Z" fill="white"/>
</g>
</g>
<defs>
<filter id="filter0_i_1712_33426" x="29.0156" y="10.334" width="63.9266" height="9.00078" filterUnits="userSpaceOnUse" color-interpolation-filters="sRGB">
<feFlood flood-opacity="0" result="BackgroundImageFix"/>
<feBlend mode="normal" in="SourceGraphic" in2="BackgroundImageFix" result="shape"/>
<feColorMatrix in="SourceAlpha" type="matrix" values="0 0 0 0 0 0 0 0 0 0 0 0 0 0 0 0 0 0 127 0" result="hardAlpha"/>
<feOffset dx="0.2" dy="0.2"/>
<feGaussianBlur stdDeviation="0.1"/>
<feComposite in2="hardAlpha" operator="arithmetic" k2="-1" k3="1"/>
<feColorMatrix type="matrix" values="0 0 0 0 0 0 0 0 0 0 0 0 0 0 0 0 0 0 0.5 0"/>
<feBlend mode="normal" in2="shape" result="effect1_innerShadow_1712_33426"/>
</filter>
<filter id="filter1_iii_1712_33426" x="0.89668" y="0.291119" width="28.7176" height="28.7178" filterUnits="userSpaceOnUse" color-interpolation-filters="sRGB">
<feFlood flood-opacity="0" result="BackgroundImageFix"/>
<feBlend mode="normal" in="SourceGraphic" in2="BackgroundImageFix" result="shape"/>
<feColorMatrix in="SourceAlpha" type="matrix" values="0 0 0 0 0 0 0 0 0 0 0 0 0 0 0 0 0 0 127 0" result="hardAlpha"/>
<feOffset dx="0.5"/>
<feComposite in2="hardAlpha" operator="arithmetic" k2="-1" k3="1"/>
<feColorMatrix type="matrix" values="0 0 0 0 0 0 0 0 0 0 0 0 0 0 0 0 0 0 0.25 0"/>
<feBlend mode="normal" in2="shape" result="effect1_innerShadow_1712_33426"/>
<feColorMatrix in="SourceAlpha" type="matrix" values="0 0 0 0 0 0 0 0 0 0 0 0 0 0 0 0 0 0 127 0" result="hardAlpha"/>
<feOffset dx="0.5" dy="0.5"/>
<feGaussianBlur stdDeviation="2"/>
<feComposite in2="hardAlpha" operator="arithmetic" k2="-1" k3="1"/>
<feColorMatrix type="matrix" values="0 0 0 0 0 0 0 0 0 0 0 0 0 0 0 0 0 0 0.5 0"/>
<feBlend mode="normal" in2="effect1_innerShadow_1712_33426" result="effect2_innerShadow_1712_33426"/>
<feColorMatrix in="SourceAlpha" type="matrix" values="0 0 0 0 0 0 0 0 0 0 0 0 0 0 0 0 0 0 127 0" result="hardAlpha"/>
<feOffset dx="-0.2" dy="-0.2"/>
<feGaussianBlur stdDeviation="2"/>
<feComposite in2="hardAlpha" operator="arithmetic" k2="-1" k3="1"/>
<feColorMatrix type="matrix" values="0 0 0 0 0 0 0 0 0 0 0 0 0 0 0 0 0 0 0.5 0"/>
<feBlend mode="normal" in2="effect2_innerShadow_1712_33426" result="effect3_innerShadow_1712_33426"/>
</filter>
<filter id="filter2_ii_1712_33426" x="12.5705" y="10.2038" width="4.98008" height="4.97993" filterUnits="userSpaceOnUse" color-interpolation-filters="sRGB">
<feFlood flood-opacity="0" result="BackgroundImageFix"/>
<feBlend mode="normal" in="SourceGraphic" in2="BackgroundImageFix" result="shape"/>
<feColorMatrix in="SourceAlpha" type="matrix" values="0 0 0 0 0 0 0 0 0 0 0 0 0 0 0 0 0 0 127 0" result="hardAlpha"/>
<feOffset dx="-0.2" dy="-0.2"/>
<feGaussianBlur stdDeviation="0.15"/>
<feComposite in2="hardAlpha" operator="arithmetic" k2="-1" k3="1"/>
<feColorMatrix type="matrix" values="0 0 0 0 0 0 0 0 0 0.470588 0 0 0 0 0.956863 0 0 0 0.5 0"/>
<feBlend mode="normal" in2="shape" result="effect1_innerShadow_1712_33426"/>
<feColorMatrix in="SourceAlpha" type="matrix" values="0 0 0 0 0 0 0 0 0 0 0 0 0 0 0 0 0 0 127 0" result="hardAlpha"/>
<feOffset dx="0.2" dy="0.2"/>
<feGaussianBlur stdDeviation="0.1"/>
<feComposite in2="hardAlpha" operator="arithmetic" k2="-1" k3="1"/>
<feColorMatrix type="matrix" values="0 0 0 0 0.0352941 0 0 0 0 0.501961 0 0 0 0 0.254902 0 0 0 0.2 0"/>
<feBlend mode="normal" in2="effect1_innerShadow_1712_33426" result="effect2_innerShadow_1712_33426"/>
</filter>
<filter id="filter3_ii_1712_33426" x="8.69551" y="7.3853" width="12.7306" height="14.0201" filterUnits="userSpaceOnUse" color-interpolation-filters="sRGB">
<feFlood flood-opacity="0" result="BackgroundImageFix"/>
<feBlend mode="normal" in="SourceGraphic" in2="BackgroundImageFix" result="shape"/>
<feColorMatrix in="SourceAlpha" type="matrix" values="0 0 0 0 0 0 0 0 0 0 0 0 0 0 0 0 0 0 127 0" result="hardAlpha"/>
<feOffset dx="-0.2" dy="-0.2"/>
<feGaussianBlur stdDeviation="0.15"/>
<feComposite in2="hardAlpha" operator="arithmetic" k2="-1" k3="1"/>
<feColorMatrix type="matrix" values="0 0 0 0 0 0 0 0 0 0.470588 0 0 0 0 0.956863 0 0 0 0.5 0"/>
<feBlend mode="normal" in2="shape" result="effect1_innerShadow_1712_33426"/>
<feColorMatrix in="SourceAlpha" type="matrix" values="0 0 0 0 0 0 0 0 0 0 0 0 0 0 0 0 0 0 127 0" result="hardAlpha"/>
<feOffset dx="0.2" dy="0.2"/>
<feGaussianBlur stdDeviation="0.1"/>
<feComposite in2="hardAlpha" operator="arithmetic" k2="-1" k3="1"/>
<feColorMatrix type="matrix" values="0 0 0 0 0.0352941 0 0 0 0 0.501961 0 0 0 0 0.254902 0 0 0 0.2 0"/>
<feBlend mode="normal" in2="effect1_innerShadow_1712_33426" result="effect2_innerShadow_1712_33426"/>
</filter>
<clipPath id="clip0_1712_33426">
<rect width="13" height="15" fill="white" transform="translate(8.60547 7)"/>
</clipPath>
</defs>
</svg>
