<svg width="81" height="26" viewBox="0 0 81 26" fill="none" xmlns="http://www.w3.org/2000/svg">
<g clip-path="url(#clip0_2788_2041)">
<path d="M79.9035 7.76991C79.1791 5.70788 77.213 4.22761 74.9106 4.22761H74.8588C73.3584 4.22761 72.0067 4.85462 71.043 5.85655C70.0794 4.85462 68.7277 4.22761 67.2273 4.22761H67.182C65.8626 4.22761 64.6532 4.71242 63.7284 5.50749V5.10672C63.696 4.69949 63.3662 4.38275 62.9523 4.38275H59.4081C58.9748 4.38275 58.6255 4.73181 58.6255 5.1649V24.389C58.6255 24.822 58.9748 25.1711 59.4081 25.1711H62.9523C63.3468 25.1711 63.6766 24.8738 63.7219 24.4988V10.6981C63.7219 10.6464 63.7219 10.6076 63.7284 10.5624C63.7866 9.94829 64.2393 9.43763 64.9507 9.37945H65.6039C65.9014 9.40531 66.1537 9.50873 66.3477 9.67033C66.6581 9.91597 66.8263 10.2909 66.8263 10.7046L66.8392 24.4342C66.8392 24.8673 67.1885 25.2228 67.6218 25.2228H71.1659C71.5863 25.2228 71.9226 24.8931 71.942 24.4794V10.6917C71.942 10.2392 72.149 9.82547 72.5176 9.5863C72.6987 9.46995 72.9186 9.39238 73.1708 9.36652H73.8241C74.5937 9.43116 75.0529 10.0129 75.0529 10.6917L75.0658 24.4083C75.0658 24.8414 75.415 25.1905 75.8484 25.1905H79.3925C79.8064 25.1905 80.1492 24.8673 80.1751 24.4601V9.41824C80.1557 8.57145 80.0457 8.17714 79.9035 7.76991ZM55.9222 4.43446H53.8978V1.15073C53.8978 1.14427 53.8978 1.14427 53.8978 1.1378C53.8978 0.74996 53.5809 0.426758 53.18 0.426758C53.1347 0.426758 53.0894 0.433222 53.0441 0.439686C50.7999 1.05377 51.2462 4.16297 47.1458 4.428H46.7513C46.6931 4.428 46.6349 4.43446 46.5767 4.44739H46.5702H46.5767C46.2339 4.53142 45.9688 4.8417 45.9688 5.21661V8.75891C45.9688 9.192 46.318 9.54105 46.7513 9.54105H48.8856L48.8791 24.5506C48.8791 24.9772 49.2283 25.3262 49.6552 25.3262H53.1606C53.5874 25.3262 53.9366 24.9772 53.9366 24.5506V9.54105H55.9222C56.349 9.54105 56.7047 9.18553 56.7047 8.75891V5.21661C56.7047 4.78352 56.3555 4.43446 55.9222 4.43446Z" fill="#00BAF2"/>
<path d="M43.18 4.4342H39.6358C39.209 4.4342 38.8533 4.78326 38.8533 5.21635V12.5401C38.8468 12.9926 38.4782 13.3546 38.0254 13.3546H36.5444C36.0852 13.3546 35.7101 12.9861 35.7101 12.5272L35.6972 5.21635C35.6972 4.78326 35.3479 4.4342 34.9146 4.4342H31.3704C30.9371 4.4342 30.5879 4.78326 30.5879 5.21635V13.2382C30.5879 16.2828 32.7609 18.4612 35.8136 18.4612C35.8136 18.4612 38.103 18.4612 38.1742 18.4741C38.5881 18.5193 38.905 18.8684 38.905 19.295C38.905 19.7152 38.5946 20.0642 38.1807 20.116C38.1613 20.116 38.1418 20.1224 38.1224 20.1289L32.942 20.1483C32.5087 20.1483 32.1595 20.4973 32.1595 20.9304V24.4663C32.1595 24.8993 32.5087 25.2484 32.942 25.2484H38.7304C41.783 25.2484 43.9561 23.0765 43.9561 20.0319V5.21635C43.9626 4.78326 43.6133 4.4342 43.18 4.4342ZM23.0274 4.45359H18.1122C17.6788 4.45359 17.3231 4.78326 17.3231 5.18403V6.56087C17.3231 6.56733 17.3231 6.58026 17.3231 6.58672C17.3231 6.59965 17.3231 6.60612 17.3231 6.61904V8.50654C17.3231 8.93317 17.6982 9.28869 18.1574 9.28869H22.8399C23.2085 9.34687 23.4995 9.61836 23.5448 10.0385V10.4975C23.506 10.8982 23.215 11.1891 22.8593 11.2214H20.5439C17.4589 11.2214 15.2665 13.2705 15.2665 16.1406V20.2582C15.2665 23.1153 17.155 25.145 20.2141 25.145H26.6363C27.7875 25.145 28.7252 24.2723 28.7252 23.1993V9.76703C28.7252 6.50916 27.0437 4.45359 23.0274 4.45359ZM23.5901 19.2304V19.7863C23.5901 19.8315 23.5836 19.8768 23.5772 19.9156C23.5707 19.9544 23.5578 19.9931 23.5448 20.0319C23.4349 20.3422 23.1244 20.5684 22.7558 20.5684H21.2812C20.822 20.5684 20.4469 20.2194 20.4469 19.7863V19.1205C20.4469 19.114 20.4469 19.1011 20.4469 19.0946V17.317V16.7611V16.7547C20.4469 16.328 20.822 15.979 21.2812 15.979H22.7558C23.215 15.979 23.5901 16.328 23.5901 16.7611V19.2304ZM9.20648 4.42773H1.46494C1.03809 4.42773 0.695312 4.77679 0.695312 5.19696V8.66814C0.695312 8.67461 0.695312 8.68107 0.695312 8.68754C0.695312 8.70693 0.695312 8.71986 0.695312 8.73279V24.4339C0.695312 24.8606 1.01222 25.2096 1.4132 25.2161H5.02204C5.45536 25.2161 5.8046 24.867 5.8046 24.4339L5.81753 19.0559H9.20648C12.0392 19.0559 14.0183 17.0908 14.0183 14.2401V9.24991C14.0183 6.40573 12.0392 4.42773 9.20648 4.42773ZM8.89604 10.9176V13.1025C8.89604 13.5614 8.52739 13.9363 8.06821 13.9363H5.824V9.56018H8.06821C8.52739 9.56018 8.89604 9.92863 8.89604 10.3876V10.9176Z" fill="#20336B"/>
</g>
<defs>
<clipPath id="clip0_2788_2041">
<rect width="79.9656" height="24.8995" fill="white" transform="translate(0.695312 0.426758)"/>
</clipPath>
</defs>
</svg>
