<svg width="96" height="27" viewBox="0 0 96 27" fill="none" xmlns="http://www.w3.org/2000/svg">
<g clip-path="url(#clip0_2788_2037)">
<path d="M12.9756 26.3046C12.5885 26.2668 12.1993 26.2409 11.8141 26.1901C9.29362 25.8565 7.0485 24.8886 5.11071 23.2426C3.08506 21.5412 1.63995 19.253 0.9757 16.6954C0.605886 15.3153 0.478275 13.8818 0.59852 12.4583C0.798086 9.97387 1.62928 7.71744 3.14299 5.73584C5.26238 2.96061 8.06529 1.2648 11.5248 0.751979C15.3006 0.191356 18.7091 1.14232 21.6537 3.5531C24.1912 5.6273 25.7219 8.32685 26.1869 11.5651C26.7357 15.3839 25.7518 18.8134 23.2553 21.7659C21.1528 24.2553 18.4417 25.6922 15.2197 26.1772C14.8156 26.2389 14.4055 26.2628 13.9984 26.3046H12.9756ZM10.6028 9.27682C9.56203 9.27682 8.52229 9.27682 7.48156 9.27682C7.20416 9.27682 7.10537 9.36047 7.08242 9.63331C7.05698 9.89855 7.062 10.1658 7.09739 10.4299C7.12502 10.6525 7.23356 10.8572 7.40242 11.0051C7.57128 11.1531 7.7887 11.234 8.0134 11.2325C8.25288 11.2375 8.49236 11.2325 8.73184 11.2325C9.03119 11.2325 9.03119 11.2325 9.03119 11.5263C9.03119 12.6382 9.03119 13.7502 9.03119 14.8621C9.03055 15.3059 9.08859 15.7479 9.20381 16.1766C9.52411 17.3715 10.2226 18.2269 11.435 18.5834C12.4478 18.8821 13.4645 18.8094 14.4644 18.4838C14.6989 18.4071 14.7029 18.4071 14.7039 18.655C14.7039 19.3441 14.6989 20.0332 14.7039 20.7223C14.7018 20.8698 14.7295 21.0162 14.7852 21.1529C14.841 21.2896 14.9236 21.4137 15.0283 21.5179C15.133 21.6221 15.2576 21.7042 15.3947 21.7595C15.5318 21.8147 15.6786 21.842 15.8264 21.8395C16.1547 21.8395 16.484 21.8455 16.8123 21.8395C16.8689 21.8408 16.9252 21.8305 16.9778 21.8094C17.0303 21.7883 17.078 21.7568 17.1181 21.7168C17.1581 21.6768 17.1895 21.6291 17.2106 21.5766C17.2316 21.5241 17.2417 21.4679 17.2403 21.4114C17.2403 21.3297 17.2403 21.2481 17.2403 21.1664C17.2403 17.952 17.2403 14.7387 17.2403 11.5263C17.2403 11.1598 17.2403 11.1598 17.5976 11.1598C18.0147 11.1598 18.4327 11.1598 18.8498 11.1598C19.1592 11.1598 19.249 11.0652 19.249 10.7516C19.249 10.5478 19.249 10.343 19.249 10.1372C19.242 9.57954 18.8668 9.20811 18.303 9.20314C17.8101 9.19915 17.3175 9.19915 16.8252 9.20314C16.7606 9.20754 16.6958 9.19615 16.6365 9.16995C16.5772 9.14375 16.5252 9.10353 16.485 9.05277C16.3004 8.8337 16.1088 8.61961 15.9202 8.40452C14.8465 7.16644 13.7706 5.93035 12.6922 4.69625C12.5658 4.5381 12.4047 4.41098 12.2213 4.32467C12.038 4.23836 11.8372 4.19515 11.6345 4.19836C10.969 4.20633 10.3783 4.49709 9.76459 4.70322C9.578 4.76496 9.55804 5.00195 9.68876 5.15132C9.7348 5.20191 9.78343 5.25011 9.83444 5.29571C11.1596 6.55105 12.485 7.80573 13.8108 9.05974C13.8587 9.10455 13.9465 9.14737 13.9246 9.21608C13.8966 9.3057 13.7958 9.26886 13.725 9.26886C12.6842 9.26886 11.6445 9.26886 10.6038 9.26886L10.6028 9.27682ZM95.3755 17.6234C95.2378 17.8485 95.0402 17.9291 94.7718 17.9271C93.4097 17.9172 92.0477 17.9271 90.6857 17.9182C90.4861 17.9182 90.3963 17.964 90.4043 18.1761C90.4113 18.3314 90.3703 18.4878 90.3684 18.6441C90.3574 19.3959 90.8423 19.8998 91.5987 19.9545C92.355 20.0093 93.0735 19.8012 93.76 19.4825C94.2499 19.2565 94.3467 19.2834 94.647 19.7414C94.8606 20.0661 95.0462 20.3967 94.8985 20.8099C94.8186 21.0527 94.6482 21.2556 94.4225 21.3765C93.3798 21.9272 92.2632 22.0875 91.0998 21.9859C90.5521 21.9459 90.0176 21.7994 89.5262 21.5548C88.3717 20.9573 87.794 19.9854 87.7391 18.7218C87.6932 17.6662 87.7151 16.6067 87.7331 15.5492C87.762 13.7439 88.9923 12.4275 90.8264 12.2124C91.4786 12.1224 92.1415 12.145 92.7861 12.2791C94.2489 12.6127 95.126 13.5666 95.3376 15.0493C95.3455 15.1021 95.3605 15.1549 95.3725 15.2077L95.3755 17.6234ZM91.6915 16.3867C92.0746 16.3867 92.4578 16.3867 92.841 16.3867C92.9797 16.3867 93.0406 16.3369 93.0406 16.1955C93.0406 15.9774 93.0406 15.7593 93.0406 15.5413C93.0156 14.8442 92.6205 14.3792 91.924 14.2906C91.0419 14.178 90.3933 14.6311 90.3753 15.5642C90.3753 15.7633 90.3823 15.9625 90.3753 16.1616C90.3684 16.3608 90.4422 16.3966 90.6168 16.3916C90.979 16.3827 91.3412 16.3916 91.7045 16.3916L91.6915 16.3867ZM34.7593 19.9217C34.7593 20.3996 34.7593 20.8766 34.7593 21.3546C34.7593 21.6802 34.5886 21.8704 34.2603 21.8784C33.7475 21.8903 33.2346 21.8903 32.7217 21.8784C32.4223 21.8714 32.2587 21.7051 32.2228 21.4124C32.2129 21.3311 32.2086 21.2492 32.2098 21.1674C32.2098 17.5388 32.2098 13.9102 32.2098 10.2816C32.2098 10.182 32.2188 10.0904 32.2278 9.99577C32.2368 9.86494 32.2866 9.7402 32.3701 9.63897C32.4537 9.53775 32.5668 9.4651 32.6937 9.43117C33.8183 9.05775 34.9698 8.8337 36.1582 8.86457C37.0912 8.89146 37.9733 9.11352 38.7526 9.64925C39.6506 10.2636 40.1884 11.119 40.3182 12.1845C40.4632 13.2471 40.4575 14.3249 40.3012 15.3859C40.1668 16.1808 39.7763 16.9102 39.1889 17.4636C38.6015 18.0169 37.8492 18.3639 37.0463 18.4519C36.3328 18.5385 35.6254 18.5375 34.9389 18.2876C34.7862 18.2318 34.7622 18.3006 34.7622 18.429C34.7622 18.9269 34.7622 19.4248 34.7622 19.9227L34.7593 19.9217ZM34.8411 13.6124C34.8411 14.3214 34.8471 15.0294 34.8411 15.7384C34.8335 15.8117 34.8516 15.8853 34.8923 15.9467C34.9331 16.0081 34.994 16.0535 35.0646 16.075C35.4408 16.2453 35.8339 16.2493 36.2321 16.2273C37.165 16.1766 37.8286 15.4945 37.8286 14.5624C37.8236 13.8713 37.8815 13.1803 37.7537 12.4892C37.654 11.9346 37.4115 11.5004 36.8886 11.2574C36.272 10.9706 35.6423 11.0075 35.0087 11.1987C34.865 11.2425 34.8481 11.3381 34.8481 11.4655C34.8481 12.1805 34.8481 12.8965 34.8481 13.6124H34.8411ZM78.6578 15.6996V10.2746C78.6578 9.708 78.7855 9.53871 79.3214 9.37043C80.3731 9.04082 81.4458 8.83768 82.5504 8.86258C83.615 8.88648 84.6079 9.15235 85.454 9.83645C85.8204 10.1257 86.1255 10.4847 86.3518 10.8925C86.5781 11.3004 86.721 11.749 86.7722 12.2124C86.9104 13.2284 86.9104 14.2584 86.7722 15.2744C86.5237 16.9294 85.4101 18.0566 83.7487 18.4041C82.9841 18.5825 82.1851 18.548 81.4388 18.3045C81.2572 18.2408 81.2153 18.2896 81.2163 18.4688C81.2222 19.4039 81.2163 20.3389 81.2163 21.2729C81.2163 21.7121 81.0476 21.8853 80.6176 21.8873C80.1875 21.8893 79.7415 21.8873 79.3034 21.8873C78.8654 21.8873 78.6698 21.7021 78.6648 21.252V15.6996H78.6578ZM81.2941 13.6085C81.2941 14.3244 81.2991 15.0414 81.2941 15.7573C81.2877 15.8239 81.3039 15.8908 81.34 15.9471C81.3762 16.0034 81.4303 16.046 81.4936 16.068C81.8678 16.2443 82.261 16.2512 82.6601 16.2313C83.6071 16.1865 84.2686 15.5034 84.2776 14.5604C84.2776 14.1034 84.2776 13.6453 84.2776 13.1882C84.2671 12.829 84.2076 12.4729 84.101 12.1297C84.0509 11.9476 83.9618 11.7784 83.8399 11.634C83.7179 11.4896 83.5659 11.3733 83.3945 11.2933C82.7868 10.9846 82.1562 11.0095 81.5156 11.1768C81.481 11.1813 81.4476 11.1926 81.4174 11.2102C81.3872 11.2277 81.3608 11.251 81.3397 11.2788C81.3186 11.3066 81.3033 11.3383 81.2946 11.3721C81.2859 11.4059 81.284 11.441 81.2891 11.4755C81.2991 12.1855 81.2891 12.8945 81.2891 13.6045L81.2941 13.6085ZM41.7171 15.3331C41.7171 13.3542 41.7171 11.3753 41.7171 9.39632C41.7171 8.94722 41.8808 8.77993 42.3368 8.78292C42.6651 8.78292 42.9943 8.75504 43.3206 8.8098C43.5598 8.84474 43.7806 8.95814 43.9481 9.13213C44.1156 9.30612 44.2203 9.5308 44.2456 9.77073C44.3125 10.4309 44.2596 11.0941 44.2726 11.7553C44.2726 11.9326 44.2786 12.1098 44.2726 12.2871C44.2666 12.4374 44.3055 12.5011 44.4721 12.4543C44.9221 12.3372 45.3828 12.2654 45.8471 12.2403C47.5943 12.1088 48.9943 13.1295 49.3695 14.8293C49.459 15.2213 49.5045 15.6221 49.5052 16.0242C49.5052 17.7788 49.5052 19.5323 49.5052 21.2859C49.5052 21.6971 49.3316 21.8754 48.9235 21.8834C48.6627 21.8873 48.4026 21.8873 48.1432 21.8834C47.9849 21.8844 47.8281 21.854 47.6818 21.7938C47.5355 21.7336 47.4027 21.645 47.2912 21.5329C47.1797 21.4209 47.0917 21.2878 47.0324 21.1414C46.9731 20.9951 46.9436 20.8383 46.9458 20.6805C46.9418 19.1928 46.9418 17.7054 46.9458 16.2184C46.9567 15.9246 46.923 15.6308 46.846 15.3471C46.6973 14.8651 46.367 14.5993 45.8731 14.5246C45.4173 14.4692 44.9552 14.5003 44.511 14.6162C44.3215 14.659 44.2626 14.7526 44.2636 14.9438C44.2696 16.9911 44.2696 19.0381 44.2636 21.0847C44.2636 21.1664 44.2636 21.249 44.2636 21.3307C44.2366 21.7031 44.064 21.8774 43.6888 21.8824C43.2165 21.8883 42.7442 21.8883 42.2719 21.8824C41.8858 21.8824 41.7111 21.6971 41.7111 21.3118C41.7111 19.3202 41.7111 17.3287 41.7111 15.3371L41.7171 15.3331ZM50.8413 17.016C50.8642 16.539 50.7994 15.9206 50.8742 15.3122C51.0548 13.8325 51.8721 12.8756 53.296 12.4543C54.4432 12.0949 55.6786 12.1346 56.8003 12.5669C58.1105 13.0747 58.796 14.0665 58.9068 15.4546C58.9876 16.4753 58.9447 17.4999 58.9337 18.5226C58.9227 19.5453 58.6084 20.4823 57.7882 21.1793C57.1725 21.7031 56.4381 21.9451 55.6518 22.0457C54.8079 22.1646 53.9478 22.0848 53.1403 21.8127C51.7373 21.3297 50.8622 20.1268 50.8453 18.6481C50.8383 18.1502 50.8453 17.6523 50.8453 17.018L50.8413 17.016ZM53.5334 17.0429C53.5334 17.5945 53.5265 18.0387 53.5334 18.4808C53.5484 19.2625 53.9156 19.7126 54.674 19.8082C55.572 19.9227 56.3513 19.609 56.3792 18.5196C56.4022 17.6135 56.3952 16.7063 56.3792 15.7992C56.3663 15.0593 55.9801 14.5873 55.3255 14.4578C55.1291 14.4276 54.9298 14.4213 54.7318 14.4389C54.0862 14.4698 53.6492 14.8791 53.5644 15.5164C53.4935 16.0601 53.5534 16.6067 53.5304 17.0429H53.5334ZM74.5118 17.9222C73.8064 17.9222 73.1019 17.9281 72.3964 17.9222C72.2188 17.9222 72.145 17.9879 72.139 18.1542C72.132 18.3852 72.0691 18.6132 72.1011 18.8512C72.1869 19.4845 72.6529 19.9087 73.3064 19.9605C74.0668 20.0203 74.7713 19.8331 75.4488 19.5104C75.9836 19.2555 76.0904 19.2854 76.4087 19.7912C76.6212 20.1278 76.7979 20.4733 76.6083 20.8866C76.5406 21.0751 76.4094 21.2342 76.2371 21.3367C74.5887 22.1681 72.8953 22.3325 71.203 21.5239C70.1493 21.026 69.5835 20.1019 69.4947 18.9488C69.4074 17.7172 69.4074 16.4811 69.4947 15.2495C69.5835 13.8634 70.5025 12.765 71.8895 12.3697C72.841 12.0886 73.8534 12.0862 74.8062 12.3627C76.1034 12.7401 76.8448 13.6363 77.0593 14.9518C77.191 15.7703 77.1441 16.5988 77.1291 17.4233C77.1222 17.7728 76.9296 17.9261 76.5674 17.9271H74.5118V17.9222ZM73.4342 16.3916C73.8233 16.3916 74.2135 16.3916 74.6026 16.3916C74.7304 16.3916 74.7922 16.3498 74.7882 16.2144C74.7822 16.0033 74.7942 15.7912 74.7832 15.5811C74.7463 14.8562 74.3462 14.3862 73.6487 14.2965C72.9283 14.2019 72.2388 14.4808 72.113 15.3859C72.0751 15.6578 72.1031 15.9306 72.0911 16.2025C72.0841 16.3458 72.147 16.3936 72.2857 16.3916C72.6688 16.3867 73.051 16.3916 73.4342 16.3916ZM60.4095 17.3466C60.4095 16.0707 60.4095 14.7948 60.4095 13.5188C60.4095 13.0867 60.5512 12.9094 60.9613 12.773C61.9852 12.4199 63.0601 12.2366 64.1434 12.2303C65.1941 12.2303 66.2039 12.4135 67.0371 13.1265C67.7056 13.6991 68.015 14.4549 68.1487 15.3013C68.1855 15.5785 68.2005 15.8582 68.1936 16.1377C68.1936 17.8505 68.1936 19.5632 68.1936 21.2759C68.1936 21.7151 68.0299 21.8824 67.5849 21.8794C67.2506 21.8794 66.9143 21.9092 66.5811 21.8555C66.0253 21.7649 65.6651 21.3576 65.6631 20.796C65.6571 19.3421 65.6631 17.8893 65.6631 16.4355C65.6711 16.1082 65.646 15.7809 65.5882 15.4586C65.4565 14.8203 65.0354 14.4628 64.3848 14.434C63.9951 14.4195 63.6048 14.4425 63.2194 14.5027C63.0198 14.5335 62.9649 14.6212 62.9659 14.8123C62.9706 16.8995 62.9706 18.9873 62.9659 21.0758C62.9659 21.1574 62.9659 21.2401 62.9659 21.3207C62.961 21.4495 62.9063 21.5713 62.8133 21.6606C62.7202 21.75 62.5961 21.7998 62.467 21.7997C61.9402 21.8097 61.4123 21.8107 60.8855 21.7997C60.5861 21.7937 60.4095 21.5916 60.4085 21.2749C60.4085 19.9645 60.4085 18.6544 60.4085 17.3446" fill="#5F259F"/>
<path d="M14.7119 13.7738C14.7119 14.5316 14.7069 15.2884 14.7119 16.0451C14.7212 16.1187 14.7028 16.1931 14.6602 16.2538C14.6176 16.3145 14.5539 16.3573 14.4814 16.3738C13.9941 16.541 13.4769 16.6034 12.9637 16.557C12.0906 16.4743 11.6027 15.9595 11.5288 15.0763C11.461 14.2657 11.5109 13.4541 11.4969 12.6426C11.4909 12.2443 11.4969 11.8519 11.4969 11.4566C11.4969 11.2923 11.5508 11.2256 11.7234 11.2266C12.6404 11.2325 13.5574 11.2345 14.4734 11.2266C14.673 11.2266 14.7149 11.3072 14.7139 11.4835C14.7079 12.2472 14.7139 13.011 14.7139 13.7738" fill="#5F259F"/>
</g>
<defs>
<clipPath id="clip0_2788_2037">
<rect width="95.7672" height="26.336" fill="white" transform="translate(0.0507812 0.426758)"/>
</clipPath>
</defs>
</svg>
