<svg width="34" height="33" viewBox="0 0 34 33" fill="none" xmlns="http://www.w3.org/2000/svg">
<path d="M8.9622 24.686L5.9031 19.8426C5.72186 19.5557 5.625 19.2174 5.625 18.8712V10.9479C5.62519 10.7201 5.5834 10.4945 5.50204 10.2839C5.42068 10.0734 5.30133 9.88212 5.15083 9.72097C5.00032 9.55982 4.8216 9.43198 4.62489 9.34476C4.42817 9.25754 4.21732 9.21265 4.00438 9.21265H3.86533C3.65251 9.21284 3.4418 9.25788 3.24525 9.34519C3.0487 9.4325 2.87014 9.56037 2.71978 9.72149C2.56942 9.88262 2.4502 10.0739 2.36892 10.2843C2.28765 10.4947 2.24591 10.7202 2.24609 10.9479V20.7954C2.24605 21.1474 2.34621 21.4912 2.53323 21.7808L8.05838 30.3342C8.3775 30.7544 11.1293 31.911 14.2461 30.6183C14.2461 30.6183 13.0642 24.1609 12.8556 23.8634C12.647 23.5659 12.4384 21.9296 11.1175 20.8883C10.1573 20.1319 8.93995 19.3353 8.3469 18.9545C8.13684 18.819 7.90027 18.7373 7.65575 18.716C7.41123 18.6947 7.16543 18.7344 6.93764 18.8318C6.59001 18.985 6.23682 19.3004 6.04215 19.9251" fill="white"/>
<path d="M8.9622 24.686L5.9031 19.8426C5.72186 19.5557 5.625 19.2174 5.625 18.8712V10.9479C5.62519 10.7201 5.5834 10.4945 5.50204 10.2839C5.42068 10.0734 5.30133 9.88212 5.15083 9.72097C5.00032 9.55982 4.8216 9.43198 4.62489 9.34476C4.42817 9.25754 4.21732 9.21265 4.00438 9.21265H3.86533C3.65251 9.21284 3.4418 9.25788 3.24525 9.34519C3.0487 9.4325 2.87014 9.56037 2.71978 9.72149C2.56942 9.88262 2.4502 10.0739 2.36892 10.2843C2.28765 10.4947 2.24591 10.7202 2.24609 10.9479V20.7954C2.24605 21.1474 2.34621 21.4912 2.53323 21.7808L8.05838 30.3342C8.3775 30.7544 11.1293 31.911 14.2461 30.6183C14.2461 30.6183 13.0642 24.1609 12.8556 23.8634C12.647 23.5659 12.4384 21.9296 11.1175 20.8883C10.1573 20.1319 8.93995 19.3353 8.3469 18.9545C8.13684 18.819 7.90027 18.7373 7.65575 18.716C7.41123 18.6947 7.16543 18.7344 6.93764 18.8318C6.59001 18.985 6.23682 19.3004 6.04215 19.9251" stroke="#00356D" stroke-width="0.960433" stroke-linecap="round" stroke-linejoin="round"/>
<path d="M23.9703 24.686L27.2843 19.8426C27.4804 19.5556 27.5853 19.2174 27.5856 18.8712V10.9479C27.5854 10.4881 27.7701 10.0471 28.099 9.72171C28.4279 9.39634 28.8742 9.21324 29.3398 9.21265H29.4904C29.7211 9.21265 29.9495 9.25754 30.1626 9.34476C30.3757 9.43198 30.5694 9.55982 30.7324 9.72097C30.8955 9.88212 31.0247 10.0734 31.1129 10.2839C31.201 10.4945 31.2463 10.7201 31.2461 10.9479V20.7954C31.2461 21.1474 31.1376 21.4912 30.935 21.7808L24.9495 30.3342C24.6037 30.7544 21.6234 31.911 18.2461 30.6183C18.2461 30.6183 19.5265 24.1609 19.7525 23.8634C19.9784 23.5659 20.2044 21.9296 21.6354 20.8883C22.6756 20.1319 23.9944 19.3353 24.6369 18.9545C24.8644 18.819 25.1207 18.7373 25.3856 18.716C25.6505 18.6947 25.9168 18.7344 26.1636 18.8318C26.5402 18.985 26.9228 19.3004 27.1337 19.9251" fill="white"/>
<path d="M23.9703 24.686L27.2843 19.8426C27.4804 19.5556 27.5853 19.2174 27.5856 18.8712V10.9479C27.5854 10.4881 27.7701 10.0471 28.099 9.72171C28.4279 9.39634 28.8742 9.21324 29.3398 9.21265H29.4904C29.7211 9.21265 29.9495 9.25754 30.1626 9.34476C30.3757 9.43198 30.5694 9.55982 30.7324 9.72097C30.8955 9.88212 31.0247 10.0734 31.1129 10.2839C31.201 10.4945 31.2463 10.7201 31.2461 10.9479V20.7954C31.2461 21.1474 31.1376 21.4912 30.935 21.7808L24.9495 30.3342C24.6037 30.7544 21.6234 31.911 18.2461 30.6183C18.2461 30.6183 19.5265 24.1609 19.7525 23.8634C19.9784 23.5659 20.2044 21.9296 21.6354 20.8883C22.6756 20.1319 23.9944 19.3353 24.6369 18.9545C24.8644 18.819 25.1207 18.7373 25.3856 18.716C25.6505 18.6947 25.9168 18.7344 26.1636 18.8318C26.5402 18.985 26.9228 19.3004 27.1337 19.9251" stroke="#00356D" stroke-width="0.960433" stroke-linecap="round" stroke-linejoin="round"/>
<path d="M11.8622 11.1125C11.8897 11.4196 11.8619 11.7291 11.7803 12.0263" stroke="black" stroke-width="1.12051" stroke-miterlimit="10"/>
<path d="M8.44689 16.0961C8.44689 15.9257 8.44115 15.7544 8.44689 15.5839" stroke="black" stroke-width="1.12051" stroke-miterlimit="10"/>
<path d="M15.5907 12.8621C15.5276 12.9285 15.4686 12.9891 15.4121 13.0432C14.8909 13.5513 14.6222 13.5972 14.3288 13.6817C13.965 13.7857 12.3622 13.6554 11.8829 15.5838H8.44141C8.45534 14.1824 8.74295 12.3286 10.9234 12.6736C10.9234 12.6736 11.5445 12.7777 11.7796 12.0246C12.0055 12.1094 12.2447 12.153 12.486 12.1532C12.8677 12.1519 13.2416 12.0447 13.5659 11.8434C14.0314 12.3688 14.5074 12.672 15.2867 12.8154C15.3826 12.8334 15.4833 12.849 15.5907 12.8621Z" fill="#9DCCFD" stroke="#00356D" stroke-width="1.12051" stroke-linecap="round" stroke-linejoin="round"/>
<path d="M16.69 12.9152C16.3226 12.9183 15.9555 12.8997 15.5903 12.8595" stroke="#00356D" stroke-width="1.12051" stroke-miterlimit="10"/>
<path d="M13.5657 11.8434C13.4272 11.6885 13.2904 11.5156 13.147 11.3197" stroke="black" stroke-width="1.12051" stroke-miterlimit="10"/>
<path d="M16.8284 11.3197C16.4468 11.858 16.0334 12.3731 15.5903 12.8621" stroke="black" stroke-width="1.12051" stroke-miterlimit="10"/>
<path d="M18.0203 12.2745C17.8773 11.9779 17.8254 11.6457 17.8711 11.3197" stroke="black" stroke-width="1.12051" stroke-miterlimit="10"/>
<path d="M22.2466 18.3004H11.8697C11.6886 17.1072 11.7222 16.2295 11.8828 15.5837C12.3614 13.6553 13.9649 13.7856 14.3288 13.6816C14.6221 13.5996 14.8909 13.5513 15.412 13.0432L17.4171 16.6679L18.7691 13.0841C19.5533 13.6078 20.5611 13.7504 20.5611 13.7504C21.5813 14.0848 22.0778 14.7945 22.2974 15.5534C22.6744 16.8491 22.2466 18.3004 22.2466 18.3004Z" fill="#2258AE" stroke="#00356D" stroke-width="1.12051" stroke-linecap="round" stroke-linejoin="round"/>
<path d="M19.0163 12.4312L18.7705 13.0844" stroke="black" stroke-width="1.12051" stroke-miterlimit="10"/>
<path d="M15.4122 13.0432L15.286 12.8154L14.9189 12.1532" stroke="#00356D" stroke-width="1.12051" stroke-miterlimit="10"/>
<path d="M18.7666 11.8834C18.719 11.8064 18.6732 11.7195 18.6289 11.631" stroke="black" stroke-width="1.12051" stroke-miterlimit="10"/>
<path d="M22.2816 11.2008C21.9906 11.546 21.6606 11.8565 21.2983 12.1261" stroke="black" stroke-width="1.12051" stroke-miterlimit="10"/>
<path d="M25.58 15.4181L22.3024 15.5549C22.0828 14.7944 21.5862 14.0847 20.566 13.752C20.566 13.752 19.5582 13.6094 18.774 13.0857C18.4566 12.887 18.1976 12.6076 18.0234 12.276C18.2897 12.1821 18.5411 12.0504 18.7699 11.8851C19.4975 13.0758 20.5406 12.6833 21.3019 12.1309C21.4085 12.1491 21.5165 12.1581 21.6247 12.158C21.9168 12.1574 22.2052 12.0936 22.4703 11.9711C22.5318 12.2268 22.8571 12.7907 24.5074 12.9226C24.5041 12.9152 25.6496 13.1947 25.58 15.4181Z" fill="#9DCCFD" stroke="#00356D" stroke-width="1.12051" stroke-linecap="round" stroke-linejoin="round"/>
<path d="M22.4672 11.9663C22.4555 11.925 22.4508 11.8821 22.4533 11.8393" stroke="black" stroke-width="1.12051" stroke-miterlimit="10"/>
<path d="M14.7451 3.7825L13.9634 3.00067" stroke="#00356D" stroke-width="1.12051" stroke-miterlimit="10" stroke-linecap="round"/>
<path d="M17.1064 3.00069V1.94104" stroke="#00356D" stroke-width="1.12051" stroke-miterlimit="10" stroke-linecap="round"/>
<path d="M19.3984 3.78272L20.1679 3.01318" stroke="#00356D" stroke-width="1.12051" stroke-miterlimit="10" stroke-linecap="round"/>
<path d="M20.1548 18.2481V16.4254" stroke="#00356D" stroke-width="1.12051" stroke-miterlimit="10" stroke-linecap="round"/>
<path d="M8.44317 15.5839H7.97119" stroke="#00356D" stroke-width="1.12051" stroke-miterlimit="10"/>
<path d="M13.8794 18.2546C13.8794 17.6449 13.8794 17.0351 13.8794 16.4254" stroke="#00356D" stroke-width="1.12051" stroke-miterlimit="10" stroke-linecap="round"/>
<path d="M24.0878 9.03304C23.9837 9.01829 23.883 9.00272 23.783 8.98715L23.6339 8.9642L23.3438 8.91749C22.4105 8.76588 21.6362 8.61263 20.9946 8.46183C20.947 8.45118 20.8995 8.44052 20.8544 8.42823C20.7946 8.4143 20.7348 8.40037 20.6774 8.38562L20.4988 8.34054L20.3276 8.29547L20.2161 8.26433L20.1342 8.24138L20.0391 8.21351L19.9072 8.175C19.6887 8.10834 19.491 8.04387 19.314 7.98159C19.663 6.80802 20.5668 5.97046 21.6255 5.97046C22.9759 5.97046 24.0755 7.34235 24.0878 9.03304Z" fill="#00356D" stroke="#00356D" stroke-width="1.12051" stroke-linecap="round" stroke-linejoin="round"/>
<path d="M14.8269 8.08403C13.1291 8.83882 11.2428 8.85439 10.0342 8.75276C10.1571 7.19074 11.2092 5.97046 12.4875 5.97046C13.5773 5.97046 14.5016 6.85555 14.8269 8.08403Z" fill="#00356D" stroke="#00356D" stroke-width="1.12051" stroke-linecap="round" stroke-linejoin="round"/>
<path d="M14.9662 9.06341C14.971 9.68895 14.8143 10.3052 14.5114 10.8524C14.2893 11.2572 13.9682 11.5989 13.5781 11.8457C13.2542 12.0456 12.8812 12.152 12.5006 12.153C12.2593 12.1528 12.0201 12.1092 11.7943 12.0244C10.7798 11.6433 10.0342 10.4607 10.0342 9.06341C10.0342 8.95933 10.0342 8.85689 10.0465 8.75527C11.0298 8.83722 12.4719 8.84296 13.8911 8.42745C14.1107 8.36353 14.3303 8.28977 14.5466 8.20454C14.645 8.16684 14.7416 8.12259 14.8383 8.08325C14.8555 8.14718 14.8711 8.21274 14.885 8.27912C14.9392 8.53702 14.9664 8.79987 14.9662 9.06341Z" fill="#FFCDAC" stroke="#00356D" stroke-width="1.12051" stroke-linecap="round" stroke-linejoin="round"/>
<path d="M24.0876 9.08481V9.11267C24.0876 10.4469 23.4116 11.5844 22.4668 12.0179C22.2015 12.1398 21.9131 12.2032 21.6212 12.2039C21.513 12.204 21.4051 12.1952 21.2983 12.1777C20.6322 12.0687 20.0496 11.6254 19.6595 10.9869C19.3229 10.4202 19.148 9.7719 19.154 9.11267C19.1532 8.74704 19.2054 8.38322 19.3088 8.03253C19.3787 8.05821 19.4525 8.08362 19.5301 8.10875L19.6481 8.14809C19.73 8.17349 19.8119 8.19972 19.9021 8.23004C19.9455 8.24315 19.9889 8.25626 20.034 8.26856L20.1307 8.29642L20.2126 8.32019L20.3241 8.35051L20.4953 8.39558L20.6739 8.44066L20.8509 8.48409C20.896 8.49557 20.9435 8.50622 20.9911 8.51687C21.6326 8.66767 22.407 8.82092 23.3403 8.97253C23.4353 8.98892 23.532 9.00449 23.6303 9.01925L23.7795 9.04219L24.0876 9.08481Z" fill="#FFCDAC" stroke="#00356D" stroke-width="1.12051" stroke-linecap="round" stroke-linejoin="round"/>
<path d="M20.3364 8.57604C20.3431 9.4115 20.1084 10.2311 19.6604 10.9363C19.424 11.305 19.1208 11.6263 18.7664 11.8837C18.5376 12.049 18.2862 12.1807 18.02 12.2746C17.7266 12.3785 17.4176 12.4314 17.1063 12.4311C16.0354 12.4311 15.0857 11.8091 14.499 10.8502C14.0864 10.1639 13.8712 9.37691 13.8771 8.57604C13.8771 8.52687 13.8771 8.4777 13.8771 8.42852C13.882 8.28265 13.8935 8.13841 13.9123 7.99663C13.9451 8.01056 13.9787 8.02368 14.0123 8.03597L14.1114 8.07285C14.142 8.08432 14.1723 8.09497 14.2024 8.10481C14.2622 8.1253 14.322 8.14415 14.381 8.16218L14.458 8.1843C14.4802 8.19168 14.5031 8.19742 14.5244 8.20315C14.5965 8.222 14.667 8.23921 14.7366 8.25396L14.7882 8.26462L14.8702 8.28019C14.9308 8.29084 14.9923 8.29986 15.0529 8.30641C15.1135 8.31297 15.1734 8.31953 15.2332 8.3228L15.3217 8.3269C16.1927 8.35395 16.9924 7.99171 17.8676 7.11646C17.8676 7.11646 17.9216 7.48934 19.3064 7.98188C19.3763 8.00756 19.4501 8.03296 19.5277 8.0581L19.6457 8.09661C19.8481 8.16136 20.0734 8.22856 20.3241 8.29576C20.334 8.38837 20.3364 8.48097 20.3364 8.57604Z" fill="#FFCDAC" stroke="#00356D" stroke-width="1.12051" stroke-miterlimit="10"/>
<path d="M20.3275 8.29576C20.0768 8.22856 19.8514 8.16135 19.649 8.09661L19.531 8.05809C19.4529 8.03242 19.3792 8.00701 19.3098 7.98188C17.925 7.49016 17.8709 7.11645 17.8709 7.11645C16.9958 7.99171 16.1961 8.35394 15.3251 8.32608H15.2366C15.1767 8.32608 15.1169 8.31707 15.0563 8.30969C14.9957 8.30231 14.9342 8.29412 14.8736 8.28346L14.7916 8.26789L14.74 8.25724C14.6704 8.24249 14.5999 8.22528 14.5278 8.20643C14.5057 8.20069 14.4835 8.19495 14.4614 8.18758L14.3852 8.16217C14.3262 8.14414 14.2664 8.1253 14.2066 8.10481C14.1763 8.09415 14.1451 8.08432 14.1156 8.07285L14.0165 8.03597C13.9829 8.02367 13.9493 8.01056 13.9165 7.99663C14.1492 6.14203 15.4898 4.71851 17.1122 4.71851C18.81 4.72014 20.2079 6.2961 20.3275 8.29576Z" fill="#00356D" stroke="#00356D" stroke-width="1.12051" stroke-linecap="round" stroke-linejoin="round"/>
</svg>
