<svg width="28" height="26" viewBox="0 0 28 26" fill="none" xmlns="http://www.w3.org/2000/svg">
<path d="M26.6734 7.17592C27.0268 7.17592 27.0268 7.1803 26.8973 7.53485C26.2705 9.25405 26.2697 10.9724 26.9037 12.6898C27.0388 13.0566 27.042 13.0566 26.6622 13.0566C23.206 13.0566 19.7497 13.0566 16.2934 13.0566C12.8771 13.0566 9.46086 13.0558 6.04457 13.0575C5.64402 13.0575 5.26825 12.9777 4.95884 12.6749C4.69341 12.416 4.52791 12.0948 4.52631 11.699C4.52071 10.6354 4.50952 9.57174 4.52951 8.50898C4.5431 7.76654 5.09396 7.19435 5.77354 7.18031C6.40275 7.16714 7.03276 7.1882 7.66117 7.17065C7.94579 7.16275 8.05133 7.26719 8.04653 7.58575C8.03374 8.55022 8.03534 9.51557 8.04573 10.48C8.05293 11.1251 8.37513 11.5384 8.88841 11.6113C9.09548 11.6402 9.28417 11.5779 9.46725 11.4858C9.83023 11.3023 10.1948 11.1233 10.553 10.9285C10.7201 10.8372 10.8672 10.8346 11.0351 10.9259C11.3925 11.1207 11.7554 11.3041 12.12 11.4831C12.8755 11.8544 13.5239 11.3927 13.5279 10.4809C13.5319 9.51645 13.5391 8.5511 13.5239 7.58663C13.5191 7.26631 13.6207 7.17153 13.9061 7.17241C18.1627 7.17767 22.4176 7.17504 26.6734 7.17592ZM2.5963 6.89741C1.49458 6.9097 0.96451 6.12952 0.999689 5.13257C1.02847 4.31115 1.00289 3.48797 1.00609 2.66567C1.01088 1.6108 1.55614 1.00263 2.51155 1.00176C9.41529 0.999122 16.3198 1 23.2235 1.00088C23.5505 1.00088 23.5481 1.00263 23.4218 1.3484C22.787 3.07638 22.783 4.80611 23.4138 6.53584C23.5402 6.88337 23.5457 6.88424 23.1884 6.88424C19.7113 6.88512 16.2343 6.88424 12.7572 6.88424C9.37052 6.88424 5.98301 6.86143 2.5963 6.89741ZM2.51955 19.1178C2.115 19.1186 1.74723 19.0423 1.44182 18.7255C1.1388 18.4113 1.01408 18.0146 1.01088 17.5714C1.00369 16.65 0.999689 15.7285 1.01088 14.8079C1.02287 13.8513 1.57293 13.2361 2.4444 13.2353C6.66099 13.2274 10.8776 13.2335 15.0942 13.2274C15.3508 13.2274 15.4188 13.3423 15.4172 13.6021C15.4084 14.578 15.4116 15.5547 15.4148 16.5306C15.418 17.4907 16.0584 17.9444 16.8515 17.5495C17.2065 17.3731 17.5606 17.1941 17.91 17.0054C18.0771 16.915 18.2258 16.9176 18.3937 17.0098C18.7423 17.2002 19.0965 17.3792 19.4523 17.5539C20.2254 17.9339 20.881 17.4898 20.897 16.5561C20.9138 15.5916 20.901 14.6254 20.9034 13.6609C20.9042 13.2493 20.9202 13.2326 21.2935 13.2318C21.9331 13.23 22.5728 13.23 23.2124 13.2318C23.5545 13.2326 23.5529 13.2335 23.4306 13.567C22.7854 15.3169 22.7782 17.0695 23.4426 18.8132C23.5529 19.1037 23.4498 19.1204 23.2347 19.1186C22.3657 19.1125 21.4958 19.116 20.6268 19.116C17.9988 19.116 15.3708 19.116 12.7428 19.116C9.33454 19.1142 5.92704 19.1116 2.51955 19.1178ZM26.6806 24.9967C19.8065 24.9967 12.9323 24.9923 6.05816 25.002C5.20429 25.0028 4.48553 24.4385 4.52631 23.3398C4.55989 22.442 4.52791 21.5416 4.5351 20.6421C4.5431 19.6759 5.06038 19.116 5.94223 19.116C9.3889 19.1142 12.8364 19.1151 16.283 19.1151C19.7297 19.1151 23.1772 19.1151 26.6238 19.1151C27.0428 19.1151 27.038 19.1142 26.8901 19.5311C26.2904 21.2213 26.2912 22.9107 26.9053 24.5965C27.0524 24.9967 27.0564 24.9967 26.6806 24.9967Z" stroke="#30333F" stroke-width="1.02866" stroke-miterlimit="10"/>
<rect x="2.33008" y="2.37109" width="10" height="3.42885" rx="0.342885" fill="#FF9975"/>
<rect x="6.33008" y="20.2012" width="5.33333" height="3.42885" rx="0.342885" fill="#FF9975"/>
</svg>
