<svg width="162" height="162" viewBox="0 0 162 162" fill="none" xmlns="http://www.w3.org/2000/svg">
<path d="M50.625 135H128.25L148.5 155.25V84.375C148.5 76.95 142.425 70.875 135 70.875H50.625C43.2 70.875 37.125 76.95 37.125 84.375V121.5C37.125 128.925 43.2 135 50.625 135Z" fill="#003163"/>
<path d="M97.1992 110.7H85.0492L82.6867 117.788H75.2617L87.7492 84.0376H94.1617L106.649 117.788H99.2242L97.1992 110.7ZM86.7367 105.3H95.1742L91.1242 92.4751L86.7367 105.3Z" fill="#7EBBFA"/>
<path d="M111.375 84.375H33.75L13.5 104.625V27C13.5 19.575 19.575 13.5 27 13.5H111.375C118.8 13.5 124.875 19.575 124.875 27V70.875C124.875 78.3 118.8 84.375 111.375 84.375Z" fill="#0078F4"/>
<path d="M85.7234 47.9251C85.7234 51.3001 85.0484 54.0001 84.0359 56.3626C83.0234 58.7251 81.6734 60.7501 79.6484 62.1001L85.3859 66.4876L80.9984 70.5376L73.5734 64.8001C72.8984 64.8001 71.8859 65.1376 70.8734 65.1376C68.8484 65.1376 66.8234 64.8001 64.7984 64.1251C63.1109 63.4501 61.4234 62.1001 60.0734 60.7501C58.7234 59.4001 57.7109 57.3751 57.0359 55.3501C56.3609 53.3251 56.0234 50.9626 56.0234 48.2626V46.9126C56.0234 44.2126 56.3609 41.8501 57.0359 39.8251C57.7109 37.8001 58.7234 35.7751 60.0734 34.4251C61.4234 33.0751 62.7734 31.7251 64.7984 31.0501C66.4859 30.3751 68.5109 30.0376 70.8734 30.0376C72.8984 30.0376 74.9234 30.3751 76.9484 31.0501C78.6359 31.7251 80.3234 33.0751 81.6734 34.4251C83.0234 35.7751 84.0359 37.8001 84.7109 39.8251C85.3859 41.8501 85.7234 44.2126 85.7234 46.9126V47.9251ZM78.2984 46.2376C78.2984 42.5251 77.6234 39.8251 76.2734 38.1376C74.9234 36.1126 73.2359 35.4376 70.8734 35.4376C68.5109 35.4376 66.4859 36.4501 65.4734 38.1376C64.1234 40.1626 63.4484 42.8626 63.4484 46.2376V47.9251C63.4484 49.6126 63.7859 51.3001 64.1234 52.6501C64.4609 54.0001 64.7984 55.3501 65.4734 56.0251C66.1484 57.0376 66.8234 57.7126 67.8359 58.0501C68.8484 58.3876 69.8609 58.7251 70.8734 58.7251C73.2359 58.7251 75.2609 57.7126 76.2734 56.0251C77.6234 54.0001 78.2984 51.3001 78.2984 47.5876V46.2376Z" fill="white"/>
</svg>
