<svg width="38" height="36" viewBox="0 0 38 36" fill="none" xmlns="http://www.w3.org/2000/svg">
<g clip-path="url(#clip0_3267_2001)">
<path d="M19.0293 36C29.2466 36 37.5293 27.9411 37.5293 18C37.5293 8.05887 29.2466 0 19.0293 0C8.81203 0 0.529297 8.05887 0.529297 18C0.529297 27.9411 8.81203 36 19.0293 36Z" fill="#B0271E"/>
<path d="M24.1078 10.2687C23.697 10.2491 22.9288 9.79631 22.518 9.63642C20.2756 8.90917 17.784 8.18186 15.6661 8.90917C9.81088 10.7274 12.427 17.394 12.0534 21.8789C12.0534 22.3536 11.8842 22.7541 11.7324 23.2348L24.1365 35.3051C30.3377 33.5759 35.2043 28.7765 36.8898 22.7058L24.1078 10.2687Z" fill="#961411"/>
<path d="M27.5805 23.8663C27.5805 23.8663 27.4768 25.3455 26.0948 25.3455C25.0275 25.3455 24.2987 24.5534 23.616 23.5249C25.5546 21.8785 26.7857 19.4198 26.7857 16.6724C26.7857 11.7153 22.7794 7.69678 17.8372 7.69678C12.895 7.69678 8.88867 11.7153 8.88867 16.6724C8.88867 21.6294 12.895 25.648 17.8372 25.648C18.7341 25.648 19.5999 25.5151 20.4168 25.2688C21.4504 26.8664 22.7624 28.3028 24.8164 28.3028C28.9969 28.3028 29.1697 23.8663 29.1697 23.8663H27.5805ZM17.8373 24.1689C14.9559 24.1689 12.6201 20.8125 12.6201 16.6724C12.6201 12.5322 14.9559 9.17587 17.8373 9.17587C20.7186 9.17587 23.0544 12.5322 23.0544 16.6724C23.0544 18.3187 22.6848 19.8407 22.0586 21.0775C21.3513 20.0949 20.5023 19.2583 19.2884 18.9919C17.135 18.5194 15.2806 19.4626 14.6932 19.9333L15.246 21.0426C15.246 21.0426 15.8048 20.73 17.1905 21.0422C18.0635 21.239 18.7421 22.4179 19.5196 23.7705C18.9918 24.0287 18.4259 24.1689 17.8373 24.1689Z" fill="white"/>
<path d="M27.5817 23.8663C27.5817 23.8663 27.4781 25.3455 26.096 25.3455C25.0287 25.3455 24.2999 24.5534 23.6173 23.5249C25.5559 21.8785 26.7869 19.4198 26.7869 16.6724C26.7869 11.7153 22.7806 7.69678 17.8384 7.69678C17.8343 7.69678 17.8303 7.69699 17.8262 7.69713V9.17643C17.8303 9.17643 17.8343 9.17594 17.8384 9.17594C20.7198 9.17594 23.0555 12.5323 23.0555 16.6724C23.0555 18.3187 22.6859 19.8408 22.0598 21.0775C21.3524 20.095 20.5034 19.2584 19.2895 18.992C18.7808 18.8803 18.289 18.8485 17.8262 18.8701V21.3715C18.417 21.852 18.9414 22.7628 19.5209 23.7706C18.993 24.0289 18.4272 24.1691 17.8385 24.1691C17.8344 24.1691 17.8304 24.1686 17.8263 24.1686V25.6479C17.8304 25.6479 17.8344 25.6483 17.8385 25.6483C18.7355 25.6483 19.6012 25.5153 20.4182 25.269C21.4517 26.8666 22.7638 28.303 24.8177 28.303C28.9982 28.303 29.171 23.8665 29.171 23.8665H27.5817V23.8663V23.8663Z" fill="#D1D1D1"/>
</g>
<defs>
<clipPath id="clip0_3267_2001">
<rect width="37" height="36" fill="white" transform="translate(0.529297)"/>
</clipPath>
</defs>
</svg>
