<svg width="57" height="13" viewBox="0 0 57 13" fill="none" xmlns="http://www.w3.org/2000/svg">
<path d="M5.19263 4.38368L3.68506 10.0829H0.00195312L0.748779 7.27912L5.19263 4.38368Z" fill="#072654"/>
<path d="M13.0309 2.3267C13.8937 2.33128 14.5013 2.51912 14.8446 2.89937C15.1879 3.27963 15.2714 3.82023 15.0812 4.53035C14.9559 5.01597 14.7008 5.46037 14.3436 5.81314C13.9725 6.17965 13.5179 6.44537 13.0123 6.58281C13.3973 6.66985 13.6339 6.94016 13.7081 7.40287L13.722 7.50367L14.0004 9.83559H12.2841L11.9965 7.32499C11.9918 7.24253 11.9686 7.16006 11.9269 7.08676C11.8851 7.01346 11.8248 6.9539 11.7552 6.90809C11.6114 6.83478 11.4537 6.79813 11.2914 6.79355H10.1363L9.32922 9.83101H7.72424L9.71887 2.3267H13.0309ZM57.0009 4.29212L54.9598 7.19671L52.5524 10.6419L52.5338 10.6602L51.9957 11.4299L51.9772 11.4574L51.954 11.4941L51.4901 12.1538H49.8944L51.7592 9.55613L50.9149 4.47537H52.5709L52.9884 7.78771L55.0109 4.95184L55.0387 4.9106L55.0712 4.86479L55.1036 4.82356L55.3541 4.2967H57.0009V4.29212ZM42.8622 4.69528C43.1683 4.95183 43.3678 5.3046 43.4374 5.6986C43.5209 6.18881 43.4838 6.69734 43.34 7.17381C43.2054 7.70067 42.9781 8.19546 42.6627 8.63527C42.3751 9.03843 42.004 9.37287 41.5726 9.6111C41.1644 9.83101 40.7145 9.94554 40.2506 9.94554C39.9213 9.95929 39.5966 9.87682 39.3136 9.71189C39.0956 9.58362 38.9286 9.38661 38.8358 9.15296L38.808 9.06134L37.9869 12.1538H36.3959L38.024 6.01472L38.0333 5.98723L38.038 5.95974L38.4369 4.47079H39.9908L39.7264 5.33209L39.7218 5.36874C39.9491 5.04804 40.2552 4.78691 40.6078 4.61739C40.9603 4.43414 41.35 4.34251 41.7443 4.34251C42.1385 4.3196 42.5375 4.44788 42.8622 4.69528ZM40.9418 5.54741C40.7562 5.54283 40.5707 5.57948 40.3944 5.64821C40.2228 5.71693 40.0651 5.8223 39.9305 5.95058C39.6151 6.27127 39.3971 6.67902 39.2997 7.11425C39.1605 7.62278 39.1698 8.00762 39.309 8.27334C39.4481 8.53906 39.7125 8.6765 40.1068 8.6765C40.4825 8.68566 40.8444 8.54364 41.118 8.2825C41.4242 7.96639 41.6376 7.57239 41.735 7.14174C41.8695 6.64237 41.8602 6.24379 41.7211 5.96432C41.5819 5.68486 41.3221 5.54741 40.9418 5.54741ZM48.0853 4.57616C48.2987 4.70902 48.4657 4.90602 48.5585 5.13967L48.5909 5.22672L48.795 4.46621H50.3536L48.9249 9.82643H47.3617L47.5704 9.03385C47.3339 9.31331 47.037 9.53322 46.703 9.6844C46.3783 9.83101 46.0304 9.90889 45.6779 9.90889C45.2696 9.92722 44.8614 9.81268 44.5275 9.56987C44.2213 9.33164 44.0172 8.98345 43.9523 8.6032C43.8688 8.11757 43.8966 7.62278 44.0404 7.1509C44.1796 6.62404 44.4115 6.12467 44.7316 5.68027C45.0238 5.27253 45.3995 4.92893 45.8356 4.68153C46.2345 4.45246 46.6891 4.32877 47.1483 4.32877C47.4823 4.3196 47.807 4.40207 48.0853 4.57616ZM47.2782 5.56116C47.088 5.56116 46.8978 5.59781 46.7262 5.67111C46.5499 5.74441 46.3922 5.84979 46.2577 5.98265C45.9469 6.30792 45.7242 6.71109 45.6268 7.1509C45.4969 7.64569 45.4969 8.02136 45.6454 8.29166C45.7892 8.56197 46.0582 8.69024 46.4571 8.69024C46.6427 8.69483 46.8282 8.65817 47.0045 8.58945C47.1808 8.52073 47.3339 8.41536 47.4684 8.28708C47.7421 7.99846 47.9415 7.65485 48.0529 7.27001L48.09 7.12799C48.2291 6.61946 48.2245 6.23004 48.076 5.9689C47.9322 5.6986 47.6678 5.56116 47.2782 5.56116ZM37.6344 4.41123L37.7364 4.45246L37.3375 5.91393C37.1102 5.79481 36.8597 5.73525 36.6092 5.73525C36.2289 5.72151 35.8578 5.8452 35.5563 6.07886C35.2965 6.29876 35.1063 6.59197 35.0089 6.91267L34.9764 7.03636L34.2342 9.83559H32.6478L34.0858 4.47537H35.649L35.4449 5.26337C35.6398 4.99765 35.8903 4.78232 36.1732 4.62198C36.4886 4.4433 36.8412 4.35167 37.203 4.35167C37.3468 4.34251 37.4952 4.36084 37.6344 4.41123ZM31.7758 4.66779C32.1283 4.8877 32.3834 5.23588 32.4808 5.63904C32.5968 6.12467 32.5782 6.63778 32.4298 7.11425C32.2906 7.65485 32.0448 8.1588 31.6969 8.58945C31.3676 9.00636 30.9501 9.33622 30.4723 9.56071C29.9852 9.7852 29.4564 9.89973 28.9183 9.89515C28.3524 9.89515 27.8885 9.7852 27.5267 9.56071C27.1696 9.3408 26.9144 8.99262 26.8124 8.58945C26.701 8.10383 26.7196 7.59071 26.8634 7.11425C27.0026 6.57823 27.2484 6.07427 27.5963 5.63904C27.9257 5.22672 28.3478 4.89228 28.8302 4.66779C29.3219 4.4433 29.86 4.32419 30.4027 4.33335C30.8805 4.31044 31.3583 4.42956 31.7758 4.66779ZM30.078 5.54283C29.7023 5.53825 29.3405 5.68027 29.0668 5.93683C28.7838 6.20255 28.5704 6.59197 28.4359 7.11425C28.1576 8.16339 28.4266 8.68566 29.243 8.68566C29.6141 8.69483 29.9713 8.5528 30.2404 8.29625C30.5187 8.03511 30.7228 7.64111 30.8619 7.11425C31.0011 6.59655 31.0057 6.20713 30.8666 5.93683C30.7321 5.66653 30.4676 5.54283 30.078 5.54283ZM26.8541 4.47079L26.5758 5.53367L23.0736 8.58945H25.8846L25.5507 9.84017H20.8981L21.1903 8.73606L24.6368 5.72609H22.016L22.35 4.47537H26.8541V4.47079ZM19.0009 4.57616C19.2142 4.70902 19.3812 4.90602 19.474 5.13967L19.5065 5.22672L19.7106 4.46621H21.2738L19.8497 9.82643H18.2865L18.4952 9.03385C18.2587 9.30873 17.9664 9.52864 17.6371 9.67982C17.3077 9.83101 16.9506 9.90889 16.5841 9.90889C16.1759 9.92722 15.777 9.8081 15.4476 9.56987C15.1415 9.33164 14.9374 8.98345 14.8724 8.6032C14.7889 8.11757 14.8168 7.62278 14.9606 7.1509C15.0951 6.62404 15.3317 6.12467 15.6517 5.68027C15.944 5.27253 16.3197 4.92893 16.7511 4.68153C17.15 4.45246 17.6046 4.33335 18.0638 4.33335C18.3978 4.32419 18.7225 4.40665 19.0009 4.57616ZM18.1984 5.56116C18.0082 5.56116 17.8226 5.59781 17.6464 5.67111C17.4701 5.74441 17.3124 5.84979 17.1779 5.98265C16.8624 6.30792 16.6444 6.71109 16.547 7.1509C16.4171 7.64569 16.4217 8.02136 16.5655 8.29166C16.7093 8.56197 16.9784 8.69024 17.3773 8.69024C17.5629 8.69483 17.7484 8.65817 17.9247 8.58945C18.0963 8.52073 18.2587 8.41536 18.3885 8.28708C18.6622 8.00304 18.8663 7.65485 18.973 7.27001L19.0101 7.12799C19.1447 6.61946 19.1307 6.2392 18.9962 5.9689C18.8524 5.6986 18.5834 5.56116 18.1984 5.56116ZM12.4557 3.57742H10.9667L10.4425 5.53825H11.9315C12.4 5.53825 12.7711 5.46037 13.0216 5.30002C13.286 5.13051 13.4762 4.86479 13.5458 4.55325C13.6385 4.22339 13.5968 3.97142 13.4205 3.81107C13.2443 3.65988 12.9242 3.57742 12.4557 3.57742Z" fill="#072654"/>
<path d="M8.53807 -0.000488281L5.92186 9.83574H4.12669L5.89403 3.17441L3.18504 4.93824L3.66746 3.18357L8.53807 -0.000488281Z" fill="#3395FF"/>
</svg>
