<svg width="57" height="35" viewBox="0 0 57 35" fill="none" xmlns="http://www.w3.org/2000/svg">
<g clip-path="url(#clip0_2788_2045)">
<path fill-rule="evenodd" clip-rule="evenodd" d="M36.5178 14.8213H38.7362V18.3533L40.6552 14.8213H42.6911L38.5864 21.9619C38.5864 21.9619 38.2054 22.5608 37.7328 22.8776C37.3446 23.1382 36.8671 23.1264 36.7212 23.137C35.9104 23.1299 34.9324 23.1277 34.9324 23.1277L35.4042 21.4256L36.1676 21.4242C36.1676 21.4242 36.517 21.3885 36.652 21.2159C36.7805 21.0513 36.8462 20.8868 36.8462 20.6454C36.8462 20.2836 36.5178 14.8212 36.5178 14.8212V14.8213ZM13.4671 15.5267C13.1584 16.2435 12.201 16.162 12.201 16.162L11.0864 16.1568L11.4933 14.6387C11.4933 14.6387 12.4905 14.6424 12.9795 14.6424C13.5031 14.6424 13.6666 15.0639 13.4673 15.5265L13.4671 15.5267ZM16.0004 14.4922C16.1902 12.9859 14.8675 12.6056 13.4374 12.6056H9.6793L7.46094 20.7079H9.84889L10.5944 17.957L11.934 17.9679C11.934 17.9679 12.4868 17.9357 12.4977 18.456C12.5093 19.011 12.0873 20.03 12.1145 20.7079H14.5676L14.5623 20.4922C14.5623 20.4922 14.3584 20.4379 14.3811 20.1509C14.3905 20.0315 14.5221 19.6535 14.6944 19.1439C14.7982 18.9192 14.9549 18.3861 14.9404 17.9521C14.9224 17.4102 14.5831 17.1588 14.0938 16.9829C15.6189 16.6245 16.0001 14.4924 16.0003 14.4924L16.0004 14.4922ZM16.5423 14.8213H18.7203L17.8233 18.2797C17.8233 18.2797 17.5996 19.0509 18.3195 19.1104C18.8882 19.1575 19.3114 18.4774 19.4501 18.0168C19.6323 17.4118 20.3402 14.8212 20.3402 14.8212H22.5841L20.8767 20.7077H18.9175L19.1582 19.8668C19.1582 19.8668 18.1586 21.0882 16.6736 20.9417C15.3535 20.8118 15.2398 19.8523 15.4685 18.6553C15.5808 18.0676 16.5423 14.8213 16.5423 14.8213ZM27.7286 15.5452C27.4178 16.414 26.5615 16.3116 26.5615 16.3116L25.3924 16.3119L25.8539 14.5906C25.8539 14.5906 26.5939 14.5944 27.0827 14.5944C27.681 14.5944 27.8982 15.0708 27.7286 15.5451V15.5452ZM30.1839 14.7408C30.3738 13.2344 29.2281 12.6055 27.7978 12.6055H24.0399L21.8217 20.7077H24.2097L24.8811 18.2098L26.7837 18.2214C26.7837 18.2214 29.73 18.3464 30.1841 14.7408H30.1839ZM32.1915 19.5085C31.8184 19.6034 31.366 19.6549 31.2762 19.3152C31.0298 18.3843 33.2047 18.1117 33.2047 18.1117C33.2194 18.96 32.4777 19.4354 32.1914 19.5085H32.1915ZM35.4815 17.8047C35.7684 16.8255 36.1311 15.8983 35.8392 15.3844C35.3921 14.5978 34.584 14.5288 33.4018 14.5288C32.0957 14.5288 30.4833 14.7774 29.9577 16.5179H32.132C32.132 16.5179 32.3302 15.8624 33.1463 15.9036C33.8687 15.9402 33.8292 16.4382 33.563 16.7136C33.0961 17.1962 31.8066 16.9285 30.3785 17.4251C29.1308 17.8589 28.6941 19.5031 28.9652 20.1593C29.2279 20.7957 29.7172 20.8767 30.3772 20.9417C31.4372 21.0461 32.25 20.4538 32.6283 20.1061C32.6283 20.4922 32.6384 20.7077 32.6384 20.7077H34.9265L34.921 20.492C34.921 20.492 34.7171 20.4377 34.7398 20.1507C34.7563 19.9405 35.1516 18.9293 35.4813 17.8047H35.4815Z" fill="#382A8D"/>
<path fill-rule="evenodd" clip-rule="evenodd" d="M45.5339 13.4609L42.9727 22.3923L47.7667 17.9265L45.5339 13.4609Z" fill="#1D8546"/>
<path fill-rule="evenodd" clip-rule="evenodd" d="M43.8933 13.4609L41.332 22.3923L46.1262 17.9265L43.8933 13.4609Z" fill="#EC6B00"/>
<path fill-rule="evenodd" clip-rule="evenodd" d="M48.6618 11.8404C48.1751 11.8404 47.7788 12.2373 47.7788 12.7253C47.7788 13.2131 48.1749 13.61 48.6618 13.61C49.1486 13.61 49.5447 13.2131 49.5447 12.7253C49.5447 12.2372 49.1486 11.8404 48.6618 11.8404ZM48.6482 13.0883V12.3985H48.7855L48.9482 12.8868C48.9634 12.9323 48.9741 12.9663 48.9813 12.9889C48.9891 12.9638 49.0012 12.9269 49.018 12.8782L49.1827 12.3985H49.3051V13.0883H49.2173V12.5109L49.0173 13.0883H48.9353L48.7361 12.5011V13.0883H48.6482ZM48.1909 13.0883V12.4801H47.9644V12.3987H48.5097V12.4801H48.2822V13.0883H48.1909ZM48.6618 13.6976C48.1265 13.6976 47.6914 13.2614 47.6914 12.7251C47.6914 12.1888 48.1267 11.7524 48.6618 11.7524C49.1968 11.7524 49.6323 12.1888 49.6323 12.7251C49.6323 13.2612 49.1968 13.6976 48.6618 13.6976Z" fill="black"/>
<path d="M5.80669 0.685547H51.2868C52.7374 0.685547 54.0556 1.27976 55.0105 2.23678C55.9657 3.19396 56.5586 4.51495 56.5586 5.96849V28.9211C56.5586 30.3745 55.9655 31.6955 55.0105 32.6527C54.0554 33.6097 52.7372 34.2041 51.2869 34.2041H5.80686C4.35658 34.2041 3.03823 33.6099 2.08309 32.6527C1.12811 31.6957 0.535156 30.3748 0.535156 28.9211V5.96849C0.535156 4.51478 1.12811 3.19379 2.08309 2.23678C3.03806 1.27976 4.35641 0.685547 5.80703 0.685547H5.80669ZM51.2868 2.50643H5.80669C4.8576 2.50643 3.99405 2.89634 3.36748 3.52425C2.74092 4.15215 2.35183 5.01754 2.35183 5.96866V28.9213C2.35183 29.8723 2.74092 30.7376 3.36748 31.3655C3.99422 31.9936 4.85776 32.3835 5.80669 32.3835H51.2868C52.2355 32.3835 53.0991 31.9936 53.7258 31.3655C54.3524 30.7375 54.7416 29.8721 54.7416 28.9215V5.96882C54.7416 5.01804 54.3525 4.15249 53.726 3.52442C53.0994 2.89651 52.2357 2.5066 51.2868 2.5066V2.50643Z" fill="#808080"/>
</g>
<defs>
<clipPath id="clip0_2788_2045">
<rect width="56.0238" height="33.5185" fill="white" transform="translate(0.535156 0.685547)"/>
</clipPath>
</defs>
</svg>
