<svg width="179" height="36" viewBox="0 0 179 36" fill="none" xmlns="http://www.w3.org/2000/svg">
<g clip-path="url(#clip0_3267_1994)">
<path d="M0.529297 18C0.529297 8.0589 8.5882 0 18.5293 0C28.4704 0 36.5293 8.0589 36.5293 18C36.5293 27.9411 28.4704 36 18.5293 36C8.5882 36 0.529297 27.9411 0.529297 18Z" fill="#3B5998"/>
<path d="M20.4062 28.5836V18.7907H23.1095L23.4678 15.416H20.4062L20.4109 13.7269C20.4109 12.8467 20.4945 12.3751 21.7587 12.3751H23.4487V9H20.745C17.4974 9 16.3544 10.6371 16.3544 13.3902V15.4163H14.3301V18.791H16.3544V28.5836H20.4062Z" fill="white"/>
</g>
<g clip-path="url(#clip1_3267_1994)">
<path d="M47.5293 18C47.5293 8.0589 55.8121 0 66.0293 0C76.2465 0 84.5293 8.0589 84.5293 18C84.5293 27.9411 76.2465 36 66.0293 36C55.8121 36 47.5293 27.9411 47.5293 18Z" fill="#55ACEE"/>
<path d="M65.4752 14.6304L65.5141 15.2533L64.867 15.177C62.5119 14.8847 60.4544 13.8932 58.7074 12.228L57.8534 11.4018L57.6334 12.0119C57.1675 13.3721 57.4651 14.8084 58.4357 15.7744C58.9533 16.3083 58.8368 16.3846 57.9439 16.0668C57.6334 15.9651 57.3616 15.8888 57.3358 15.9269C57.2452 16.016 57.5558 17.1726 57.8016 17.6303C58.138 18.2658 58.8239 18.8886 59.5744 19.2572L60.2085 19.5496L59.4579 19.5623C58.7333 19.5623 58.7074 19.575 58.7851 19.8419C59.0439 20.6681 60.0661 21.5453 61.2049 21.9266L62.0072 22.1935L61.3084 22.6002C60.2732 23.185 59.0568 23.5154 57.8404 23.5409C57.2581 23.5536 56.7793 23.6044 56.7793 23.6426C56.7793 23.7697 58.358 24.4815 59.2768 24.7611C62.0331 25.5873 65.307 25.2314 67.7657 23.8205C69.5126 22.8164 71.2596 20.8207 72.0748 18.8886C72.5148 17.859 72.9548 15.9778 72.9548 15.0753C72.9548 14.4906 72.9935 14.4143 73.7182 13.7153C74.1452 13.3085 74.5464 12.8636 74.6241 12.7365C74.7534 12.495 74.7406 12.495 74.0806 12.7111C72.9807 13.0924 72.8253 13.0415 73.3689 12.4696C73.77 12.0628 74.2488 11.3255 74.2488 11.1095C74.2488 11.0714 74.0547 11.1349 73.8347 11.2493C73.6018 11.3764 73.0842 11.567 72.6959 11.6815L71.9972 11.8976L71.3631 11.4781C71.0137 11.2493 70.5219 10.9951 70.2632 10.9188C69.6032 10.7408 68.5939 10.7663 67.9986 10.9697C66.381 11.5417 65.3587 13.0161 65.4752 14.6304Z" fill="white"/>
</g>
<g clip-path="url(#clip2_3267_1994)">
<path d="M113.029 36C123.247 36 131.529 27.9411 131.529 18C131.529 8.05887 123.247 0 113.029 0C102.812 0 94.5293 8.05887 94.5293 18C94.5293 27.9411 102.812 36 113.029 36Z" fill="#B0271E"/>
<path d="M118.108 10.2687C117.697 10.2491 116.929 9.79631 116.518 9.63642C114.276 8.90917 111.784 8.18186 109.666 8.90917C103.811 10.7274 106.427 17.394 106.053 21.8789C106.053 22.3536 105.884 22.7541 105.732 23.2348L118.137 35.3051C124.338 33.5759 129.204 28.7765 130.89 22.7058L118.108 10.2687Z" fill="#961411"/>
<path d="M121.58 23.8663C121.58 23.8663 121.477 25.3455 120.095 25.3455C119.028 25.3455 118.299 24.5534 117.616 23.5249C119.555 21.8785 120.786 19.4198 120.786 16.6724C120.786 11.7153 116.779 7.69678 111.837 7.69678C106.895 7.69678 102.889 11.7153 102.889 16.6724C102.889 21.6294 106.895 25.648 111.837 25.648C112.734 25.648 113.6 25.5151 114.417 25.2688C115.45 26.8664 116.762 28.3028 118.816 28.3028C122.997 28.3028 123.17 23.8663 123.17 23.8663H121.58ZM111.837 24.1689C108.956 24.1689 106.62 20.8125 106.62 16.6724C106.62 12.5322 108.956 9.17587 111.837 9.17587C114.719 9.17587 117.054 12.5322 117.054 16.6724C117.054 18.3187 116.685 19.8407 116.059 21.0775C115.351 20.0949 114.502 19.2583 113.288 18.9919C111.135 18.5194 109.281 19.4626 108.693 19.9333L109.246 21.0426C109.246 21.0426 109.805 20.73 111.19 21.0422C112.064 21.239 112.742 22.4179 113.52 23.7705C112.992 24.0287 112.426 24.1689 111.837 24.1689Z" fill="white"/>
<path d="M121.582 23.8663C121.582 23.8663 121.478 25.3455 120.096 25.3455C119.029 25.3455 118.3 24.5534 117.617 23.5249C119.556 21.8785 120.787 19.4198 120.787 16.6724C120.787 11.7153 116.781 7.69678 111.838 7.69678C111.834 7.69678 111.83 7.69699 111.826 7.69713V9.17643C111.83 9.17643 111.834 9.17594 111.838 9.17594C114.72 9.17594 117.056 12.5323 117.056 16.6724C117.056 18.3187 116.686 19.8408 116.06 21.0775C115.352 20.095 114.503 19.2584 113.29 18.992C112.781 18.8803 112.289 18.8485 111.826 18.8701V21.3715C112.417 21.852 112.941 22.7628 113.521 23.7706C112.993 24.0289 112.427 24.1691 111.839 24.1691C111.834 24.1691 111.83 24.1686 111.826 24.1686V25.6479C111.83 25.6479 111.834 25.6483 111.839 25.6483C112.735 25.6483 113.601 25.5153 114.418 25.269C115.452 26.8666 116.764 28.303 118.818 28.303C122.998 28.303 123.171 23.8665 123.171 23.8665H121.582V23.8663Z" fill="#D1D1D1"/>
</g>
<g clip-path="url(#clip3_3267_1994)">
<path d="M160.527 35.7256C170.329 35.7256 178.274 27.7798 178.274 17.978C178.274 8.17633 170.329 0.230469 160.527 0.230469C150.725 0.230469 142.779 8.17633 142.779 17.978C142.779 27.7798 150.725 35.7256 160.527 35.7256Z" fill="url(#paint0_linear_3267_1994)"/>
<path d="M166.81 13.1759C167.572 13.1759 168.189 12.5587 168.189 11.7972C168.189 11.0357 167.572 10.4185 166.81 10.4185C166.049 10.4185 165.432 11.0357 165.432 11.7972C165.432 12.5587 166.049 13.1759 166.81 13.1759Z" fill="white"/>
<path d="M160.68 12.1865C157.487 12.1865 154.889 14.7847 154.889 17.9782C154.889 21.1718 157.487 23.7699 160.68 23.7699C163.874 23.7699 166.472 21.1718 166.472 17.9782C166.472 14.7847 163.874 12.1865 160.68 12.1865ZM160.68 21.6882C158.635 21.6882 156.97 20.024 156.97 17.9782C156.97 15.9325 158.635 14.2683 160.68 14.2683C162.726 14.2683 164.39 15.9325 164.39 17.9782C164.39 20.024 162.726 21.6882 160.68 21.6882Z" fill="white"/>
<path d="M165.28 29.737H155.89C151.995 29.737 148.826 26.5682 148.826 22.673V13.2833C148.826 9.38803 151.995 6.21924 155.89 6.21924H165.28C169.175 6.21924 172.344 9.38803 172.344 13.2833V22.673C172.344 26.5682 169.175 29.737 165.28 29.737ZM155.89 8.43174C153.215 8.43174 151.039 10.608 151.039 13.2833V22.673C151.039 25.3483 153.215 27.5245 155.89 27.5245H165.28C167.955 27.5245 170.131 25.3483 170.131 22.673V13.2833C170.131 10.608 167.955 8.43174 165.28 8.43174H155.89Z" fill="white"/>
</g>
<defs>
<linearGradient id="paint0_linear_3267_1994" x1="145.393" y1="33.1119" x2="183.747" y2="-5.24236" gradientUnits="userSpaceOnUse">
<stop offset="0.0011" stop-color="#FBE18A"/>
<stop offset="0.2094" stop-color="#FCBB45"/>
<stop offset="0.3765" stop-color="#F75274"/>
<stop offset="0.5238" stop-color="#D53692"/>
<stop offset="0.7394" stop-color="#8F39CE"/>
<stop offset="1" stop-color="#5B4FE9"/>
</linearGradient>
<clipPath id="clip0_3267_1994">
<rect width="36" height="36" fill="white" transform="translate(0.529297)"/>
</clipPath>
<clipPath id="clip1_3267_1994">
<rect width="37" height="36" fill="white" transform="translate(47.5293)"/>
</clipPath>
<clipPath id="clip2_3267_1994">
<rect width="37" height="36" fill="white" transform="translate(94.5293)"/>
</clipPath>
<clipPath id="clip3_3267_1994">
<rect width="36" height="36" fill="white" transform="translate(142.529)"/>
</clipPath>
</defs>
</svg>
