<svg width="23" height="24" viewBox="0 0 23 24" fill="none" xmlns="http://www.w3.org/2000/svg">
<path d="M11.5 15.9365C12.4946 15.9365 13.4484 15.5414 14.1517 14.8382C14.8549 14.1349 15.25 13.1811 15.25 12.1865C15.25 11.192 14.8549 10.2381 14.1517 9.53487C13.4484 8.83161 12.4946 8.43652 11.5 8.43652C10.5054 8.43652 9.55161 8.83161 8.84835 9.53487C8.14509 10.2381 7.75 11.192 7.75 12.1865C7.75 13.1811 8.14509 14.1349 8.84835 14.8382C9.55161 15.5414 10.5054 15.9365 11.5 15.9365Z" fill="#098041"/>
<path fill-rule="evenodd" clip-rule="evenodd" d="M11.5 0.936523C11.8315 0.936523 12.1495 1.06822 12.3839 1.30264C12.6183 1.53706 12.75 1.855 12.75 2.18652V3.52402C14.6199 3.79431 16.3523 4.66226 17.6883 5.99826C19.0243 7.33425 19.8922 9.06658 20.1625 10.9365H21.5C21.8315 10.9365 22.1495 11.0682 22.3839 11.3026C22.6183 11.5371 22.75 11.855 22.75 12.1865C22.75 12.518 22.6183 12.836 22.3839 13.0704C22.1495 13.3048 21.8315 13.4365 21.5 13.4365H20.1625C19.8922 15.3065 19.0243 17.0388 17.6883 18.3748C16.3523 19.7108 14.6199 20.5787 12.75 20.849V22.1865C12.75 22.518 12.6183 22.836 12.3839 23.0704C12.1495 23.3048 11.8315 23.4365 11.5 23.4365C11.1685 23.4365 10.8505 23.3048 10.6161 23.0704C10.3817 22.836 10.25 22.518 10.25 22.1865V20.849C8.38006 20.5787 6.64772 19.7108 5.31173 18.3748C3.97574 17.0388 3.10779 15.3065 2.8375 13.4365H1.5C1.16848 13.4365 0.850537 13.3048 0.616116 13.0704C0.381696 12.836 0.25 12.518 0.25 12.1865C0.25 11.855 0.381696 11.5371 0.616116 11.3026C0.850537 11.0682 1.16848 10.9365 1.5 10.9365H2.8375C3.10798 9.06666 3.976 7.33443 5.31195 5.99847C6.64791 4.66252 8.38013 3.7945 10.25 3.52402V2.18652C10.25 1.855 10.3817 1.53706 10.6161 1.30264C10.8505 1.06822 11.1685 0.936523 11.5 0.936523ZM5.25 12.1865C5.25 10.5289 5.90848 8.93921 7.08058 7.76711C8.25268 6.595 9.8424 5.93652 11.5 5.93652C13.1576 5.93652 14.7473 6.595 15.9194 7.76711C17.0915 8.93921 17.75 10.5289 17.75 12.1865C17.75 13.8441 17.0915 15.4338 15.9194 16.6059C14.7473 17.778 13.1576 18.4365 11.5 18.4365C9.8424 18.4365 8.25268 17.778 7.08058 16.6059C5.90848 15.4338 5.25 13.8441 5.25 12.1865Z" fill="#2157AD"/>
</svg>
