<svg width="69" height="63" viewBox="0 0 69 63" fill="none" xmlns="http://www.w3.org/2000/svg">
<rect x="0.5" width="68" height="63" rx="1" fill="black"/>
<path d="M31.2012 17.5V17.9688C31.2012 18.6133 31.1172 19.1914 30.9492 19.7031C30.7812 20.2148 30.541 20.6504 30.2285 21.0098C29.9199 21.3691 29.5488 21.6445 29.1152 21.8359C28.6816 22.0234 28.2012 22.1172 27.6738 22.1172C27.1504 22.1172 26.6719 22.0234 26.2383 21.8359C25.8086 21.6445 25.4355 21.3691 25.1191 21.0098C24.8027 20.6504 24.5566 20.2148 24.3809 19.7031C24.209 19.1914 24.123 18.6133 24.123 17.9688V17.5C24.123 16.8555 24.209 16.2793 24.3809 15.7715C24.5527 15.2598 24.7949 14.8242 25.1074 14.4648C25.4238 14.1016 25.7969 13.8262 26.2266 13.6387C26.6602 13.4473 27.1387 13.3516 27.6621 13.3516C28.1895 13.3516 28.6699 13.4473 29.1035 13.6387C29.5371 13.8262 29.9102 14.1016 30.2227 14.4648C30.5352 14.8242 30.7754 15.2598 30.9434 15.7715C31.1152 16.2793 31.2012 16.8555 31.2012 17.5ZM29.7305 17.9688V17.4883C29.7305 17.0117 29.6836 16.5918 29.5898 16.2285C29.5 15.8613 29.3652 15.5547 29.1855 15.3086C29.0098 15.0586 28.793 14.8711 28.5352 14.7461C28.2773 14.6172 27.9863 14.5527 27.6621 14.5527C27.3379 14.5527 27.0488 14.6172 26.7949 14.7461C26.541 14.8711 26.3242 15.0586 26.1445 15.3086C25.9688 15.5547 25.834 15.8613 25.7402 16.2285C25.6465 16.5918 25.5996 17.0117 25.5996 17.4883V17.9688C25.5996 18.4453 25.6465 18.8672 25.7402 19.2344C25.834 19.6016 25.9707 19.9121 26.1504 20.166C26.334 20.416 26.5527 20.6055 26.8066 20.7344C27.0605 20.8594 27.3496 20.9219 27.6738 20.9219C28.002 20.9219 28.293 20.8594 28.5469 20.7344C28.8008 20.6055 29.0156 20.416 29.1914 20.166C29.3672 19.9121 29.5 19.6016 29.5898 19.2344C29.6836 18.8672 29.7305 18.4453 29.7305 17.9688ZM36.3457 20.5059V15.6602H37.7637V22H36.4277L36.3457 20.5059ZM36.5449 19.1875L37.0195 19.1758C37.0195 19.6016 36.9727 19.9941 36.8789 20.3535C36.7852 20.709 36.6406 21.0195 36.4453 21.2852C36.25 21.5469 36 21.752 35.6953 21.9004C35.3906 22.0449 35.0254 22.1172 34.5996 22.1172C34.291 22.1172 34.0078 22.0723 33.75 21.9824C33.4922 21.8926 33.2695 21.7539 33.082 21.5664C32.8984 21.3789 32.7559 21.1348 32.6543 20.834C32.5527 20.5332 32.502 20.1738 32.502 19.7559V15.6602H33.9141V19.7676C33.9141 19.998 33.9414 20.1914 33.9961 20.3477C34.0508 20.5 34.125 20.623 34.2188 20.7168C34.3125 20.8105 34.4219 20.877 34.5469 20.916C34.6719 20.9551 34.8047 20.9746 34.9453 20.9746C35.3477 20.9746 35.6641 20.8965 35.8945 20.7402C36.1289 20.5801 36.2949 20.3652 36.3926 20.0957C36.4941 19.8262 36.5449 19.5234 36.5449 19.1875ZM42.1172 15.6602V16.6914H38.543V15.6602H42.1172ZM39.5742 14.1074H40.9863V20.248C40.9863 20.4434 41.0137 20.5938 41.0684 20.6992C41.127 20.8008 41.207 20.8691 41.3086 20.9043C41.4102 20.9395 41.5293 20.957 41.666 20.957C41.7637 20.957 41.8574 20.9512 41.9473 20.9395C42.0371 20.9277 42.1094 20.916 42.1641 20.9043L42.1699 21.9824C42.0527 22.0176 41.916 22.0488 41.7598 22.0762C41.6074 22.1035 41.4316 22.1172 41.2324 22.1172C40.9082 22.1172 40.6211 22.0605 40.3711 21.9473C40.1211 21.8301 39.9258 21.6406 39.7852 21.3789C39.6445 21.1172 39.5742 20.7695 39.5742 20.3359V14.1074ZM29.4316 32.9004V32.7656C29.4316 32.3086 29.498 31.8848 29.6309 31.4941C29.7637 31.0996 29.9551 30.7578 30.2051 30.4688C30.459 30.1758 30.7676 29.9492 31.1309 29.7891C31.498 29.625 31.9121 29.543 32.373 29.543C32.8379 29.543 33.252 29.625 33.6152 29.7891C33.9824 29.9492 34.293 30.1758 34.5469 30.4688C34.8008 30.7578 34.9941 31.0996 35.127 31.4941C35.2598 31.8848 35.3262 32.3086 35.3262 32.7656V32.9004C35.3262 33.3574 35.2598 33.7812 35.127 34.1719C34.9941 34.5625 34.8008 34.9043 34.5469 35.1973C34.293 35.4863 33.9844 35.7129 33.6211 35.877C33.2578 36.0371 32.8457 36.1172 32.3848 36.1172C31.9199 36.1172 31.5039 36.0371 31.1367 35.877C30.7734 35.7129 30.4648 35.4863 30.2109 35.1973C29.957 34.9043 29.7637 34.5625 29.6309 34.1719C29.498 33.7812 29.4316 33.3574 29.4316 32.9004ZM30.8438 32.7656V32.9004C30.8438 33.1855 30.873 33.4551 30.9316 33.709C30.9902 33.9629 31.082 34.1855 31.207 34.377C31.332 34.5684 31.4922 34.7188 31.6875 34.8281C31.8828 34.9375 32.1152 34.9922 32.3848 34.9922C32.6465 34.9922 32.873 34.9375 33.0645 34.8281C33.2598 34.7188 33.4199 34.5684 33.5449 34.377C33.6699 34.1855 33.7617 33.9629 33.8203 33.709C33.8828 33.4551 33.9141 33.1855 33.9141 32.9004V32.7656C33.9141 32.4844 33.8828 32.2188 33.8203 31.9688C33.7617 31.7148 33.668 31.4902 33.5391 31.2949C33.4141 31.0996 33.2539 30.9473 33.0586 30.8379C32.8672 30.7246 32.6387 30.668 32.373 30.668C32.1074 30.668 31.877 30.7246 31.6816 30.8379C31.4902 30.9473 31.332 31.0996 31.207 31.2949C31.082 31.4902 30.9902 31.7148 30.9316 31.9688C30.873 32.2188 30.8438 32.4844 30.8438 32.7656ZM38.4199 36H37.0078V29.0508C37.0078 28.5781 37.0957 28.1816 37.2715 27.8613C37.4512 27.5371 37.707 27.293 38.0391 27.1289C38.3711 26.9609 38.7637 26.877 39.2168 26.877C39.3574 26.877 39.4961 26.8867 39.6328 26.9062C39.7695 26.9219 39.9023 26.9473 40.0312 26.9824L39.9961 28.0723C39.918 28.0527 39.832 28.0391 39.7383 28.0312C39.6484 28.0234 39.5508 28.0195 39.4453 28.0195C39.2305 28.0195 39.0449 28.0605 38.8887 28.1426C38.7363 28.2207 38.6191 28.3359 38.5371 28.4883C38.459 28.6406 38.4199 28.8281 38.4199 29.0508V36ZM39.7266 29.6602V30.6914H36.0352V29.6602H39.7266ZM17.1855 47.8027C17.1855 47.627 17.1582 47.4707 17.1035 47.334C17.0527 47.1973 16.9609 47.0723 16.8281 46.959C16.6953 46.8457 16.5078 46.7363 16.2656 46.6309C16.0273 46.5215 15.7227 46.4102 15.3516 46.2969C14.9453 46.1719 14.5703 46.0332 14.2266 45.8809C13.8867 45.7246 13.5898 45.5449 13.3359 45.3418C13.082 45.1348 12.8848 44.8984 12.7441 44.6328C12.6035 44.3633 12.5332 44.0527 12.5332 43.7012C12.5332 43.3535 12.6055 43.0371 12.75 42.752C12.8984 42.4668 13.1074 42.2207 13.377 42.0137C13.6504 41.8027 13.9727 41.6406 14.3438 41.5273C14.7148 41.4102 15.125 41.3516 15.5742 41.3516C16.207 41.3516 16.752 41.4688 17.209 41.7031C17.6699 41.9375 18.0234 42.252 18.2695 42.6465C18.5195 43.041 18.6445 43.4766 18.6445 43.9531H17.1855C17.1855 43.6719 17.125 43.4238 17.0039 43.209C16.8867 42.9902 16.707 42.8184 16.4648 42.6934C16.2266 42.5684 15.9238 42.5059 15.5566 42.5059C15.209 42.5059 14.9199 42.5586 14.6895 42.6641C14.459 42.7695 14.2871 42.9121 14.1738 43.0918C14.0605 43.2715 14.0039 43.4746 14.0039 43.7012C14.0039 43.8613 14.041 44.0078 14.1152 44.1406C14.1895 44.2695 14.3027 44.3906 14.4551 44.5039C14.6074 44.6133 14.7988 44.7168 15.0293 44.8145C15.2598 44.9121 15.5312 45.0059 15.8438 45.0957C16.3164 45.2363 16.7285 45.3926 17.0801 45.5645C17.4316 45.7324 17.7246 45.9238 17.959 46.1387C18.1934 46.3535 18.3691 46.5977 18.4863 46.8711C18.6035 47.1406 18.6621 47.4473 18.6621 47.791C18.6621 48.1504 18.5898 48.4746 18.4453 48.7637C18.3008 49.0488 18.0938 49.293 17.8242 49.4961C17.5586 49.6953 17.2383 49.8496 16.8633 49.959C16.4922 50.0645 16.0781 50.1172 15.6211 50.1172C15.2109 50.1172 14.8066 50.0625 14.4082 49.9531C14.0137 49.8438 13.6543 49.6777 13.3301 49.4551C13.0059 49.2285 12.748 48.9473 12.5566 48.6113C12.3652 48.2715 12.2695 47.875 12.2695 47.4219H13.7402C13.7402 47.6992 13.7871 47.9355 13.8809 48.1309C13.9785 48.3262 14.1133 48.4863 14.2852 48.6113C14.457 48.7324 14.6562 48.8223 14.8828 48.8809C15.1133 48.9395 15.3594 48.9688 15.6211 48.9688C15.9648 48.9688 16.252 48.9199 16.4824 48.8223C16.7168 48.7246 16.8926 48.5879 17.0098 48.4121C17.127 48.2363 17.1855 48.0332 17.1855 47.8027ZM21.6621 49.3086L23.3848 43.6602H24.8965L22.3535 50.9668C22.2949 51.123 22.2188 51.293 22.125 51.4766C22.0312 51.6602 21.9082 51.834 21.7559 51.998C21.6074 52.166 21.4219 52.3008 21.1992 52.4023C20.9766 52.5078 20.707 52.5605 20.3906 52.5605C20.2656 52.5605 20.1445 52.5488 20.0273 52.5254C19.9141 52.5059 19.8066 52.4844 19.7051 52.4609L19.6992 51.3828C19.7383 51.3867 19.7852 51.3906 19.8398 51.3945C19.8984 51.3984 19.9453 51.4004 19.9805 51.4004C20.2148 51.4004 20.4102 51.3711 20.5664 51.3125C20.7227 51.2578 20.8496 51.168 20.9473 51.043C21.0488 50.918 21.1348 50.75 21.2051 50.5391L21.6621 49.3086ZM20.6895 43.6602L22.1953 48.4062L22.4473 49.8945L21.4688 50.1465L19.166 43.6602H20.6895ZM27.2168 41V50H25.7988V41H27.2168ZM30.2754 41V50H28.8574V41H30.2754ZM35.3965 48.7285V45.7051C35.3965 45.4785 35.3555 45.2832 35.2734 45.1191C35.1914 44.9551 35.0664 44.8281 34.8984 44.7383C34.7344 44.6484 34.5273 44.6035 34.2773 44.6035C34.0469 44.6035 33.8477 44.6426 33.6797 44.7207C33.5117 44.7988 33.3809 44.9043 33.2871 45.0371C33.1934 45.1699 33.1465 45.3203 33.1465 45.4883H31.7402C31.7402 45.2383 31.8008 44.9961 31.9219 44.7617C32.043 44.5273 32.2188 44.3184 32.4492 44.1348C32.6797 43.9512 32.9551 43.8066 33.2754 43.7012C33.5957 43.5957 33.9551 43.543 34.3535 43.543C34.8301 43.543 35.252 43.623 35.6191 43.7832C35.9902 43.9434 36.2812 44.1855 36.4922 44.5098C36.707 44.8301 36.8145 45.2324 36.8145 45.7168V48.5352C36.8145 48.8242 36.834 49.084 36.873 49.3145C36.916 49.541 36.9766 49.7383 37.0547 49.9062V50H35.6074C35.541 49.8477 35.4883 49.6543 35.4492 49.4199C35.4141 49.1816 35.3965 48.9512 35.3965 48.7285ZM35.6016 46.1445L35.6133 47.0176H34.5996C34.3379 47.0176 34.1074 47.043 33.9082 47.0938C33.709 47.1406 33.543 47.2109 33.4102 47.3047C33.2773 47.3984 33.1777 47.5117 33.1113 47.6445C33.0449 47.7773 33.0117 47.9277 33.0117 48.0957C33.0117 48.2637 33.0508 48.418 33.1289 48.5586C33.207 48.6953 33.3203 48.8027 33.4688 48.8809C33.6211 48.959 33.8047 48.998 34.0195 48.998C34.3086 48.998 34.5605 48.9395 34.7754 48.8223C34.9941 48.7012 35.166 48.5547 35.291 48.3828C35.416 48.207 35.4824 48.041 35.4902 47.8848L35.9473 48.5117C35.9004 48.6719 35.8203 48.8438 35.707 49.0273C35.5938 49.2109 35.4453 49.3867 35.2617 49.5547C35.082 49.7188 34.8652 49.8535 34.6113 49.959C34.3613 50.0645 34.0723 50.1172 33.7441 50.1172C33.3301 50.1172 32.9609 50.0352 32.6367 49.8711C32.3125 49.7031 32.0586 49.4785 31.875 49.1973C31.6914 48.9121 31.5996 48.5898 31.5996 48.2305C31.5996 47.8945 31.6621 47.5977 31.7871 47.3398C31.916 47.0781 32.1035 46.8594 32.3496 46.6836C32.5996 46.5078 32.9043 46.375 33.2637 46.2852C33.623 46.1914 34.0332 46.1445 34.4941 46.1445H35.6016ZM38.2969 41H39.709V48.6465L39.5742 50H38.2969V41ZM43.8457 46.7715V46.8945C43.8457 47.3633 43.793 47.7949 43.6875 48.1895C43.5859 48.5801 43.4297 48.9199 43.2188 49.209C43.0117 49.498 42.7539 49.7227 42.4453 49.8828C42.1406 50.0391 41.7871 50.1172 41.3848 50.1172C40.9902 50.1172 40.6465 50.043 40.3535 49.8945C40.0605 49.7461 39.8145 49.5352 39.6152 49.2617C39.4199 48.9883 39.2617 48.6621 39.1406 48.2832C39.0195 47.9043 38.9336 47.4863 38.8828 47.0293V46.6367C38.9336 46.1758 39.0195 45.7578 39.1406 45.3828C39.2617 45.0039 39.4199 44.6777 39.6152 44.4043C39.8145 44.127 40.0586 43.9141 40.3477 43.7656C40.6406 43.6172 40.9824 43.543 41.373 43.543C41.7793 43.543 42.1367 43.6211 42.4453 43.7773C42.7578 43.9336 43.0176 44.1562 43.2246 44.4453C43.4316 44.7305 43.5859 45.0703 43.6875 45.4648C43.793 45.8594 43.8457 46.2949 43.8457 46.7715ZM42.4336 46.8945V46.7715C42.4336 46.4863 42.4102 46.2188 42.3633 45.9688C42.3164 45.7148 42.2383 45.4922 42.1289 45.3008C42.0234 45.1094 41.8789 44.959 41.6953 44.8496C41.5156 44.7363 41.291 44.6797 41.0215 44.6797C40.7715 44.6797 40.5566 44.7227 40.377 44.8086C40.1973 44.8945 40.0469 45.0117 39.9258 45.1602C39.8047 45.3086 39.709 45.4805 39.6387 45.6758C39.5723 45.8711 39.5273 46.082 39.5039 46.3086V47.3691C39.5391 47.6621 39.6133 47.9316 39.7266 48.1777C39.8438 48.4199 40.0078 48.6152 40.2188 48.7637C40.4297 48.9082 40.7012 48.9805 41.0332 48.9805C41.2949 48.9805 41.5156 48.9277 41.6953 48.8223C41.875 48.7168 42.0176 48.5703 42.123 48.3828C42.2324 48.1914 42.3105 47.9688 42.3574 47.7148C42.4082 47.4609 42.4336 47.1875 42.4336 46.8945ZM48.8555 48.5059V43.6602H50.2734V50H48.9375L48.8555 48.5059ZM49.0547 47.1875L49.5293 47.1758C49.5293 47.6016 49.4824 47.9941 49.3887 48.3535C49.2949 48.709 49.1504 49.0195 48.9551 49.2852C48.7598 49.5469 48.5098 49.752 48.2051 49.9004C47.9004 50.0449 47.5352 50.1172 47.1094 50.1172C46.8008 50.1172 46.5176 50.0723 46.2598 49.9824C46.002 49.8926 45.7793 49.7539 45.5918 49.5664C45.4082 49.3789 45.2656 49.1348 45.1641 48.834C45.0625 48.5332 45.0117 48.1738 45.0117 47.7559V43.6602H46.4238V47.7676C46.4238 47.998 46.4512 48.1914 46.5059 48.3477C46.5605 48.5 46.6348 48.623 46.7285 48.7168C46.8223 48.8105 46.9316 48.877 47.0566 48.916C47.1816 48.9551 47.3145 48.9746 47.4551 48.9746C47.8574 48.9746 48.1738 48.8965 48.4043 48.7402C48.6387 48.5801 48.8047 48.3652 48.9023 48.0957C49.0039 47.8262 49.0547 47.5234 49.0547 47.1875ZM55.2773 48.2832C55.2773 48.1426 55.2422 48.0156 55.1719 47.9023C55.1016 47.7852 54.9668 47.6797 54.7676 47.5859C54.5723 47.4922 54.2832 47.4062 53.9004 47.3281C53.5645 47.2539 53.2559 47.166 52.9746 47.0645C52.6973 46.959 52.459 46.832 52.2598 46.6836C52.0605 46.5352 51.9062 46.3594 51.7969 46.1562C51.6875 45.9531 51.6328 45.7188 51.6328 45.4531C51.6328 45.1953 51.6895 44.9512 51.8027 44.7207C51.916 44.4902 52.0781 44.2871 52.2891 44.1113C52.5 43.9355 52.7559 43.7969 53.0566 43.6953C53.3613 43.5938 53.7012 43.543 54.0762 43.543C54.6074 43.543 55.0625 43.6328 55.4414 43.8125C55.8242 43.9883 56.1172 44.2285 56.3203 44.5332C56.5234 44.834 56.625 45.1738 56.625 45.5527H55.2129C55.2129 45.3848 55.1699 45.2285 55.084 45.084C55.002 44.9355 54.877 44.8164 54.709 44.7266C54.541 44.6328 54.3301 44.5859 54.0762 44.5859C53.834 44.5859 53.6328 44.625 53.4727 44.7031C53.3164 44.7773 53.1992 44.875 53.1211 44.9961C53.0469 45.1172 53.0098 45.25 53.0098 45.3945C53.0098 45.5 53.0293 45.5957 53.0684 45.6816C53.1113 45.7637 53.1816 45.8398 53.2793 45.9102C53.377 45.9766 53.5098 46.0391 53.6777 46.0977C53.8496 46.1562 54.0645 46.2129 54.3223 46.2676C54.8066 46.3691 55.2227 46.5 55.5703 46.6602C55.9219 46.8164 56.1914 47.0195 56.3789 47.2695C56.5664 47.5156 56.6602 47.8281 56.6602 48.207C56.6602 48.4883 56.5996 48.7461 56.4785 48.9805C56.3613 49.2109 56.1895 49.4121 55.9629 49.584C55.7363 49.752 55.4648 49.8828 55.1484 49.9766C54.8359 50.0703 54.4844 50.1172 54.0938 50.1172C53.5195 50.1172 53.0332 50.0156 52.6348 49.8125C52.2363 49.6055 51.9336 49.3418 51.7266 49.0215C51.5234 48.6973 51.4219 48.3613 51.4219 48.0137H52.7871C52.8027 48.2754 52.875 48.4844 53.0039 48.6406C53.1367 48.793 53.3008 48.9043 53.4961 48.9746C53.6953 49.041 53.9004 49.0742 54.1113 49.0742C54.3652 49.0742 54.5781 49.041 54.75 48.9746C54.9219 48.9043 55.0527 48.8105 55.1426 48.6934C55.2324 48.5723 55.2773 48.4355 55.2773 48.2832Z" fill="white"/>
</svg>
