<svg width="69" height="26" viewBox="0 0 69 26" fill="none" xmlns="http://www.w3.org/2000/svg">
<g clip-path="url(#clip0_2788_2032)">
<path d="M0.967468 21.5909H1.47295L0.999562 23.5732C0.927351 23.8645 0.943398 24.0911 1.03968 24.2367C1.13596 24.3823 1.31248 24.4552 1.57725 24.4552C1.834 24.4552 2.05064 24.3823 2.21913 24.2367C2.38762 24.0911 2.49995 23.8645 2.57216 23.5732L3.04555 21.5909H3.55905L3.07764 23.6218C2.97334 24.0587 2.7888 24.3904 2.516 24.6089C2.25122 24.8274 1.89819 24.9406 1.46492 24.9406C1.03166 24.9406 0.734787 24.8355 0.574318 24.617C0.413848 24.3985 0.381754 24.0668 0.48606 23.6299L0.967468 21.5909ZM3.48684 24.8516L4.28918 21.4614L5.81364 23.4519C5.85376 23.5085 5.89388 23.5651 5.934 23.6299C5.97411 23.6946 6.01423 23.7674 6.06237 23.8483L6.59994 21.5909H7.07333L6.27098 24.973L4.71443 22.9421C4.67431 22.8855 4.63419 22.8288 4.59408 22.7722C4.55396 22.7075 4.52187 22.6508 4.4978 22.578L3.96022 24.8435H3.48684V24.8516ZM7.03321 24.8516L7.80346 21.5909H8.31697L7.54671 24.8516H7.03321ZM8.27685 24.8516L9.0471 21.5909H10.8042L10.6999 22.044H9.4563L9.26374 22.8531H10.5074L10.395 23.3143H9.15141L8.79035 24.8435H8.27685V24.8516ZM10.6037 24.8516L11.3739 21.5909H11.8874L11.1172 24.8516H10.6037ZM11.8473 24.8516L12.6175 21.5909H14.3747L14.2704 22.044H13.0267L12.8342 22.8612H14.0778L13.9655 23.3224H12.7219L12.4731 24.3743H13.7168L13.6044 24.8516H11.8473ZM14.1982 24.8516L14.9684 21.5909H15.6584C16.1078 21.5909 16.4207 21.6152 16.5892 21.6637C16.7577 21.7123 16.9021 21.7851 17.0144 21.8983C17.1588 22.044 17.2551 22.2301 17.2952 22.4485C17.3353 22.6751 17.3193 22.934 17.2551 23.2172C17.1829 23.5085 17.0786 23.7593 16.9342 23.9859C16.7898 24.2124 16.6052 24.3904 16.3886 24.5361C16.2281 24.6494 16.0516 24.7222 15.859 24.7707C15.6745 24.8193 15.3937 24.8435 15.0246 24.8435H14.8882H14.1982V24.8516ZM14.824 24.3662H15.2573C15.49 24.3662 15.6745 24.35 15.8029 24.3176C15.9312 24.2852 16.0436 24.2286 16.1479 24.1558C16.2923 24.0506 16.4126 23.9211 16.5089 23.7593C16.6052 23.6056 16.6774 23.4195 16.7256 23.2091C16.7737 22.9988 16.7898 22.8207 16.7657 22.667C16.7416 22.5133 16.6854 22.3757 16.5892 22.2705C16.517 22.1896 16.4287 22.1411 16.3083 22.1087C16.188 22.0764 16.0035 22.0602 15.7387 22.0602H15.5541H15.3696L14.824 24.3662ZM19.614 23.3871L19.269 24.8516H18.7876L19.5578 21.5909H20.3361C20.5688 21.5909 20.7293 21.6071 20.8336 21.6313C20.9379 21.6556 21.0181 21.6961 21.0823 21.7608C21.1625 21.8336 21.2187 21.9388 21.2428 22.0683C21.2668 22.1977 21.2588 22.3353 21.2267 22.489C21.1866 22.6427 21.1304 22.7884 21.0422 22.9178C20.9539 23.0473 20.8496 23.1525 20.7373 23.2253C20.641 23.2819 20.5367 23.3305 20.4244 23.3548C20.3121 23.379 20.1355 23.3952 19.9109 23.3952H19.8066H19.614V23.3871ZM19.7504 22.9502H19.8788C20.1596 22.9502 20.3602 22.9178 20.4725 22.8531C20.5849 22.7884 20.6571 22.6751 20.6972 22.5133C20.7373 22.3434 20.7132 22.2139 20.633 22.1492C20.5447 22.0764 20.3682 22.044 20.1034 22.044H19.9751L19.7504 22.9502ZM22.9678 24.8516L22.8074 24.0101H21.5557L20.9941 24.8516H20.4565L22.7833 21.4614L23.5054 24.8516H22.9678ZM21.8606 23.5651H22.7351L22.5907 22.8207C22.5827 22.7722 22.5747 22.7156 22.5747 22.6589C22.5667 22.5942 22.5667 22.5295 22.5667 22.4566C22.5346 22.5295 22.5025 22.5942 22.4623 22.6589C22.4303 22.7237 22.3982 22.7803 22.3661 22.8288L21.8606 23.5651ZM24.2436 24.8516L24.5966 23.3629L23.9547 21.599H24.4923L24.8935 22.7075C24.9015 22.7398 24.9095 22.7722 24.9256 22.8207C24.9416 22.8693 24.9496 22.9178 24.9657 22.9664C24.9978 22.9178 25.0299 22.8693 25.0619 22.8207C25.094 22.7722 25.1261 22.7317 25.1582 22.6913L26.097 21.599H26.6105L25.1101 23.3548L24.7571 24.8435H24.2436V24.8516ZM29.1299 23.2415C29.1299 23.2172 29.1379 23.1444 29.1539 23.0311C29.1619 22.934 29.17 22.8612 29.178 22.7965C29.1459 22.8693 29.1138 22.9421 29.0737 23.023C29.0336 23.0958 28.9854 23.1768 28.9293 23.2496L27.6936 24.9892L27.2925 23.2172C27.2764 23.1444 27.2604 23.0716 27.2524 23.0068C27.2443 22.9421 27.2363 22.8693 27.2363 22.8046C27.2203 22.8693 27.1962 22.9421 27.1721 23.023C27.1481 23.0958 27.116 23.1768 27.0758 23.2577L26.3537 24.8597H25.8803L27.4289 21.4614L27.8702 23.5166C27.8782 23.549 27.8862 23.6056 27.8942 23.6784C27.9023 23.7512 27.9183 23.8483 27.9344 23.9616C27.9905 23.8645 28.0627 23.7512 28.159 23.6056C28.1831 23.5651 28.2072 23.5409 28.2152 23.5166L29.6113 21.4614L29.5631 24.8597H29.0897L29.1299 23.2415ZM29.9803 24.8516L30.7506 21.5909H32.5077L32.4034 22.044H31.1598L30.9672 22.8612H32.2109L32.0985 23.3224H30.8549L30.6062 24.3743H31.8498L31.7375 24.8516H29.9803ZM32.3232 24.8516L33.1255 21.4614L34.65 23.4519C34.6901 23.5085 34.7302 23.5651 34.7704 23.6299C34.8105 23.6946 34.8506 23.7674 34.8987 23.8483L35.4363 21.5909H35.9097L35.1073 24.973L33.5508 22.9421C33.5107 22.8855 33.4705 22.8288 33.4304 22.7722C33.3903 22.7075 33.3582 22.6508 33.3341 22.578L32.7966 24.8435H32.3232V24.8516ZM37.5465 22.0359L36.8805 24.8435H36.367L37.033 22.0359H36.1985L36.3028 21.5828H38.4852L38.3809 22.0359H37.5465ZM38.084 24.1962L38.5414 24.0021C38.5494 24.1477 38.5895 24.261 38.6778 24.3338C38.766 24.4066 38.8864 24.4471 39.0469 24.4471C39.1993 24.4471 39.3277 24.4066 39.44 24.3176C39.5523 24.2286 39.6245 24.1153 39.6566 23.9697C39.7048 23.7755 39.5925 23.6056 39.3197 23.4599C39.2795 23.4357 39.2555 23.4195 39.2314 23.4114C38.9265 23.2334 38.7339 23.0797 38.6537 22.934C38.5735 22.7884 38.5574 22.6185 38.6056 22.4162C38.6698 22.1492 38.8062 21.9388 39.0228 21.7689C39.2394 21.6071 39.4801 21.5181 39.769 21.5181C40.0017 21.5181 40.1862 21.5666 40.3226 21.6556C40.459 21.7446 40.5312 21.8822 40.5553 22.0521L40.106 22.2625C40.0658 22.1573 40.0177 22.0844 39.9535 22.0359C39.8893 21.9874 39.8091 21.9631 39.7128 21.9631C39.5764 21.9631 39.4561 22.0035 39.3598 22.0764C39.2635 22.1492 39.1993 22.2463 39.1672 22.3757C39.1191 22.5699 39.2555 22.756 39.5684 22.9259C39.5925 22.9421 39.6085 22.9502 39.6245 22.9583C39.8974 23.1039 40.0819 23.2496 40.1621 23.3952C40.2424 23.5409 40.2584 23.7108 40.2103 23.9292C40.1381 24.2367 39.9856 24.4794 39.7529 24.6655C39.5202 24.8435 39.2474 24.9406 38.9265 24.9406C38.6617 24.9406 38.4531 24.8759 38.3087 24.7464C38.1482 24.617 38.076 24.4309 38.084 24.1962ZM41.8631 24.8516L42.6334 21.5909H43.1469L42.3766 24.8516H41.8631ZM43.1148 24.8516L43.9171 21.4614L45.4416 23.4519C45.4817 23.5085 45.5218 23.5651 45.5619 23.6299C45.602 23.6946 45.6422 23.7674 45.6903 23.8483L46.2279 21.5909H46.7013L45.8989 24.973L44.3424 22.9421C44.3022 22.8855 44.2621 22.8288 44.222 22.7722C44.1819 22.7075 44.1498 22.6508 44.1257 22.578L43.5881 24.8435H43.1148V24.8516ZM48.338 22.0359L47.6721 24.8435H47.1586L47.8245 22.0359H46.9901L47.0944 21.5828H49.2768L49.1725 22.0359H48.338ZM48.8917 24.8516L49.6619 21.5909H51.4271L51.3228 22.044H50.0791L49.8866 22.8612H51.1302L51.0179 23.3224H49.7742L49.5255 24.3743H50.7691L50.6568 24.8516H48.8917ZM52.0609 23.3871L51.7159 24.8435H51.2345L52.0048 21.5828H52.7189C52.9275 21.5828 53.0879 21.599 53.1922 21.6232C53.3046 21.6475 53.3928 21.6961 53.457 21.7608C53.5373 21.8417 53.5854 21.9388 53.6095 22.0683C53.6335 22.1896 53.6255 22.3272 53.5934 22.4809C53.5292 22.7398 53.4249 22.9502 53.2645 23.0958C53.104 23.2415 52.9034 23.3305 52.6627 23.3629L53.3928 24.8435H52.8151L52.1171 23.3871H52.0609ZM52.1893 22.9745H52.2856C52.5584 22.9745 52.7429 22.9421 52.8472 22.8774C52.9515 22.8127 53.0238 22.6994 53.0639 22.5295C53.104 22.3515 53.0879 22.222 53.0077 22.1492C52.9275 22.0764 52.759 22.0359 52.5022 22.0359H52.4059L52.1893 22.9745ZM53.7057 24.8516L54.476 21.5909H56.2331L56.1288 22.044H54.8852L54.6926 22.8531H55.9363L55.8239 23.3143H54.5803L54.2192 24.8435H53.7057V24.8516ZM57.9421 24.8516L57.7817 24.0101H56.53L55.9684 24.8516H55.4308L57.7576 21.4614L58.4797 24.8516H57.9421ZM56.8269 23.5651H57.7014L57.557 22.8207C57.549 22.7722 57.541 22.7156 57.541 22.6589C57.5329 22.5942 57.5329 22.5295 57.5329 22.4566C57.5008 22.5295 57.4688 22.5942 57.4286 22.6589C57.3965 22.7237 57.3644 22.7803 57.3323 22.8288L56.8269 23.5651ZM61.8175 22.3838C61.7051 22.2544 61.5687 22.1573 61.4243 22.1006C61.2799 22.0359 61.1194 22.0035 60.9349 22.0035C60.5899 22.0035 60.285 22.1168 60.0122 22.3434C59.7394 22.5699 59.5629 22.8693 59.4746 23.2334C59.3944 23.5813 59.4265 23.8726 59.5869 24.1072C59.7394 24.3338 59.9801 24.4471 60.301 24.4471C60.4856 24.4471 60.6701 24.4147 60.8547 24.3419C61.0392 24.2772 61.2237 24.172 61.4163 24.0344L61.2719 24.6332C61.1114 24.7384 60.9429 24.8112 60.7664 24.8597C60.5899 24.9083 60.4134 24.9325 60.2208 24.9325C59.9801 24.9325 59.7635 24.8921 59.5789 24.8112C59.3944 24.7303 59.2419 24.6089 59.1216 24.4471C59.0012 24.2933 58.929 24.1072 58.8969 23.8969C58.8648 23.6865 58.8729 23.4599 58.937 23.2172C58.9932 22.9745 59.0895 22.756 59.2179 22.5456C59.3462 22.3353 59.5147 22.1492 59.7073 21.9954C59.8999 21.8336 60.1085 21.7123 60.3331 21.6313C60.5578 21.5504 60.7824 21.51 61.0151 21.51C61.1997 21.51 61.3682 21.5342 61.5286 21.5909C61.6811 21.6475 61.8255 21.7284 61.9539 21.8417L61.8175 22.3838ZM61.8656 24.8516L62.6359 21.5909H64.393L64.2887 22.044H63.0451L62.8525 22.8612H64.0961L63.9838 23.3224H62.7402L62.4914 24.3743H63.7351L63.6228 24.8516H61.8656Z" fill="#3D3D3C"/>
<path d="M52.5287 18.7512H49.0064L53.9007 0.92627H57.423L52.5287 18.7512ZM50.6994 1.48456C50.4587 1.14473 50.0816 0.974817 49.5681 0.974817H30.2155L29.2607 4.47021H32.783H46.8642L45.8372 8.20025H31.756V8.19215H28.2337L25.3131 18.8321H28.8354L30.7932 11.6956H46.6235C47.1209 11.6956 47.5863 11.5257 48.0195 11.1859C48.4528 10.8461 48.7416 10.4253 48.878 9.92367L50.8358 2.78724C50.9882 2.25322 50.9401 1.82439 50.6994 1.48456ZM23.2591 17.6346C23.0666 18.3385 22.4247 18.8321 21.7026 18.8321H3.54547C3.04801 18.8321 2.67893 18.6621 2.43823 18.3223C2.19753 17.9825 2.14136 17.5617 2.28578 17.0601L6.71474 0.974817H10.237L6.28147 15.3448H20.3707L24.3262 0.974817H27.8485L23.2591 17.6346Z" fill="#70706E"/>
<path d="M63.5041 0.958496L67.9571 9.89117L58.5938 18.8238L63.5041 0.958496Z" fill="#098041"/>
<path d="M60.3754 0.958496L64.8284 9.89117L55.457 18.8238L60.3754 0.958496Z" fill="#E97626"/>
</g>
<defs>
<clipPath id="clip0_2788_2032">
<rect width="67.9947" height="24.8995" fill="white" transform="translate(0.183594 0.426758)"/>
</clipPath>
</defs>
</svg>
