<svg width="98" height="30" viewBox="0 0 98 30" fill="none" xmlns="http://www.w3.org/2000/svg">
<rect x="16.0947" y="7" width="81" height="16" rx="8" fill="#098041"/>
<g filter="url(#filter0_i_809_47678)">
<path d="M34.583 10.9688H36.5869L35.6377 16.5352C35.5439 17.1875 35.3311 17.7461 34.999 18.2109C34.6709 18.6758 34.2471 19.0293 33.7275 19.2715C33.208 19.5137 32.6201 19.6309 31.9639 19.623C31.3545 19.6113 30.8213 19.4805 30.3643 19.2305C29.9111 18.9805 29.5713 18.627 29.3447 18.1699C29.1182 17.7129 29.042 17.1699 29.1162 16.541L30.0654 10.9688H32.0752L31.1318 16.5469C31.1006 16.8047 31.1025 17.0449 31.1377 17.2676C31.1768 17.4902 31.2705 17.6719 31.4189 17.8125C31.5674 17.9531 31.79 18.0273 32.0869 18.0352C32.4033 18.0469 32.667 17.9883 32.8779 17.8594C33.0928 17.7305 33.2607 17.5508 33.3818 17.3203C33.5068 17.0898 33.5908 16.8301 33.6338 16.541L34.583 10.9688ZM41.0107 17.1914C41.0459 17.0078 41.0322 16.8516 40.9697 16.7227C40.9111 16.5938 40.8213 16.4844 40.7002 16.3945C40.583 16.3047 40.4482 16.2285 40.2959 16.166C40.1475 16.0996 40.0029 16.0391 39.8623 15.9844C39.5576 15.8633 39.2568 15.7266 38.96 15.5742C38.6631 15.418 38.3936 15.2344 38.1514 15.0234C37.9092 14.8125 37.7197 14.5664 37.583 14.2852C37.4502 14.0039 37.3936 13.6738 37.4131 13.2949C37.4404 12.8613 37.5635 12.4883 37.7822 12.1758C38.001 11.8633 38.2803 11.6094 38.6201 11.4141C38.9639 11.2148 39.333 11.0703 39.7275 10.9805C40.126 10.8867 40.5146 10.8438 40.8936 10.8516C41.4326 10.8594 41.9131 10.9688 42.335 11.1797C42.7607 11.3906 43.0947 11.6934 43.3369 12.0879C43.5791 12.4785 43.6963 12.9512 43.6885 13.5059H41.7021C41.71 13.2871 41.6807 13.0977 41.6143 12.9375C41.5518 12.7734 41.4482 12.6465 41.3037 12.5566C41.1592 12.4629 40.9717 12.4141 40.7412 12.4102C40.5498 12.4062 40.3584 12.4375 40.167 12.5039C39.9756 12.5664 39.8096 12.6641 39.6689 12.7969C39.5283 12.9297 39.4385 13.1016 39.3994 13.3125C39.3721 13.4727 39.3975 13.6133 39.4756 13.7344C39.5537 13.8516 39.6611 13.9531 39.7979 14.0391C39.9346 14.1211 40.0771 14.1914 40.2256 14.25C40.3779 14.3086 40.5107 14.3594 40.624 14.4023C40.9443 14.5234 41.251 14.666 41.5439 14.8301C41.8408 14.9902 42.1025 15.1797 42.3291 15.3984C42.5596 15.6172 42.7354 15.873 42.8564 16.166C42.9814 16.4551 43.0322 16.791 43.0088 17.1738C42.9775 17.6152 42.8604 17.9922 42.6572 18.3047C42.4541 18.6172 42.1924 18.8711 41.8721 19.0664C41.5518 19.2617 41.2002 19.4043 40.8174 19.4941C40.4346 19.584 40.0459 19.627 39.6514 19.623C39.21 19.6152 38.7979 19.5488 38.415 19.4238C38.0322 19.2949 37.6982 19.1094 37.4131 18.8672C37.1279 18.6211 36.9072 18.3203 36.751 17.9648C36.5947 17.6055 36.5205 17.1934 36.5283 16.7285L38.5381 16.7344C38.5264 16.9531 38.54 17.1465 38.5791 17.3145C38.6221 17.4785 38.6924 17.6172 38.79 17.7305C38.8916 17.8398 39.0225 17.9238 39.1826 17.9824C39.3428 18.0371 39.5361 18.0645 39.7627 18.0645C39.9541 18.0645 40.1377 18.0352 40.3135 17.9766C40.4932 17.9141 40.6455 17.8184 40.7705 17.6895C40.8955 17.5605 40.9756 17.3945 41.0107 17.1914ZM49.6182 17.918L49.3428 19.5H44.9189L45.1943 17.918H49.6182ZM47.1221 10.9688L45.6396 19.5H43.6357L45.1123 10.9688H47.1221ZM49.665 14.3555L49.4014 15.8848H45.5459L45.8154 14.3555H49.665ZM50.8369 10.9688L50.5615 12.5566H46.1201L46.4014 10.9688H50.8369ZM52.9521 19.5H51.001L51.2881 17.918L53.0166 17.9297C53.5049 17.9297 53.9072 17.8086 54.2236 17.5664C54.5439 17.3242 54.792 17.0098 54.9678 16.623C55.1475 16.2363 55.2686 15.8281 55.3311 15.3984L55.3721 15.0352C55.4072 14.7773 55.4229 14.5078 55.4189 14.2266C55.415 13.9414 55.374 13.6758 55.2959 13.4297C55.2178 13.1836 55.085 12.9805 54.8975 12.8203C54.7139 12.6602 54.4561 12.5742 54.124 12.5625L52.1729 12.5566L52.4482 10.9688L54.1885 10.9746C54.7588 10.9863 55.2588 11.1035 55.6885 11.3262C56.1182 11.5449 56.4717 11.8438 56.749 12.2227C57.0264 12.5977 57.2217 13.0273 57.335 13.5117C57.4482 13.9961 57.4736 14.5059 57.4111 15.041L57.3701 15.4102C57.2959 15.9805 57.1357 16.5156 56.8896 17.0156C56.6436 17.5117 56.3271 17.9473 55.9404 18.3223C55.5537 18.6934 55.1064 18.9844 54.5986 19.1953C54.0947 19.4023 53.5459 19.5039 52.9521 19.5ZM53.6377 10.9688L52.1553 19.5H50.1514L51.6279 10.9688H53.6377ZM64.7412 15.873H62.5205L62.749 14.5254L64.3779 14.5312C64.6162 14.5312 64.8447 14.5039 65.0635 14.4492C65.2861 14.3906 65.4736 14.2891 65.626 14.1445C65.7822 14 65.8818 13.7949 65.9248 13.5293C65.96 13.2871 65.9404 13.0977 65.8662 12.9609C65.792 12.8203 65.6729 12.7207 65.5088 12.6621C65.3486 12.5996 65.1572 12.5664 64.9346 12.5625L63.8623 12.5566L62.6553 19.5H60.6514L62.1279 10.9688L64.999 10.9746C65.3701 10.9785 65.7373 11.0195 66.1006 11.0977C66.4639 11.1758 66.79 11.3027 67.0791 11.4785C67.3682 11.6504 67.5947 11.8848 67.7588 12.1816C67.9229 12.4746 67.9912 12.8418 67.9639 13.2832C67.9365 13.7637 67.8018 14.1543 67.5596 14.4551C67.3213 14.752 67.0127 14.9727 66.6338 15.1172C66.2549 15.2578 65.8447 15.334 65.4033 15.3457L64.7412 15.873ZM64.0615 19.5H61.3662L62.3271 17.918L64.126 17.9238C64.3486 17.9199 64.5576 17.8828 64.7529 17.8125C64.9521 17.7422 65.1182 17.6328 65.251 17.4844C65.3877 17.332 65.4756 17.1387 65.5146 16.9043C65.5498 16.7051 65.5459 16.5312 65.5029 16.3828C65.4639 16.2305 65.3818 16.1113 65.2568 16.0254C65.1357 15.9395 64.9717 15.8906 64.7646 15.8789L62.9775 15.873L63.2236 14.5254L65.1689 14.5312L65.5205 15.0645C65.915 15.0684 66.2646 15.1387 66.5693 15.2754C66.874 15.4121 67.1084 15.6191 67.2725 15.8965C67.4404 16.1699 67.5107 16.5137 67.4834 16.9277C67.4443 17.5645 67.2607 18.0723 66.9326 18.4512C66.6045 18.8262 66.1865 19.0957 65.6787 19.2598C65.1709 19.4238 64.6318 19.5039 64.0615 19.5ZM75.9326 15.0293L75.8916 15.375C75.8135 15.9336 75.6631 16.4707 75.4404 16.9863C75.2217 17.498 74.9326 17.9531 74.5732 18.3516C74.2178 18.75 73.7959 19.0645 73.3076 19.2949C72.8193 19.5215 72.2705 19.6289 71.6611 19.6172C71.0752 19.6055 70.5752 19.4805 70.1611 19.2422C69.751 19.0039 69.4229 18.6855 69.1768 18.2871C68.9346 17.8887 68.7705 17.4414 68.6846 16.9453C68.5986 16.4492 68.5869 15.9375 68.6494 15.4102L68.6904 15.0645C68.7686 14.5098 68.9189 13.9785 69.1416 13.4707C69.3643 12.959 69.6553 12.5039 70.0146 12.1055C70.374 11.707 70.7979 11.3965 71.2861 11.1738C71.7744 10.9473 72.3213 10.8398 72.9268 10.8516C73.5088 10.8594 74.0049 10.9824 74.415 11.2207C74.8252 11.459 75.1514 11.7773 75.3936 12.1758C75.6396 12.5703 75.8057 13.0156 75.8916 13.5117C75.9814 14.0039 75.9951 14.5098 75.9326 15.0293ZM73.8525 15.4102L73.8994 15.0469C73.9268 14.8164 73.9443 14.5566 73.9521 14.2676C73.96 13.9785 73.9346 13.6992 73.876 13.4297C73.8174 13.1562 73.7041 12.9297 73.5361 12.75C73.3721 12.5703 73.1299 12.4727 72.8096 12.457C72.4541 12.4414 72.1533 12.5137 71.9072 12.6738C71.6611 12.8301 71.458 13.041 71.2979 13.3066C71.1416 13.5684 71.0186 13.8535 70.9287 14.1621C70.8389 14.4707 70.7744 14.7676 70.7354 15.0527L70.6885 15.416C70.6611 15.6465 70.6416 15.9082 70.6299 16.2012C70.6221 16.4902 70.6455 16.7715 70.7002 17.0449C70.7588 17.3184 70.8721 17.5469 71.04 17.7305C71.208 17.9102 71.4541 18.0059 71.7783 18.0176C72.126 18.0332 72.4229 17.9609 72.6689 17.8008C72.915 17.6367 73.1182 17.4219 73.2783 17.1562C73.4424 16.8906 73.5693 16.6035 73.6592 16.2949C73.7529 15.9863 73.8174 15.6914 73.8525 15.4102ZM83.9717 15.0293L83.9307 15.375C83.8525 15.9336 83.7021 16.4707 83.4795 16.9863C83.2607 17.498 82.9717 17.9531 82.6123 18.3516C82.2568 18.75 81.835 19.0645 81.3467 19.2949C80.8584 19.5215 80.3096 19.6289 79.7002 19.6172C79.1143 19.6055 78.6143 19.4805 78.2002 19.2422C77.79 19.0039 77.4619 18.6855 77.2158 18.2871C76.9736 17.8887 76.8096 17.4414 76.7236 16.9453C76.6377 16.4492 76.626 15.9375 76.6885 15.4102L76.7295 15.0645C76.8076 14.5098 76.958 13.9785 77.1807 13.4707C77.4033 12.959 77.6943 12.5039 78.0537 12.1055C78.4131 11.707 78.8369 11.3965 79.3252 11.1738C79.8135 10.9473 80.3604 10.8398 80.9658 10.8516C81.5479 10.8594 82.0439 10.9824 82.4541 11.2207C82.8643 11.459 83.1904 11.7773 83.4326 12.1758C83.6787 12.5703 83.8447 13.0156 83.9307 13.5117C84.0205 14.0039 84.0342 14.5098 83.9717 15.0293ZM81.8916 15.4102L81.9385 15.0469C81.9658 14.8164 81.9834 14.5566 81.9912 14.2676C81.999 13.9785 81.9736 13.6992 81.915 13.4297C81.8564 13.1562 81.7432 12.9297 81.5752 12.75C81.4111 12.5703 81.1689 12.4727 80.8486 12.457C80.4932 12.4414 80.1924 12.5137 79.9463 12.6738C79.7002 12.8301 79.4971 13.041 79.3369 13.3066C79.1807 13.5684 79.0576 13.8535 78.9678 14.1621C78.8779 14.4707 78.8135 14.7676 78.7744 15.0527L78.7275 15.416C78.7002 15.6465 78.6807 15.9082 78.6689 16.2012C78.6611 16.4902 78.6846 16.7715 78.7393 17.0449C78.7979 17.3184 78.9111 17.5469 79.0791 17.7305C79.2471 17.9102 79.4932 18.0059 79.8174 18.0176C80.165 18.0332 80.4619 17.9609 80.708 17.8008C80.9541 17.6367 81.1572 17.4219 81.3174 17.1562C81.4814 16.8906 81.6084 16.6035 81.6982 16.2949C81.792 15.9863 81.8564 15.6914 81.8916 15.4102ZM87.7275 10.9688L86.2451 19.5H84.2412L85.7178 10.9688H87.7275ZM92.7314 10.9688L88.7354 15.3398L86.4736 17.4609L86.4385 15.4277L87.9268 13.5938L90.1357 10.9688H92.7314ZM88.8701 19.5L87.3701 15.5859L89.0518 14.4609L91.1553 19.5H88.8701Z" fill="white"/>
</g>
<rect x="16.0947" y="7" width="81" height="16" rx="8" stroke="#098041"/>
<g filter="url(#filter1_iii_809_47678)">
<circle cx="15.0947" cy="15" r="12.5" fill="#098041"/>
</g>
<circle cx="15.0947" cy="15" r="13.2544" stroke="#484848" stroke-width="1.50888"/>
<circle cx="15.0947" cy="15" r="13.2544" stroke="#098041" stroke-width="1.50888"/>
<g clip-path="url(#clip0_809_47678)">
<g filter="url(#filter2_ii_809_47678)">
<path fill-rule="evenodd" clip-rule="evenodd" d="M15.0497 10.9043C13.785 10.9043 12.7598 11.9295 12.7598 13.1943C12.7598 14.459 13.785 15.4842 15.0497 15.4842C16.3144 15.4842 17.3397 14.459 17.3397 13.1943C17.3397 11.9295 16.3144 10.9043 15.0497 10.9043ZM13.8167 13.1943C13.8167 12.5133 14.3687 11.9612 15.0497 11.9612C15.7307 11.9612 16.2828 12.5133 16.2828 13.1943C16.2828 13.8753 15.7307 14.4273 15.0497 14.4273C14.3687 14.4273 13.8167 13.8753 13.8167 13.1943Z" fill="white"/>
<path fill-rule="evenodd" clip-rule="evenodd" d="M15.0497 10.9043C13.785 10.9043 12.7598 11.9295 12.7598 13.1943C12.7598 14.459 13.785 15.4842 15.0497 15.4842C16.3144 15.4842 17.3397 14.459 17.3397 13.1943C17.3397 11.9295 16.3144 10.9043 15.0497 10.9043ZM13.8167 13.1943C13.8167 12.5133 14.3687 11.9612 15.0497 11.9612C15.7307 11.9612 16.2828 12.5133 16.2828 13.1943C16.2828 13.8753 15.7307 14.4273 15.0497 14.4273C14.3687 14.4273 13.8167 13.8753 13.8167 13.1943Z" fill="white"/>
</g>
<g filter="url(#filter3_ii_809_47678)">
<path fill-rule="evenodd" clip-rule="evenodd" d="M15.05 8.08496C12.2288 8.08496 9.94167 10.3721 9.94167 13.1933C9.94167 14.2278 10.2492 15.1904 10.7777 15.9948L8.95556 19.1508C8.85194 19.3304 8.8628 19.5538 8.98333 19.7224C9.10385 19.891 9.3118 19.9736 9.51515 19.9336L11.3569 19.5715L11.9642 21.3476C12.0313 21.5437 12.2068 21.6825 12.413 21.7026C12.6193 21.7226 12.8183 21.6203 12.9219 21.4408L14.7396 18.2924C14.8423 18.2986 14.9458 18.3017 15.05 18.3017C15.1543 18.3017 15.2578 18.2986 15.3605 18.2924L17.1782 21.4408C17.2819 21.6205 17.4812 21.7228 17.6877 21.7025C17.8941 21.6822 18.0696 21.543 18.1363 21.3465L18.7405 19.5668L20.5838 19.9334C20.7873 19.9739 20.9956 19.8915 21.1165 19.7229C21.2373 19.5542 21.2482 19.3305 21.1445 19.1508L19.3224 15.9948C19.8509 15.1904 20.1584 14.2278 20.1584 13.1933C20.1584 10.3721 17.8713 8.08496 15.05 8.08496ZM10.9986 13.1933C10.9986 10.9558 12.8125 9.14187 15.05 9.14187C17.2876 9.14187 19.1015 10.9558 19.1015 13.1933C19.1015 15.4309 17.2876 17.2448 15.05 17.2448C12.8125 17.2448 10.9986 15.4309 10.9986 13.1933ZM13.6294 18.1016C12.817 17.8668 12.0879 17.4359 11.4967 16.8633L10.4523 18.6723L11.6057 18.4455C11.865 18.3945 12.1222 18.543 12.2077 18.793L12.588 19.9053L13.6294 18.1016ZM17.5104 19.9024L16.4707 18.1016C17.2831 17.8668 18.0122 17.4359 18.6034 16.8633L19.6461 18.6693L18.4921 18.4399C18.232 18.3882 17.9739 18.5372 17.8887 18.7883L17.5104 19.9024Z" fill="white"/>
<path fill-rule="evenodd" clip-rule="evenodd" d="M15.05 8.08496C12.2288 8.08496 9.94167 10.3721 9.94167 13.1933C9.94167 14.2278 10.2492 15.1904 10.7777 15.9948L8.95556 19.1508C8.85194 19.3304 8.8628 19.5538 8.98333 19.7224C9.10385 19.891 9.3118 19.9736 9.51515 19.9336L11.3569 19.5715L11.9642 21.3476C12.0313 21.5437 12.2068 21.6825 12.413 21.7026C12.6193 21.7226 12.8183 21.6203 12.9219 21.4408L14.7396 18.2924C14.8423 18.2986 14.9458 18.3017 15.05 18.3017C15.1543 18.3017 15.2578 18.2986 15.3605 18.2924L17.1782 21.4408C17.2819 21.6205 17.4812 21.7228 17.6877 21.7025C17.8941 21.6822 18.0696 21.543 18.1363 21.3465L18.7405 19.5668L20.5838 19.9334C20.7873 19.9739 20.9956 19.8915 21.1165 19.7229C21.2373 19.5542 21.2482 19.3305 21.1445 19.1508L19.3224 15.9948C19.8509 15.1904 20.1584 14.2278 20.1584 13.1933C20.1584 10.3721 17.8713 8.08496 15.05 8.08496ZM10.9986 13.1933C10.9986 10.9558 12.8125 9.14187 15.05 9.14187C17.2876 9.14187 19.1015 10.9558 19.1015 13.1933C19.1015 15.4309 17.2876 17.2448 15.05 17.2448C12.8125 17.2448 10.9986 15.4309 10.9986 13.1933ZM13.6294 18.1016C12.817 17.8668 12.0879 17.4359 11.4967 16.8633L10.4523 18.6723L11.6057 18.4455C11.865 18.3945 12.1222 18.543 12.2077 18.793L12.588 19.9053L13.6294 18.1016ZM17.5104 19.9024L16.4707 18.1016C17.2831 17.8668 18.0122 17.4359 18.6034 16.8633L19.6461 18.6693L18.4921 18.4399C18.232 18.3882 17.9739 18.5372 17.8887 18.7883L17.5104 19.9024Z" fill="white"/>
</g>
</g>
<defs>
<filter id="filter0_i_809_47678" x="29.0049" y="10.834" width="63.9266" height="9.00078" filterUnits="userSpaceOnUse" color-interpolation-filters="sRGB">
<feFlood flood-opacity="0" result="BackgroundImageFix"/>
<feBlend mode="normal" in="SourceGraphic" in2="BackgroundImageFix" result="shape"/>
<feColorMatrix in="SourceAlpha" type="matrix" values="0 0 0 0 0 0 0 0 0 0 0 0 0 0 0 0 0 0 127 0" result="hardAlpha"/>
<feOffset dx="0.2" dy="0.2"/>
<feGaussianBlur stdDeviation="0.1"/>
<feComposite in2="hardAlpha" operator="arithmetic" k2="-1" k3="1"/>
<feColorMatrix type="matrix" values="0 0 0 0 0 0 0 0 0 0 0 0 0 0 0 0 0 0 0.5 0"/>
<feBlend mode="normal" in2="shape" result="effect1_innerShadow_809_47678"/>
</filter>
<filter id="filter1_iii_809_47678" x="0.885937" y="0.791211" width="28.7176" height="28.7176" filterUnits="userSpaceOnUse" color-interpolation-filters="sRGB">
<feFlood flood-opacity="0" result="BackgroundImageFix"/>
<feBlend mode="normal" in="SourceGraphic" in2="BackgroundImageFix" result="shape"/>
<feColorMatrix in="SourceAlpha" type="matrix" values="0 0 0 0 0 0 0 0 0 0 0 0 0 0 0 0 0 0 127 0" result="hardAlpha"/>
<feOffset dx="0.5"/>
<feComposite in2="hardAlpha" operator="arithmetic" k2="-1" k3="1"/>
<feColorMatrix type="matrix" values="0 0 0 0 0 0 0 0 0 0 0 0 0 0 0 0 0 0 0.25 0"/>
<feBlend mode="normal" in2="shape" result="effect1_innerShadow_809_47678"/>
<feColorMatrix in="SourceAlpha" type="matrix" values="0 0 0 0 0 0 0 0 0 0 0 0 0 0 0 0 0 0 127 0" result="hardAlpha"/>
<feOffset dx="0.5" dy="0.5"/>
<feGaussianBlur stdDeviation="2"/>
<feComposite in2="hardAlpha" operator="arithmetic" k2="-1" k3="1"/>
<feColorMatrix type="matrix" values="0 0 0 0 0 0 0 0 0 0 0 0 0 0 0 0 0 0 0.5 0"/>
<feBlend mode="normal" in2="effect1_innerShadow_809_47678" result="effect2_innerShadow_809_47678"/>
<feColorMatrix in="SourceAlpha" type="matrix" values="0 0 0 0 0 0 0 0 0 0 0 0 0 0 0 0 0 0 127 0" result="hardAlpha"/>
<feOffset dx="-0.2" dy="-0.2"/>
<feGaussianBlur stdDeviation="2"/>
<feComposite in2="hardAlpha" operator="arithmetic" k2="-1" k3="1"/>
<feColorMatrix type="matrix" values="0 0 0 0 0 0 0 0 0 0 0 0 0 0 0 0 0 0 0.5 0"/>
<feBlend mode="normal" in2="effect2_innerShadow_809_47678" result="effect3_innerShadow_809_47678"/>
</filter>
<filter id="filter2_ii_809_47678" x="12.5598" y="10.7043" width="4.98008" height="4.98008" filterUnits="userSpaceOnUse" color-interpolation-filters="sRGB">
<feFlood flood-opacity="0" result="BackgroundImageFix"/>
<feBlend mode="normal" in="SourceGraphic" in2="BackgroundImageFix" result="shape"/>
<feColorMatrix in="SourceAlpha" type="matrix" values="0 0 0 0 0 0 0 0 0 0 0 0 0 0 0 0 0 0 127 0" result="hardAlpha"/>
<feOffset dx="-0.2" dy="-0.2"/>
<feGaussianBlur stdDeviation="0.15"/>
<feComposite in2="hardAlpha" operator="arithmetic" k2="-1" k3="1"/>
<feColorMatrix type="matrix" values="0 0 0 0 0 0 0 0 0 0.470588 0 0 0 0 0.956863 0 0 0 0.5 0"/>
<feBlend mode="normal" in2="shape" result="effect1_innerShadow_809_47678"/>
<feColorMatrix in="SourceAlpha" type="matrix" values="0 0 0 0 0 0 0 0 0 0 0 0 0 0 0 0 0 0 127 0" result="hardAlpha"/>
<feOffset dx="0.2" dy="0.2"/>
<feGaussianBlur stdDeviation="0.1"/>
<feComposite in2="hardAlpha" operator="arithmetic" k2="-1" k3="1"/>
<feColorMatrix type="matrix" values="0 0 0 0 0.0352941 0 0 0 0 0.501961 0 0 0 0 0.254902 0 0 0 0.2 0"/>
<feBlend mode="normal" in2="effect1_innerShadow_809_47678" result="effect2_innerShadow_809_47678"/>
</filter>
<filter id="filter3_ii_809_47678" x="8.68477" y="7.88496" width="12.7306" height="14.0201" filterUnits="userSpaceOnUse" color-interpolation-filters="sRGB">
<feFlood flood-opacity="0" result="BackgroundImageFix"/>
<feBlend mode="normal" in="SourceGraphic" in2="BackgroundImageFix" result="shape"/>
<feColorMatrix in="SourceAlpha" type="matrix" values="0 0 0 0 0 0 0 0 0 0 0 0 0 0 0 0 0 0 127 0" result="hardAlpha"/>
<feOffset dx="-0.2" dy="-0.2"/>
<feGaussianBlur stdDeviation="0.15"/>
<feComposite in2="hardAlpha" operator="arithmetic" k2="-1" k3="1"/>
<feColorMatrix type="matrix" values="0 0 0 0 0 0 0 0 0 0.470588 0 0 0 0 0.956863 0 0 0 0.5 0"/>
<feBlend mode="normal" in2="shape" result="effect1_innerShadow_809_47678"/>
<feColorMatrix in="SourceAlpha" type="matrix" values="0 0 0 0 0 0 0 0 0 0 0 0 0 0 0 0 0 0 127 0" result="hardAlpha"/>
<feOffset dx="0.2" dy="0.2"/>
<feGaussianBlur stdDeviation="0.1"/>
<feComposite in2="hardAlpha" operator="arithmetic" k2="-1" k3="1"/>
<feColorMatrix type="matrix" values="0 0 0 0 0.0352941 0 0 0 0 0.501961 0 0 0 0 0.254902 0 0 0 0.2 0"/>
<feBlend mode="normal" in2="effect1_innerShadow_809_47678" result="effect2_innerShadow_809_47678"/>
</filter>
<clipPath id="clip0_809_47678">
<rect width="13" height="15" fill="white" transform="translate(8.59473 7.5)"/>
</clipPath>
</defs>
</svg>
