<svg width="16" height="19" viewBox="0 0 16 19" fill="none" xmlns="http://www.w3.org/2000/svg">
<path fill-rule="evenodd" clip-rule="evenodd" d="M0.254741 1.72368C0.155511 0.53224 1.49039 -0.126491 2.40671 0.485629L2.70311 0.68364C7.22276 3.70288 11.4526 7.11021 15.3414 10.8645C16.3101 11.7997 15.4559 13.2757 14.2471 13.1462L8.98066 12.5822C8.44446 12.5248 7.95036 12.813 7.74686 13.2621L5.61826 17.9591C5.10416 19.0935 3.41076 18.988 3.07382 17.7641C1.65905 12.625 0.725211 7.37274 0.283681 2.07117L0.254741 1.72368ZM1.77173 1.86536L1.7785 1.94668C2.20128 7.02307 3.08349 12.0537 4.41487 16.9805L6.38066 12.6429C6.86106 11.5828 7.98446 10.967 9.14036 11.0908L13.9474 11.6056C10.2206 8.04706 6.17936 4.80983 1.86988 1.93093L1.77173 1.86536Z" fill="white"/>
</svg>
