<svg width="57" height="26" viewBox="0 0 57 26" fill="none" xmlns="http://www.w3.org/2000/svg">
<g clip-path="url(#clip0_2788_2020)">
<path d="M22.1615 0.745646L14.8266 18.2098H10.0413L6.43173 4.27176C6.21289 3.41535 6.02272 3.10018 5.35678 2.73804C4.26825 2.14788 2.47067 1.59594 0.890625 1.25259L0.997202 0.745646H8.70135C9.68177 0.745646 10.5646 1.39718 10.7891 2.5253L12.6963 12.6321L17.405 0.745646H22.1615ZM28.6305 0.745646L24.8876 18.2098H20.3602L24.1035 0.745646H28.6307H28.6305ZM40.9111 12.5078C40.9299 7.89944 34.5266 7.64368 34.5684 5.58466C34.5837 4.95868 35.1812 4.29229 36.489 4.12193C37.1367 4.03827 38.9264 3.97166 40.9536 4.90386L41.7467 1.1982C40.6575 0.805055 39.2558 0.426758 37.5123 0.426758C33.0369 0.426758 29.8889 2.7992 29.8637 6.19907C29.8344 8.71392 32.1123 10.1155 33.8254 10.9531C35.59 11.8084 36.1817 12.3582 36.1736 13.1227C36.1609 14.2945 34.7643 14.8132 33.4659 14.8324C31.189 14.8685 29.8692 14.2182 28.8163 13.7288L27.9946 17.5572C29.0538 18.0416 31.0058 18.4625 33.0277 18.4839C37.7854 18.4839 40.8971 16.1388 40.9111 12.508V12.5078ZM52.7286 18.2098H56.9145L53.2576 0.745646H49.3957C48.5247 0.745646 47.7926 1.25019 47.4679 2.02578L40.675 18.2098H45.4289L46.3719 15.601H52.18L52.7289 18.2098H52.7286ZM47.6756 12.0223L50.0592 5.46388L51.4285 12.0223H47.6753H47.6756ZM34.4246 23.0169H32.585V24.7256H34.6426V25.2393H31.9653V20.4992H34.5371V21.0129H32.585V22.5106H34.4244V23.0174L34.4246 23.0169ZM35.593 20.2461H36.2128V25.2391H35.593V20.2461ZM37.7766 23.6497C37.7906 24.4869 38.3194 24.8313 38.9461 24.8313C39.3904 24.8313 39.665 24.754 39.8909 24.6557L40.0034 25.0989C39.785 25.1972 39.4046 25.3166 38.8617 25.3166C37.8121 25.3166 37.1851 24.6205 37.1851 23.5935C37.1851 22.567 37.7906 21.765 38.7844 21.765C39.9049 21.765 40.1938 22.7358 40.1938 23.3616C40.1938 23.488 40.1865 23.5793 40.1723 23.6499H37.7766V23.6497ZM39.5946 23.2067C39.6018 22.8201 39.4326 22.2081 38.7349 22.2081C38.1007 22.2081 37.8329 22.7778 37.7834 23.2067H39.5946ZM43.5674 25.1196C43.4055 25.1972 43.0459 25.3168 42.5881 25.3168C41.5593 25.3168 40.8899 24.6205 40.8899 23.5796C40.8899 22.5316 41.6084 21.7652 42.7218 21.7652C43.0882 21.7652 43.4123 21.8563 43.5814 21.948L43.4409 22.4191C43.2924 22.3418 43.0599 22.257 42.7218 22.257C41.9395 22.257 41.5171 22.8409 41.5171 23.5446C41.5171 24.332 42.0244 24.8173 42.7008 24.8173C43.0532 24.8173 43.2856 24.733 43.4617 24.6557L43.5674 25.1196ZM45.3068 21.0195V21.8353H46.1944V22.3062H45.3068V24.142C45.3068 24.5644 45.4267 24.8031 45.7718 24.8031C45.9408 24.8031 46.0397 24.7894 46.1314 24.7608L46.1596 25.2325C46.0397 25.2745 45.8495 25.3166 45.6099 25.3166C45.3208 25.3166 45.0882 25.2181 44.9405 25.0567C44.7713 24.8665 44.7008 24.5644 44.7008 24.1634V22.3062H44.1721V21.8353H44.7008V21.2025L45.307 21.0197L45.3068 21.0195ZM47.0604 22.8974C47.0604 22.4964 47.053 22.152 47.0322 21.8353H47.5749L47.6033 22.5102H47.6239C47.7793 22.0535 48.1594 21.765 48.575 21.765C48.6387 21.765 48.6881 21.7722 48.7446 21.7789V22.363C48.6811 22.3486 48.6179 22.3486 48.5328 22.3486C48.0964 22.3486 47.7859 22.672 47.7016 23.1366C47.6871 23.232 47.68 23.3284 47.6804 23.4249V25.2395H47.0604V22.8974ZM52.5558 23.509C52.5558 24.768 51.6747 25.3166 50.8575 25.3166C49.9412 25.3166 49.2228 24.6413 49.2228 23.5656C49.2228 22.4331 49.9767 21.7652 50.914 21.7652C51.8933 21.7652 52.5558 22.475 52.5558 23.5092V23.509ZM49.8568 23.5444C49.8568 24.2899 50.2796 24.8527 50.8856 24.8527C51.4777 24.8527 51.9213 24.2966 51.9213 23.5302C51.9213 22.9536 51.6325 22.2289 50.8996 22.2289C50.1741 22.2289 49.8568 22.9044 49.8568 23.5444ZM53.506 22.7566C53.506 22.3981 53.4985 22.1166 53.4775 21.8355H54.0273L54.0625 22.3981H54.0765C54.2457 22.0814 54.6402 21.7652 55.204 21.7652C55.6758 21.7652 56.4089 22.0465 56.4089 23.2135V25.2393H55.789V23.2771C55.789 22.7288 55.5846 22.2712 54.9998 22.2712C54.598 22.2712 54.2807 22.5598 54.1684 22.9042C54.14 22.9818 54.126 23.087 54.126 23.1927V25.2393H53.506V22.7566Z" fill="#1A1F71"/>
</g>
<defs>
<clipPath id="clip0_2788_2020">
<rect width="56.0238" height="24.8995" fill="white" transform="translate(0.890625 0.426758)"/>
</clipPath>
</defs>
</svg>
