<svg width="347" height="258" viewBox="0 0 347 258" fill="none" xmlns="http://www.w3.org/2000/svg">
<g clip-path="url(#clip0_918_55432)">
<path d="M347 226.726H0V226.9H347V226.726Z" fill="#E0E0E0"/>
<path d="M298.226 235.771H278.523V235.944H298.226V235.771Z" fill="#E0E0E0"/>
<path d="M273.436 235.854H255.829V236.027H273.436V235.854Z" fill="#E0E0E0"/>
<path d="M191.974 231.844H168.274V232.017H191.974V231.844Z" fill="#E0E0E0"/>
<path d="M236.668 237.211H203.731V237.384H236.668V237.211Z" fill="#E0E0E0"/>
<path d="M99.1309 231.643H67.2416V231.816H99.1309V231.643Z" fill="#E0E0E0"/>
<path d="M113.816 231.643H102.983V231.816H113.816V231.643Z" fill="#E0E0E0"/>
<path d="M71.253 234.76H43.3472V234.933H71.253V234.76Z" fill="#E0E0E0"/>
<path d="M164.478 195.841H30.4736C29.4238 195.839 28.4176 195.421 27.676 194.68C26.9343 193.939 26.5178 192.934 26.5178 191.886V3.91958C26.5269 2.87807 26.9475 1.88222 27.6882 1.14833C28.4288 0.414437 29.4298 0.00178416 30.4736 0L164.478 0C165.529 0 166.537 0.416603 167.28 1.15816C168.023 1.89972 168.441 2.90549 168.441 3.95421V191.886C168.441 192.935 168.023 193.941 167.28 194.683C166.537 195.424 165.529 195.841 164.478 195.841ZM30.4736 0.138501C29.4698 0.140336 28.5078 0.539508 27.7987 1.2484C27.0895 1.95729 26.6913 2.91798 26.6913 3.91958V191.886C26.6913 192.888 27.0895 193.849 27.7987 194.558C28.5078 195.267 29.4698 195.666 30.4736 195.668H164.478C165.482 195.664 166.444 195.264 167.153 194.556C167.863 193.848 168.264 192.888 168.267 191.886V3.91958C168.264 2.9179 167.863 1.95829 167.153 1.24999C166.444 0.541685 165.482 0.14215 164.478 0.138501H30.4736Z" fill="#E0E0E0"/>
<path d="M314.597 195.841H180.586C179.536 195.837 178.53 195.419 177.788 194.678C177.045 193.938 176.627 192.934 176.623 191.886V3.91958C176.634 2.87744 177.056 1.88159 177.798 1.14789C178.54 0.414195 179.541 0.00176471 180.586 0L314.597 0C315.64 0.00360414 316.639 0.417061 317.378 1.15076C318.117 1.88445 318.537 2.87927 318.546 3.91958V191.886C318.547 192.405 318.445 192.918 318.248 193.398C318.05 193.877 317.759 194.312 317.392 194.68C317.026 195.047 316.59 195.338 316.11 195.538C315.631 195.737 315.117 195.84 314.597 195.841ZM180.586 0.138501C179.582 0.14215 178.62 0.541685 177.91 1.24999C177.201 1.95829 176.8 2.9179 176.796 3.91958V191.886C176.8 192.888 177.201 193.848 177.91 194.556C178.62 195.264 179.582 195.664 180.586 195.668H314.597C315.601 195.664 316.563 195.264 317.272 194.556C317.982 193.848 318.383 192.888 318.386 191.886V3.91958C318.383 2.9179 317.982 1.95829 317.272 1.24999C316.563 0.541685 315.601 0.14215 314.597 0.138501H180.586Z" fill="#E0E0E0"/>
<path d="M227.882 16.8071H49.5239V106.528H227.882V16.8071Z" fill="#E0E0E0"/>
<path d="M230.207 16.8071H51.8488V106.528H230.207V16.8071Z" fill="#EFEFEF"/>
<path d="M226.036 21.0106H56.0266V102.311H226.036V21.0106Z" fill="#F4F4F4"/>
<path d="M68.6158 102.318L114.725 21.0176H136.329L90.2269 102.318H68.6158Z" fill="white"/>
<path d="M97.4792 102.318L143.589 21.0176H165.193L119.09 102.318H97.4792Z" fill="white"/>
<path d="M157.538 102.318L203.64 21.0176H212.538L166.435 102.318H157.538Z" fill="white"/>
<path d="M170.689 21.0106H164.402V102.311H170.689V21.0106Z" fill="#E0E0E0"/>
<path d="M113.018 21.0106H106.73V102.311H113.018V21.0106Z" fill="#E0E0E0"/>
<path d="M172.896 17.8875H166.609V104.991H172.896V17.8875Z" fill="#F4F4F4"/>
<path d="M115.225 17.8875H108.937V104.991H115.225V17.8875Z" fill="#F4F4F4"/>
<path d="M226.036 21.0106H224.28V102.311H226.036V21.0106Z" fill="#E0E0E0"/>
<path d="M271.937 133.017C271.937 133.017 259.209 111.126 276.864 93.703C276.864 93.703 281.473 96.6946 281.403 100.725C281.334 104.755 276.469 105.773 277.51 109.139C278.551 112.505 283.152 115.801 280.14 118.578C277.128 121.355 280.619 123.834 280.418 127.234C280.216 130.634 271.937 133.017 271.937 133.017Z" fill="#E0E0E0"/>
<path d="M273.936 136.597C273.936 136.597 279.092 111.819 256.829 100.836C256.829 100.836 253.407 105.129 254.747 108.931C256.086 112.733 261.027 112.172 261.097 115.69C261.166 119.208 257.849 123.785 261.589 125.475C265.33 127.165 262.79 130.614 264.06 133.785C265.33 136.957 273.936 136.597 273.936 136.597Z" fill="#EBEBEB"/>
<path d="M262.603 130.302C262.603 130.302 262.825 140.634 271.389 140.634C279.953 140.634 280.182 130.302 280.182 130.302H262.603Z" fill="#F4F4F4"/>
<path d="M203.175 132.587C203.175 132.587 203.467 140.634 214.731 140.634C225.994 140.634 226.293 132.587 226.293 132.587H203.175Z" fill="#EBEBEB"/>
<path d="M229.318 134.582C229.318 134.582 229.541 140.634 238.007 140.634C246.474 140.634 246.689 134.582 246.689 134.582H229.318Z" fill="#EBEBEB"/>
<path d="M211.108 145.655H192.148V221.533H211.108V145.655Z" fill="#EBEBEB"/>
<path d="M289.28 221.526H195.784V226.726H289.28V221.526Z" fill="#EBEBEB"/>
<path d="M292.924 145.648H211.108V221.526H292.924V145.648Z" fill="#F4F4F4"/>
<path d="M285.47 152.988H218.561V179.899H285.47V152.988Z" fill="#EBEBEB"/>
<path d="M285.47 184.802H218.561V211.713H285.47V184.802Z" fill="#EBEBEB"/>
<path d="M259.556 155.938H244.503C244.013 155.938 243.543 155.745 243.195 155.399C242.848 155.054 242.652 154.586 242.65 154.096C242.654 153.607 242.85 153.139 243.197 152.793C243.544 152.447 244.013 152.251 244.503 152.247H259.556C260.046 152.251 260.516 152.447 260.862 152.793C261.209 153.139 261.405 153.607 261.409 154.096C261.407 154.586 261.211 155.054 260.864 155.399C260.516 155.745 260.046 155.938 259.556 155.938Z" fill="#F4F4F4"/>
<path d="M259.556 187.752H244.503C244.013 187.752 243.543 187.558 243.195 187.213C242.848 186.868 242.652 186.399 242.65 185.91C242.654 185.421 242.85 184.953 243.197 184.607C243.544 184.261 244.013 184.065 244.503 184.061H259.556C260.046 184.065 260.516 184.261 260.862 184.607C261.209 184.953 261.405 185.421 261.409 185.91C261.407 186.399 261.211 186.868 260.864 187.213C260.516 187.558 260.046 187.752 259.556 187.752Z" fill="#F4F4F4"/>
<path d="M295.443 140.634H211.101V145.655H295.443V140.634Z" fill="#EBEBEB"/>
<path d="M211.101 140.627H189.49V145.648H211.101V140.627Z" fill="#E0E0E0"/>
<path d="M291.216 29.4384H250.145V76.6535H291.216V29.4384Z" fill="#EBEBEB"/>
<path d="M295.88 29.4384H251.374V76.6535H295.88V29.4384Z" fill="#F4F4F4"/>
<path d="M292.153 33.1572H255.101V72.9278H292.153V33.1572Z" fill="white"/>
<path d="M279.904 42.7969H267.35C265.544 42.7969 264.081 44.2572 264.081 46.0586V60.0264C264.081 61.8278 265.544 63.2881 267.35 63.2881H279.904C281.709 63.2881 283.173 61.8278 283.173 60.0264V46.0586C283.173 44.2572 281.709 42.7969 279.904 42.7969Z" fill="#F4F4F4"/>
<path d="M186.748 182.766H181.981V226.726H186.748V182.766Z" fill="#E0E0E0"/>
<path opacity="0.5" d="M186.748 182.766H184.361V226.726H186.748V182.766Z" fill="#F4F4F4"/>
<path d="M165.866 195.079H162.59C162.949 194.776 163.238 194.398 163.436 193.972C163.633 193.547 163.736 193.083 163.735 192.614H124.92C124.921 193.083 125.024 193.547 125.223 193.973C125.422 194.399 125.712 194.776 126.072 195.079H122.838C121.678 195.079 120.566 195.539 119.746 196.357C118.926 197.175 118.466 198.285 118.466 199.442V212.163C118.466 213.32 118.926 214.43 119.746 215.248C120.566 216.066 121.678 216.526 122.838 216.526H165.866C167.026 216.526 168.138 216.066 168.958 215.248C169.778 214.43 170.238 213.32 170.238 212.163V199.442C170.238 198.285 169.778 197.175 168.958 196.357C168.138 195.539 167.026 195.079 165.866 195.079Z" fill="#F4F4F4"/>
<path d="M129.965 204.476H103.864C102.239 204.476 100.921 205.791 100.921 207.412V213.59C100.921 215.211 102.239 216.526 103.864 216.526H129.965C131.591 216.526 132.908 215.211 132.908 213.59V207.412C132.908 205.791 131.591 204.476 129.965 204.476Z" fill="#EBEBEB"/>
<path d="M131.922 201.817H101.907C101.363 201.817 100.921 202.257 100.921 202.8V203.922C100.921 204.465 101.363 204.906 101.907 204.906H131.922C132.467 204.906 132.908 204.465 132.908 203.922V202.8C132.908 202.257 132.467 201.817 131.922 201.817Z" fill="#E0E0E0"/>
<path d="M135.857 163.134C135.857 163.134 136.309 177.676 153.381 177.676C170.453 177.676 170.904 163.134 170.904 163.134H135.857Z" fill="#EBEBEB"/>
<path d="M74.8063 177.683H53.5143V182.766H74.8063V177.683Z" fill="#E0E0E0"/>
<path d="M203.273 177.683H74.8132V182.766H203.273V177.683Z" fill="#F4F4F4"/>
<path d="M74.8063 216.526H53.5143V221.609H74.8063V216.526Z" fill="#E0E0E0"/>
<path d="M58.2891 182.766H53.5213V226.726H58.2891V182.766Z" fill="#E0E0E0"/>
<path opacity="0.5" d="M58.2891 182.766H55.9017V226.726H58.2891V182.766Z" fill="#F4F4F4"/>
<path d="M77.1936 182.766H72.4258V226.726H77.1936V182.766Z" fill="#F4F4F4"/>
<path d="M74.8132 182.766H72.4258V226.726H74.8132V182.766Z" fill="#E0E0E0"/>
<path d="M203.266 182.766H198.498V226.726H203.266V182.766Z" fill="#F4F4F4"/>
<path d="M200.885 182.766H198.498V226.726H200.885V182.766Z" fill="#E0E0E0"/>
<path d="M203.273 216.526H74.8132V221.609H203.273V216.526Z" fill="#F4F4F4"/>
<path d="M109.069 174.685H83.1689V177.683H109.069V174.685Z" fill="#E0E0E0"/>
<path d="M118.348 174.678H109.069V177.676H118.348V174.678Z" fill="#EBEBEB"/>
<path d="M173.5 258C247.815 258 308.06 254.49 308.06 250.161C308.06 245.831 247.815 242.322 173.5 242.322C99.1847 242.322 38.9403 245.831 38.9403 250.161C38.9403 254.49 99.1847 258 173.5 258Z" fill="#F5F5F5"/>
<path d="M151.202 66.2728C151.25 74.479 145.358 74.3959 145.476 71.8128C145.594 69.2298 144.137 63.1634 145.476 63.7521C146.816 64.3407 151.181 62.6441 151.202 66.2728Z" fill="#1A2E35"/>
<path d="M147.496 81.134C148.308 81.0716 149.939 81.8265 150.084 83.9663C150.122 84.5881 150.305 85.1925 150.616 85.7321C150.928 86.2717 151.362 86.7316 151.882 87.0757C151.882 87.0757 149.182 87.4011 147.413 86.0023C145.969 84.8735 145.331 82.4013 146.087 81.8472C146.503 81.5154 146.982 81.2726 147.496 81.134Z" fill="#1A2E35"/>
<path d="M146.434 75.3031C147.822 76.5288 149.092 79.7698 145.962 81.3071C142.832 82.8445 137.912 79.2296 137.912 79.2296L143.318 76.7297L146.434 75.3031Z" fill="#1A2E35"/>
<path d="M147.975 81.4318C147.899 80.983 147.773 80.544 147.6 80.1229C147.587 80.0878 147.567 80.0557 147.541 80.0283C147.516 80.0009 147.485 79.9789 147.451 79.9635C147.416 79.948 147.38 79.9395 147.342 79.9383C147.305 79.9372 147.267 79.9434 147.232 79.9567H147.177L145.254 81.2379C145.223 81.2588 145.197 81.2855 145.176 81.3167C145.155 81.3479 145.141 81.3828 145.134 81.4194C145.127 81.4561 145.127 81.4938 145.135 81.5304C145.142 81.567 145.157 81.6017 145.178 81.6326C145.2 81.6614 145.225 81.687 145.254 81.7088C145.532 81.91 145.829 82.0817 146.143 82.2212C146.594 82.4013 147.531 81.8888 147.85 81.6672C147.89 81.6426 147.922 81.6078 147.944 81.5664C147.966 81.525 147.977 81.4786 147.975 81.4318Z" fill="#407BFF"/>
<path opacity="0.3" d="M147.975 81.4318C147.899 80.983 147.773 80.544 147.6 80.1229C147.587 80.0878 147.567 80.0557 147.541 80.0283C147.516 80.0009 147.485 79.9789 147.451 79.9635C147.416 79.948 147.38 79.9395 147.342 79.9383C147.305 79.9372 147.267 79.9434 147.232 79.9567H147.177L145.254 81.2379C145.223 81.2588 145.197 81.2855 145.176 81.3167C145.155 81.3479 145.141 81.3828 145.134 81.4194C145.127 81.4561 145.127 81.4938 145.135 81.5304C145.142 81.567 145.157 81.6017 145.178 81.6326C145.2 81.6614 145.225 81.687 145.254 81.7088C145.532 81.91 145.829 82.0817 146.143 82.2212C146.594 82.4013 147.531 81.8888 147.85 81.6672C147.89 81.6426 147.922 81.6078 147.944 81.5664C147.966 81.525 147.977 81.4786 147.975 81.4318Z" fill="black"/>
<path d="M127.287 78.0315C126.516 77.7753 124.753 78.1215 124.101 80.1714C123.915 80.7659 123.594 81.3096 123.163 81.76C122.732 82.2104 122.203 82.5555 121.617 82.7683C121.617 82.7683 124.164 83.7239 126.218 82.7683C127.883 82.0134 129.063 79.7559 128.487 79.0357C128.161 78.6217 127.752 78.2798 127.287 78.0315Z" fill="#1A2E35"/>
<path d="M134.934 63.939C132.124 64.7008 128.341 68.0248 130.021 72.1037C128.362 73.2325 126.239 76.4803 128.723 78.5578C131.395 80.7946 137.967 77.6576 137.967 77.6576L138.016 76.5911L138.8 68.655L134.934 63.939Z" fill="#1A2E35"/>
<path d="M126.752 78.2116C126.937 77.7915 127.17 77.3942 127.446 77.0274C127.495 76.9678 127.566 76.93 127.642 76.9222C127.719 76.9144 127.796 76.9373 127.856 76.9859L127.897 77.0274L129.452 78.7241C129.478 78.7504 129.499 78.7817 129.514 78.8162C129.528 78.8506 129.535 78.8876 129.535 78.9249C129.535 78.9622 129.528 78.9991 129.514 79.0336C129.499 79.068 129.478 79.0993 129.452 79.1257C129.43 79.1519 129.401 79.1712 129.369 79.1811C129.053 79.3102 128.725 79.4054 128.39 79.465C127.904 79.5343 127.155 78.821 126.863 78.5302C126.815 78.4945 126.778 78.4449 126.758 78.3881C126.738 78.3312 126.736 78.2697 126.752 78.2116Z" fill="#407BFF"/>
<path opacity="0.3" d="M126.752 78.2116C126.937 77.7915 127.17 77.3942 127.446 77.0274C127.495 76.9678 127.566 76.93 127.642 76.9222C127.719 76.9144 127.796 76.9373 127.856 76.9859L127.897 77.0274L129.452 78.7241C129.478 78.7504 129.499 78.7817 129.514 78.8162C129.528 78.8506 129.535 78.8876 129.535 78.9249C129.535 78.9622 129.528 78.9991 129.514 79.0336C129.499 79.068 129.478 79.0993 129.452 79.1257C129.43 79.1519 129.401 79.1712 129.369 79.1811C129.053 79.3102 128.725 79.4054 128.39 79.465C127.904 79.5343 127.155 78.821 126.863 78.5302C126.815 78.4945 126.778 78.4449 126.758 78.3881C126.738 78.3312 126.736 78.2697 126.752 78.2116Z" fill="black"/>
<path d="M152.042 92.8442C153.367 93.8691 154.818 94.9633 156.275 95.9605C157.732 96.9577 159.197 97.9618 160.703 98.8829C162.209 99.8039 163.735 100.663 165.276 101.48L166.435 102.068L167.615 102.615C168.004 102.802 168.399 102.969 168.802 103.121L169.392 103.363C169.593 103.44 169.808 103.537 169.933 103.571C170.659 103.792 171.401 103.952 172.154 104.049C172.973 104.167 173.833 104.25 174.708 104.312C176.45 104.423 178.24 104.471 180.038 104.478C181.835 104.485 183.653 104.478 185.465 104.423L190.912 104.271L191.253 106.992C187.607 107.725 183.927 108.268 180.225 108.62C178.358 108.786 176.484 108.91 174.569 108.924C173.611 108.924 172.639 108.924 171.64 108.834C170.565 108.772 169.5 108.598 168.462 108.315C168.142 108.232 167.941 108.149 167.705 108.072L167.011 107.83C166.546 107.678 166.088 107.512 165.623 107.325L164.277 106.784L162.958 106.203C161.215 105.42 159.517 104.541 157.871 103.571C156.233 102.609 154.623 101.611 153.069 100.545C151.482 99.4721 149.953 98.3163 148.488 97.0824L152.042 92.8442Z" fill="#FD897B"/>
<path d="M144.838 89.7349C146.566 88.3914 153.679 92.7889 155.845 94.624L154.269 104.132C154.269 104.132 144.033 99.8524 143.415 96.93C142.777 93.8761 143.533 90.7598 144.838 89.7349Z" fill="#1A2E35"/>
<path d="M190.156 104.506L194.445 101.189L194.785 106.32C194.785 106.32 191.829 108.149 189.878 107.013L190.156 104.506Z" fill="#FD897B"/>
<path d="M198.269 100.683L200.462 103.121L194.757 106.32L194.417 101.189L198.269 100.683Z" fill="#FD897B"/>
<path d="M116.786 243.395L122.193 243.797L124.164 231.38L118.764 230.978L116.786 243.395Z" fill="#FD897B"/>
<path d="M78.54 226.041L83.1273 228.922L91.2957 219.254L86.7084 216.367L78.54 226.041Z" fill="#FD897B"/>
<path d="M84.5778 227.89L80.2819 223.576C80.2078 223.502 80.1096 223.457 80.0051 223.449C79.9007 223.442 79.797 223.472 79.7129 223.534L75.8056 226.449C75.6255 226.595 75.5104 226.805 75.4856 227.035C75.4609 227.265 75.5286 227.495 75.6738 227.675L75.7362 227.744C77.2561 229.219 78.0681 229.857 79.9558 231.754C81.1147 232.924 82.6901 234.746 84.2933 236.359C85.8964 237.973 87.5759 236.47 87.0693 235.667C84.7235 232.017 85.1469 230.653 84.9873 228.797C84.9681 228.454 84.8222 228.131 84.5778 227.89Z" fill="#1A2E35"/>
<path d="M122.553 243.021H116.46C116.353 243.021 116.249 243.058 116.167 243.127C116.084 243.195 116.029 243.29 116.009 243.395L115.044 248.201C115.006 248.412 115.052 248.63 115.172 248.807C115.293 248.985 115.479 249.108 115.69 249.15C115.754 249.157 115.82 249.157 115.884 249.15C118.008 249.15 119.042 248.991 121.721 248.991C123.365 248.991 127.967 249.157 130.264 249.157C132.561 249.157 132.79 246.913 131.853 246.712C127.689 245.798 124.823 244.545 123.456 243.34C123.204 243.127 122.883 243.013 122.553 243.021Z" fill="#1A2E35"/>
<path d="M124.164 231.38L123.067 238.277L117.737 237.384L118.757 230.985L124.164 231.38Z" fill="#E77064"/>
<path d="M86.7084 216.373L91.2957 219.254L87.9159 223.257L83.2245 220.494L86.7084 216.373Z" fill="#E77064"/>
<path d="M120.895 118.509L142.506 122.712C153.672 92.5396 151.243 91.5493 151.243 91.5493C149.673 90.6874 148.051 89.9242 146.385 89.264L146.094 89.1532C144.706 88.6477 144.428 88.5715 142.582 88.0313C139.404 87.2765 136.44 86.6463 132.769 86.127L132.075 86.03C131.381 85.9469 130.75 85.8776 130.111 85.8153C129.681 85.7668 129.251 85.7391 128.841 85.7114L127.453 85.6353C125.08 85.5176 123.379 85.5522 123.379 85.5522C124.039 104.395 122.97 109.804 120.895 118.509Z" fill="#1A2E35"/>
<path d="M135.892 75.3031C135.892 78.5717 135.386 84.465 132.762 86.1408C132.762 86.1408 133.005 89.5064 138.869 90.6421C145.324 91.8955 142.575 88.0452 142.575 88.0452C139.223 86.5217 139.799 83.9317 140.91 81.6049L135.892 75.3031Z" fill="#FD897B"/>
<path d="M137.939 77.8723L140.91 81.6049C140.652 82.1454 140.439 82.7059 140.271 83.2807C138.96 82.8237 137.398 80.9955 137.495 79.562C137.538 78.9763 137.688 78.4034 137.939 77.8723Z" fill="#E77064"/>
<path d="M135.58 67.7963C134.886 73.1217 134.463 75.3585 136.6 78.5786C139.813 83.4262 146.517 83.1145 148.801 78.1077C150.883 73.5995 151.66 65.6426 146.906 62.561C146.102 62.0309 145.201 61.6641 144.254 61.4816C143.308 61.2991 142.335 61.3045 141.391 61.4974C140.447 61.6904 139.55 62.0671 138.752 62.606C137.953 63.145 137.269 63.8356 136.739 64.6385C136.114 65.5882 135.718 66.6688 135.58 67.7963Z" fill="#FD897B"/>
<path d="M152.951 59.3616C153.048 60.2061 152.985 61.0614 152.763 61.8823C152.713 61.6037 152.646 61.3285 152.562 61.0582C150.66 54.7841 142.097 56.2799 139.515 58.9807C135.351 57.7896 131.388 58.7383 131.916 63.8283C131.981 65.1396 132.454 66.3981 133.269 67.4293C132.623 69.216 133.269 72.0622 135.399 72.1453C138.398 72.263 141.243 68.3018 142.388 66.1274C144.47 66.4806 147.468 66.8199 149.744 66.2659C150.126 66.4944 150.438 66.6537 150.438 66.6537C152.86 65.3587 154.706 64.1053 152.951 59.3616Z" fill="#1A2E35"/>
<path d="M133.734 71.432C133.65 72.4652 133.977 73.4897 134.643 74.2851C135.545 75.3308 136.725 74.7145 137.148 73.4749C137.502 72.353 137.454 70.4625 136.246 69.8739C136.037 69.7756 135.81 69.7194 135.578 69.7087C135.347 69.6979 135.116 69.7328 134.898 69.8113C134.68 69.8897 134.48 70.0103 134.309 70.166C134.137 70.3217 133.999 70.5095 133.9 70.7187C133.796 70.9425 133.74 71.1853 133.734 71.432Z" fill="#FD897B"/>
<path d="M142.18 122.712C142.18 122.712 142.263 165.523 138.751 181.644C135.101 198.417 124.365 236.574 124.365 236.574L116.592 235.57C116.592 235.57 122.678 197.025 125.267 180.356C128.092 162.192 126.364 119.637 126.364 119.637L142.18 122.712Z" fill="#407BFF"/>
<path opacity="0.3" d="M142.18 122.712C142.18 122.712 142.263 165.523 138.751 181.644C135.101 198.417 124.365 236.574 124.365 236.574L116.592 235.57C116.592 235.57 122.678 197.025 125.267 180.356C128.092 162.192 126.364 119.637 126.364 119.637L142.18 122.712Z" fill="black"/>
<path d="M125.69 237.246L115.26 235.902L115.704 232.218L127.543 233.603L125.69 237.246Z" fill="#1A2E35"/>
<path d="M136.801 121.604C136.801 121.604 125.163 156.984 119.382 177.365C113.289 198.867 89.9285 222.648 89.9285 222.648L83.2314 218.783C83.2314 218.783 99.1934 196.208 105.058 176.146C117.001 135.42 112.095 126.791 120.895 118.509L136.801 121.604Z" fill="#407BFF"/>
<path opacity="0.3" d="M136.801 121.604C136.801 121.604 125.163 156.984 119.382 177.365C113.289 198.867 89.9285 222.648 89.9285 222.648L83.2314 218.783C83.2314 218.783 99.1934 196.208 105.058 176.146C117.001 135.42 112.095 126.791 120.895 118.509L136.801 121.604Z" fill="black"/>
<path d="M91.0181 223.721L81.7115 218.361L84.0295 215.051L94.3632 220.736L91.0181 223.721Z" fill="#1A2E35"/>
<path d="M143.283 70.8226C143.2 71.2519 143.36 71.6397 143.644 71.6951C143.929 71.7505 144.22 71.4458 144.338 71.0026C144.456 70.5594 144.262 70.1786 143.977 70.1232C143.693 70.0678 143.367 70.3932 143.283 70.8226Z" fill="#1A2E35"/>
<path d="M148.134 71.7644C148.051 72.1937 148.211 72.5884 148.495 72.6438C148.78 72.6992 149.071 72.3945 149.155 71.9513C149.238 71.5081 149.078 71.1272 148.794 71.0788C148.509 71.0303 148.218 71.3281 148.134 71.7644Z" fill="#1A2E35"/>
<path d="M148.669 71.0857L149.758 70.9957C149.758 70.9957 149.071 71.6951 148.669 71.0857Z" fill="#1A2E35"/>
<path d="M146.712 72.256C146.903 73.3059 147.24 74.3243 147.711 75.2823C147.462 75.3985 147.191 75.4588 146.916 75.4588C146.642 75.4588 146.37 75.3985 146.122 75.2823L146.712 72.256Z" fill="#FD5652"/>
<path d="M144.303 76.6673C143.723 76.5726 143.175 76.3392 142.705 75.9871C142.235 75.635 141.857 75.1746 141.604 74.6452C141.597 74.6302 141.593 74.614 141.592 74.5975C141.592 74.581 141.594 74.5645 141.6 74.5491C141.606 74.5336 141.615 74.5195 141.626 74.5074C141.638 74.4954 141.651 74.4857 141.666 74.479C141.698 74.4673 141.732 74.4679 141.763 74.4808C141.794 74.4936 141.819 74.5178 141.833 74.5483C142.075 75.0347 142.429 75.4575 142.865 75.7823C143.302 76.1071 143.809 76.3249 144.345 76.418C144.362 76.4205 144.377 76.4263 144.392 76.435C144.406 76.4438 144.418 76.4553 144.428 76.4688C144.438 76.4824 144.445 76.4977 144.448 76.514C144.452 76.5302 144.452 76.5471 144.449 76.5635C144.442 76.5959 144.424 76.6246 144.397 76.6439C144.37 76.6631 144.336 76.6715 144.303 76.6673Z" fill="#1A2E35"/>
<path d="M142.18 68.9805C142.113 68.9772 142.049 68.9491 142.002 68.9018C141.954 68.8544 141.926 68.7912 141.923 68.7243C141.926 68.6536 141.956 68.5868 142.006 68.5373C142.304 68.2584 142.663 68.0544 143.056 67.9424C143.448 67.8304 143.862 67.8135 144.262 67.8933C144.327 67.9127 144.383 67.9567 144.417 68.0161C144.45 68.0756 144.459 68.1458 144.442 68.2118C144.434 68.2437 144.42 68.2737 144.4 68.3001C144.38 68.3264 144.356 68.3486 144.327 68.3653C144.299 68.3821 144.267 68.393 144.235 68.3976C144.202 68.4021 144.169 68.4002 144.137 68.3919C143.819 68.3356 143.492 68.3539 143.183 68.4453C142.873 68.5366 142.589 68.6985 142.353 68.9182C142.306 68.9603 142.243 68.9826 142.18 68.9805Z" fill="#1A2E35"/>
<path d="M150.827 69.9431C150.776 69.9437 150.726 69.9288 150.684 69.9003C150.642 69.8718 150.609 69.8312 150.591 69.7838C150.471 69.4872 150.284 69.2222 150.044 69.0096C149.805 68.797 149.519 68.6425 149.21 68.5581C149.177 68.5522 149.145 68.5399 149.116 68.5217C149.088 68.5036 149.063 68.48 149.044 68.4523C149.025 68.4247 149.011 68.3935 149.004 68.3605C148.996 68.3275 148.996 68.2935 149.002 68.2603C149.015 68.194 149.054 68.1355 149.109 68.0968C149.165 68.0582 149.233 68.0423 149.3 68.0525C149.696 68.1512 150.063 68.3428 150.369 68.6114C150.676 68.8801 150.914 69.2179 151.063 69.5968C151.077 69.6277 151.084 69.6611 151.085 69.6949C151.086 69.7287 151.08 69.7624 151.068 69.7939C151.056 69.8255 151.037 69.8543 151.014 69.8787C150.99 69.9031 150.962 69.9226 150.931 69.9362L150.827 69.9431Z" fill="#1A2E35"/>
<path d="M143.866 74.6175C143.651 74.6183 143.439 74.5693 143.247 74.4744C143.054 74.3794 142.886 74.2412 142.756 74.0704C142.429 73.5625 142.212 72.9928 142.116 72.397C142.021 71.8012 142.049 71.1921 142.201 70.6079C142.596 68.4196 143.97 66.6398 145.268 66.6398C145.484 66.6429 145.696 66.6943 145.89 66.7902C146.083 66.886 146.253 67.024 146.385 67.1938C146.712 67.7018 146.93 68.2715 147.025 68.8673C147.121 69.4631 147.092 70.0722 146.941 70.6564C146.545 72.8447 145.164 74.6175 143.866 74.6175ZM145.254 66.8337C144.04 66.8337 142.735 68.5511 142.353 70.6564C142.11 72.0414 142.305 73.2879 142.874 73.9596C142.989 74.1095 143.137 74.2311 143.307 74.3151C143.476 74.3991 143.663 74.4433 143.852 74.4444C145.074 74.4444 146.372 72.7339 146.753 70.6287C146.901 70.0721 146.93 69.4911 146.841 68.9225C146.751 68.3539 146.544 67.81 146.233 67.3254C146.12 67.1753 145.975 67.053 145.808 66.9677C145.64 66.8825 145.456 66.8367 145.268 66.8337H145.254Z" fill="#F9F9F9"/>
<path d="M149.259 75.31C149.034 75.3068 148.813 75.2528 148.612 75.1521C148.411 75.0513 148.236 74.9064 148.1 74.7283C147.788 74.262 147.577 73.7362 147.48 73.1841C147.384 72.6321 147.403 72.0661 147.537 71.522C147.891 69.486 149.224 67.8378 150.508 67.8378C150.733 67.8438 150.953 67.8997 151.154 68.0015C151.354 68.1034 151.53 68.2485 151.667 68.4265C151.975 68.8927 152.185 69.4174 152.281 69.9678C152.378 70.5182 152.36 71.0826 152.229 71.6258C151.882 73.6687 150.549 75.31 149.259 75.31ZM150.487 68.011C149.279 68.011 148.03 69.5968 147.711 71.5566C147.587 72.0758 147.569 72.6149 147.66 73.1411C147.75 73.6672 147.947 74.1695 148.238 74.6175C148.362 74.7723 148.518 74.8988 148.695 74.9884C148.873 75.0781 149.067 75.1287 149.266 75.1368C150.473 75.1368 151.729 73.5579 152.042 71.5981C152.165 71.0792 152.183 70.5408 152.093 70.0149C152.004 69.489 151.809 68.9865 151.521 68.5373C151.398 68.3811 151.242 68.2533 151.065 68.1625C150.888 68.0717 150.693 68.02 150.494 68.011H150.487Z" fill="#F9F9F9"/>
<path d="M86.174 230.404C85.48 230.404 84.786 229.337 84.3765 228.721C84.3628 228.7 84.3555 228.676 84.3555 228.652C84.3555 228.627 84.3628 228.603 84.3765 228.582C84.3914 228.562 84.4115 228.546 84.4347 228.536C84.458 228.527 84.4834 228.523 84.5084 228.527C84.7305 228.575 86.639 228.991 86.8819 229.642C86.9095 229.714 86.917 229.791 86.9035 229.867C86.89 229.943 86.8562 230.013 86.8055 230.071C86.7403 230.179 86.6471 230.266 86.5359 230.325C86.4246 230.383 86.2996 230.411 86.174 230.404ZM84.7235 228.845C85.2579 229.649 85.7784 230.127 86.1532 230.147C86.2364 230.148 86.3184 230.127 86.3913 230.087C86.4642 230.047 86.5256 229.989 86.5696 229.919C86.593 229.894 86.6088 229.864 86.6149 229.831C86.6211 229.797 86.6174 229.763 86.6043 229.732C86.4793 229.386 85.4869 229.039 84.7235 228.845Z" fill="#407BFF"/>
<path d="M85.0359 228.845C84.8257 228.846 84.6161 228.823 84.4113 228.776C84.3904 228.769 84.3714 228.757 84.3558 228.742C84.3401 228.726 84.3283 228.707 84.321 228.686C84.3073 228.646 84.3073 228.602 84.321 228.562C84.3696 228.52 85.4314 227.474 86.2157 227.474H86.2712C86.3683 227.481 86.463 227.508 86.5491 227.553C86.6352 227.598 86.7107 227.661 86.7709 227.737C86.8416 227.811 86.8855 227.907 86.8956 228.008C86.9057 228.11 86.8813 228.212 86.8264 228.298C86.6043 228.672 85.716 228.845 85.0359 228.845ZM84.7236 228.575C85.3759 228.652 86.4308 228.465 86.6459 228.153C86.6806 228.104 86.7084 228.028 86.6043 227.897C86.5681 227.846 86.5202 227.804 86.4647 227.775C86.4092 227.746 86.3477 227.731 86.2851 227.731C85.6887 227.842 85.1424 228.137 84.7236 228.575Z" fill="#407BFF"/>
<path d="M124.545 243.97C123.971 243.956 123.399 243.887 122.838 243.762C122.811 243.757 122.787 243.743 122.768 243.723C122.75 243.703 122.738 243.678 122.734 243.651C122.731 243.625 122.736 243.598 122.748 243.575C122.761 243.551 122.78 243.532 122.803 243.52C123.06 243.395 125.288 242.287 125.933 242.661C125.992 242.698 126.04 242.75 126.074 242.81C126.108 242.87 126.126 242.938 126.128 243.007C126.135 243.124 126.114 243.241 126.067 243.348C126.02 243.455 125.948 243.55 125.857 243.624C125.471 243.882 125.009 244.004 124.545 243.97ZM123.275 243.596C124.462 243.79 125.357 243.741 125.704 243.444C125.764 243.393 125.811 243.329 125.841 243.256C125.871 243.184 125.883 243.106 125.878 243.028C125.879 243.002 125.873 242.976 125.861 242.953C125.849 242.93 125.831 242.91 125.808 242.896C125.461 242.696 124.226 243.167 123.275 243.589V243.596Z" fill="#407BFF"/>
<path d="M122.873 243.762H122.796C122.776 243.749 122.76 243.73 122.75 243.708C122.74 243.686 122.737 243.661 122.741 243.637C122.741 243.54 123.074 241.338 124.282 241.338H124.386C124.733 241.373 124.83 241.546 124.851 241.691C124.948 242.301 123.601 243.478 122.921 243.769L122.873 243.762ZM124.261 241.574C123.477 241.574 123.13 242.848 123.012 243.402C123.706 242.993 124.629 242.072 124.573 241.705C124.573 241.705 124.573 241.595 124.33 241.574H124.261Z" fill="#407BFF"/>
<path d="M143.818 70.1439L144.907 70.0469C144.907 70.0469 144.22 70.7533 143.818 70.1439Z" fill="#1A2E35"/>
<path d="M139.05 95.2472C130.028 91.8332 127.21 86.7225 127.425 85.6491L128.813 85.7322H129.084C129.43 85.7413 129.776 85.7713 130.118 85.8222C130.757 85.8776 131.416 85.9469 132.082 86.0369L132.776 86.1339C136.088 86.5359 139.368 87.1723 142.589 88.0383C144.061 88.4676 144.546 88.6061 145.365 88.897L146.059 89.1601L146.351 89.2709C147.073 90.8221 146.913 93.9938 139.05 95.2472Z" fill="#FD897B"/>
<path d="M139.05 95.2472C130.028 91.8332 127.21 86.7225 127.425 85.6491L128.813 85.7322H129.084C130.916 88.3291 134.928 91.9163 139.015 92.408C142.305 91.7155 145.407 90.926 145.379 88.897L146.073 89.1601L146.365 89.2709C147.073 90.8221 146.913 93.9938 139.05 95.2472Z" fill="#407BFF"/>
<path opacity="0.3" d="M139.05 95.2472C130.028 91.8332 127.21 86.7225 127.425 85.6491L128.813 85.7322H129.084C130.916 88.3291 134.928 91.9163 139.015 92.408C142.305 91.7155 145.407 90.926 145.379 88.897L146.073 89.1601L146.365 89.2709C147.073 90.8221 146.913 93.9938 139.05 95.2472Z" fill="black"/>
<path d="M120.818 117.179L119.43 118.924C119.326 119.056 119.479 119.243 119.729 119.291L142.395 123.695C142.589 123.737 142.77 123.695 142.804 123.55L143.373 121.659C143.415 121.528 143.269 121.382 143.054 121.341L121.165 117.089C121.105 117.076 121.041 117.077 120.981 117.092C120.921 117.108 120.865 117.138 120.818 117.179Z" fill="#1A2E35"/>
<path d="M123.282 120.191L122.699 120.08C122.581 120.08 122.505 119.984 122.526 119.907L123.289 117.456C123.289 117.38 123.428 117.345 123.539 117.366L124.129 117.477C124.247 117.477 124.323 117.581 124.302 117.65L123.539 120.108C123.512 120.149 123.472 120.18 123.425 120.195C123.379 120.21 123.328 120.209 123.282 120.191Z" fill="#407BFF"/>
<path opacity="0.3" d="M123.282 120.191L122.699 120.08C122.581 120.08 122.505 119.984 122.526 119.907L123.289 117.456C123.289 117.38 123.428 117.345 123.539 117.366L124.129 117.477C124.247 117.477 124.323 117.581 124.302 117.65L123.539 120.108C123.512 120.149 123.472 120.18 123.425 120.195C123.379 120.21 123.328 120.209 123.282 120.191Z" fill="black"/>
<path d="M124.823 93.9107C124.559 95.5519 124.309 97.3732 124.129 99.0768C123.948 100.78 123.789 102.539 123.706 104.312C123.659 105.185 123.632 106.057 123.622 106.93V109.527C123.657 111.223 123.789 112.915 124.018 114.596C124.15 115.171 124.385 115.718 124.712 116.209C125.129 116.882 125.593 117.526 126.1 118.135C127.208 119.448 128.395 120.695 129.653 121.867C130.923 123.086 132.256 124.263 133.623 125.413C134.99 126.562 136.399 127.705 137.787 128.806L136.295 131.105C133.028 129.32 129.905 127.285 126.953 125.018C125.428 123.855 123.99 122.582 122.651 121.209C121.934 120.475 121.278 119.686 120.687 118.848C119.952 117.859 119.43 116.73 119.153 115.531L118.896 114.063C118.806 113.585 118.743 113.107 118.688 112.636C118.549 111.68 118.473 110.732 118.396 109.783C118.252 107.896 118.208 106.003 118.265 104.111C118.32 102.235 118.424 100.365 118.612 98.502C118.799 96.6392 119.035 94.811 119.41 92.8858L124.823 93.9107Z" fill="#FD897B"/>
<path d="M120.215 86.9995C117.244 89.3956 117.952 96.5146 117.952 96.5146L127.946 99.797C127.946 99.797 127.488 91.5908 127.002 88.6408C126.405 85.1298 123.13 84.6381 120.215 86.9995Z" fill="#1A2E35"/>
<path d="M136.565 128.363L141.083 126.687L140.389 130.974C140.389 130.974 137.114 132.151 135.434 130.641L136.565 128.363Z" fill="#FD897B"/>
<path d="M146.462 127.324V130.634L140.389 130.974L141.083 126.687L146.462 127.324Z" fill="#FD897B"/>
<path d="M140.736 123.585L140.153 123.474C140.035 123.474 139.959 123.377 139.98 123.301L140.743 120.849C140.743 120.773 140.882 120.738 141 120.759L141.583 120.87C141.701 120.87 141.777 120.974 141.756 121.043L140.993 123.501C140.972 123.571 140.882 123.612 140.736 123.585Z" fill="#407BFF"/>
<path opacity="0.3" d="M140.736 123.585L140.153 123.474C140.035 123.474 139.959 123.377 139.98 123.301L140.743 120.849C140.743 120.773 140.882 120.738 141 120.759L141.583 120.87C141.701 120.87 141.777 120.974 141.756 121.043L140.993 123.501C140.972 123.571 140.882 123.612 140.736 123.585Z" fill="black"/>
<path d="M132.013 121.881L131.423 121.77C131.305 121.77 131.228 121.673 131.256 121.597L132.02 119.146C132.02 119.069 132.151 119.035 132.269 119.056L132.859 119.166C132.97 119.166 133.054 119.27 133.026 119.34L132.263 121.798C132.242 121.881 132.131 121.916 132.013 121.881Z" fill="#407BFF"/>
<path opacity="0.3" d="M132.013 121.881L131.423 121.77C131.305 121.77 131.228 121.673 131.256 121.597L132.02 119.146C132.02 119.069 132.151 119.035 132.269 119.056L132.859 119.166C132.97 119.166 133.054 119.27 133.026 119.34L132.263 121.798C132.242 121.881 132.131 121.916 132.013 121.881Z" fill="black"/>
<path d="M87.8119 162.261L123.789 240.667C124.614 242.448 126.111 243.832 127.955 244.516C129.799 245.2 131.839 245.128 133.63 244.316L139.341 241.712L271.597 181.291C273.383 180.471 274.772 178.978 275.458 177.139C276.145 175.3 276.074 173.265 275.261 171.478L243.469 102.228L239.305 93.0797C238.478 91.3003 236.98 89.9188 235.137 89.2354C233.294 88.552 231.256 88.622 229.464 89.4302L91.4901 152.448C89.7036 153.269 88.3146 154.761 87.6256 156.599C86.9366 158.437 87.0036 160.472 87.8119 162.261Z" fill="#407BFF"/>
<path opacity="0.1" d="M87.8119 162.261L123.789 240.667C124.614 242.448 126.111 243.832 127.955 244.516C129.799 245.2 131.839 245.128 133.63 244.316L139.341 241.712L271.597 181.291C273.383 180.471 274.772 178.978 275.458 177.139C276.145 175.3 276.074 173.265 275.261 171.478L243.469 102.228L239.305 93.0797C238.478 91.3003 236.98 89.9188 235.137 89.2354C233.294 88.552 231.256 88.622 229.464 89.4302L91.4901 152.448C89.7036 153.269 88.3146 154.761 87.6256 156.599C86.9366 158.437 87.0036 160.472 87.8119 162.261Z" fill="white"/>
<path d="M253.884 124.882L102.416 194.08L120.143 232.715L271.61 163.517L253.884 124.882Z" fill="#407BFF"/>
<path opacity="0.3" d="M253.884 124.882L102.416 194.08L120.143 232.715L271.61 163.517L253.884 124.882Z" fill="white"/>
<path d="M247.612 142.755L151.894 186.484L158.238 200.311L253.956 156.582L247.612 142.755Z" fill="#407BFF"/>
<path opacity="0.8" d="M247.612 142.755L151.894 186.484L158.238 200.311L253.956 156.582L247.612 142.755Z" fill="white"/>
<path d="M248.699 110.802L97.1097 180.631L106.654 201.26L258.243 131.431L248.699 110.802Z" fill="#407BFF"/>
<path opacity="0.3" d="M248.699 110.802L97.1097 180.631L106.654 201.26L258.243 131.431L248.699 110.802Z" fill="black"/>
<path d="M108.382 163.244L139.341 241.685L271.597 181.263C273.383 180.443 274.772 178.95 275.458 177.112C276.145 175.273 276.074 173.237 275.261 171.451L243.469 102.2L112.574 153.639C110.747 154.365 109.281 155.781 108.496 157.58C107.71 159.38 107.67 161.415 108.382 163.244Z" fill="#407BFF"/>
<path d="M283.435 138.45L282.78 138.679L283.864 141.757L284.519 141.527L283.435 138.45Z" fill="#407BFF"/>
<path opacity="0.1" d="M283.435 138.45L282.78 138.679L283.864 141.757L284.519 141.527L283.435 138.45Z" fill="white"/>
<path d="M277.97 122.983L277.315 123.212L281.583 135.339L282.238 135.11L277.97 122.983Z" fill="#407BFF"/>
<path opacity="0.1" d="M277.97 122.983L277.315 123.212L281.583 135.339L282.238 135.11L277.97 122.983Z" fill="white"/>
<path d="M117.591 153.909L260.764 103.737C262.621 103.092 264.659 103.207 266.431 104.057C268.204 104.907 269.567 106.423 270.223 108.273L298.857 189.636C299.504 191.489 299.39 193.523 298.54 195.293C297.689 197.062 296.172 198.424 294.318 199.082L151.146 249.254C149.288 249.895 147.251 249.778 145.478 248.929C143.705 248.08 142.34 246.566 141.68 244.718L113.046 163.355C112.399 161.501 112.514 159.467 113.366 157.697C114.218 155.927 115.737 154.565 117.591 153.909Z" fill="#407BFF"/>
<path opacity="0.1" d="M117.591 153.909L260.764 103.737C262.621 103.092 264.659 103.207 266.431 104.057C268.204 104.907 269.567 106.423 270.223 108.273L298.857 189.636C299.504 191.489 299.39 193.523 298.54 195.293C297.689 197.062 296.172 198.424 294.318 199.082L151.146 249.254C149.288 249.895 147.251 249.778 145.478 248.929C143.705 248.08 142.34 246.566 141.68 244.718L113.046 163.355C112.399 161.501 112.514 159.467 113.366 157.697C114.218 155.927 115.737 154.565 117.591 153.909Z" fill="white"/>
<path d="M281.185 139.409L124.007 194.487L136.463 229.882L293.641 174.803L281.185 139.409Z" fill="#407BFF"/>
<path opacity="0.3" d="M281.185 139.409L124.007 194.487L136.463 229.882L293.641 174.803L281.185 139.409Z" fill="white"/>
<path d="M262.37 122.184L229.879 133.57L231.656 138.62L264.148 127.235L262.37 122.184Z" fill="#407BFF"/>
<path opacity="0.8" d="M262.37 122.184L229.879 133.57L231.656 138.62L264.148 127.235L262.37 122.184Z" fill="white"/>
<path d="M284.139 184.035L258.071 193.17L259 195.81L285.068 186.675L284.139 184.035Z" fill="#407BFF"/>
<path opacity="0.8" d="M284.139 184.035L258.071 193.17L259 195.81L285.068 186.675L284.139 184.035Z" fill="white"/>
<path d="M285.912 189.086L252.321 200.857L253.25 203.496L286.841 191.725L285.912 189.086Z" fill="#407BFF"/>
<path opacity="0.8" d="M285.912 189.086L252.321 200.857L253.25 203.496L286.841 191.725L285.912 189.086Z" fill="white"/>
<path d="M166.137 227.645L149.342 233.531L151.34 239.209L168.136 233.323L166.137 227.645Z" fill="#407BFF"/>
<path opacity="0.8" d="M166.137 227.645L149.342 233.531L151.34 239.209L168.136 233.323L166.137 227.645Z" fill="white"/>
<path d="M255.94 179.013L275.553 172.143C276.587 171.776 277.433 171.016 277.909 170.029C278.385 169.043 278.451 167.908 278.093 166.873C277.725 165.841 276.964 164.996 275.975 164.522C274.986 164.047 273.849 163.981 272.811 164.339L253.192 171.215C252.158 171.582 251.311 172.342 250.836 173.329C250.36 174.316 250.294 175.45 250.652 176.485C251.021 177.517 251.784 178.362 252.775 178.835C253.765 179.309 254.903 179.372 255.94 179.013Z" fill="#407BFF"/>
<path d="M222.344 190.785L241.963 183.909C242.989 183.54 243.829 182.784 244.303 181.804C244.777 180.824 244.846 179.697 244.496 178.667C244.127 177.636 243.365 176.793 242.376 176.319C241.387 175.846 240.251 175.781 239.215 176.139L219.602 183.015C218.569 183.383 217.722 184.142 217.246 185.129C216.77 186.116 216.704 187.25 217.062 188.285C217.437 189.311 218.201 190.148 219.19 190.616C220.178 191.083 221.311 191.144 222.344 190.785Z" fill="#407BFF"/>
<path d="M188.768 202.558L208.387 195.681C209.411 195.31 210.248 194.553 210.719 193.573C211.19 192.593 211.257 191.468 210.907 190.439C210.537 189.409 209.775 188.565 208.787 188.092C207.798 187.619 206.662 187.554 205.625 187.911L185.992 194.76C184.959 195.129 184.114 195.889 183.64 196.876C183.166 197.862 183.101 198.996 183.459 200.03C183.828 201.067 184.594 201.916 185.59 202.39C186.585 202.864 187.728 202.924 188.768 202.558Z" fill="#407BFF"/>
<path d="M155.158 214.331L174.777 207.454C175.804 207.087 176.646 206.331 177.121 205.351C177.596 204.371 177.667 203.243 177.317 202.212C176.948 201.181 176.186 200.338 175.197 199.865C174.208 199.391 173.072 199.326 172.036 199.684L152.416 206.561C151.382 206.928 150.536 207.687 150.06 208.674C149.584 209.661 149.518 210.795 149.876 211.831C150.251 212.856 151.015 213.693 152.003 214.161C152.992 214.629 154.125 214.69 155.158 214.331Z" fill="#407BFF"/>
<g opacity="0.8">
<path d="M255.94 179.013L275.553 172.143C276.587 171.776 277.433 171.016 277.909 170.029C278.385 169.043 278.451 167.908 278.093 166.873C277.725 165.841 276.964 164.996 275.975 164.522C274.986 164.047 273.849 163.981 272.811 164.339L253.192 171.215C252.158 171.582 251.311 172.342 250.836 173.329C250.36 174.316 250.294 175.45 250.652 176.485C251.021 177.517 251.784 178.362 252.775 178.835C253.765 179.309 254.903 179.372 255.94 179.013Z" fill="white"/>
<path d="M222.344 190.785L241.963 183.909C242.989 183.54 243.829 182.784 244.303 181.804C244.777 180.824 244.846 179.697 244.496 178.666C244.127 177.636 243.365 176.793 242.376 176.319C241.387 175.846 240.251 175.781 239.215 176.139L219.602 183.015C218.569 183.383 217.722 184.142 217.246 185.129C216.77 186.116 216.704 187.25 217.062 188.285C217.437 189.311 218.201 190.148 219.19 190.616C220.178 191.083 221.311 191.144 222.344 190.785Z" fill="white"/>
<path d="M188.768 202.558L208.387 195.681C209.411 195.31 210.248 194.553 210.719 193.573C211.19 192.593 211.257 191.468 210.907 190.439C210.537 189.409 209.775 188.565 208.787 188.092C207.798 187.619 206.662 187.554 205.625 187.911L185.992 194.76C184.959 195.129 184.114 195.889 183.64 196.876C183.166 197.862 183.101 198.996 183.459 200.03C183.828 201.067 184.594 201.916 185.59 202.39C186.585 202.864 187.728 202.924 188.768 202.558Z" fill="white"/>
<path d="M155.158 214.331L174.777 207.454C175.804 207.087 176.646 206.331 177.121 205.351C177.596 204.371 177.667 203.243 177.317 202.212C176.948 201.181 176.186 200.338 175.197 199.865C174.208 199.391 173.072 199.326 172.036 199.684L152.416 206.561C151.382 206.928 150.536 207.687 150.06 208.674C149.584 209.661 149.518 210.795 149.876 211.831C150.251 212.856 151.015 213.693 152.003 214.161C152.992 214.629 154.125 214.69 155.158 214.331Z" fill="white"/>
</g>
<path d="M266.135 141.453L248.678 147.57C247.195 148.089 246.415 149.71 246.936 151.189L250.574 161.526C251.094 163.005 252.718 163.784 254.201 163.264L271.658 157.147C273.141 156.627 273.92 155.007 273.4 153.527L269.762 143.191C269.241 141.711 267.617 140.933 266.135 141.453Z" fill="#407BFF"/>
<path opacity="0.3" d="M266.135 141.453L248.678 147.57C247.195 148.089 246.415 149.71 246.936 151.189L250.574 161.526C251.094 163.005 252.718 163.784 254.201 163.264L271.658 157.147C273.141 156.627 273.92 155.007 273.4 153.527L269.762 143.191C269.241 141.711 267.617 140.933 266.135 141.453Z" fill="black"/>
<path d="M160.786 160.661C160.351 159.42 159.674 158.276 158.796 157.296C157.917 156.316 156.853 155.518 155.665 154.948C154.477 154.378 153.189 154.047 151.873 153.975C150.557 153.903 149.239 154.09 147.996 154.526L133.893 159.81L133.713 159.858L133.297 160.031L133.04 160.128C130.763 161.154 128.969 163.016 128.032 165.327C127.095 167.638 127.086 170.22 128.007 172.538C128.928 174.855 130.708 176.73 132.978 177.772C135.247 178.814 137.832 178.943 140.195 178.133L153.548 173.701C153.932 173.615 154.312 173.509 154.686 173.383C154.962 173.286 155.233 173.175 155.498 173.05C157.767 172.013 159.567 170.169 160.545 167.877C161.523 165.586 161.609 163.013 160.786 160.661Z" fill="#407BFF"/>
<path opacity="0.8" d="M160.786 160.661C160.351 159.42 159.674 158.276 158.796 157.296C157.917 156.316 156.853 155.518 155.665 154.948C154.477 154.378 153.189 154.047 151.873 153.975C150.557 153.903 149.239 154.09 147.996 154.526L133.893 159.81L133.713 159.858L133.297 160.031L133.04 160.128C130.763 161.154 128.969 163.016 128.032 165.327C127.095 167.638 127.086 170.22 128.007 172.538C128.928 174.855 130.708 176.73 132.978 177.772C135.247 178.814 137.832 178.943 140.195 178.133L153.548 173.701C153.932 173.615 154.312 173.509 154.686 173.383C154.962 173.286 155.233 173.175 155.498 173.05C157.767 172.013 159.567 170.169 160.545 167.877C161.523 165.586 161.609 163.013 160.786 160.661Z" fill="white"/>
</g>
<defs>
<clipPath id="clip0_918_55432">
<rect width="347" height="258" fill="white"/>
</clipPath>
</defs>
</svg>
